<?xml version="1.0" standalone="no"?>
<!DOCTYPE svg PUBLIC "-//W3C//DTD SVG 20010904//EN"
 "http://www.w3.org/TR/2001/REC-SVG-20010904/DTD/svg10.dtd">
<svg version="1.0" xmlns="http://www.w3.org/2000/svg"
 width="2208.000000pt" height="2208.000000pt" viewBox="0 0 2208.000000 2208.000000"
 preserveAspectRatio="xMidYMid meet">
<metadata>
Created by potrace 1.11, written by Peter Selinger 2001-2013
</metadata>
<g transform="translate(0.000000,2208.000000) scale(0.100000,-0.100000)"
fill="#000000" stroke="none">
<path d="M1375 15060 c-298 -31 -570 -126 -752 -266 -40 -31 -115 -101 -167
-155 -212 -223 -359 -504 -428 -819 -21 -95 -23 -130 -23 -375 0 -380 28 -574
126 -870 92 -277 233 -527 444 -790 334 -417 527 -846 615 -1365 32 -188 38
-507 14 -825 -25 -331 -25 -699 0 -850 49 -305 159 -484 361 -587 157 -80 273
-108 440 -108 133 0 357 40 509 91 272 91 594 285 901 544 155 131 165 138
171 133 3 -3 -2 -43 -10 -89 -49 -263 -89 -686 -75 -785 19 -134 57 -230 129
-326 54 -72 100 -92 193 -86 93 6 164 45 268 148 108 107 190 231 289 435 147
302 262 650 321 970 17 89 23 160 23 275 1 146 0 158 -24 205 -87 173 -318
112 -728 -192 -63 -46 -116 -83 -118 -81 -2 3 10 57 26 122 185 730 508 1427
948 2044 65 91 67 92 75 65 5 -15 13 -343 17 -728 5 -385 14 -745 19 -800 32
-310 61 -467 116 -632 90 -269 228 -435 430 -515 71 -28 92 -32 180 -32 75 0
120 5 180 22 173 50 397 182 645 381 69 56 129 101 133 101 9 0 11 5 -53 -195
-55 -170 -107 -359 -144 -520 -60 -262 -116 -653 -116 -807 0 -274 113 -447
291 -448 71 0 121 18 208 74 225 145 515 546 780 1076 205 412 337 888 358
1290 9 187 -35 310 -156 431 -81 81 -124 97 -211 80 -116 -23 -318 -146 -499
-305 -59 -51 -92 -71 -76 -46 10 17 83 352 104 485 58 354 76 762 47 1010 -32
259 -76 423 -161 600 -147 307 -385 500 -676 551 -111 19 -312 14 -424 -10
-238 -53 -494 -181 -699 -350 l-70 -57 -32 113 c-270 944 -882 1736 -1725
2231 -355 209 -860 400 -1283 487 -224 46 -534 68 -711 50z m586 -625 c587
-68 1317 -365 1817 -737 536 -400 887 -930 1048 -1582 19 -77 34 -150 34 -163
0 -14 -29 -57 -76 -111 -346 -405 -696 -1067 -944 -1787 -98 -286 -189 -635
-226 -870 -8 -55 -18 -103 -22 -106 -4 -3 -52 -37 -107 -76 -376 -263 -724
-448 -980 -524 -70 -21 -100 -24 -240 -24 -149 1 -166 3 -240 28 -104 36 -207
98 -270 161 -98 98 -210 292 -263 456 -50 150 -54 188 -62 580 -8 391 -17 494
-66 743 -84 431 -276 890 -523 1247 -250 363 -338 529 -420 795 -92 301 -128
672 -86 895 67 354 251 652 529 857 135 99 367 188 566 217 128 19 377 19 531
1z m4183 -2155 c377 -96 652 -523 727 -1130 20 -164 16 -445 -9 -650 -37 -293
-96 -611 -151 -818 -9 -31 -33 -57 -134 -144 -342 -297 -618 -480 -777 -517
-73 -17 -160 -13 -210 10 -102 46 -198 173 -263 349 -55 149 -82 287 -122 625
-4 28 -8 311 -11 630 -4 581 -15 910 -35 1125 l-12 115 59 53 c198 180 438
317 619 356 102 21 227 20 319 -4z m1463 -2257 c19 -47 14 -127 -22 -314 -58
-297 -160 -632 -271 -886 -55 -126 -239 -491 -342 -678 -123 -223 -290 -456
-355 -495 -28 -17 -33 -18 -48 -4 -30 27 -69 131 -76 197 -16 179 86 790 193
1145 33 111 111 344 164 492 39 109 44 117 85 143 24 15 101 77 171 137 212
181 391 299 457 300 23 0 31 -7 44 -37z m-3127 -650 c0 -47 -57 -311 -94 -438
-42 -145 -79 -242 -181 -480 -131 -304 -214 -456 -298 -542 -48 -50 -64 -53
-78 -15 -72 188 -90 555 -45 931 14 111 26 204 28 206 2 1 23 13 48 25 25 13
119 73 210 134 184 124 336 206 380 206 26 0 30 -4 30 -27z"/>
<path d="M13223 12795 c-137 -82 -112 -284 42 -335 112 -37 237 58 237 179 0
141 -157 229 -279 156z"/>
<path d="M9120 11630 l0 -1110 155 0 155 0 0 485 0 485 133 0 132 0 43 -132
c24 -73 95 -292 159 -485 l116 -353 168 0 c93 0 169 2 169 4 0 3 -74 228 -165
501 -91 273 -165 502 -165 508 0 7 26 25 58 42 117 61 226 200 268 340 23 78
22 307 -2 399 -40 154 -150 294 -284 359 -133 65 -152 67 -567 67 l-373 0 0
-1110z m772 768 c111 -66 152 -152 145 -307 -5 -118 -32 -186 -96 -244 -71
-64 -127 -77 -331 -77 l-180 0 0 331 0 330 208 -3 c205 -3 207 -3 254 -30z"/>
<path d="M10941 12210 c-87 -21 -213 -99 -267 -166 -65 -82 -125 -217 -165
-369 -22 -82 -24 -109 -23 -320 0 -217 2 -236 27 -330 40 -147 123 -311 195
-383 104 -103 226 -152 381 -152 171 0 320 55 432 159 l64 60 -92 92 -92 92
-35 -27 c-91 -69 -230 -106 -331 -87 -77 14 -135 50 -179 110 -55 75 -75 140
-91 304 l-6 57 435 0 c405 0 435 1 439 18 11 39 6 260 -7 350 -59 391 -258
604 -560 601 -50 -1 -106 -5 -125 -9z m170 -270 c110 -31 209 -210 209 -379
l0 -48 -267 4 c-148 3 -274 6 -281 9 -30 9 14 215 63 299 60 104 162 146 276
115z"/>
<path d="M15617 12210 c-52 -14 -105 -42 -165 -90 l-52 -40 0 50 0 50 -155 0
-155 0 0 -835 0 -835 155 0 155 0 0 636 c0 628 0 637 21 670 22 36 84 83 134
101 122 45 235 1 269 -105 33 -102 36 -168 36 -729 l0 -563 156 0 155 0 -6
358 c-14 759 -22 941 -44 1014 -49 167 -106 244 -219 296 -47 21 -74 27 -152
29 -52 1 -112 -2 -133 -7z"/>
<path d="M14204 12200 c-118 -17 -234 -77 -308 -160 -42 -47 -113 -188 -146
-290 -32 -102 -50 -243 -50 -395 0 -209 21 -326 84 -482 83 -203 203 -317 378
-358 182 -43 370 8 505 138 49 47 73 81 113 161 94 191 126 365 116 631 -7
184 -37 311 -111 461 -58 120 -110 178 -209 234 -85 49 -258 77 -372 60z m199
-298 c116 -62 165 -205 182 -537 7 -141 -7 -235 -55 -367 -41 -113 -75 -159
-141 -192 -90 -44 -192 -31 -260 34 -48 45 -93 141 -115 245 -24 113 -24 437
0 550 19 86 53 170 86 212 70 90 196 112 303 55z"/>
<path d="M12148 12181 c-76 -25 -115 -50 -177 -116 -88 -93 -161 -281 -188
-485 -19 -146 -5 -479 27 -633 49 -233 138 -373 280 -441 61 -29 73 -31 175
-31 128 0 182 19 272 92 l53 43 0 -46 c0 -65 -26 -160 -61 -221 -46 -81 -189
-161 -330 -185 l-67 -12 42 -119 41 -118 55 6 c154 18 288 70 403 158 96 73
155 174 196 339 19 71 20 131 27 922 l7 846 -156 0 -157 0 0 -51 0 -51 -37 32
c-68 60 -136 84 -248 87 -77 2 -113 -1 -157 -16z m259 -257 c61 -21 128 -69
153 -109 19 -30 20 -54 20 -469 l1 -438 -26 -33 c-50 -66 -130 -105 -217 -105
-133 0 -216 121 -254 373 -21 137 -15 440 11 547 49 207 156 287 312 234z"/>
<path d="M13160 11350 l0 -830 155 0 155 0 0 830 0 830 -155 0 -155 0 0 -830z"/>
<path d="M12328 9814 l-148 -74 0 -285 0 -285 -52 40 c-163 123 -412 98 -557
-55 -88 -93 -166 -289 -192 -482 -13 -100 -6 -437 11 -543 47 -280 146 -457
297 -532 57 -28 79 -33 158 -36 132 -6 222 25 308 107 l37 35 0 -57 0 -57 155
0 155 0 0 898 c0 882 -7 1403 -19 1401 -3 0 -72 -34 -153 -75z m-273 -839 c28
-13 69 -43 92 -67 l42 -43 1 -448 1 -449 -25 -33 c-40 -52 -136 -95 -211 -95
-91 0 -142 35 -189 132 -42 86 -62 159 -76 283 -22 198 -8 428 36 566 54 170
175 227 329 154z"/>
<path d="M13668 9814 l-148 -74 0 -286 0 -285 -37 30 c-167 133 -423 114 -572
-44 -87 -91 -163 -282 -192 -476 -18 -124 -6 -473 20 -610 69 -351 216 -509
471 -509 116 0 203 34 288 114 l32 30 0 -57 0 -57 156 0 155 0 -3 953 c-4
1115 -6 1347 -16 1346 -4 0 -73 -34 -154 -75z m-268 -839 c50 -25 89 -58 113
-96 15 -22 17 -77 17 -468 l1 -443 -25 -33 c-39 -51 -136 -95 -208 -95 -32 0
-71 6 -86 14 -38 20 -86 73 -110 122 -61 122 -93 385 -74 618 20 245 72 363
179 402 50 18 133 9 193 -21z"/>
<path d="M21142 9815 l-152 -74 2 -1073 3 -1073 158 -3 157 -3 0 258 0 257 83
127 c45 70 86 127 91 125 4 -1 69 -174 144 -384 l136 -382 154 0 c143 0 154 1
150 18 -3 10 -90 251 -193 537 -103 286 -188 525 -188 530 0 6 77 134 171 286
95 152 172 280 172 283 0 4 -75 5 -167 4 l-167 -3 -109 -195 c-60 -107 -145
-265 -190 -350 l-82 -155 -3 673 c-1 369 -5 672 -10 671 -4 0 -76 -34 -160
-74z"/>
<path d="M9346 9829 c-130 -32 -271 -149 -330 -272 -47 -98 -60 -175 -53 -311
6 -124 35 -219 97 -315 52 -83 204 -218 361 -322 179 -120 288 -222 325 -305
53 -118 41 -282 -28 -359 -105 -120 -319 -104 -471 35 -29 26 -62 64 -72 84
-11 20 -22 36 -26 36 -8 0 -233 -179 -237 -189 -5 -15 99 -150 150 -194 127
-108 268 -157 452 -157 123 0 196 15 279 56 146 73 233 180 287 349 18 57 22
95 23 200 1 187 -33 297 -127 423 -58 76 -208 203 -331 279 -259 162 -345 271
-345 439 0 86 19 133 73 181 52 45 114 59 208 45 101 -14 130 -30 211 -113
l66 -69 111 96 111 96 -33 45 c-68 96 -181 177 -314 225 -46 16 -87 21 -203
24 -80 2 -162 -1 -184 -7z"/>
<path d="M14550 9280 c-52 -5 -126 -18 -165 -30 -61 -19 -192 -80 -234 -108
-10 -8 0 -33 49 -121 34 -61 63 -111 64 -111 2 0 38 16 82 36 101 47 225 70
296 55 68 -15 106 -44 134 -105 21 -45 24 -66 24 -173 l0 -123 -37 15 c-114
43 -292 50 -403 16 -67 -21 -167 -76 -208 -114 -40 -38 -94 -128 -120 -201
-22 -61 -26 -88 -26 -196 -1 -144 11 -205 62 -309 48 -99 117 -172 200 -213
64 -32 71 -33 192 -33 112 0 131 3 180 25 30 13 78 44 107 67 l53 43 0 -55 0
-55 154 0 154 0 6 48 c3 26 7 333 8 682 3 617 2 637 -18 691 -34 96 -81 163
-138 197 -112 68 -228 88 -416 72z m185 -942 l60 -24 5 -170 c5 -162 4 -171
-17 -206 -67 -111 -255 -157 -370 -92 -53 31 -80 75 -99 166 -36 172 20 309
144 349 52 17 212 4 277 -23z"/>
<path d="M15965 9279 c-84 -8 -143 -32 -212 -88 l-53 -41 0 50 0 50 -160 0
-160 0 2 -832 3 -833 158 -3 157 -3 0 637 c0 628 0 637 21 670 23 38 86 85
138 102 19 7 62 12 96 12 53 0 68 -4 102 -29 46 -33 68 -80 89 -189 11 -58 14
-194 14 -633 l0 -559 156 0 156 0 -6 133 c-10 206 -26 758 -27 905 -1 368 -89
568 -279 635 -59 20 -109 25 -195 16z"/>
<path d="M17350 9280 c-90 -7 -153 -34 -213 -89 -24 -23 -47 -41 -51 -41 -3 0
-6 23 -6 50 l0 50 -155 0 -155 0 0 -835 0 -835 155 0 155 0 0 640 0 640 43 47
c56 62 124 93 203 93 76 0 119 -26 152 -90 l22 -44 0 -643 0 -643 145 0 145 0
0 640 0 640 43 47 c110 121 285 127 351 13 20 -34 21 -46 17 -683 l-3 -648
159 3 158 3 7 255 c4 140 8 431 10 645 3 379 2 392 -20 472 -45 163 -89 230
-185 279 -70 36 -137 45 -248 35 -114 -11 -195 -44 -283 -116 l-59 -48 -30 37
c-54 68 -152 120 -242 129 -22 2 -74 1 -115 -3z"/>
<path d="M19210 9280 c-47 -5 -116 -18 -154 -29 -81 -24 -236 -98 -242 -116
-3 -7 23 -62 57 -123 l62 -110 36 23 c102 67 315 101 388 62 84 -45 113 -115
113 -272 0 -56 -2 -104 -6 -107 -3 -3 -28 3 -56 14 -28 10 -89 22 -137 27
-302 28 -516 -110 -585 -376 -19 -71 -21 -223 -5 -309 31 -166 128 -305 259
-368 56 -27 78 -31 162 -34 141 -5 249 31 323 108 16 16 32 30 37 30 4 0 8
-25 8 -55 l0 -55 156 0 156 0 -4 678 c-4 655 -5 679 -25 740 -34 100 -78 165
-139 202 -107 65 -233 87 -404 70z m180 -939 c30 -12 60 -25 67 -29 8 -5 12
-59 14 -179 1 -162 0 -173 -20 -202 -86 -121 -315 -156 -404 -63 -67 70 -96
231 -62 348 19 67 69 122 126 142 54 18 214 8 279 -17z"/>
<path d="M20525 9252 c-33 -16 -78 -45 -99 -65 -21 -21 -40 -37 -42 -37 -2 0
-4 23 -4 50 l0 50 -155 0 -155 0 0 -840 0 -840 155 0 155 0 0 639 0 639 51 46
c67 60 135 81 235 73 39 -4 92 -15 117 -26 l46 -20 10 37 c14 52 61 263 61
272 0 5 -28 18 -62 29 -46 16 -87 21 -157 21 -85 0 -103 -3 -156 -28z"/>
<path d="M10120 9243 c0 -3 32 -121 71 -262 39 -141 75 -269 79 -286 4 -16 30
-111 58 -210 28 -99 96 -341 151 -538 l100 -357 -89 -291 c-50 -160 -90 -293
-90 -295 0 -2 65 -4 144 -4 l145 0 25 83 c13 45 84 287 156 537 73 250 169
583 215 740 209 719 255 878 255 884 0 3 -72 6 -159 6 l-159 0 -136 -547 c-74
-302 -141 -578 -148 -616 -6 -37 -15 -64 -19 -60 -4 5 -12 40 -19 78 -10 65
-80 361 -215 913 l-57 232 -154 0 c-85 0 -154 -3 -154 -7z"/>
</g>
</svg>
