<svg xmlns="http://www.w3.org/2000/svg" viewBox="0 0 69.42 25.36"><defs><style>.cls-1{fill:#fbf6f4;}</style></defs><g id="Layer_2" data-name="Layer 2"><g id="Layer_1-2" data-name="Layer 1"><path class="cls-1" d="M24.32,15.06c-.17-.11-.67-.41-2.3,1.09a15.34,15.34,0,0,0,.54-3.78c0-2.07-.61-3.58-1.81-4.29s-3.09-.39-4.63,1A11.84,11.84,0,0,0,8.71.82C5.89-.27,3.56-.27,2,.82A5.26,5.26,0,0,0,0,5.45a7.59,7.59,0,0,0,1.81,4.89,8.9,8.9,0,0,1,2,6.42c-.15,2-.27,3.79.67,4.69A2.93,2.93,0,0,0,7,22c1.7-.18,3.46-1.65,4.27-2.38,0,0,0,.08,0,.08A19.52,19.52,0,0,0,11,21.84a2.12,2.12,0,0,0,.55,1.76.76.76,0,0,0,.65.08c.47-.14,1.18-.7,1.93-2.6s.89-3.42.63-3.85a.58.58,0,0,0-.37-.24c-.45-.06-1.19.32-2.28,1.19a18.93,18.93,0,0,1,3.3-7.13c0,.42.06.86.06,1.32,0,.25,0,.51,0,.78,0,.46,0,.89,0,1.31,0,2.54.38,4.06,1.18,4.74,1,.87,2.16.58,4.19-1.16l-.08.3a17.85,17.85,0,0,0-.94,4.42c0,.73.18,1.25.64,1.46.89.41,2.17-1.25,3.08-2.94A11.12,11.12,0,0,0,25,16.64,1.71,1.71,0,0,0,24.32,15.06Zm-12,3.74.7-.48c.8-.52,1-.52,1.05-.5s0,.07,0,.16a9.47,9.47,0,0,1-.8,2.66c-.77,1.94-1.18,2-1.18,2s-.26-.49-.26-1.58c0-.15,0-.32,0-.5,0-.43.07-.95.16-1.59Zm-1,0c-1.77,1.27-3.21,2-4.05,2a2.36,2.36,0,0,1-1.77-.62,4.17,4.17,0,0,1-1-3,10.76,10.76,0,0,0-2-6.73A7.31,7.31,0,0,1,1,6.06,4.22,4.22,0,0,1,2.8,2.63c1.41-.93,3.51-.91,6.09.08,3.67,1.42,5.76,3.76,6.4,7.14C13.2,12.06,11.57,16.55,11.31,18.82Zm6,0c-.45-.38-1-1.45-1-4.38,0-.38,0-.8,0-1.25s0-.62,0-.92a19.28,19.28,0,0,0-.13-2.2c1.26-1.2,2.45-1.61,3.45-1.17,1.2.53,2,2.23,2,4.28v.35a18.58,18.58,0,0,1-.58,3.53C18.47,19.38,17.79,19.2,17.33,18.82Zm5.18,1.81c-.87,1.84-1.58,2.73-1.81,2.76a1.31,1.31,0,0,1-.27-1,17.39,17.39,0,0,1,1.14-4.82l.11-.33L22,17c1.48-1.36,1.85-1.26,1.85-1.26a.7.7,0,0,1,.1.43A13.39,13.39,0,0,1,22.51,20.63Z"/><path class="cls-1" d="M32.56,14.3H31.47l-1-3.05h-.81V14.3h-1v-7h2A2,2,0,0,1,32,7.76a1.88,1.88,0,0,1,.59,1.49,1.76,1.76,0,0,1-1.1,1.84Zm-1-5a.9.9,0,0,0-1-1h-.91v2.06h.91A.91.91,0,0,0,31.53,9.28Z"/><path class="cls-1" d="M36.59,11.66a2.84,2.84,0,0,1,0,.34H33.85c0,1,.38,1.49,1,1.49a1.37,1.37,0,0,0,1-.39l.58.61a2,2,0,0,1-1.55.7,1.64,1.64,0,0,1-1.43-.74,3.39,3.39,0,0,1-.5-2,3.46,3.46,0,0,1,.52-2.06,1.64,1.64,0,0,1,2.66,0A3.44,3.44,0,0,1,36.59,11.66Zm-1-.49a1.88,1.88,0,0,0-.25-1,.73.73,0,0,0-.64-.36q-.75,0-.87,1.32Z"/><path class="cls-1" d="M40.54,13.84a2.56,2.56,0,0,1-.47,1.69,2.47,2.47,0,0,1-1.67.69l-.27-.76A2.07,2.07,0,0,0,39.29,15,1.56,1.56,0,0,0,39.58,14v0a1.28,1.28,0,0,1-1,.47c-1.05,0-1.57-.93-1.57-2.79a3.73,3.73,0,0,1,.43-2A1.34,1.34,0,0,1,38.67,9a1.21,1.21,0,0,1,.91.39V9.06h1Zm-1-.81V10.32a.93.93,0,0,0-.83-.47c-.5,0-.76.57-.76,1.72s.27,1.94.81,1.94A.87.87,0,0,0,39.58,13Z"/><path class="cls-1" d="M42.47,7.65a.62.62,0,0,1-.59.59.58.58,0,0,1-.43-.18.57.57,0,0,1-.17-.41.57.57,0,0,1,.17-.42.58.58,0,0,1,.43-.18.54.54,0,0,1,.41.18A.54.54,0,0,1,42.47,7.65Zm-.11,6.65h-1V9.06h1Z"/><path class="cls-1" d="M46.84,11.67a3.38,3.38,0,0,1-.52,2,1.66,1.66,0,0,1-1.4.7,1.57,1.57,0,0,1-1.33-.67,3.38,3.38,0,0,1-.52-2,3.54,3.54,0,0,1,.51-2.06A1.58,1.58,0,0,1,45,9a1.6,1.6,0,0,1,1.36.67A3.43,3.43,0,0,1,46.84,11.67Zm-1,0c0-1.21-.31-1.81-.93-1.81s-.91.6-.91,1.81.31,1.81.92,1.81a.74.74,0,0,0,.68-.49A3,3,0,0,0,45.87,11.68Z"/><path class="cls-1" d="M50.85,14.3h-1V11.07a2.28,2.28,0,0,0-.14-.93.53.53,0,0,0-.51-.28.89.89,0,0,0-.78.48v4h-1V9.06h1v.36a1.24,1.24,0,0,1,1-.47,1.16,1.16,0,0,1,1.05.47,2.79,2.79,0,0,1,.32,1.5Z"/><path class="cls-1" d="M31.78,21.71a1.93,1.93,0,0,1-.5,1.38,1.81,1.81,0,0,1-1.41.53A2.05,2.05,0,0,1,28,22.49l.77-.62a1.37,1.37,0,0,0,1.13.77c.56,0,.84-.29.84-.88a1.14,1.14,0,0,0-.23-.71,4.28,4.28,0,0,0-.94-.77,4.09,4.09,0,0,1-1-.84,2,2,0,0,1-.41-1.28A1.65,1.65,0,0,1,30,16.42a2,2,0,0,1,1.7.95l-.72.63a2,2,0,0,0-.47-.48,1.11,1.11,0,0,0-.54-.12.65.65,0,0,0-.73.73,1,1,0,0,0,.22.66,3.35,3.35,0,0,0,.8.65,4.71,4.71,0,0,1,1.11.91A2.08,2.08,0,0,1,31.78,21.71Z"/><path class="cls-1" d="M35.68,18.27l-2.06,7.09h-.94l.57-1.85-1.46-5.24h1l.61,2.49c.13.5.23,1,.31,1.42.07-.41.18-.89.32-1.43l.62-2.48Z"/><path class="cls-1" d="M39.32,23.51h-1v-.35a1.28,1.28,0,0,1-1,.46c-1,0-1.58-.93-1.58-2.78a3.75,3.75,0,0,1,.43-2,1.36,1.36,0,0,1,1.22-.68,1.19,1.19,0,0,1,.9.38V16.74l1-.49Zm-1-1.26V19.53a1,1,0,0,0-.83-.47c-.5,0-.76.58-.76,1.73s.27,1.93.82,1.93A.88.88,0,0,0,38.36,22.25Z"/><path class="cls-1" d="M43.53,23.51h-1v-.35a1.28,1.28,0,0,1-1,.46c-1.05,0-1.58-.93-1.58-2.78a3.75,3.75,0,0,1,.43-2,1.36,1.36,0,0,1,1.22-.68,1.19,1.19,0,0,1,.9.38V16.74l1-.49Zm-1-1.26V19.53a.94.94,0,0,0-.82-.47c-.51,0-.76.58-.76,1.73s.27,1.93.81,1.93A.88.88,0,0,0,42.57,22.25Z"/><path class="cls-1" d="M47.53,23.51h-1v-.36a1.33,1.33,0,0,1-1.08.47,1.26,1.26,0,0,1-1-.44,1.9,1.9,0,0,1-.43-1.31,1.68,1.68,0,0,1,.48-1.29,1.72,1.72,0,0,1,1.23-.43,1.91,1.91,0,0,1,.8.17v-.51c0-.5-.23-.75-.68-.75a2,2,0,0,0-1,.33l-.41-.73A2.7,2.7,0,0,1,46,18.17a1.7,1.7,0,0,1,1.21.34,1.68,1.68,0,0,1,.36,1.22Zm-1-1.25v-1a1.52,1.52,0,0,0-.79-.2c-.51,0-.76.27-.76.82s.22.91.66.91A.94.94,0,0,0,46.57,22.26Z"/><path class="cls-1" d="M51.79,23.51h-1V20.29a2.14,2.14,0,0,0-.15-.94.52.52,0,0,0-.5-.28.88.88,0,0,0-.78.48v4h-1V18.27h1v.36a1.24,1.24,0,0,1,1-.46,1.16,1.16,0,0,1,1,.47,2.72,2.72,0,0,1,.32,1.49Z"/><path class="cls-1" d="M58.22,23.51h-1V20.29a4.42,4.42,0,0,0,0-.78.49.49,0,0,0-.5-.44.87.87,0,0,0-.78.48v4H55V20.29a4.42,4.42,0,0,0,0-.78.5.5,0,0,0-.51-.44.88.88,0,0,0-.78.48v4h-1V18.27h1v.36a1.19,1.19,0,0,1,1-.46,1.13,1.13,0,0,1,1.06.55,1.54,1.54,0,0,1,1.22-.55,1.09,1.09,0,0,1,1.05.5,3.32,3.32,0,0,1,.26,1.56Z"/><path class="cls-1" d="M62.2,23.51h-1v-.36a1.35,1.35,0,0,1-1.08.47,1.25,1.25,0,0,1-1-.44,1.9,1.9,0,0,1-.43-1.31,1.68,1.68,0,0,1,.48-1.29,1.72,1.72,0,0,1,1.23-.43,1.91,1.91,0,0,1,.8.17v-.51c0-.5-.23-.75-.68-.75a2,2,0,0,0-1,.33l-.41-.73a2.7,2.7,0,0,1,1.51-.49,1.72,1.72,0,0,1,1.21.34,1.68,1.68,0,0,1,.35,1.22Zm-1-1.25v-1a1.52,1.52,0,0,0-.79-.2c-.51,0-.76.27-.76.82s.22.91.66.91A.94.94,0,0,0,61.25,22.26Z"/><path class="cls-1" d="M65.73,18.34l-.23,1a1.3,1.3,0,0,0-.67-.16.88.88,0,0,0-.75.41v4h-1V18.27h1v.36a1.13,1.13,0,0,1,.93-.46A1.47,1.47,0,0,1,65.73,18.34Z"/><path class="cls-1" d="M69.42,23.51h-1l-.87-2.44L67,21.9v1.61H66V16.74l1-.49v3.13c0,.41,0,.78,0,1.13l.43-.81.79-1.43h1.09l-1.13,1.82Z"/></g></g></svg>