<svg id="Layer_4" data-name="Layer 4" xmlns="http://www.w3.org/2000/svg" viewBox="0 0 1199.78 422.91"><defs><style>.cls-1{stroke:#000;}.cls-1,.cls-2{stroke-miterlimit:10;}.cls-2{fill:none;stroke:#1d1d1b;}</style></defs><path d="M1245,869.1c-18.92,2.49-38,3-57.06,2.92-9.88,0-19.75-.17-29.62-.18-9.38,0-18.76.55-28.13.18-18.49-.74-37.25-5.81-55.29-9.67-8.93-1.9-18-2.75-26.94-4.41s-17.76-1.63-26.58-3.52c-8.27-1.77-16.43-3.8-24.47-6.16a81.64,81.64,0,0,0-20.19-11c-2.85-1-6.78-2.59-10.53-3.15A69.26,69.26,0,0,0,959.4,830c-7.18-3.74-15.18-5.64-22.7-8.55-9.38-3.62-18.47-7.95-27.89-11.47a119.1,119.1,0,0,0-26.44-6.35c-10-1.32-19.44-4.58-29.11-7.4-9.2-2.68-18.87-3.16-28.06-5.77-3.86-1.1-7.45-2.91-11.24-4.21-4.4-1.52-9-2.58-13.37-4.08-8.5-2.89-16.69-6.75-25.39-9-8.54-2.23-31.21-6.38-33.67,6.77-1.2,6.42,3.36,12,7.58,16.23,6,6.08,13.53,10,20.7,14.58,15.6,10,30.72,20.79,47.09,29.51,8.35,4.45,17.43,7.36,25.71,11.89,4.42,2.41,9.16,5.72,11.71,10.21a8,8,0,0,1,1,2.57,2.71,2.71,0,0,0-1.07.26c-5.47,2.61-18.49,7.55-17.64,15.32a7.2,7.2,0,0,0,.44,1.84c-.82.4-1.58.78-2.22,1.13-7.24,3.91-15.38,6.49-21.49,12.2-14.6-2.56-28.56-7.18-42.87-12.25-17.62-6.25-38.73-7.32-50.84-23.26-5.37-7.07-9.43-15-15.09-21.91-4.84-5.9-11.36-13.16-18.71-15.9-2.9-1.09-5.57-.81-8.58-.39s-6.32.37-9.26,1.32c-5.39,1.74-5.76,6.48-3,10.87a60.58,60.58,0,0,0,5.44,6.64,117.08,117.08,0,0,1,8.53,12.49c5.23,8.23,10.15,16.7,16.11,24.45.16.19.32.39.47.59a2.44,2.44,0,0,0,0,.27,65.83,65.83,0,0,0-14.19-6.83c-17.12-5.72-31-14.62-43-28.16-5.67-6.39-11.34-12.72-17.86-18.25-4.79-4.07-9.82-8.32-16.15-9.59-4.51-.9-12.87-1.48-16.58,1.95-5.06,4.66-.16,11.29,2.72,15.59,9.57,14.28,21.77,26.43,34.48,37.91a7.19,7.19,0,0,0,.21,1.54,2.22,2.22,0,0,0,3.06,1.41q6.69,6,13.3,12.15l-3.3-1.62c-8.43-4.19-17-8.06-25.41-12.34-8.06-4.11-15.78-8.93-23.91-12.88-11.76-5.7-30.66-8.9-41.3.63a2.27,2.27,0,0,0-.35,2.73c7.12,10.38,20,15.51,30.45,21.88,7.17,4.39,13.43,9.92,19.45,15.75-9.63-.39-19.38,2-26.53,9a2.32,2.32,0,0,0,0,3.19c1.75,2.2,4,2.78,6.67,3.23,4.29.72,8.55,1.56,12.77,2.65,8.54,2.18,16.94,5.11,25.32,7.84,5.57,1.82,11.1,3.74,16.61,5.72A169.67,169.67,0,0,0,657,948.12c14.57,7.43,30.55,11.27,46.43,14.73,18.76,4.07,37.66,9.09,57,9.28a2.26,2.26,0,0,0,2.17-2.85c-1.28-3.41-6.65-4.38-9.74-5.29-7.33-2.14-14.72-3.82-22.2-5.35a434,434,0,0,1-53.06-14.83c-14.61-5-29-10.63-43.54-15.83-.49-.38-1-.75-1.47-1.14h1.2c2.89,0,2.9-4.48,0-4.5-2.17,0-4.72.26-6.8-.49-2.29-.84-2.69-3.11-3-5.3s-3.17-2-4.11-.54l-.11.17c-3.29-3-6.49-6-9.67-9.1,5.75,1.54,10.76,4.13,16,7.07a141.2,141.2,0,0,0,17,8c12.79,5.1,25.36,10.69,38.13,15.84,13.08,5.26,26.5,9.48,39.94,13.72,26.24,8.27,51.69,17.91,79,22.15a616.39,616.39,0,0,0,84.14,7.68c32.87.54,65.39-4,98-6.86h0c.69.05,1.38.07,2.08.08,1.65.15,3.29.3,4.93.48,19.47,2.18,38.31,7.73,57.6,10.93,18.73,3.1,38,2.27,56.91,2.63,19.47.38,38.9,1.58,58.36,2.51,10.77.51,21.67.36,32.41,1.35,10.44,1,20.59,3.7,30.65,6.52,2.8.78,4-3.56,1.2-4.34a206.67,206.67,0,0,0-25.13-5.85c-8.5-1.27-17.05-1.29-25.62-1.61-19.06-.7-38.08-2.07-57.14-2.7-18.88-.63-37.85-.09-56.7-1.33-19.25-1.26-37.9-6.88-56.82-10.28l-.71-.12c2.57-.58,4.94-1.59,6.19-3.56a2.27,2.27,0,0,0-.81-3.07c-4.68-2.41-9.77-2.08-14.89-2.45-6.8-.49-13.56-1.25-20.35-1.8-5.79-.46-11.58-.67-17.3-1.73-3.29-.61-7.07-1.34-10,.62a2.29,2.29,0,0,0-.45,3.53c3.63,4.6,10,6.43,15.72,7.6-23,2.33-46.07,4.81-69.27,5-30.06.23-60.2-2.72-89.89-7.25-28-4.28-54-14-80.93-22.45-13.45-4.24-26.86-8.46-39.94-13.72-5.67-2.29-11.31-4.64-16.95-7,2-.95,1.76-4.5-.81-4.27-1.38.12-2-1.82-3.11-2.48a5.34,5.34,0,0,0-3.78-.59c-1,.16-2.8.6-3.52-.54a13.32,13.32,0,0,1-.18-2.36,31.31,31.31,0,0,0-2.42-6.71,2.17,2.17,0,0,0-1.94-1.11c-3.06.07-5.53,1.8-6,5a6,6,0,0,0,1.17,4.53l-2.35-1c-7.57-3.08-14.33-7.33-21.65-10.89a56.89,56.89,0,0,0-13.29-4.37,8.73,8.73,0,0,0,1.15-1.27c.7-1,1.23-2,2-3a41.48,41.48,0,0,0,3.37-4.1,7.68,7.68,0,0,0,0-8.37,4.84,4.84,0,0,0-5.56-2.21c-2.56.89-3.65,3.81-4,6.26-.29,2.19,0,4.34-.57,6.5-.1.42-.21.83-.32,1.23l-.21-.39c-1.76-3.26-1.23-7.4-1.21-11,0-2.9-4.47-2.9-4.5,0a50.62,50.62,0,0,0,.45,9.53,79.86,79.86,0,0,0-9.07-8.23c-6.15-4.6-12.91-8.4-19.58-12.19-5.3-3-11.09-6.17-15.45-10.6l.13-.11c4.79-5,15.15-3,20,.82a28.43,28.43,0,0,0,2.51,2c1.71,1.06,2.38.36,1,1.77-3.31,3.49-9.15.35-11.9-2-2.19-1.87-5.39,1.3-3.18,3.18,4.42,3.77,9.54,6,15.25,3.75,3.31-1.34,7.86-5.21,4.26-8.81-.89-.88-2.18-1.12-3.2-1.79-1.56-1-2.77-2.49-4.38-3.46l-.14-.08a65.52,65.52,0,0,1,17,6.51c15.39,8.57,31.24,16,47,23.89q7.23,3.62,14.5,7.12l15.5,14.53c7.1,6.66,14.11,12.87,22.69,17.58,8,4.38,16.46,7.66,24.88,11,18.11,7.25,36.15,17.53,56.22,17a2.28,2.28,0,0,0,1.59-3.84c-9.18-10.62-23.28-14.5-35.85-19.54-8.2-3.29-15.69-7.78-23.13-12.5a154.72,154.72,0,0,0-22.32-11.82,9.4,9.4,0,0,0-.13-3,4.73,4.73,0,0,0-6.23-3.65,11.08,11.08,0,0,0-4,2.28q-13.51-5.79-26.79-12c-5.65-5.39-11.33-10.75-17.16-15.95q-4-3.59-8-7.19c1-1,3-1.56,4-2.13,2.44-1.39,5.11-4.12,4.19-7.22-.85-2.87-4.25-3.29-6.75-2.81a8.27,8.27,0,0,0-6.48,5.24c-.93,2.74,3.41,3.92,4.34,1.19.47-1.38,2.47-2.06,3.74-2.13a3.36,3.36,0,0,1,.71,0,3.25,3.25,0,0,1-.74.95c-1.58,1.42-3.83,2-5.55,3.21a8.93,8.93,0,0,0-.81.66,260.83,260.83,0,0,1-21.45-21.52,2.85,2.85,0,0,0,.42,0c2,0,4.34,0,5.65-1.77s1-4.92.57-7a14.82,14.82,0,0,0-4.39-8.37c-1.26-1.1-2.72-1.85-4-3a22.54,22.54,0,0,0-3.16-2.7c-1.77-1.12-4.59-2.43-7-2.29a12.59,12.59,0,0,1,1.33-.18c8.11-.64,13.8,1.51,20,6.58,12.3,10,21.24,23.31,33.62,33.16a88.94,88.94,0,0,0,18.93,11.69c7.62,3.43,16.1,5,23.35,9.17,7,4.07,13.13,9.94,19.36,15.2,2.27,2.68,4.5,5.38,6.62,8.17,5.82,7.62,11.33,15,20.09,19.37,7.62,3.84,15.88,5.52,24.2,6.9,3.62,2.72,7.21,5.5,11,8,5.25,3.35,10.78,4.71,16.85,5.62,3.85.57,9.69,2,13-.74a2.26,2.26,0,0,0-.45-3.53c-9.07-4.39-17.9-9.49-27.82-11.66-3.52-.78-7.07-1.34-10.62-1.91a87,87,0,0,0-19.37-10.78l-.46-.19c.51-.46,1-.94,1.42-1.4,1.31-1.4,2.42-3,3.86-4.3s3.27-1.7,4.77-2.86c2.91-2.23,5.79-13.13-.61-12.31-2.57.33-3.74,3-4.55,5.09-1.5,3.94-3.44,8-6.62,10.84a2.08,2.08,0,0,0-.62,1,5.87,5.87,0,0,1-2.38,1.67l-.93-.54a3.56,3.56,0,0,1-.18-1.34c0-3.47,1.84-6.93,2.67-10.26.69-2.81-3.64-4-4.34-1.2-.51,2-2.07,6.05-2.66,9.8-3.69-2.68-7.16-5.73-10.57-8.71s-6.9-6.13-10.41-9.17q-3.24-3.87-6.54-7.72c-.24-.29-.48-.59-.73-.88h.55c2.89.06,2.89-4.44,0-4.5-.9,0-1.81,0-2.7-.11-.38,0-1.26-.3-1.92-.42l-.08-.1a6.21,6.21,0,0,1,.41-.48,15.93,15.93,0,0,1,2-1.45c2.65-1.75,7.38-4.3,7.11-8.07a2.34,2.34,0,0,0-2.25-2.25c-3.38-.32-6,2-8.07,4.43a2.28,2.28,0,0,0-.18,2.76,19.54,19.54,0,0,0-1.8,1.38c-3.74-5.06-7.23-10.29-10.6-15.69q-1.65-2.64-3.28-5.31a2.22,2.22,0,0,0,.72-.44c1.13-1,3.13-.46,4.31-2.59,1.56-2.83.89-5.3-.3-8.14a42.88,42.88,0,0,0-11.56-15.47c1.3-.09,2.51-.14,3.41-.17,8.45-.3,17,10.66,21.78,16.69,5.75,7.28,9.75,15.87,15.84,22.85a44.83,44.83,0,0,0,19.78,13c8.52,2.88,17.41,4.38,25.92,7.31,9.79,3.38,19.47,7.1,29.39,10.07,20.37,6.1,40.63,6.22,61.68,6.42,12.09.12,24.76,1.89,36.83.45,3.59-.43,9.12-1.17,10.66-5.09,2.93-7.45-9.15-7-13.22-6.88-12.41.29-24.71.29-37.09,1.43-5.23.49-10.5,1-15.7,1.79-5.54.84-10.52,1.79-15.84,1.63a77.67,77.67,0,0,1,9.17-4.71c4-1.85,7.91-3.86,11.78-6a11.09,11.09,0,0,0,4-1.09c5.51-2.57,11.13-7.06,13.45-12.84,5.73-14.27-14.38-23.38-24.47-27.55a215.53,215.53,0,0,1-29.4-15.27.94.94,0,0,0,0-.09c.76-4,4.32-3.83,7.3-5.22a25.3,25.3,0,0,0,6.28-4.33c3.52-3.2,7.47-6.91,7.86-11.86.17-2.23-3.19-3.06-4.2-1.13-1.74,3.35-4.54,4.93-7.2,7.39-.62.58-1.28,1.36-2,2.17a21.41,21.41,0,0,0,2-2.66,26.48,26.48,0,0,0,2.51-10,2.31,2.31,0,0,0-1.65-2.17c-5-1.9-7.26,2.78-8,6.95-.39,2.19-.31,4.52-1,6.65a15.88,15.88,0,0,1-3,5.32c-1,1.06-4.42,4.13-6,4.12a2.35,2.35,0,0,0-.67.1c-4.76-3-9.48-6.13-14.19-9.22-8-5.24-16.39-10-24.2-15.54-5.1-3.6-21.3-17.94-8.73-22.19,17.15-5.8,36.52,6.06,52.38,11.08,8.7,2.75,17.45,6.64,26.42,8.31a268.25,268.25,0,0,1,30.19,6.93c10,3.07,19.87,4.39,30.08,6.28,10.37,1.93,20.16,5.8,29.83,9.9s19.36,7.86,29.29,11.31a57.65,57.65,0,0,1,10.25,4.83c-1.15.91-1.27,3,.21,3.71,4.72,2.19,9.47,4.19,14.26,6,1.33.92,2.67,1.84,4,2.74,16.84,11,37.06,23.14,57.77,23.38,1.83,0,3.14-2.57,1.59-3.84-4.45-3.67-10.38-4-15.75-5.47a49.89,49.89,0,0,1-13.14-5.94c1.18.3,2.35.61,3.54.9,17.72,4.35,35.85,5.51,53.85,8.32,18.32,2.85,36.25,8.18,54.66,10.62,9.57,1.27,19.17,1,28.8.82,9.81-.21,19.63-.05,29.44,0,22.35.17,44.73.06,66.93-2.86C1247.87,873.23,1247.91,868.73,1245,869.1ZM959.26,965.3c5,.78,10.21.86,15.28,1.27,5.49.44,11,1,16.46,1.49,3.82.32,8.35,0,12.36.78-3.5.83-8.56.77-10.42.91a82.39,82.39,0,0,1-9.94.46h0l-.27,0-5.49-.51c-6.94-.63-17.67-1.16-24.18-5.57C955.14,964.24,957.45,965,959.26,965.3ZM648.4,913.43a21.41,21.41,0,0,1,1,2.87C648.48,915.27,647.64,914,648.4,913.43Zm-71.95-3.11a1.92,1.92,0,0,0,.07.89,8.14,8.14,0,0,1-.79-.33Zm9.45,2.59c-1.41-.3-3.41-.47-5.42-.77a7.39,7.39,0,0,1,7.07-1.46,21.09,21.09,0,0,1,2.67.93c.55.2,1.09.43,1.63.67a1.1,1.1,0,0,0,.46.32,2.42,2.42,0,0,0-1.18,1.57Q588.54,913.5,585.9,912.91Zm34.27,10.29.37-.37.93.8Zm46.36,21.5a498.17,498.17,0,0,0,51.8,15.83c8.6,2.05,17.35,3.46,25.9,5.68.28.08.81.2,1.5.37-11.8-1.48-23.42-4.27-35.05-6.78-15.79-3.4-31.8-6.67-46.62-13.29a125.14,125.14,0,0,1-15.51-8.38C654.53,940.35,660.52,942.56,666.53,944.7Zm-49.42-24.84a6.72,6.72,0,0,1-.53.54,2,2,0,0,0-.72,1.38q-8.77-2.87-17.59-5.58l-2-.6a3.59,3.59,0,0,0,1.16-3c-.13-2.6-2.44-3.88-4.59-4.78a21.9,21.9,0,0,0-7.21-1.83,42.39,42.39,0,0,1,16.63-.5c4.85,4.87,9.67,9.79,14.81,14.31Zm-6.44-30.81c.16,1.64-.81,2.83-1.86,4,0-.77,0-1.55.07-2.33C609,889.05,610.31,885.52,610.67,889.05ZM683,914.17c-1.2-1-.68-2.55.22-3.82l1.33.53,2.83,1.14c-.69,2.67-1.77,5.66-1.5,8.44-1.25-.86-2.48-1.77-3.69-2.71C683.57,917.18,684.43,915.41,683,914.17Zm26.47,8.9c6.88,4.35,13.69,8.84,21.08,12.27,11.86,5.5,25.86,8.46,36,17C751.1,951.17,737,943.81,722.76,938c-8.78-3.63-17.79-7-26.25-11.25a18,18,0,0,0-.21-4.57,2.32,2.32,0,0,0-2.77-1.57c-1.86.26-2.94,1-3.12-1.28a15.21,15.21,0,0,1,.89-4.66c.07-.28.15-.57.23-.86A132.25,132.25,0,0,1,709.48,923.07Zm-21.67-16.22c.15.06.22.28.25.59L687,907A1.19,1.19,0,0,1,687.81,906.85ZM679,908.64a8.08,8.08,0,0,0-1.13,5.46c-4.07-3.66-8.07-7.4-12-11.17Q672.38,905.89,679,908.64ZM634.27,862c.06,0,.07.06,0,0Zm-30.15-30.95a10.4,10.4,0,0,1,3.53,6.58c.07.4.16,2.71.24,3.07a17.31,17.31,0,0,0-2.12,0,2.16,2.16,0,0,0-2.16,2.4c-.58-.7-1.18-1.37-1.75-2.07-2.83-3.5-5.56-7.1-8-10.86-.48-.73-1.08-1.53-1.64-2.35,1.82,1.1,5.94,3,5.62,4.86-.51,2.83,3.83,4,4.34,1.2.53-3-.88-5.1-3.18-6.91-.61-.48-1.28-1-2-1.47C599.61,826.93,601.88,829.29,604.12,831.08Zm124.63,80.34c1.5,1.14,3,2.25,4.6,3.28a4.25,4.25,0,0,0,1.23,1.69A47,47,0,0,1,728.75,911.42Zm62.58,28.14c-2.56-.33-5.12-.76-7.64-1.32-4.7-1-8.71-3.45-12.52-6.22A105.83,105.83,0,0,1,791.33,939.56ZM739.1,918c3.83,1.84,7.89,3,11.6,5.12.38.21.74.45,1.11.67-1.72-.4-3.43-.84-5.12-1.38a43,43,0,0,1-11.82-5.81,5.49,5.49,0,0,0,3.21.86C738.42,917.63,738.75,917.83,739.1,918Zm-60.33-73.35a25.25,25.25,0,0,1,3.9,3.79,3.52,3.52,0,0,0-1,.63C680.72,847.58,679.76,846.11,678.77,844.65Zm5.52-2a13.87,13.87,0,0,1,.64,1.6,37.07,37.07,0,0,0-9-7.34c-2.55-1.52-4.14-2.8-4.89-5.78-.25-1-1-3.1.75-3.24.52,0,2.4,2,2.85,2.46C678.38,833.93,682.12,837.86,684.29,842.63Zm192,52.78c5.08-.09,10.19.05,15.26-.15,1.88-.07,10.05,0,4.56,2.08-4.53,1.72-10.14,1.43-14.9,1.32-13.23-.28-26.49-.41-39.72-.75,1-.14,2.06-.28,3.11-.4C855.13,896.32,865.68,895.6,876.28,895.41ZM844,876.12a42.35,42.35,0,0,1,8.33-5.1c-1.89,3.81-6.72,6.84-11.14,9.17C840.59,879.17,843.12,876.82,844,876.12Zm155.59-20.4c-2.69-1.42-5.32-2.92-7.89-4.45l3.07.91C996.36,853.35,998,854.53,999.56,855.72Z" transform="translate(-47.89 -576.86)"/><path d="M555.56,766.7a32.86,32.86,0,0,0,.82-13.2v0a2.45,2.45,0,0,0-.08-.62,65.06,65.06,0,0,0-2.07-9.87c-.86-3-2.33-5.86-2.57-9-.2-2.48.08-4.56-.7-7-.25-.77-.55-1.52-.87-2.26,5.39,4.55,10.82,9.06,16.45,13.25,9,6.73,19.86,11.14,29.79,16.35,11,5.77,22.14,12,33.83,16.18,5.92,2.13,11.51,2.84,17.7,3.62,5.31.67,10.59,2,15.9.62a2.29,2.29,0,0,0,1.65-2.17c.38-9.19-10.65-18.28-16.83-23.55-4.52-3.86-8.9-8-13.67-11.56-3-2.22-5.59-4.12-7.76-7.26a45.45,45.45,0,0,0-4.2-5.72c-4.51-4.74-9.64-7.77-13.18-13.52l-.29-.48a10.41,10.41,0,0,0-2.12-5.94,2.11,2.11,0,0,0-1.91-.62,87.71,87.71,0,0,0-5.25-7.53c-1.57-2-3.22-3.91-4.88-5.81,1.3.89,2.61,1.76,3.92,2.65,4.66,3.14,9.09,7.08,14,9.76,4.53,2.45,9.53,2.25,14.52,2.88a94,94,0,0,0,18.52.53c5.57-.42,12-.43,17.25-2.39,4-1.48,7.84-3.52,11.72-5.26,3-1.35,6.37-3.33,7.05-6.88,1.35-7.15-8.71-12.56-13.87-15.21-4.91-2.51-10-4.82-15.05-6.93-5.86-2.43-12.08-3.71-18-5.9-6.45-2.38-12.66-5.29-18.89-8.16s-13.06-5.21-19.18-8.64c-4.75-2.67-8.92-6.22-13.68-8.88-5.56-3.12-11.47-5.68-16.67-9.4-10.85-7.8-25.3-10.57-38.31-12.65a206.75,206.75,0,0,0-20.94-1.78c-5.26-.31-11.48-2.39-16.67-.66a2.42,2.42,0,0,0-1.51,1.39c-8.35-1-15.94-5.49-23.36-9.33-7.81-4.05-15.22-7.46-23.93-9.08s-16.71-3.3-25.44-3.82c-9.57-.58-18.68-3-28.33-2.7-10.22.27-20.4.69-30.61,1.16-4.47.2-9,.07-13.43.37-4.7.32-9.29,1.08-14,1-4.36-.06-8.08.69-12.37,1.18-5.1.58-10.36.74-15.49,1a87.67,87.67,0,0,1-14.84-.75c-4.78-.58-9.72-.28-14.53-.27-1-.19-2-.37-3-.51-8.33-1.17-16.73-1.8-25.09-2.7-9.08-1-18.05-2.68-27.1-4a316.81,316.81,0,0,0-52-3.36c-17.66.39-35.43.75-53.09.26a240.36,240.36,0,0,1-30.66-2.75c-9.72-1.54-19.4-3.17-29.26-3.39-2.9-.07-2.9,4.43,0,4.5,16.94.38,33.5,4.7,50.41,5.72,16.49,1,33,.4,49.51.29,16.75-.11,33.19-.65,49.87,1.28s33.17,5.05,49.89,6.67c6.33.61,12.77,1.09,19.08,2.15a2.24,2.24,0,0,0,1.14.3h.52a70.47,70.47,0,0,1,8.49,2.06c4.18,1.32,8.23,3.11,12.44,4.35,1.41.42,4,.67,5.7,1.47a7.75,7.75,0,0,1-1.58.78c-7.31.28-14.62.58-21.91,1.09-1.69.12-3.37.3-5,.52-3.14,0-6.27.08-9.4.25-16.46.91-34.17,1.86-49.6,8.09h0l-.05,0a2.64,2.64,0,0,0-.47.25v0c-3.44,1.64-11.68,5.69-8.52,10.64,2.57,4,8.39.67,11.73-.16,8.12-2,16.21-3.92,24.2-6.39,7.35-2.28,14.69-4.61,22.19-6.38a90.21,90.21,0,0,1,9.67-1.69h.26a191.21,191.21,0,0,0,21.4-1c1.21-.14,2.53-.28,3.85-.51,12.62-.47,25.29-1,37.76-2.79,15.73-2.2,31.36-5.69,47.14-7.33a180.5,180.5,0,0,1,49.61,2c7.92,1.45,15.38,4.11,22.95,6.78,7.23,2.55,14.67,4.46,21.94,6.88a119.05,119.05,0,0,1,19,8.39c2.71,2.27,5.86,4.18,8.24,6a143.11,143.11,0,0,0,22.51,14.06c4.11,3.36,8.08,6.92,12.23,10.26l1.4,1.1c-3.32,2.08-6,5-9.3,7.06-2.87,1.84-7.15,2.93-9.06,6-3.13,5,3.58,9.46,8.07,9.16,5.87-.39,8.25-6.25,10.23-10.84.77-1.78,1.79-4.17,3.88-4.73,3.44-.94,4.9,2.19,5.49,4.85s.52,5.29,2.51,7.45,5.14-1,3.18-3.18c-1.33-1.45-1.27-4.2-1.67-6.41,1.68,1.08,3.37,2.14,5.07,3.2,6,3.76,12.26,7.09,18.28,10.82,2,1.22,4.49,2.85,7,3.31,3.95,4.68,8.3,9,12.12,13.77,1.38,1.74,2.65,3.52,3.88,5.32a2.24,2.24,0,0,0-.49,1c-.78,3.28-3.23,5.41-6.62,5.25-1.68-.07-3.49-.75-4.93.4-2.5,2-2.26,6.67-.58,9,2.6,3.6,6.27,2.73,9.44.52a23.66,23.66,0,0,0,4.64-4.24c1.05-1.25,2.06-3.19,3.32-4.62l1.23,1.85a10.31,10.31,0,0,1-1.28,5.31c-2.18,3.05-3,4.71-2.9,8.7.09,2.88,4.59,2.9,4.5,0-.07-2.14-.07-3.49,1.25-5.19a17.6,17.6,0,0,0,1.59-1.85,6.49,6.49,0,0,0,.67-1.67,47,47,0,0,0,7.07,7.34c4.1,3.36,6.28,7.59,9.75,11.44,3.65,4,8.72,7,12.8,10.57,2.9,2.56,5.91,5,8.82,7.53-3.12.74-5.59,3.07-8.83,3.82-4.82-3.6-8.46-9.1-7.94-15.21a2.32,2.32,0,0,0-.07-.76c.32-1.9-2.13-3.78-3.78-2-3.08,3.29-4.71,7.07-2.78,11.42,1.61,3.66,5.46,8.53,9.11,10.33a8.34,8.34,0,0,0,4.3.89h0a33.81,33.81,0,0,0,12.1,4.58,48,48,0,0,1,7,1.54,22.07,22.07,0,0,0,3.9,1.19c.09.3.17.61.23.91-4.56.59-9.28-.72-13.78-1.21A71.76,71.76,0,0,1,628.14,765c-11.78-4.56-22.76-11.38-34.12-16.88-11.18-5.42-21.9-11.27-31.51-19.18q-7.68-6.33-15.37-12.63a8.92,8.92,0,0,0-.66-1.13,2.22,2.22,0,0,0-1.94-1q-7-5.77-14-11.57c-8.36-6.94-16.22-11.83-27.26-13.34-6-.83-11.75-.8-17.73-2.17a124.75,124.75,0,0,0-17.22-2.53c-6.25-.52-12.58-.61-18.86-.51-4.34.07-8.63.63-12.95,1.05,2.93-1.17,5.83-2.41,8.81-3.46s6.36-2,7.78-5a2.3,2.3,0,0,0-.36-2.73c-8.78-6.89-18.17-1.33-27.47,1.33-6.28,1.8-12.84,2.33-19.19,3.82s-12.35,3.92-18.68,5.46a41.11,41.11,0,0,0-7.69,2.75,164,164,0,0,0-23.63,3,10.88,10.88,0,0,0-7.1.75,13.85,13.85,0,0,0-4,2.52c-6.89,2.74-13.93,7.5-14.88,15.21a2.27,2.27,0,0,0,1.65,2.17c4.35,1.68,9.5-.79,13.9-1.53l3.05-.56A18.32,18.32,0,0,0,352.3,710c4.76,1,8.35-.81,11.41-4.13l.2,0c1.89-.36,3.75-.73,5.6-1.15,8.67,6,17.3,12,26.79,16.78a136.72,136.72,0,0,1,17.08,10,184.07,184.07,0,0,0,17.79,10.32c10.84,5.84,23.25,7.05,35.09,9.67,6.35,1.4,12.63,2.9,18.07,6.62a184,184,0,0,1,15.19,12.28c.36.31.7.65,1,1-3.42-2-7.8-3.2-10.9-4-10.44-2.78-28.15-8.82-35.29,2.94-2.81,4.62-2.15,9.68-.07,14.49,2.29,5.29,7.12,6.73,12.1,8.66,6.13,2.38,14.56,4.51,20.92,2.09a7.3,7.3,0,0,0,.48,1.5c-.86-.12-1.72-.24-2.59-.3-2.55-.2-5.11.17-7.66,0a54.34,54.34,0,0,1-11.05-2.33c-12.46-3.57-25.09-8.79-38-10.43a78.19,78.19,0,0,0-11.24-.34c.09-1.37,0-2.77,0-4.21,12-3.36,13.7-23,8-32.17-1.13-1.84-4.26-1.17-4.19,1.13.14,4.54,1.1,9.9-.44,14.27-1.31,3.73-4.68,6.47-6.5,9.94-.21.4-.49,1.61-.86,1.84-.94.58-2.64-.72-3.06-1.9v-2c.26-1.25.86-2.59,1-3.67A26.53,26.53,0,0,0,410,755.56c-.74-2.34-4.53-2-4.42.59.2,5,0,10,.1,15.06,0,0,0,.09,0,.13a6,6,0,0,0,.12,2.45,15.44,15.44,0,0,1-.33,5.13,15.79,15.79,0,0,1-2,4c-6-.61-12-1.46-17.91-2.65-13.6-2.76-26.63-7.07-40.46-8.72-7.26-.87-13.78-3.29-20.71-5.45-7.11-2.21-14.24-4.27-21.26-6.77-13.07-4.66-25.43-10.86-38.23-16.14s-24-13-35.89-19.74c-13.28-7.57-26.5-13.41-41.64-15.86-7.53-1.21-14.76-3.72-22.28-5a208.29,208.29,0,0,0-21-2.6c-16.41-1.15-33,.73-49.43.87-8.11.07-16.22.34-24.3,1-6.81.55-13.73.82-20.35,2.64-2.78.77-1.6,5.11,1.2,4.34,6.81-1.87,14-2.1,21-2.63,8.08-.61,16.19-.82,24.3-.86,15.83-.08,31.73-2,47.55-.86a186.1,186.1,0,0,1,23.41,3.1c7.5,1.48,14.71,3.7,22.28,4.88,15,2.35,28.58,10,41.51,17.54,5.6,3.27,11.12,6.68,16.74,9.91,6.8,3.9,13.88,6.77,21.05,9.91,13.8,6,27.3,12.22,41.67,16.85,7.09,2.29,14.23,4.52,21.35,6.73,7.54,2.35,15.27,2.54,23,4.07,15,3,29.41,7.7,44.71,9.48,1,.11,1.92.2,2.87.29a2.29,2.29,0,0,0,3.07.28c2,.17,4,.28,6,.37a2.44,2.44,0,0,0,4.07.24l.08-.13c1.28,0,2.57,0,3.87,0,8.24-.13,15.6,1.81,23.42,4.16,7.08,2.12,14.18,4.18,21.26,6.27,6.64,1.94,12.47,2.4,19.27,2.71,8.2.37,20,5.14,27.06-1.68,7.77-7.49.78-23.08-5.11-29.52-3.6-3.92-8.28-7-12.33-10.44-4.9-4.16-9.81-7.76-16-9.83-13.36-4.49-28.09-4.48-41-10.34-13.33-6-24.72-15.3-37.76-21.82A115.15,115.15,0,0,1,379,705.64c-1.13-.88-2.28-1.71-3.45-2.53,2-.59,3.92-1.25,5.85-2,5.39-2.16,10.62-4.7,16.23-6.25,5-1.38,10-2.33,15.09-3.3,5.56,2.62,12.5,3.31,18.29,3.84,11.21,1,22.69.38,33.93.38,7.11,0,15.92-2,22.6,1,4.7,2.1,5.44,6.73,6.81,11.17a18.54,18.54,0,0,0,5.41,8.72c6.33,5.81,15.24,7.3,17.8,16.41a96.63,96.63,0,0,0,11.31,24.5C532.86,763.88,550.94,781.42,555.56,766.7ZM670,682.59c.85.51,2.13,1.29,3.41,2.23a21.65,21.65,0,0,1-12.59-.36c-5.46-1.9-13.29-4.35-14.59-10.74a1.92,1.92,0,0,0-2.27-1.59c0-.28,0-.57,0-.85A119.4,119.4,0,0,1,670,682.59Zm-11.17,5.74c-2.14.43-3.7.78-6-.19-2.07-.89-4.85-2.49-6-4.43a15.9,15.9,0,0,1-1-1.93,24.76,24.76,0,0,0,7.31,4.36C655,686.93,656.92,687.68,658.82,688.33Zm-45.5-26a2.27,2.27,0,0,0,0-2.27,13.12,13.12,0,0,0-.81-1.31l3.38,1.51a2.82,2.82,0,0,0-.18.45c-.4,1.69.08,5.51-1.59,6.47-1.31.76-3.14.21-4.47-.66C610.63,665.05,612.39,663.79,613.32,662.36Zm-67-30.46c.81-1.13,2-1.52,2.69-2.92a5.85,5.85,0,0,0,.56-3.58c1.26.4,2.5.81,3.72,1.25-.2,1.2-.43,2.41-.75,3.59-.56,2.13-.64,2.75-2.92,2.58a11.78,11.78,0,0,1-2.63-.52C545.79,631.93,545.88,632.5,546.3,631.9Zm-40.41-13.2c5.54.42,11.08.4,16.61,1,5,.59,10.12,1.43,15.18,2.52a2.1,2.1,0,0,0,2.07,1.55c1.46,0,4,.33,4.91,1.61,1.34,1.78-1,2.64-2,3.66-2.51,2.52-.86,5.65,1.94,7.07,2.62,1.32,7.63,2.07,10.05,0,2-1.7,2.53-5.08,2.93-7.77l.08,0c4,2,7.38,4.72,11.34,7,4.57,2.63,9.4,4.82,13.94,7.51,4.18,2.47,7.9,5.63,12.14,8a107.09,107.09,0,0,0,11.35,5.26,2.36,2.36,0,0,0,.56,3.31,7.4,7.4,0,0,1,1.67,1.63c-1.61,1.79-4,3.56-4,6s3.88,4.13,5.93,4.58c2.54.55,5.44.22,7.3-1.75s1.65-4.41,2-6.79a1.84,1.84,0,0,0,.93-.71,168.62,168.62,0,0,0,18.65,7.4c0,9.75,2.58,18.81,12.35,22.7,4,1.59,7.41-.06,11.45-.45,4.38-.42,9.83,1.32,14,0h0a1.76,1.76,0,0,1-.09.2c-1.6,2.49-7.21,3.72-9.78,5-9.84,4.71-21.25,5-32.07,4.64-3.07-.1-6.05-.47-9.1-.82-2.71-.31-5.75-.13-8.36-1-5.23-1.7-9.77-6.33-14.25-9.38-5.14-3.51-10.35-6.92-15.37-10.56-2.45-6.6-9.23-10.71-14.66-14.69-8.79-6.44-18.53-11.12-28.33-15.79-5.18-2.47-10.57-4.68-15.83-7.12-1.92-1.52-3.86-3-5.85-4.49A212.09,212.09,0,0,0,497,621.27a10.18,10.18,0,0,1-2.69-3.59.45.45,0,0,0,0-.11C498,617.13,502.26,618.43,505.89,618.7ZM231,619c-4.39,1.24-8.84,2.25-13.27,3.31-1.9.46-3.81.88-5.69,1.4-.22.06-4.28,1.63-4.46,1.57a52.59,52.59,0,0,1,6.41-4.2c9.11-3.63,18.66-5.19,28.39-6.11l3-.29C240.64,616.15,235.86,617.65,231,619Zm133.45-19.41c-14.39,2.48-28.94,5.22-43.51,6.22-5.17.36-10.35.6-15.53.82a2.12,2.12,0,0,0-.21-1.78c-2.31-3.07-6.25-3.51-9.72-4.53-1.44-.42-2.86-.87-4.27-1.33a76.11,76.11,0,0,0,11.31.28c5.15-.22,10.36-.48,15.49-1,4.21-.39,8.09-1.24,12.37-1.18,4.73.08,9.32-.68,14-1,4.47-.3,9-.17,13.43-.37,10.21-.47,20.39-.89,30.61-1.16,6.68-.19,13.14.91,19.66,1.79A213,213,0,0,0,364.49,599.61Zm84.77,4.13a121.61,121.61,0,0,0-15.44-4.28c3.59.64,7.17,1.38,10.77,2.16a58.57,58.57,0,0,1,13.42,5C455.08,605.69,452.15,604.75,449.26,603.74Zm77.16,70.32c-2.34-3.06,5.5-5.68,7.33-7,.82-.59,1.6-1.21,2.38-1.85C533.79,670,529.74,678.41,526.42,674.06Zm29-11.45c-4.39-2.84-8.52-6-12.57-9.17,6.38,3,12.69,6.12,18.76,9.61,3,1.75,5.91,3.68,8.75,5.7a2,2,0,0,0,.34,2.61c.33.34.67.65,1,1C566.26,669.17,560.77,666.06,555.44,662.61Zm40.36,50.68c-.57.55-1.76,1.94-2.56,2.06-.68.7-1.32.43-1.9-.81-1-.34-1.4-.77-1.37-1.29,2.18.14,4.15.39,6.17-.31C596,713.06,595.92,713.18,595.8,713.29Zm57.8,49.87a45.7,45.7,0,0,1-10.21-2.54l1-.51c4.71-2.31,8-1.37,11.17,2.65a18.13,18.13,0,0,0,1.37,1.41A20.15,20.15,0,0,0,653.6,763.16Zm-231.29,5.65a12,12,0,0,1-3.55,4.81C419.81,771.92,421.13,770.41,422.31,768.81Zm-14.12,14.58a20.13,20.13,0,0,0,1.64-4.44,5.64,5.64,0,0,0,3,.77,19.6,19.6,0,0,1-.06,3.91c-1.25,0-2.5-.06-3.75-.16Zm57.47,5c-3.5-1.34-6.23-2.61-7.61-6.37s-1.64-7.79,1.41-11c6-6.36,18.5-1.86,25.75-.12,4.27,1,8.7,2.08,12.52,4.33l.74.46c-6.64,1.57-6.2,13.62-12.73,15.65C478.62,793.53,472.22,790.87,465.66,788.37Zm28.45,1c.48-1,.87-2,1.27-3a2.35,2.35,0,0,0,2.79-.12c1.71-1.33,4.37-2.86,6-4.79A9.65,9.65,0,0,1,506,783c2.05,2.35-.54,7.82-2.12,10.26a11.26,11.26,0,0,1-5.44,4.37c-2.24.73-6.68-.28-6.82-3.44a2.22,2.22,0,0,0-.35-1.13A13,13,0,0,0,494.11,789.35ZM506.73,797l0,0a17.86,17.86,0,0,0,2.66-5.19,7.42,7.42,0,0,1-1.85,4.55A4.3,4.3,0,0,1,506.73,797Zm45-41.57c-.29,3.63-1.37,9.85-5,5.54a14.9,14.9,0,0,1-.77-2.81c-.6-1.68-1.55-3.18-2.12-4.88-1.12-3.32-2.06-6.6-3.26-9.89-.95-2.6-1.55-4.95,1.49-6.35,1.39-.64,3.29-.51,4.8-.52a2.35,2.35,0,0,0,.67-.11,19.83,19.83,0,0,0,.7,3.08A69.51,69.51,0,0,1,551.78,755.43ZM427.67,679.16c6.08-1.91,13.83-6.29,20.06-3.24-2,1.33-5.16,1.82-7.07,2.61-5.17,2.16-10.28,4.17-15.64,5.82-1.6.5-3.22.92-4.85,1.3l-8.54.13a2.39,2.39,0,0,0-2.63,0c-3.49.08-7,.18-10.46.32,1.85-.67,3.69-1.36,5.58-1.94C411.8,681.84,420,681.58,427.67,679.16Zm-77.88,25-.4.06c-2.18-1.26-3.78-3.29-2.63-6a4,4,0,0,1,.59-.94,72.4,72.4,0,0,1,9-2.43c2.29,1,4.56,3.59,6.6,5.24-.51.57-1,1.15-1.57,1.73C357.51,702.6,353.65,703.41,349.79,704.14Zm12.38-10.41c2.91-.5,5.84-.91,8.79-1.25a43.63,43.63,0,0,0-4.84,4.21C364.78,695.74,363.46,694.76,362.17,693.73ZM335,706.9c1-3.08,3.64-5.42,6.87-7.22a7.83,7.83,0,0,0,.08,1.52,8.17,8.17,0,0,0,1.75,3.95l-1.06.18C340.44,705.72,337.5,706.89,335,706.9Zm35.64-7.14-.75-.5a47,47,0,0,1,11.1-7.69c5-.37,10-.64,14.95-.93l-1.23.36C386.44,693.55,378.89,697.45,370.62,699.76Zm101.93-8.68c-10.08.54-20.25.19-30.34.18a98.82,98.82,0,0,1-16.12-1l-.73-.12c3.78,0,7.56-.09,11.34-.28,5.76-.29,11.33-1.34,17.13-1.31a182,182,0,0,1,19,.93c2.81.31,5.55.82,8.28,1.37C478.22,690.72,475.33,690.93,472.55,691.08Zm73.29,75.84A32.45,32.45,0,0,1,537,760.8c-6.09-6-9.76-15.19-13-22.95-1.38-3.3-2-6.91-3.45-10.14-.1-.22-.22-.42-.33-.63a11,11,0,0,0,5.45-6,2.26,2.26,0,0,0-3.54-2.72c-1.75,1.46-5.49.55-7.6.48a2,2,0,0,0-1.64.67,13.36,13.36,0,0,1-3.14-3.43c-1.74-3.38-.69-8.12-6-8-2.9.05-2.9,4.55,0,4.5.36,0,.77,1,1.19,2.3a15.47,15.47,0,0,1-6.31-8.16c-1.89-5.79-3.07-11.23-9.12-14-.16-.08-.33-.14-.5-.21l1.06.19c5.94,1.05,11.88.55,17.77,2.1,11.85,3.12,20.11,11.55,29.35,19.15,2.11,1.73,4.21,3.5,6.3,5.27.92,2.17,1.36,4.79,2.24,6.89a20.72,20.72,0,0,1,1.35,6h-.17c-4.52,0-10.79.92-11.72,6.34-.59,3.47,1.45,6.76,2.58,9.89,1.27,3.56,2.21,7.08,3.64,10.59,1.88,4.58,2.7,9,9.13,7.48l.32-.1C549.39,768.55,548,767.9,545.84,766.92Z" transform="translate(-47.89 -576.86)"/><path class="cls-1" d="M1245,869.1c-18.92,2.49-38,3-57.06,2.92-9.88,0-19.75-.17-29.62-.18-9.38,0-18.76.55-28.13.18-18.49-.74-37.25-5.81-55.29-9.67-8.93-1.9-18-2.75-26.94-4.41s-17.76-1.63-26.58-3.52c-8.27-1.77-16.43-3.8-24.47-6.16a81.64,81.64,0,0,0-20.19-11c-2.85-1-6.78-2.59-10.53-3.15A69.26,69.26,0,0,0,959.4,830c-7.18-3.74-15.18-5.64-22.7-8.55-9.38-3.62-18.47-7.95-27.89-11.47a119.1,119.1,0,0,0-26.44-6.35c-10-1.32-19.44-4.58-29.11-7.4-9.2-2.68-18.87-3.16-28.06-5.77-3.86-1.1-7.45-2.91-11.24-4.21-4.4-1.52-9-2.58-13.37-4.08-8.5-2.89-16.69-6.75-25.39-9-8.54-2.23-31.21-6.38-33.67,6.77-1.2,6.42,3.36,12,7.58,16.23,6,6.08,13.53,10,20.7,14.58,15.6,10,30.72,20.79,47.09,29.51,8.35,4.45,17.43,7.36,25.71,11.89,4.42,2.41,9.16,5.72,11.71,10.21a8,8,0,0,1,1,2.57,2.71,2.71,0,0,0-1.07.26c-5.47,2.61-18.49,7.55-17.64,15.32a7.2,7.2,0,0,0,.44,1.84c-.82.4-1.58.78-2.22,1.13-7.24,3.91-15.38,6.49-21.49,12.2-14.6-2.56-28.56-7.18-42.87-12.25-17.62-6.25-38.73-7.32-50.84-23.26-5.37-7.07-9.43-15-15.09-21.91-4.84-5.9-11.36-13.16-18.71-15.9-2.9-1.09-5.57-.81-8.58-.39s-6.32.37-9.26,1.32c-5.39,1.74-5.76,6.48-3,10.87a60.58,60.58,0,0,0,5.44,6.64,117.08,117.08,0,0,1,8.53,12.49c5.23,8.23,10.15,16.7,16.11,24.45.16.19.32.39.47.59a2.44,2.44,0,0,0,0,.27,65.83,65.83,0,0,0-14.19-6.83c-17.12-5.72-31-14.62-43-28.16-5.67-6.39-11.34-12.72-17.86-18.25-4.79-4.07-9.82-8.32-16.15-9.59-4.51-.9-12.87-1.48-16.58,1.95-5.06,4.66-.16,11.29,2.72,15.59,9.57,14.28,21.77,26.43,34.48,37.91a7.19,7.19,0,0,0,.21,1.54,2.22,2.22,0,0,0,3.06,1.41q6.69,6,13.3,12.15l-3.3-1.62c-8.43-4.19-17-8.06-25.41-12.34-8.06-4.11-15.78-8.93-23.91-12.88-11.76-5.7-30.66-8.9-41.3.63a2.27,2.27,0,0,0-.35,2.73c7.12,10.38,20,15.51,30.45,21.88,7.17,4.39,13.43,9.92,19.45,15.75-9.63-.39-19.38,2-26.53,9a2.32,2.32,0,0,0,0,3.19c1.75,2.2,4,2.78,6.67,3.23,4.29.72,8.55,1.56,12.77,2.65,8.54,2.18,16.94,5.11,25.32,7.84,5.57,1.82,11.1,3.74,16.61,5.72A169.67,169.67,0,0,0,657,948.12c14.57,7.43,30.55,11.27,46.43,14.73,18.76,4.07,37.66,9.09,57,9.28a2.26,2.26,0,0,0,2.17-2.85c-1.28-3.41-6.65-4.38-9.74-5.29-7.33-2.14-14.72-3.82-22.2-5.35a434,434,0,0,1-53.06-14.83c-14.61-5-29-10.63-43.54-15.83-.49-.38-1-.75-1.47-1.14h1.2c2.89,0,2.9-4.48,0-4.5-2.17,0-4.72.26-6.8-.49-2.29-.84-2.69-3.11-3-5.3s-3.17-2-4.11-.54l-.11.17c-3.29-3-6.49-6-9.67-9.1,5.75,1.54,10.76,4.13,16,7.07a141.2,141.2,0,0,0,17,8c12.79,5.1,25.36,10.69,38.13,15.84,13.08,5.26,26.5,9.48,39.94,13.72,26.24,8.27,51.69,17.91,79,22.15a616.39,616.39,0,0,0,84.14,7.68c32.87.54,65.39-4,98-6.86h0c.69.05,1.38.07,2.08.08,1.65.15,3.29.3,4.93.48,19.47,2.18,38.31,7.73,57.6,10.93,18.73,3.1,38,2.27,56.91,2.63,19.47.38,38.9,1.58,58.36,2.51,10.77.51,21.67.36,32.41,1.35,10.44,1,20.59,3.7,30.65,6.52,2.8.78,4-3.56,1.2-4.34a206.67,206.67,0,0,0-25.13-5.85c-8.5-1.27-17.05-1.29-25.62-1.61-19.06-.7-38.08-2.07-57.14-2.7-18.88-.63-37.85-.09-56.7-1.33-19.25-1.26-37.9-6.88-56.82-10.28l-.71-.12c2.57-.58,4.94-1.59,6.19-3.56a2.27,2.27,0,0,0-.81-3.07c-4.68-2.41-9.77-2.08-14.89-2.45-6.8-.49-13.56-1.25-20.35-1.8-5.79-.46-11.58-.67-17.3-1.73-3.29-.61-7.07-1.34-10,.62a2.29,2.29,0,0,0-.45,3.53c3.63,4.6,10,6.43,15.72,7.6-23,2.33-46.07,4.81-69.27,5-30.06.23-60.2-2.72-89.89-7.25-28-4.28-54-14-80.93-22.45-13.45-4.24-26.86-8.46-39.94-13.72-5.67-2.29-11.31-4.64-16.95-7,2-.95,1.76-4.5-.81-4.27-1.38.12-2-1.82-3.11-2.48a5.34,5.34,0,0,0-3.78-.59c-1,.16-2.8.6-3.52-.54a13.32,13.32,0,0,1-.18-2.36,31.31,31.31,0,0,0-2.42-6.71,2.17,2.17,0,0,0-1.94-1.11c-3.06.07-5.53,1.8-6,5a6,6,0,0,0,1.17,4.53l-2.35-1c-7.57-3.08-14.33-7.33-21.65-10.89a56.89,56.89,0,0,0-13.29-4.37,8.73,8.73,0,0,0,1.15-1.27c.7-1,1.23-2,2-3a41.48,41.48,0,0,0,3.37-4.1,7.68,7.68,0,0,0,0-8.37,4.84,4.84,0,0,0-5.56-2.21c-2.56.89-3.65,3.81-4,6.26-.29,2.19,0,4.34-.57,6.5-.1.42-.21.83-.32,1.23l-.21-.39c-1.76-3.26-1.23-7.4-1.21-11,0-2.9-4.47-2.9-4.5,0a50.62,50.62,0,0,0,.45,9.53,79.86,79.86,0,0,0-9.07-8.23c-6.15-4.6-12.91-8.4-19.58-12.19-5.3-3-11.09-6.17-15.45-10.6l.13-.11c4.79-5,15.15-3,20,.82a28.43,28.43,0,0,0,2.51,2c1.71,1.06,2.38.36,1,1.77-3.31,3.49-9.15.35-11.9-2-2.19-1.87-5.39,1.3-3.18,3.18,4.42,3.77,9.54,6,15.25,3.75,3.31-1.34,7.86-5.21,4.26-8.81-.89-.88-2.18-1.12-3.2-1.79-1.56-1-2.77-2.49-4.38-3.46l-.14-.08a65.52,65.52,0,0,1,17,6.51c15.39,8.57,31.24,16,47,23.89q7.23,3.62,14.5,7.12l15.5,14.53c7.1,6.66,14.11,12.87,22.69,17.58,8,4.38,16.46,7.66,24.88,11,18.11,7.25,36.15,17.53,56.22,17a2.28,2.28,0,0,0,1.59-3.84c-9.18-10.62-23.28-14.5-35.85-19.54-8.2-3.29-15.69-7.78-23.13-12.5a154.72,154.72,0,0,0-22.32-11.82,9.4,9.4,0,0,0-.13-3,4.73,4.73,0,0,0-6.23-3.65,11.08,11.08,0,0,0-4,2.28q-13.51-5.79-26.79-12c-5.65-5.39-11.33-10.75-17.16-15.95q-4-3.59-8-7.19c1-1,3-1.56,4-2.13,2.44-1.39,5.11-4.12,4.19-7.22-.85-2.87-4.25-3.29-6.75-2.81a8.27,8.27,0,0,0-6.48,5.24c-.93,2.74,3.41,3.92,4.34,1.19.47-1.38,2.47-2.06,3.74-2.13a3.36,3.36,0,0,1,.71,0,3.25,3.25,0,0,1-.74.95c-1.58,1.42-3.83,2-5.55,3.21a8.93,8.93,0,0,0-.81.66,260.83,260.83,0,0,1-21.45-21.52,2.85,2.85,0,0,0,.42,0c2,0,4.34,0,5.65-1.77s1-4.92.57-7a14.82,14.82,0,0,0-4.39-8.37c-1.26-1.1-2.72-1.85-4-3a22.54,22.54,0,0,0-3.16-2.7c-1.77-1.12-4.59-2.43-7-2.29a12.59,12.59,0,0,1,1.33-.18c8.11-.64,13.8,1.51,20,6.58,12.3,10,21.24,23.31,33.62,33.16a88.94,88.94,0,0,0,18.93,11.69c7.62,3.43,16.1,5,23.35,9.17,7,4.07,13.13,9.94,19.36,15.2,2.27,2.68,4.5,5.38,6.62,8.17,5.82,7.62,11.33,15,20.09,19.37,7.62,3.84,15.88,5.52,24.2,6.9,3.62,2.72,7.21,5.5,11,8,5.25,3.35,10.78,4.71,16.85,5.62,3.85.57,9.69,2,13-.74a2.26,2.26,0,0,0-.45-3.53c-9.07-4.39-17.9-9.49-27.82-11.66-3.52-.78-7.07-1.34-10.62-1.91a87,87,0,0,0-19.37-10.78l-.46-.19c.51-.46,1-.94,1.42-1.4,1.31-1.4,2.42-3,3.86-4.3s3.27-1.7,4.77-2.86c2.91-2.23,5.79-13.13-.61-12.31-2.57.33-3.74,3-4.55,5.09-1.5,3.94-3.44,8-6.62,10.84a2.08,2.08,0,0,0-.62,1,5.87,5.87,0,0,1-2.38,1.67l-.93-.54a3.56,3.56,0,0,1-.18-1.34c0-3.47,1.84-6.93,2.67-10.26.69-2.81-3.64-4-4.34-1.2-.51,2-2.07,6.05-2.66,9.8-3.69-2.68-7.16-5.73-10.57-8.71s-6.9-6.13-10.41-9.17q-3.24-3.87-6.54-7.72c-.24-.29-.48-.59-.73-.88h.55c2.89.06,2.89-4.44,0-4.5-.9,0-1.81,0-2.7-.11-.38,0-1.26-.3-1.92-.42l-.08-.1a6.21,6.21,0,0,1,.41-.48,15.93,15.93,0,0,1,2-1.45c2.65-1.75,7.38-4.3,7.11-8.07a2.34,2.34,0,0,0-2.25-2.25c-3.38-.32-6,2-8.07,4.43a2.28,2.28,0,0,0-.18,2.76,19.54,19.54,0,0,0-1.8,1.38c-3.74-5.06-7.23-10.29-10.6-15.69q-1.65-2.64-3.28-5.31a2.22,2.22,0,0,0,.72-.44c1.13-1,3.13-.46,4.31-2.59,1.56-2.83.89-5.3-.3-8.14a42.88,42.88,0,0,0-11.56-15.47c1.3-.09,2.51-.14,3.41-.17,8.45-.3,17,10.66,21.78,16.69,5.75,7.28,9.75,15.87,15.84,22.85a44.83,44.83,0,0,0,19.78,13c8.52,2.88,17.41,4.38,25.92,7.31,9.79,3.38,19.47,7.1,29.39,10.07,20.37,6.1,40.63,6.22,61.68,6.42,12.09.12,24.76,1.89,36.83.45,3.59-.43,9.12-1.17,10.66-5.09,2.93-7.45-9.15-7-13.22-6.88-12.41.29-24.71.29-37.09,1.43-5.23.49-10.5,1-15.7,1.79-5.54.84-10.52,1.79-15.84,1.63a77.67,77.67,0,0,1,9.17-4.71c4-1.85,7.91-3.86,11.78-6a11.09,11.09,0,0,0,4-1.09c5.51-2.57,11.13-7.06,13.45-12.84,5.73-14.27-14.38-23.38-24.47-27.55a215.53,215.53,0,0,1-29.4-15.27.94.94,0,0,0,0-.09c.76-4,4.32-3.83,7.3-5.22a25.3,25.3,0,0,0,6.28-4.33c3.52-3.2,7.47-6.91,7.86-11.86.17-2.23-3.19-3.06-4.2-1.13-1.74,3.35-4.54,4.93-7.2,7.39-.62.58-1.28,1.36-2,2.17a21.41,21.41,0,0,0,2-2.66,26.48,26.48,0,0,0,2.51-10,2.31,2.31,0,0,0-1.65-2.17c-5-1.9-7.26,2.78-8,6.95-.39,2.19-.31,4.52-1,6.65a15.88,15.88,0,0,1-3,5.32c-1,1.06-4.42,4.13-6,4.12a2.35,2.35,0,0,0-.67.1c-4.76-3-9.48-6.13-14.19-9.22-8-5.24-16.39-10-24.2-15.54-5.1-3.6-21.3-17.94-8.73-22.19,17.15-5.8,36.52,6.06,52.38,11.08,8.7,2.75,17.45,6.64,26.42,8.31a268.25,268.25,0,0,1,30.19,6.93c10,3.07,19.87,4.39,30.08,6.28,10.37,1.93,20.16,5.8,29.83,9.9s19.36,7.86,29.29,11.31a57.65,57.65,0,0,1,10.25,4.83c-1.15.91-1.27,3,.21,3.71,4.72,2.19,9.47,4.19,14.26,6,1.33.92,2.67,1.84,4,2.74,16.84,11,37.06,23.14,57.77,23.38,1.83,0,3.14-2.57,1.59-3.84-4.45-3.67-10.38-4-15.75-5.47a49.89,49.89,0,0,1-13.14-5.94c1.18.3,2.35.61,3.54.9,17.72,4.35,35.85,5.51,53.85,8.32,18.32,2.85,36.25,8.18,54.66,10.62,9.57,1.27,19.17,1,28.8.82,9.81-.21,19.63-.05,29.44,0,22.35.17,44.73.06,66.93-2.86C1247.87,873.23,1247.91,868.73,1245,869.1ZM959.26,965.3c5,.78,10.21.86,15.28,1.27,5.49.44,11,1,16.46,1.49,3.82.32,8.35,0,12.36.78-3.5.83-8.56.77-10.42.91a82.39,82.39,0,0,1-9.94.46h0l-.27,0-5.49-.51c-6.94-.63-17.67-1.16-24.18-5.57C955.14,964.24,957.45,965,959.26,965.3ZM648.4,913.43a21.41,21.41,0,0,1,1,2.87C648.48,915.27,647.64,914,648.4,913.43Zm-71.95-3.11a1.92,1.92,0,0,0,.07.89,8.14,8.14,0,0,1-.79-.33Zm9.45,2.59c-1.41-.3-3.41-.47-5.42-.77a7.39,7.39,0,0,1,7.07-1.46,21.09,21.09,0,0,1,2.67.93c.55.2,1.09.43,1.63.67a1.1,1.1,0,0,0,.46.32,2.42,2.42,0,0,0-1.18,1.57Q588.54,913.5,585.9,912.91Zm34.27,10.29.37-.37.93.8Zm46.36,21.5a498.17,498.17,0,0,0,51.8,15.83c8.6,2.05,17.35,3.46,25.9,5.68.28.08.81.2,1.5.37-11.8-1.48-23.42-4.27-35.05-6.78-15.79-3.4-31.8-6.67-46.62-13.29a125.14,125.14,0,0,1-15.51-8.38C654.53,940.35,660.52,942.56,666.53,944.7Zm-49.42-24.84a6.72,6.72,0,0,1-.53.54,2,2,0,0,0-.72,1.38q-8.77-2.87-17.59-5.58l-2-.6a3.59,3.59,0,0,0,1.16-3c-.13-2.6-2.44-3.88-4.59-4.78a21.9,21.9,0,0,0-7.21-1.83,42.39,42.39,0,0,1,16.63-.5c4.85,4.87,9.67,9.79,14.81,14.31Zm-6.44-30.81c.16,1.64-.81,2.83-1.86,4,0-.77,0-1.55.07-2.33C609,889.05,610.31,885.52,610.67,889.05ZM683,914.17c-1.2-1-.68-2.55.22-3.82l1.33.53,2.83,1.14c-.69,2.67-1.77,5.66-1.5,8.44-1.25-.86-2.48-1.77-3.69-2.71C683.57,917.18,684.43,915.41,683,914.17Zm26.47,8.9c6.88,4.35,13.69,8.84,21.08,12.27,11.86,5.5,25.86,8.46,36,17C751.1,951.17,737,943.81,722.76,938c-8.78-3.63-17.79-7-26.25-11.25a18,18,0,0,0-.21-4.57,2.32,2.32,0,0,0-2.77-1.57c-1.86.26-2.94,1-3.12-1.28a15.21,15.21,0,0,1,.89-4.66c.07-.28.15-.57.23-.86A132.25,132.25,0,0,1,709.48,923.07Zm-21.67-16.22c.15.06.22.28.25.59L687,907A1.19,1.19,0,0,1,687.81,906.85ZM679,908.64a8.08,8.08,0,0,0-1.13,5.46c-4.07-3.66-8.07-7.4-12-11.17Q672.38,905.89,679,908.64ZM634.27,862c.06,0,.07.06,0,0Zm-30.15-30.95a10.4,10.4,0,0,1,3.53,6.58c.07.4.16,2.71.24,3.07a17.31,17.31,0,0,0-2.12,0,2.16,2.16,0,0,0-2.16,2.4c-.58-.7-1.18-1.37-1.75-2.07-2.83-3.5-5.56-7.1-8-10.86-.48-.73-1.08-1.53-1.64-2.35,1.82,1.1,5.94,3,5.62,4.86-.51,2.83,3.83,4,4.34,1.2.53-3-.88-5.1-3.18-6.91-.61-.48-1.28-1-2-1.47C599.61,826.93,601.88,829.29,604.12,831.08Zm124.63,80.34c1.5,1.14,3,2.25,4.6,3.28a4.25,4.25,0,0,0,1.23,1.69A47,47,0,0,1,728.75,911.42Zm62.58,28.14c-2.56-.33-5.12-.76-7.64-1.32-4.7-1-8.71-3.45-12.52-6.22A105.83,105.83,0,0,1,791.33,939.56ZM739.1,918c3.83,1.84,7.89,3,11.6,5.12.38.21.74.45,1.11.67-1.72-.4-3.43-.84-5.12-1.38a43,43,0,0,1-11.82-5.81,5.49,5.49,0,0,0,3.21.86C738.42,917.63,738.75,917.83,739.1,918Zm-60.33-73.35a25.25,25.25,0,0,1,3.9,3.79,3.52,3.52,0,0,0-1,.63C680.72,847.58,679.76,846.11,678.77,844.65Zm5.52-2a13.87,13.87,0,0,1,.64,1.6,37.07,37.07,0,0,0-9-7.34c-2.55-1.52-4.14-2.8-4.89-5.78-.25-1-1-3.1.75-3.24.52,0,2.4,2,2.85,2.46C678.38,833.93,682.12,837.86,684.29,842.63Zm192,52.78c5.08-.09,10.19.05,15.26-.15,1.88-.07,10.05,0,4.56,2.08-4.53,1.72-10.14,1.43-14.9,1.32-13.23-.28-26.49-.41-39.72-.75,1-.14,2.06-.28,3.11-.4C855.13,896.32,865.68,895.6,876.28,895.41ZM844,876.12a42.35,42.35,0,0,1,8.33-5.1c-1.89,3.81-6.72,6.84-11.14,9.17C840.59,879.17,843.12,876.82,844,876.12Zm155.59-20.4c-2.69-1.42-5.32-2.92-7.89-4.45l3.07.91C996.36,853.35,998,854.53,999.56,855.72Z" transform="translate(-47.89 -576.86)"/><path class="cls-1" d="M555.56,766.7a32.86,32.86,0,0,0,.82-13.2v0a2.45,2.45,0,0,0-.08-.62,65.06,65.06,0,0,0-2.07-9.87c-.86-3-2.33-5.86-2.57-9-.2-2.48.08-4.56-.7-7-.25-.77-.55-1.52-.87-2.26,5.39,4.55,10.82,9.06,16.45,13.25,9,6.73,19.86,11.14,29.79,16.35,11,5.77,22.14,12,33.83,16.18,5.92,2.13,11.51,2.84,17.7,3.62,5.31.67,10.59,2,15.9.62a2.29,2.29,0,0,0,1.65-2.17c.38-9.19-10.65-18.28-16.83-23.55-4.52-3.86-8.9-8-13.67-11.56-3-2.22-5.59-4.12-7.76-7.26a45.45,45.45,0,0,0-4.2-5.72c-4.51-4.74-9.64-7.77-13.18-13.52l-.29-.48a10.41,10.41,0,0,0-2.12-5.94,2.11,2.11,0,0,0-1.91-.62,87.71,87.71,0,0,0-5.25-7.53c-1.57-2-3.22-3.91-4.88-5.81,1.3.89,2.61,1.76,3.92,2.65,4.66,3.14,9.09,7.08,14,9.76,4.53,2.45,9.53,2.25,14.52,2.88a94,94,0,0,0,18.52.53c5.57-.42,12-.43,17.25-2.39,4-1.48,7.84-3.52,11.72-5.26,3-1.35,6.37-3.33,7.05-6.88,1.35-7.15-8.71-12.56-13.87-15.21-4.91-2.51-10-4.82-15.05-6.93-5.86-2.43-12.08-3.71-18-5.9-6.45-2.38-12.66-5.29-18.89-8.16s-13.06-5.21-19.18-8.64c-4.75-2.67-8.92-6.22-13.68-8.88-5.56-3.12-11.47-5.68-16.67-9.4-10.85-7.8-25.3-10.57-38.31-12.65a206.75,206.75,0,0,0-20.94-1.78c-5.26-.31-11.48-2.39-16.67-.66a2.42,2.42,0,0,0-1.51,1.39c-8.35-1-15.94-5.49-23.36-9.33-7.81-4.05-15.22-7.46-23.93-9.08s-16.71-3.3-25.44-3.82c-9.57-.58-18.68-3-28.33-2.7-10.22.27-20.4.69-30.61,1.16-4.47.2-9,.07-13.43.37-4.7.32-9.29,1.08-14,1-4.36-.06-8.08.69-12.37,1.18-5.1.58-10.36.74-15.49,1a87.67,87.67,0,0,1-14.84-.75c-4.78-.58-9.72-.28-14.53-.27-1-.19-2-.37-3-.51-8.33-1.17-16.73-1.8-25.09-2.7-9.08-1-18.05-2.68-27.1-4a316.81,316.81,0,0,0-52-3.36c-17.66.39-35.43.75-53.09.26a240.36,240.36,0,0,1-30.66-2.75c-9.72-1.54-19.4-3.17-29.26-3.39-2.9-.07-2.9,4.43,0,4.5,16.94.38,33.5,4.7,50.41,5.72,16.49,1,33,.4,49.51.29,16.75-.11,33.19-.65,49.87,1.28s33.17,5.05,49.89,6.67c6.33.61,12.77,1.09,19.08,2.15a2.24,2.24,0,0,0,1.14.3h.52a70.47,70.47,0,0,1,8.49,2.06c4.18,1.32,8.23,3.11,12.44,4.35,1.41.42,4,.67,5.7,1.47a7.75,7.75,0,0,1-1.58.78c-7.31.28-14.62.58-21.91,1.09-1.69.12-3.37.3-5,.52-3.14,0-6.27.08-9.4.25-16.46.91-34.17,1.86-49.6,8.09h0l-.05,0a2.64,2.64,0,0,0-.47.25v0c-3.44,1.64-11.68,5.69-8.52,10.64,2.57,4,8.39.67,11.73-.16,8.12-2,16.21-3.92,24.2-6.39,7.35-2.28,14.69-4.61,22.19-6.38a90.21,90.21,0,0,1,9.67-1.69h.26a191.21,191.21,0,0,0,21.4-1c1.21-.14,2.53-.28,3.85-.51,12.62-.47,25.29-1,37.76-2.79,15.73-2.2,31.36-5.69,47.14-7.33a180.5,180.5,0,0,1,49.61,2c7.92,1.45,15.38,4.11,22.95,6.78,7.23,2.55,14.67,4.46,21.94,6.88a119.05,119.05,0,0,1,19,8.39c2.71,2.27,5.86,4.18,8.24,6a143.11,143.11,0,0,0,22.51,14.06c4.11,3.36,8.08,6.92,12.23,10.26l1.4,1.1c-3.32,2.08-6,5-9.3,7.06-2.87,1.84-7.15,2.93-9.06,6-3.13,5,3.58,9.46,8.07,9.16,5.87-.39,8.25-6.25,10.23-10.84.77-1.78,1.79-4.17,3.88-4.73,3.44-.94,4.9,2.19,5.49,4.85s.52,5.29,2.51,7.45,5.14-1,3.18-3.18c-1.33-1.45-1.27-4.2-1.67-6.41,1.68,1.08,3.37,2.14,5.07,3.2,6,3.76,12.26,7.09,18.28,10.82,2,1.22,4.49,2.85,7,3.31,3.95,4.68,8.3,9,12.12,13.77,1.38,1.74,2.65,3.52,3.88,5.32a2.24,2.24,0,0,0-.49,1c-.78,3.28-3.23,5.41-6.62,5.25-1.68-.07-3.49-.75-4.93.4-2.5,2-2.26,6.67-.58,9,2.6,3.6,6.27,2.73,9.44.52a23.66,23.66,0,0,0,4.64-4.24c1.05-1.25,2.06-3.19,3.32-4.62l1.23,1.85a10.31,10.31,0,0,1-1.28,5.31c-2.18,3.05-3,4.71-2.9,8.7.09,2.88,4.59,2.9,4.5,0-.07-2.14-.07-3.49,1.25-5.19a17.6,17.6,0,0,0,1.59-1.85,6.49,6.49,0,0,0,.67-1.67,47,47,0,0,0,7.07,7.34c4.1,3.36,6.28,7.59,9.75,11.44,3.65,4,8.72,7,12.8,10.57,2.9,2.56,5.91,5,8.82,7.53-3.12.74-5.59,3.07-8.83,3.82-4.82-3.6-8.46-9.1-7.94-15.21a2.32,2.32,0,0,0-.07-.76c.32-1.9-2.13-3.78-3.78-2-3.08,3.29-4.71,7.07-2.78,11.42,1.61,3.66,5.46,8.53,9.11,10.33a8.34,8.34,0,0,0,4.3.89h0a33.81,33.81,0,0,0,12.1,4.58,48,48,0,0,1,7,1.54,22.07,22.07,0,0,0,3.9,1.19c.09.3.17.61.23.91-4.56.59-9.28-.72-13.78-1.21A71.76,71.76,0,0,1,628.14,765c-11.78-4.56-22.76-11.38-34.12-16.88-11.18-5.42-21.9-11.27-31.51-19.18q-7.68-6.33-15.37-12.63a8.92,8.92,0,0,0-.66-1.13,2.22,2.22,0,0,0-1.94-1q-7-5.77-14-11.57c-8.36-6.94-16.22-11.83-27.26-13.34-6-.83-11.75-.8-17.73-2.17a124.75,124.75,0,0,0-17.22-2.53c-6.25-.52-12.58-.61-18.86-.51-4.34.07-8.63.63-12.95,1.05,2.93-1.17,5.83-2.41,8.81-3.46s6.36-2,7.78-5a2.3,2.3,0,0,0-.36-2.73c-8.78-6.89-18.17-1.33-27.47,1.33-6.28,1.8-12.84,2.33-19.19,3.82s-12.35,3.92-18.68,5.46a41.11,41.11,0,0,0-7.69,2.75,164,164,0,0,0-23.63,3,10.88,10.88,0,0,0-7.1.75,13.85,13.85,0,0,0-4,2.52c-6.89,2.74-13.93,7.5-14.88,15.21a2.27,2.27,0,0,0,1.65,2.17c4.35,1.68,9.5-.79,13.9-1.53l3.05-.56A18.32,18.32,0,0,0,352.3,710c4.76,1,8.35-.81,11.41-4.13l.2,0c1.89-.36,3.75-.73,5.6-1.15,8.67,6,17.3,12,26.79,16.78a136.72,136.72,0,0,1,17.08,10,184.07,184.07,0,0,0,17.79,10.32c10.84,5.84,23.25,7.05,35.09,9.67,6.35,1.4,12.63,2.9,18.07,6.62a184,184,0,0,1,15.19,12.28c.36.31.7.65,1,1-3.42-2-7.8-3.2-10.9-4-10.44-2.78-28.15-8.82-35.29,2.94-2.81,4.62-2.15,9.68-.07,14.49,2.29,5.29,7.12,6.73,12.1,8.66,6.13,2.38,14.56,4.51,20.92,2.09a7.3,7.3,0,0,0,.48,1.5c-.86-.12-1.72-.24-2.59-.3-2.55-.2-5.11.17-7.66,0a54.34,54.34,0,0,1-11.05-2.33c-12.46-3.57-25.09-8.79-38-10.43a78.19,78.19,0,0,0-11.24-.34c.09-1.37,0-2.77,0-4.21,12-3.36,13.7-23,8-32.17-1.13-1.84-4.26-1.17-4.19,1.13.14,4.54,1.1,9.9-.44,14.27-1.31,3.73-4.68,6.47-6.5,9.94-.21.4-.49,1.61-.86,1.84-.94.58-2.64-.72-3.06-1.9v-2c.26-1.25.86-2.59,1-3.67A26.53,26.53,0,0,0,410,755.56c-.74-2.34-4.53-2-4.42.59.2,5,0,10,.1,15.06,0,0,0,.09,0,.13a6,6,0,0,0,.12,2.45,15.44,15.44,0,0,1-.33,5.13,15.79,15.79,0,0,1-2,4c-6-.61-12-1.46-17.91-2.65-13.6-2.76-26.63-7.07-40.46-8.72-7.26-.87-13.78-3.29-20.71-5.45-7.11-2.21-14.24-4.27-21.26-6.77-13.07-4.66-25.43-10.86-38.23-16.14s-24-13-35.89-19.74c-13.28-7.57-26.5-13.41-41.64-15.86-7.53-1.21-14.76-3.72-22.28-5a208.29,208.29,0,0,0-21-2.6c-16.41-1.15-33,.73-49.43.87-8.11.07-16.22.34-24.3,1-6.81.55-13.73.82-20.35,2.64-2.78.77-1.6,5.11,1.2,4.34,6.81-1.87,14-2.1,21-2.63,8.08-.61,16.19-.82,24.3-.86,15.83-.08,31.73-2,47.55-.86a186.1,186.1,0,0,1,23.41,3.1c7.5,1.48,14.71,3.7,22.28,4.88,15,2.35,28.58,10,41.51,17.54,5.6,3.27,11.12,6.68,16.74,9.91,6.8,3.9,13.88,6.77,21.05,9.91,13.8,6,27.3,12.22,41.67,16.85,7.09,2.29,14.23,4.52,21.35,6.73,7.54,2.35,15.27,2.54,23,4.07,15,3,29.41,7.7,44.71,9.48,1,.11,1.92.2,2.87.29a2.29,2.29,0,0,0,3.07.28c2,.17,4,.28,6,.37a2.44,2.44,0,0,0,4.07.24l.08-.13c1.28,0,2.57,0,3.87,0,8.24-.13,15.6,1.81,23.42,4.16,7.08,2.12,14.18,4.18,21.26,6.27,6.64,1.94,12.47,2.4,19.27,2.71,8.2.37,20,5.14,27.06-1.68,7.77-7.49.78-23.08-5.11-29.52-3.6-3.92-8.28-7-12.33-10.44-4.9-4.16-9.81-7.76-16-9.83-13.36-4.49-28.09-4.48-41-10.34-13.33-6-24.72-15.3-37.76-21.82A115.15,115.15,0,0,1,379,705.64c-1.13-.88-2.28-1.71-3.45-2.53,2-.59,3.92-1.25,5.85-2,5.39-2.16,10.62-4.7,16.23-6.25,5-1.38,10-2.33,15.09-3.3,5.56,2.62,12.5,3.31,18.29,3.84,11.21,1,22.69.38,33.93.38,7.11,0,15.92-2,22.6,1,4.7,2.1,5.44,6.73,6.81,11.17a18.54,18.54,0,0,0,5.41,8.72c6.33,5.81,15.24,7.3,17.8,16.41a96.63,96.63,0,0,0,11.31,24.5C532.86,763.88,550.94,781.42,555.56,766.7ZM670,682.59c.85.51,2.13,1.29,3.41,2.23a21.65,21.65,0,0,1-12.59-.36c-5.46-1.9-13.29-4.35-14.59-10.74a1.92,1.92,0,0,0-2.27-1.59c0-.28,0-.57,0-.85A119.4,119.4,0,0,1,670,682.59Zm-11.17,5.74c-2.14.43-3.7.78-6-.19-2.07-.89-4.85-2.49-6-4.43a15.9,15.9,0,0,1-1-1.93,24.76,24.76,0,0,0,7.31,4.36C655,686.93,656.92,687.68,658.82,688.33Zm-45.5-26a2.27,2.27,0,0,0,0-2.27,13.12,13.12,0,0,0-.81-1.31l3.38,1.51a2.82,2.82,0,0,0-.18.45c-.4,1.69.08,5.51-1.59,6.47-1.31.76-3.14.21-4.47-.66C610.63,665.05,612.39,663.79,613.32,662.36Zm-67-30.46c.81-1.13,2-1.52,2.69-2.92a5.85,5.85,0,0,0,.56-3.58c1.26.4,2.5.81,3.72,1.25-.2,1.2-.43,2.41-.75,3.59-.56,2.13-.64,2.75-2.92,2.58a11.78,11.78,0,0,1-2.63-.52C545.79,631.93,545.88,632.5,546.3,631.9Zm-40.41-13.2c5.54.42,11.08.4,16.61,1,5,.59,10.12,1.43,15.18,2.52a2.1,2.1,0,0,0,2.07,1.55c1.46,0,4,.33,4.91,1.61,1.34,1.78-1,2.64-2,3.66-2.51,2.52-.86,5.65,1.94,7.07,2.62,1.32,7.63,2.07,10.05,0,2-1.7,2.53-5.08,2.93-7.77l.08,0c4,2,7.38,4.72,11.34,7,4.57,2.63,9.4,4.82,13.94,7.51,4.18,2.47,7.9,5.63,12.14,8a107.09,107.09,0,0,0,11.35,5.26,2.36,2.36,0,0,0,.56,3.31,7.4,7.4,0,0,1,1.67,1.63c-1.61,1.79-4,3.56-4,6s3.88,4.13,5.93,4.58c2.54.55,5.44.22,7.3-1.75s1.65-4.41,2-6.79a1.84,1.84,0,0,0,.93-.71,168.62,168.62,0,0,0,18.65,7.4c0,9.75,2.58,18.81,12.35,22.7,4,1.59,7.41-.06,11.45-.45,4.38-.42,9.83,1.32,14,0h0a1.76,1.76,0,0,1-.09.2c-1.6,2.49-7.21,3.72-9.78,5-9.84,4.71-21.25,5-32.07,4.64-3.07-.1-6.05-.47-9.1-.82-2.71-.31-5.75-.13-8.36-1-5.23-1.7-9.77-6.33-14.25-9.38-5.14-3.51-10.35-6.92-15.37-10.56-2.45-6.6-9.23-10.71-14.66-14.69-8.79-6.44-18.53-11.12-28.33-15.79-5.18-2.47-10.57-4.68-15.83-7.12-1.92-1.52-3.86-3-5.85-4.49A212.09,212.09,0,0,0,497,621.27a10.18,10.18,0,0,1-2.69-3.59.45.45,0,0,0,0-.11C498,617.13,502.26,618.43,505.89,618.7ZM231,619c-4.39,1.24-8.84,2.25-13.27,3.31-1.9.46-3.81.88-5.69,1.4-.22.06-4.28,1.63-4.46,1.57a52.59,52.59,0,0,1,6.41-4.2c9.11-3.63,18.66-5.19,28.39-6.11l3-.29C240.64,616.15,235.86,617.65,231,619Zm133.45-19.41c-14.39,2.48-28.94,5.22-43.51,6.22-5.17.36-10.35.6-15.53.82a2.12,2.12,0,0,0-.21-1.78c-2.31-3.07-6.25-3.51-9.72-4.53-1.44-.42-2.86-.87-4.27-1.33a76.11,76.11,0,0,0,11.31.28c5.15-.22,10.36-.48,15.49-1,4.21-.39,8.09-1.24,12.37-1.18,4.73.08,9.32-.68,14-1,4.47-.3,9-.17,13.43-.37,10.21-.47,20.39-.89,30.61-1.16,6.68-.19,13.14.91,19.66,1.79A213,213,0,0,0,364.49,599.61Zm84.77,4.13a121.61,121.61,0,0,0-15.44-4.28c3.59.64,7.17,1.38,10.77,2.16a58.57,58.57,0,0,1,13.42,5C455.08,605.69,452.15,604.75,449.26,603.74Zm77.16,70.32c-2.34-3.06,5.5-5.68,7.33-7,.82-.59,1.6-1.21,2.38-1.85C533.79,670,529.74,678.41,526.42,674.06Zm29-11.45c-4.39-2.84-8.52-6-12.57-9.17,6.38,3,12.69,6.12,18.76,9.61,3,1.75,5.91,3.68,8.75,5.7a2,2,0,0,0,.34,2.61c.33.34.67.65,1,1C566.26,669.17,560.77,666.06,555.44,662.61Zm40.36,50.68c-.57.55-1.76,1.94-2.56,2.06-.68.7-1.32.43-1.9-.81-1-.34-1.4-.77-1.37-1.29,2.18.14,4.15.39,6.17-.31C596,713.06,595.92,713.18,595.8,713.29Zm57.8,49.87a45.7,45.7,0,0,1-10.21-2.54l1-.51c4.71-2.31,8-1.37,11.17,2.65a18.13,18.13,0,0,0,1.37,1.41A20.15,20.15,0,0,0,653.6,763.16Zm-231.29,5.65a12,12,0,0,1-3.55,4.81C419.81,771.92,421.13,770.41,422.31,768.81Zm-14.12,14.58a20.13,20.13,0,0,0,1.64-4.44,5.64,5.64,0,0,0,3,.77,19.6,19.6,0,0,1-.06,3.91c-1.25,0-2.5-.06-3.75-.16Zm57.47,5c-3.5-1.34-6.23-2.61-7.61-6.37s-1.64-7.79,1.41-11c6-6.36,18.5-1.86,25.75-.12,4.27,1,8.7,2.08,12.52,4.33l.74.46c-6.64,1.57-6.2,13.62-12.73,15.65C478.62,793.53,472.22,790.87,465.66,788.37Zm28.45,1c.48-1,.87-2,1.27-3a2.35,2.35,0,0,0,2.79-.12c1.71-1.33,4.37-2.86,6-4.79A9.65,9.65,0,0,1,506,783c2.05,2.35-.54,7.82-2.12,10.26a11.26,11.26,0,0,1-5.44,4.37c-2.24.73-6.68-.28-6.82-3.44a2.22,2.22,0,0,0-.35-1.13A13,13,0,0,0,494.11,789.35ZM506.73,797l0,0a17.86,17.86,0,0,0,2.66-5.19,7.42,7.42,0,0,1-1.85,4.55A4.3,4.3,0,0,1,506.73,797Zm45-41.57c-.29,3.63-1.37,9.85-5,5.54a14.9,14.9,0,0,1-.77-2.81c-.6-1.68-1.55-3.18-2.12-4.88-1.12-3.32-2.06-6.6-3.26-9.89-.95-2.6-1.55-4.95,1.49-6.35,1.39-.64,3.29-.51,4.8-.52a2.35,2.35,0,0,0,.67-.11,19.83,19.83,0,0,0,.7,3.08A69.51,69.51,0,0,1,551.78,755.43ZM427.67,679.16c6.08-1.91,13.83-6.29,20.06-3.24-2,1.33-5.16,1.82-7.07,2.61-5.17,2.16-10.28,4.17-15.64,5.82-1.6.5-3.22.92-4.85,1.3l-8.54.13a2.39,2.39,0,0,0-2.63,0c-3.49.08-7,.18-10.46.32,1.85-.67,3.69-1.36,5.58-1.94C411.8,681.84,420,681.58,427.67,679.16Zm-77.88,25-.4.06c-2.18-1.26-3.78-3.29-2.63-6a4,4,0,0,1,.59-.94,72.4,72.4,0,0,1,9-2.43c2.29,1,4.56,3.59,6.6,5.24-.51.57-1,1.15-1.57,1.73C357.51,702.6,353.65,703.41,349.79,704.14Zm12.38-10.41c2.91-.5,5.84-.91,8.79-1.25a43.63,43.63,0,0,0-4.84,4.21C364.78,695.74,363.46,694.76,362.17,693.73ZM335,706.9c1-3.08,3.64-5.42,6.87-7.22a7.83,7.83,0,0,0,.08,1.52,8.17,8.17,0,0,0,1.75,3.95l-1.06.18C340.44,705.72,337.5,706.89,335,706.9Zm35.64-7.14-.75-.5a47,47,0,0,1,11.1-7.69c5-.37,10-.64,14.95-.93l-1.23.36C386.44,693.55,378.89,697.45,370.62,699.76Zm101.93-8.68c-10.08.54-20.25.19-30.34.18a98.82,98.82,0,0,1-16.12-1l-.73-.12c3.78,0,7.56-.09,11.34-.28,5.76-.29,11.33-1.34,17.13-1.31a182,182,0,0,1,19,.93c2.81.31,5.55.82,8.28,1.37C478.22,690.72,475.33,690.93,472.55,691.08Zm73.29,75.84A32.45,32.45,0,0,1,537,760.8c-6.09-6-9.76-15.19-13-22.95-1.38-3.3-2-6.91-3.45-10.14-.1-.22-.22-.42-.33-.63a11,11,0,0,0,5.45-6,2.26,2.26,0,0,0-3.54-2.72c-1.75,1.46-5.49.55-7.6.48a2,2,0,0,0-1.64.67,13.36,13.36,0,0,1-3.14-3.43c-1.74-3.38-.69-8.12-6-8-2.9.05-2.9,4.55,0,4.5.36,0,.77,1,1.19,2.3a15.47,15.47,0,0,1-6.31-8.16c-1.89-5.79-3.07-11.23-9.12-14-.16-.08-.33-.14-.5-.21l1.06.19c5.94,1.05,11.88.55,17.77,2.1,11.85,3.12,20.11,11.55,29.35,19.15,2.11,1.73,4.21,3.5,6.3,5.27.92,2.17,1.36,4.79,2.24,6.89a20.72,20.72,0,0,1,1.35,6h-.17c-4.52,0-10.79.92-11.72,6.34-.59,3.47,1.45,6.76,2.58,9.89,1.27,3.56,2.21,7.08,3.64,10.59,1.88,4.58,2.7,9,9.13,7.48l.32-.1C549.39,768.55,548,767.9,545.84,766.92Z" transform="translate(-47.89 -576.86)"/><path class="cls-2" d="M1245,869.1c-18.92,2.49-38,3-57.06,2.92-9.88,0-19.75-.17-29.62-.18-9.38,0-18.76.55-28.13.18-18.49-.74-37.25-5.81-55.29-9.67-8.93-1.9-18-2.75-26.94-4.41s-17.76-1.63-26.58-3.52c-8.27-1.77-16.43-3.8-24.47-6.16a81.64,81.64,0,0,0-20.19-11c-2.85-1-6.78-2.59-10.53-3.15A69.26,69.26,0,0,0,959.4,830c-7.18-3.74-15.18-5.64-22.7-8.55-9.38-3.62-18.47-7.95-27.89-11.47a119.1,119.1,0,0,0-26.44-6.35c-10-1.32-19.44-4.58-29.11-7.4-9.2-2.68-18.87-3.16-28.06-5.77-3.86-1.1-7.45-2.91-11.24-4.21-4.4-1.52-9-2.58-13.37-4.08-8.5-2.89-16.69-6.75-25.39-9-8.54-2.23-31.21-6.38-33.67,6.77-1.2,6.42,3.36,12,7.58,16.23,6,6.08,13.53,10,20.7,14.58,15.6,10,30.72,20.79,47.09,29.51,8.35,4.45,17.43,7.36,25.71,11.89,4.42,2.41,9.16,5.72,11.71,10.21a8,8,0,0,1,1,2.57,2.71,2.71,0,0,0-1.07.26c-5.47,2.61-18.49,7.55-17.64,15.32a7.2,7.2,0,0,0,.44,1.84c-.82.4-1.58.78-2.22,1.13-7.24,3.91-15.38,6.49-21.49,12.2-14.6-2.56-28.56-7.18-42.87-12.25-17.62-6.25-38.73-7.32-50.84-23.26-5.37-7.07-9.43-15-15.09-21.91-4.84-5.9-11.36-13.16-18.71-15.9-2.9-1.09-5.57-.81-8.58-.39s-6.32.37-9.26,1.32c-5.39,1.74-5.76,6.48-3,10.87a60.58,60.58,0,0,0,5.44,6.64,117.08,117.08,0,0,1,8.53,12.49c5.23,8.23,10.15,16.7,16.11,24.45.16.19.32.39.47.59a2.44,2.44,0,0,0,0,.27,65.83,65.83,0,0,0-14.19-6.83c-17.12-5.72-31-14.62-43-28.16-5.67-6.39-11.34-12.72-17.86-18.25-4.79-4.07-9.82-8.32-16.15-9.59-4.51-.9-12.87-1.48-16.58,1.95-5.06,4.66-.16,11.29,2.72,15.59,9.57,14.28,21.77,26.43,34.48,37.91a7.19,7.19,0,0,0,.21,1.54,2.22,2.22,0,0,0,3.06,1.41q6.69,6,13.3,12.15l-3.3-1.62c-8.43-4.19-17-8.06-25.41-12.34-8.06-4.11-15.78-8.93-23.91-12.88-11.76-5.7-30.66-8.9-41.3.63a2.27,2.27,0,0,0-.35,2.73c7.12,10.38,20,15.51,30.45,21.88,7.17,4.39,13.43,9.92,19.45,15.75-9.63-.39-19.38,2-26.53,9a2.32,2.32,0,0,0,0,3.19c1.75,2.2,4,2.78,6.67,3.23,4.29.72,8.55,1.56,12.77,2.65,8.54,2.18,16.94,5.11,25.32,7.84,5.57,1.82,11.1,3.74,16.61,5.72A169.67,169.67,0,0,0,657,948.12c14.57,7.43,30.55,11.27,46.43,14.73,18.76,4.07,37.66,9.09,57,9.28a2.26,2.26,0,0,0,2.17-2.85c-1.28-3.41-6.65-4.38-9.74-5.29-7.33-2.14-14.72-3.82-22.2-5.35a434,434,0,0,1-53.06-14.83c-14.61-5-29-10.63-43.54-15.83-.49-.38-1-.75-1.47-1.14h1.2c2.89,0,2.9-4.48,0-4.5-2.17,0-4.72.26-6.8-.49-2.29-.84-2.69-3.11-3-5.3s-3.17-2-4.11-.54l-.11.17c-3.29-3-6.49-6-9.67-9.1,5.75,1.54,10.76,4.13,16,7.07a141.2,141.2,0,0,0,17,8c12.79,5.1,25.36,10.69,38.13,15.84,13.08,5.26,26.5,9.48,39.94,13.72,26.24,8.27,51.69,17.91,79,22.15a616.39,616.39,0,0,0,84.14,7.68c32.87.54,65.39-4,98-6.86h0c.69.05,1.38.07,2.08.08,1.65.15,3.29.3,4.93.48,19.47,2.18,38.31,7.73,57.6,10.93,18.73,3.1,38,2.27,56.91,2.63,19.47.38,38.9,1.58,58.36,2.51,10.77.51,21.67.36,32.41,1.35,10.44,1,20.59,3.7,30.65,6.52,2.8.78,4-3.56,1.2-4.34a206.67,206.67,0,0,0-25.13-5.85c-8.5-1.27-17.05-1.29-25.62-1.61-19.06-.7-38.08-2.07-57.14-2.7-18.88-.63-37.85-.09-56.7-1.33-19.25-1.26-37.9-6.88-56.82-10.28l-.71-.12c2.57-.58,4.94-1.59,6.19-3.56a2.27,2.27,0,0,0-.81-3.07c-4.68-2.41-9.77-2.08-14.89-2.45-6.8-.49-13.56-1.25-20.35-1.8-5.79-.46-11.58-.67-17.3-1.73-3.29-.61-7.07-1.34-10,.62a2.29,2.29,0,0,0-.45,3.53c3.63,4.6,10,6.43,15.72,7.6-23,2.33-46.07,4.81-69.27,5-30.06.23-60.2-2.72-89.89-7.25-28-4.28-54-14-80.93-22.45-13.45-4.24-26.86-8.46-39.94-13.72-5.67-2.29-11.31-4.64-16.95-7,2-.95,1.76-4.5-.81-4.27-1.38.12-2-1.82-3.11-2.48a5.34,5.34,0,0,0-3.78-.59c-1,.16-2.8.6-3.52-.54a13.32,13.32,0,0,1-.18-2.36,31.31,31.31,0,0,0-2.42-6.71,2.17,2.17,0,0,0-1.94-1.11c-3.06.07-5.53,1.8-6,5a6,6,0,0,0,1.17,4.53l-2.35-1c-7.57-3.08-14.33-7.33-21.65-10.89a56.89,56.89,0,0,0-13.29-4.37,8.73,8.73,0,0,0,1.15-1.27c.7-1,1.23-2,2-3a41.48,41.48,0,0,0,3.37-4.1,7.68,7.68,0,0,0,0-8.37,4.84,4.84,0,0,0-5.56-2.21c-2.56.89-3.65,3.81-4,6.26-.29,2.19,0,4.34-.57,6.5-.1.42-.21.83-.32,1.23l-.21-.39c-1.76-3.26-1.23-7.4-1.21-11,0-2.9-4.47-2.9-4.5,0a50.62,50.62,0,0,0,.45,9.53,79.86,79.86,0,0,0-9.07-8.23c-6.15-4.6-12.91-8.4-19.58-12.19-5.3-3-11.09-6.17-15.45-10.6l.13-.11c4.79-5,15.15-3,20,.82a28.43,28.43,0,0,0,2.51,2c1.71,1.06,2.38.36,1,1.77-3.31,3.49-9.15.35-11.9-2-2.19-1.87-5.39,1.3-3.18,3.18,4.42,3.77,9.54,6,15.25,3.75,3.31-1.34,7.86-5.21,4.26-8.81-.89-.88-2.18-1.12-3.2-1.79-1.56-1-2.77-2.49-4.38-3.46l-.14-.08a65.52,65.52,0,0,1,17,6.51c15.39,8.57,31.24,16,47,23.89q7.23,3.62,14.5,7.12l15.5,14.53c7.1,6.66,14.11,12.87,22.69,17.58,8,4.38,16.46,7.66,24.88,11,18.11,7.25,36.15,17.53,56.22,17a2.28,2.28,0,0,0,1.59-3.84c-9.18-10.62-23.28-14.5-35.85-19.54-8.2-3.29-15.69-7.78-23.13-12.5a154.72,154.72,0,0,0-22.32-11.82,9.4,9.4,0,0,0-.13-3,4.73,4.73,0,0,0-6.23-3.65,11.08,11.08,0,0,0-4,2.28q-13.51-5.79-26.79-12c-5.65-5.39-11.33-10.75-17.16-15.95q-4-3.59-8-7.19c1-1,3-1.56,4-2.13,2.44-1.39,5.11-4.12,4.19-7.22-.85-2.87-4.25-3.29-6.75-2.81a8.27,8.27,0,0,0-6.48,5.24c-.93,2.74,3.41,3.92,4.34,1.19.47-1.38,2.47-2.06,3.74-2.13a3.36,3.36,0,0,1,.71,0,3.25,3.25,0,0,1-.74.95c-1.58,1.42-3.83,2-5.55,3.21a8.93,8.93,0,0,0-.81.66,260.83,260.83,0,0,1-21.45-21.52,2.85,2.85,0,0,0,.42,0c2,0,4.34,0,5.65-1.77s1-4.92.57-7a14.82,14.82,0,0,0-4.39-8.37c-1.26-1.1-2.72-1.85-4-3a22.54,22.54,0,0,0-3.16-2.7c-1.77-1.12-4.59-2.43-7-2.29a12.59,12.59,0,0,1,1.33-.18c8.11-.64,13.8,1.51,20,6.58,12.3,10,21.24,23.31,33.62,33.16a88.94,88.94,0,0,0,18.93,11.69c7.62,3.43,16.1,5,23.35,9.17,7,4.07,13.13,9.94,19.36,15.2,2.27,2.68,4.5,5.38,6.62,8.17,5.82,7.62,11.33,15,20.09,19.37,7.62,3.84,15.88,5.52,24.2,6.9,3.62,2.72,7.21,5.5,11,8,5.25,3.35,10.78,4.71,16.85,5.62,3.85.57,9.69,2,13-.74a2.26,2.26,0,0,0-.45-3.53c-9.07-4.39-17.9-9.49-27.82-11.66-3.52-.78-7.07-1.34-10.62-1.91a87,87,0,0,0-19.37-10.78l-.46-.19c.51-.46,1-.94,1.42-1.4,1.31-1.4,2.42-3,3.86-4.3s3.27-1.7,4.77-2.86c2.91-2.23,5.79-13.13-.61-12.31-2.57.33-3.74,3-4.55,5.09-1.5,3.94-3.44,8-6.62,10.84a2.08,2.08,0,0,0-.62,1,5.87,5.87,0,0,1-2.38,1.67l-.93-.54a3.56,3.56,0,0,1-.18-1.34c0-3.47,1.84-6.93,2.67-10.26.69-2.81-3.64-4-4.34-1.2-.51,2-2.07,6.05-2.66,9.8-3.69-2.68-7.16-5.73-10.57-8.71s-6.9-6.13-10.41-9.17q-3.24-3.87-6.54-7.72c-.24-.29-.48-.59-.73-.88h.55c2.89.06,2.89-4.44,0-4.5-.9,0-1.81,0-2.7-.11-.38,0-1.26-.3-1.92-.42l-.08-.1a6.21,6.21,0,0,1,.41-.48,15.93,15.93,0,0,1,2-1.45c2.65-1.75,7.38-4.3,7.11-8.07a2.34,2.34,0,0,0-2.25-2.25c-3.38-.32-6,2-8.07,4.43a2.28,2.28,0,0,0-.18,2.76,19.54,19.54,0,0,0-1.8,1.38c-3.74-5.06-7.23-10.29-10.6-15.69q-1.65-2.64-3.28-5.31a2.22,2.22,0,0,0,.72-.44c1.13-1,3.13-.46,4.31-2.59,1.56-2.83.89-5.3-.3-8.14a42.88,42.88,0,0,0-11.56-15.47c1.3-.09,2.51-.14,3.41-.17,8.45-.3,17,10.66,21.78,16.69,5.75,7.28,9.75,15.87,15.84,22.85a44.83,44.83,0,0,0,19.78,13c8.52,2.88,17.41,4.38,25.92,7.31,9.79,3.38,19.47,7.1,29.39,10.07,20.37,6.1,40.63,6.22,61.68,6.42,12.09.12,24.76,1.89,36.83.45,3.59-.43,9.12-1.17,10.66-5.09,2.93-7.45-9.15-7-13.22-6.88-12.41.29-24.71.29-37.09,1.43-5.23.49-10.5,1-15.7,1.79-5.54.84-10.52,1.79-15.84,1.63a77.67,77.67,0,0,1,9.17-4.71c4-1.85,7.91-3.86,11.78-6a11.09,11.09,0,0,0,4-1.09c5.51-2.57,11.13-7.06,13.45-12.84,5.73-14.27-14.38-23.38-24.47-27.55a215.53,215.53,0,0,1-29.4-15.27.94.94,0,0,0,0-.09c.76-4,4.32-3.83,7.3-5.22a25.3,25.3,0,0,0,6.28-4.33c3.52-3.2,7.47-6.91,7.86-11.86.17-2.23-3.19-3.06-4.2-1.13-1.74,3.35-4.54,4.93-7.2,7.39-.62.58-1.28,1.36-2,2.17a21.41,21.41,0,0,0,2-2.66,26.48,26.48,0,0,0,2.51-10,2.31,2.31,0,0,0-1.65-2.17c-5-1.9-7.26,2.78-8,6.95-.39,2.19-.31,4.52-1,6.65a15.88,15.88,0,0,1-3,5.32c-1,1.06-4.42,4.13-6,4.12a2.35,2.35,0,0,0-.67.1c-4.76-3-9.48-6.13-14.19-9.22-8-5.24-16.39-10-24.2-15.54-5.1-3.6-21.3-17.94-8.73-22.19,17.15-5.8,36.52,6.06,52.38,11.08,8.7,2.75,17.45,6.64,26.42,8.31a268.25,268.25,0,0,1,30.19,6.93c10,3.07,19.87,4.39,30.08,6.28,10.37,1.93,20.16,5.8,29.83,9.9s19.36,7.86,29.29,11.31a57.65,57.65,0,0,1,10.25,4.83c-1.15.91-1.27,3,.21,3.71,4.72,2.19,9.47,4.19,14.26,6,1.33.92,2.67,1.84,4,2.74,16.84,11,37.06,23.14,57.77,23.38,1.83,0,3.14-2.57,1.59-3.84-4.45-3.67-10.38-4-15.75-5.47a49.89,49.89,0,0,1-13.14-5.94c1.18.3,2.35.61,3.54.9,17.72,4.35,35.85,5.51,53.85,8.32,18.32,2.85,36.25,8.18,54.66,10.62,9.57,1.27,19.17,1,28.8.82,9.81-.21,19.63-.05,29.44,0,22.35.17,44.73.06,66.93-2.86C1247.87,873.23,1247.91,868.73,1245,869.1ZM959.26,965.3c5,.78,10.21.86,15.28,1.27,5.49.44,11,1,16.46,1.49,3.82.32,8.35,0,12.36.78-3.5.83-8.56.77-10.42.91a82.39,82.39,0,0,1-9.94.46h0l-.27,0-5.49-.51c-6.94-.63-17.67-1.16-24.18-5.57C955.14,964.24,957.45,965,959.26,965.3ZM648.4,913.43a21.41,21.41,0,0,1,1,2.87C648.48,915.27,647.64,914,648.4,913.43Zm-71.95-3.11a1.92,1.92,0,0,0,.07.89,8.14,8.14,0,0,1-.79-.33Zm9.45,2.59c-1.41-.3-3.41-.47-5.42-.77a7.39,7.39,0,0,1,7.07-1.46,21.09,21.09,0,0,1,2.67.93c.55.2,1.09.43,1.63.67a1.1,1.1,0,0,0,.46.32,2.42,2.42,0,0,0-1.18,1.57Q588.54,913.5,585.9,912.91Zm34.27,10.29.37-.37.93.8Zm46.36,21.5a498.17,498.17,0,0,0,51.8,15.83c8.6,2.05,17.35,3.46,25.9,5.68.28.08.81.2,1.5.37-11.8-1.48-23.42-4.27-35.05-6.78-15.79-3.4-31.8-6.67-46.62-13.29a125.14,125.14,0,0,1-15.51-8.38C654.53,940.35,660.52,942.56,666.53,944.7Zm-49.42-24.84a6.72,6.72,0,0,1-.53.54,2,2,0,0,0-.72,1.38q-8.77-2.87-17.59-5.58l-2-.6a3.59,3.59,0,0,0,1.16-3c-.13-2.6-2.44-3.88-4.59-4.78a21.9,21.9,0,0,0-7.21-1.83,42.39,42.39,0,0,1,16.63-.5c4.85,4.87,9.67,9.79,14.81,14.31Zm-6.44-30.81c.16,1.64-.81,2.83-1.86,4,0-.77,0-1.55.07-2.33C609,889.05,610.31,885.52,610.67,889.05ZM683,914.17c-1.2-1-.68-2.55.22-3.82l1.33.53,2.83,1.14c-.69,2.67-1.77,5.66-1.5,8.44-1.25-.86-2.48-1.77-3.69-2.71C683.57,917.18,684.43,915.41,683,914.17Zm26.47,8.9c6.88,4.35,13.69,8.84,21.08,12.27,11.86,5.5,25.86,8.46,36,17C751.1,951.17,737,943.81,722.76,938c-8.78-3.63-17.79-7-26.25-11.25a18,18,0,0,0-.21-4.57,2.32,2.32,0,0,0-2.77-1.57c-1.86.26-2.94,1-3.12-1.28a15.21,15.21,0,0,1,.89-4.66c.07-.28.15-.57.23-.86A132.25,132.25,0,0,1,709.48,923.07Zm-21.67-16.22c.15.06.22.28.25.59L687,907A1.19,1.19,0,0,1,687.81,906.85ZM679,908.64a8.08,8.08,0,0,0-1.13,5.46c-4.07-3.66-8.07-7.4-12-11.17Q672.38,905.89,679,908.64ZM634.27,862c.06,0,.07.06,0,0Zm-30.15-30.95a10.4,10.4,0,0,1,3.53,6.58c.07.4.16,2.71.24,3.07a17.31,17.31,0,0,0-2.12,0,2.16,2.16,0,0,0-2.16,2.4c-.58-.7-1.18-1.37-1.75-2.07-2.83-3.5-5.56-7.1-8-10.86-.48-.73-1.08-1.53-1.64-2.35,1.82,1.1,5.94,3,5.62,4.86-.51,2.83,3.83,4,4.34,1.2.53-3-.88-5.1-3.18-6.91-.61-.48-1.28-1-2-1.47C599.61,826.93,601.88,829.29,604.12,831.08Zm124.63,80.34c1.5,1.14,3,2.25,4.6,3.28a4.25,4.25,0,0,0,1.23,1.69A47,47,0,0,1,728.75,911.42Zm62.58,28.14c-2.56-.33-5.12-.76-7.64-1.32-4.7-1-8.71-3.45-12.52-6.22A105.83,105.83,0,0,1,791.33,939.56ZM739.1,918c3.83,1.84,7.89,3,11.6,5.12.38.21.74.45,1.11.67-1.72-.4-3.43-.84-5.12-1.38a43,43,0,0,1-11.82-5.81,5.49,5.49,0,0,0,3.21.86C738.42,917.63,738.75,917.83,739.1,918Zm-60.33-73.35a25.25,25.25,0,0,1,3.9,3.79,3.52,3.52,0,0,0-1,.63C680.72,847.58,679.76,846.11,678.77,844.65Zm5.52-2a13.87,13.87,0,0,1,.64,1.6,37.07,37.07,0,0,0-9-7.34c-2.55-1.52-4.14-2.8-4.89-5.78-.25-1-1-3.1.75-3.24.52,0,2.4,2,2.85,2.46C678.38,833.93,682.12,837.86,684.29,842.63Zm192,52.78c5.08-.09,10.19.05,15.26-.15,1.88-.07,10.05,0,4.56,2.08-4.53,1.72-10.14,1.43-14.9,1.32-13.23-.28-26.49-.41-39.72-.75,1-.14,2.06-.28,3.11-.4C855.13,896.32,865.68,895.6,876.28,895.41ZM844,876.12a42.35,42.35,0,0,1,8.33-5.1c-1.89,3.81-6.72,6.84-11.14,9.17C840.59,879.17,843.12,876.82,844,876.12Zm155.59-20.4c-2.69-1.42-5.32-2.92-7.89-4.45l3.07.91C996.36,853.35,998,854.53,999.56,855.72Z" transform="translate(-47.89 -576.86)"/><path class="cls-2" d="M555.56,766.7a32.86,32.86,0,0,0,.82-13.2v0a2.45,2.45,0,0,0-.08-.62,65.06,65.06,0,0,0-2.07-9.87c-.86-3-2.33-5.86-2.57-9-.2-2.48.08-4.56-.7-7-.25-.77-.55-1.52-.87-2.26,5.39,4.55,10.82,9.06,16.45,13.25,9,6.73,19.86,11.14,29.79,16.35,11,5.77,22.14,12,33.83,16.18,5.92,2.13,11.51,2.84,17.7,3.62,5.31.67,10.59,2,15.9.62a2.29,2.29,0,0,0,1.65-2.17c.38-9.19-10.65-18.28-16.83-23.55-4.52-3.86-8.9-8-13.67-11.56-3-2.22-5.59-4.12-7.76-7.26a45.45,45.45,0,0,0-4.2-5.72c-4.51-4.74-9.64-7.77-13.18-13.52l-.29-.48a10.41,10.41,0,0,0-2.12-5.94,2.11,2.11,0,0,0-1.91-.62,87.71,87.71,0,0,0-5.25-7.53c-1.57-2-3.22-3.91-4.88-5.81,1.3.89,2.61,1.76,3.92,2.65,4.66,3.14,9.09,7.08,14,9.76,4.53,2.45,9.53,2.25,14.52,2.88a94,94,0,0,0,18.52.53c5.57-.42,12-.43,17.25-2.39,4-1.48,7.84-3.52,11.72-5.26,3-1.35,6.37-3.33,7.05-6.88,1.35-7.15-8.71-12.56-13.87-15.21-4.91-2.51-10-4.82-15.05-6.93-5.86-2.43-12.08-3.71-18-5.9-6.45-2.38-12.66-5.29-18.89-8.16s-13.06-5.21-19.18-8.64c-4.75-2.67-8.92-6.22-13.68-8.88-5.56-3.12-11.47-5.68-16.67-9.4-10.85-7.8-25.3-10.57-38.31-12.65a206.75,206.75,0,0,0-20.94-1.78c-5.26-.31-11.48-2.39-16.67-.66a2.42,2.42,0,0,0-1.51,1.39c-8.35-1-15.94-5.49-23.36-9.33-7.81-4.05-15.22-7.46-23.93-9.08s-16.71-3.3-25.44-3.82c-9.57-.58-18.68-3-28.33-2.7-10.22.27-20.4.69-30.61,1.16-4.47.2-9,.07-13.43.37-4.7.32-9.29,1.08-14,1-4.36-.06-8.08.69-12.37,1.18-5.1.58-10.36.74-15.49,1a87.67,87.67,0,0,1-14.84-.75c-4.78-.58-9.72-.28-14.53-.27-1-.19-2-.37-3-.51-8.33-1.17-16.73-1.8-25.09-2.7-9.08-1-18.05-2.68-27.1-4a316.81,316.81,0,0,0-52-3.36c-17.66.39-35.43.75-53.09.26a240.36,240.36,0,0,1-30.66-2.75c-9.72-1.54-19.4-3.17-29.26-3.39-2.9-.07-2.9,4.43,0,4.5,16.94.38,33.5,4.7,50.41,5.72,16.49,1,33,.4,49.51.29,16.75-.11,33.19-.65,49.87,1.28s33.17,5.05,49.89,6.67c6.33.61,12.77,1.09,19.08,2.15a2.24,2.24,0,0,0,1.14.3h.52a70.47,70.47,0,0,1,8.49,2.06c4.18,1.32,8.23,3.11,12.44,4.35,1.41.42,4,.67,5.7,1.47a7.75,7.75,0,0,1-1.58.78c-7.31.28-14.62.58-21.91,1.09-1.69.12-3.37.3-5,.52-3.14,0-6.27.08-9.4.25-16.46.91-34.17,1.86-49.6,8.09h0l-.05,0a2.64,2.64,0,0,0-.47.25v0c-3.44,1.64-11.68,5.69-8.52,10.64,2.57,4,8.39.67,11.73-.16,8.12-2,16.21-3.92,24.2-6.39,7.35-2.28,14.69-4.61,22.19-6.38a90.21,90.21,0,0,1,9.67-1.69h.26a191.21,191.21,0,0,0,21.4-1c1.21-.14,2.53-.28,3.85-.51,12.62-.47,25.29-1,37.76-2.79,15.73-2.2,31.36-5.69,47.14-7.33a180.5,180.5,0,0,1,49.61,2c7.92,1.45,15.38,4.11,22.95,6.78,7.23,2.55,14.67,4.46,21.94,6.88a119.05,119.05,0,0,1,19,8.39c2.71,2.27,5.86,4.18,8.24,6a143.11,143.11,0,0,0,22.51,14.06c4.11,3.36,8.08,6.92,12.23,10.26l1.4,1.1c-3.32,2.08-6,5-9.3,7.06-2.87,1.84-7.15,2.93-9.06,6-3.13,5,3.58,9.46,8.07,9.16,5.87-.39,8.25-6.25,10.23-10.84.77-1.78,1.79-4.17,3.88-4.73,3.44-.94,4.9,2.19,5.49,4.85s.52,5.29,2.51,7.45,5.14-1,3.18-3.18c-1.33-1.45-1.27-4.2-1.67-6.41,1.68,1.08,3.37,2.14,5.07,3.2,6,3.76,12.26,7.09,18.28,10.82,2,1.22,4.49,2.85,7,3.31,3.95,4.68,8.3,9,12.12,13.77,1.38,1.74,2.65,3.52,3.88,5.32a2.24,2.24,0,0,0-.49,1c-.78,3.28-3.23,5.41-6.62,5.25-1.68-.07-3.49-.75-4.93.4-2.5,2-2.26,6.67-.58,9,2.6,3.6,6.27,2.73,9.44.52a23.66,23.66,0,0,0,4.64-4.24c1.05-1.25,2.06-3.19,3.32-4.62l1.23,1.85a10.31,10.31,0,0,1-1.28,5.31c-2.18,3.05-3,4.71-2.9,8.7.09,2.88,4.59,2.9,4.5,0-.07-2.14-.07-3.49,1.25-5.19a17.6,17.6,0,0,0,1.59-1.85,6.49,6.49,0,0,0,.67-1.67,47,47,0,0,0,7.07,7.34c4.1,3.36,6.28,7.59,9.75,11.44,3.65,4,8.72,7,12.8,10.57,2.9,2.56,5.91,5,8.82,7.53-3.12.74-5.59,3.07-8.83,3.82-4.82-3.6-8.46-9.1-7.94-15.21a2.32,2.32,0,0,0-.07-.76c.32-1.9-2.13-3.78-3.78-2-3.08,3.29-4.71,7.07-2.78,11.42,1.61,3.66,5.46,8.53,9.11,10.33a8.34,8.34,0,0,0,4.3.89h0a33.81,33.81,0,0,0,12.1,4.58,48,48,0,0,1,7,1.54,22.07,22.07,0,0,0,3.9,1.19c.09.3.17.61.23.91-4.56.59-9.28-.72-13.78-1.21A71.76,71.76,0,0,1,628.14,765c-11.78-4.56-22.76-11.38-34.12-16.88-11.18-5.42-21.9-11.27-31.51-19.18q-7.68-6.33-15.37-12.63a8.92,8.92,0,0,0-.66-1.13,2.22,2.22,0,0,0-1.94-1q-7-5.77-14-11.57c-8.36-6.94-16.22-11.83-27.26-13.34-6-.83-11.75-.8-17.73-2.17a124.75,124.75,0,0,0-17.22-2.53c-6.25-.52-12.58-.61-18.86-.51-4.34.07-8.63.63-12.95,1.05,2.93-1.17,5.83-2.41,8.81-3.46s6.36-2,7.78-5a2.3,2.3,0,0,0-.36-2.73c-8.78-6.89-18.17-1.33-27.47,1.33-6.28,1.8-12.84,2.33-19.19,3.82s-12.35,3.92-18.68,5.46a41.11,41.11,0,0,0-7.69,2.75,164,164,0,0,0-23.63,3,10.88,10.88,0,0,0-7.1.75,13.85,13.85,0,0,0-4,2.52c-6.89,2.74-13.93,7.5-14.88,15.21a2.27,2.27,0,0,0,1.65,2.17c4.35,1.68,9.5-.79,13.9-1.53l3.05-.56A18.32,18.32,0,0,0,352.3,710c4.76,1,8.35-.81,11.41-4.13l.2,0c1.89-.36,3.75-.73,5.6-1.15,8.67,6,17.3,12,26.79,16.78a136.72,136.72,0,0,1,17.08,10,184.07,184.07,0,0,0,17.79,10.32c10.84,5.84,23.25,7.05,35.09,9.67,6.35,1.4,12.63,2.9,18.07,6.62a184,184,0,0,1,15.19,12.28c.36.31.7.65,1,1-3.42-2-7.8-3.2-10.9-4-10.44-2.78-28.15-8.82-35.29,2.94-2.81,4.62-2.15,9.68-.07,14.49,2.29,5.29,7.12,6.73,12.1,8.66,6.13,2.38,14.56,4.51,20.92,2.09a7.3,7.3,0,0,0,.48,1.5c-.86-.12-1.72-.24-2.59-.3-2.55-.2-5.11.17-7.66,0a54.34,54.34,0,0,1-11.05-2.33c-12.46-3.57-25.09-8.79-38-10.43a78.19,78.19,0,0,0-11.24-.34c.09-1.37,0-2.77,0-4.21,12-3.36,13.7-23,8-32.17-1.13-1.84-4.26-1.17-4.19,1.13.14,4.54,1.1,9.9-.44,14.27-1.31,3.73-4.68,6.47-6.5,9.94-.21.4-.49,1.61-.86,1.84-.94.58-2.64-.72-3.06-1.9v-2c.26-1.25.86-2.59,1-3.67A26.53,26.53,0,0,0,410,755.56c-.74-2.34-4.53-2-4.42.59.2,5,0,10,.1,15.06,0,0,0,.09,0,.13a6,6,0,0,0,.12,2.45,15.44,15.44,0,0,1-.33,5.13,15.79,15.79,0,0,1-2,4c-6-.61-12-1.46-17.91-2.65-13.6-2.76-26.63-7.07-40.46-8.72-7.26-.87-13.78-3.29-20.71-5.45-7.11-2.21-14.24-4.27-21.26-6.77-13.07-4.66-25.43-10.86-38.23-16.14s-24-13-35.89-19.74c-13.28-7.57-26.5-13.41-41.64-15.86-7.53-1.21-14.76-3.72-22.28-5a208.29,208.29,0,0,0-21-2.6c-16.41-1.15-33,.73-49.43.87-8.11.07-16.22.34-24.3,1-6.81.55-13.73.82-20.35,2.64-2.78.77-1.6,5.11,1.2,4.34,6.81-1.87,14-2.1,21-2.63,8.08-.61,16.19-.82,24.3-.86,15.83-.08,31.73-2,47.55-.86a186.1,186.1,0,0,1,23.41,3.1c7.5,1.48,14.71,3.7,22.28,4.88,15,2.35,28.58,10,41.51,17.54,5.6,3.27,11.12,6.68,16.74,9.91,6.8,3.9,13.88,6.77,21.05,9.91,13.8,6,27.3,12.22,41.67,16.85,7.09,2.29,14.23,4.52,21.35,6.73,7.54,2.35,15.27,2.54,23,4.07,15,3,29.41,7.7,44.71,9.48,1,.11,1.92.2,2.87.29a2.29,2.29,0,0,0,3.07.28c2,.17,4,.28,6,.37a2.44,2.44,0,0,0,4.07.24l.08-.13c1.28,0,2.57,0,3.87,0,8.24-.13,15.6,1.81,23.42,4.16,7.08,2.12,14.18,4.18,21.26,6.27,6.64,1.94,12.47,2.4,19.27,2.71,8.2.37,20,5.14,27.06-1.68,7.77-7.49.78-23.08-5.11-29.52-3.6-3.92-8.28-7-12.33-10.44-4.9-4.16-9.81-7.76-16-9.83-13.36-4.49-28.09-4.48-41-10.34-13.33-6-24.72-15.3-37.76-21.82A115.15,115.15,0,0,1,379,705.64c-1.13-.88-2.28-1.71-3.45-2.53,2-.59,3.92-1.25,5.85-2,5.39-2.16,10.62-4.7,16.23-6.25,5-1.38,10-2.33,15.09-3.3,5.56,2.62,12.5,3.31,18.29,3.84,11.21,1,22.69.38,33.93.38,7.11,0,15.92-2,22.6,1,4.7,2.1,5.44,6.73,6.81,11.17a18.54,18.54,0,0,0,5.41,8.72c6.33,5.81,15.24,7.3,17.8,16.41a96.63,96.63,0,0,0,11.31,24.5C532.86,763.88,550.94,781.42,555.56,766.7ZM670,682.59c.85.51,2.13,1.29,3.41,2.23a21.65,21.65,0,0,1-12.59-.36c-5.46-1.9-13.29-4.35-14.59-10.74a1.92,1.92,0,0,0-2.27-1.59c0-.28,0-.57,0-.85A119.4,119.4,0,0,1,670,682.59Zm-11.17,5.74c-2.14.43-3.7.78-6-.19-2.07-.89-4.85-2.49-6-4.43a15.9,15.9,0,0,1-1-1.93,24.76,24.76,0,0,0,7.31,4.36C655,686.93,656.92,687.68,658.82,688.33Zm-45.5-26a2.27,2.27,0,0,0,0-2.27,13.12,13.12,0,0,0-.81-1.31l3.38,1.51a2.82,2.82,0,0,0-.18.45c-.4,1.69.08,5.51-1.59,6.47-1.31.76-3.14.21-4.47-.66C610.63,665.05,612.39,663.79,613.32,662.36Zm-67-30.46c.81-1.13,2-1.52,2.69-2.92a5.85,5.85,0,0,0,.56-3.58c1.26.4,2.5.81,3.72,1.25-.2,1.2-.43,2.41-.75,3.59-.56,2.13-.64,2.75-2.92,2.58a11.78,11.78,0,0,1-2.63-.52C545.79,631.93,545.88,632.5,546.3,631.9Zm-40.41-13.2c5.54.42,11.08.4,16.61,1,5,.59,10.12,1.43,15.18,2.52a2.1,2.1,0,0,0,2.07,1.55c1.46,0,4,.33,4.91,1.61,1.34,1.78-1,2.64-2,3.66-2.51,2.52-.86,5.65,1.94,7.07,2.62,1.32,7.63,2.07,10.05,0,2-1.7,2.53-5.08,2.93-7.77l.08,0c4,2,7.38,4.72,11.34,7,4.57,2.63,9.4,4.82,13.94,7.51,4.18,2.47,7.9,5.63,12.14,8a107.09,107.09,0,0,0,11.35,5.26,2.36,2.36,0,0,0,.56,3.31,7.4,7.4,0,0,1,1.67,1.63c-1.61,1.79-4,3.56-4,6s3.88,4.13,5.93,4.58c2.54.55,5.44.22,7.3-1.75s1.65-4.41,2-6.79a1.84,1.84,0,0,0,.93-.71,168.62,168.62,0,0,0,18.65,7.4c0,9.75,2.58,18.81,12.35,22.7,4,1.59,7.41-.06,11.45-.45,4.38-.42,9.83,1.32,14,0h0a1.76,1.76,0,0,1-.09.2c-1.6,2.49-7.21,3.72-9.78,5-9.84,4.71-21.25,5-32.07,4.64-3.07-.1-6.05-.47-9.1-.82-2.71-.31-5.75-.13-8.36-1-5.23-1.7-9.77-6.33-14.25-9.38-5.14-3.51-10.35-6.92-15.37-10.56-2.45-6.6-9.23-10.71-14.66-14.69-8.79-6.44-18.53-11.12-28.33-15.79-5.18-2.47-10.57-4.68-15.83-7.12-1.92-1.52-3.86-3-5.85-4.49A212.09,212.09,0,0,0,497,621.27a10.18,10.18,0,0,1-2.69-3.59.45.45,0,0,0,0-.11C498,617.13,502.26,618.43,505.89,618.7ZM231,619c-4.39,1.24-8.84,2.25-13.27,3.31-1.9.46-3.81.88-5.69,1.4-.22.06-4.28,1.63-4.46,1.57a52.59,52.59,0,0,1,6.41-4.2c9.11-3.63,18.66-5.19,28.39-6.11l3-.29C240.64,616.15,235.86,617.65,231,619Zm133.45-19.41c-14.39,2.48-28.94,5.22-43.51,6.22-5.17.36-10.35.6-15.53.82a2.12,2.12,0,0,0-.21-1.78c-2.31-3.07-6.25-3.51-9.72-4.53-1.44-.42-2.86-.87-4.27-1.33a76.11,76.11,0,0,0,11.31.28c5.15-.22,10.36-.48,15.49-1,4.21-.39,8.09-1.24,12.37-1.18,4.73.08,9.32-.68,14-1,4.47-.3,9-.17,13.43-.37,10.21-.47,20.39-.89,30.61-1.16,6.68-.19,13.14.91,19.66,1.79A213,213,0,0,0,364.49,599.61Zm84.77,4.13a121.61,121.61,0,0,0-15.44-4.28c3.59.64,7.17,1.38,10.77,2.16a58.57,58.57,0,0,1,13.42,5C455.08,605.69,452.15,604.75,449.26,603.74Zm77.16,70.32c-2.34-3.06,5.5-5.68,7.33-7,.82-.59,1.6-1.21,2.38-1.85C533.79,670,529.74,678.41,526.42,674.06Zm29-11.45c-4.39-2.84-8.52-6-12.57-9.17,6.38,3,12.69,6.12,18.76,9.61,3,1.75,5.91,3.68,8.75,5.7a2,2,0,0,0,.34,2.61c.33.34.67.65,1,1C566.26,669.17,560.77,666.06,555.44,662.61Zm40.36,50.68c-.57.55-1.76,1.94-2.56,2.06-.68.7-1.32.43-1.9-.81-1-.34-1.4-.77-1.37-1.29,2.18.14,4.15.39,6.17-.31C596,713.06,595.92,713.18,595.8,713.29Zm57.8,49.87a45.7,45.7,0,0,1-10.21-2.54l1-.51c4.71-2.31,8-1.37,11.17,2.65a18.13,18.13,0,0,0,1.37,1.41A20.15,20.15,0,0,0,653.6,763.16Zm-231.29,5.65a12,12,0,0,1-3.55,4.81C419.81,771.92,421.13,770.41,422.31,768.81Zm-14.12,14.58a20.13,20.13,0,0,0,1.64-4.44,5.64,5.64,0,0,0,3,.77,19.6,19.6,0,0,1-.06,3.91c-1.25,0-2.5-.06-3.75-.16Zm57.47,5c-3.5-1.34-6.23-2.61-7.61-6.37s-1.64-7.79,1.41-11c6-6.36,18.5-1.86,25.75-.12,4.27,1,8.7,2.08,12.52,4.33l.74.46c-6.64,1.57-6.2,13.62-12.73,15.65C478.62,793.53,472.22,790.87,465.66,788.37Zm28.45,1c.48-1,.87-2,1.27-3a2.35,2.35,0,0,0,2.79-.12c1.71-1.33,4.37-2.86,6-4.79A9.65,9.65,0,0,1,506,783c2.05,2.35-.54,7.82-2.12,10.26a11.26,11.26,0,0,1-5.44,4.37c-2.24.73-6.68-.28-6.82-3.44a2.22,2.22,0,0,0-.35-1.13A13,13,0,0,0,494.11,789.35ZM506.73,797l0,0a17.86,17.86,0,0,0,2.66-5.19,7.42,7.42,0,0,1-1.85,4.55A4.3,4.3,0,0,1,506.73,797Zm45-41.57c-.29,3.63-1.37,9.85-5,5.54a14.9,14.9,0,0,1-.77-2.81c-.6-1.68-1.55-3.18-2.12-4.88-1.12-3.32-2.06-6.6-3.26-9.89-.95-2.6-1.55-4.95,1.49-6.35,1.39-.64,3.29-.51,4.8-.52a2.35,2.35,0,0,0,.67-.11,19.83,19.83,0,0,0,.7,3.08A69.51,69.51,0,0,1,551.78,755.43ZM427.67,679.16c6.08-1.91,13.83-6.29,20.06-3.24-2,1.33-5.16,1.82-7.07,2.61-5.17,2.16-10.28,4.17-15.64,5.82-1.6.5-3.22.92-4.85,1.3l-8.54.13a2.39,2.39,0,0,0-2.63,0c-3.49.08-7,.18-10.46.32,1.85-.67,3.69-1.36,5.58-1.94C411.8,681.84,420,681.58,427.67,679.16Zm-77.88,25-.4.06c-2.18-1.26-3.78-3.29-2.63-6a4,4,0,0,1,.59-.94,72.4,72.4,0,0,1,9-2.43c2.29,1,4.56,3.59,6.6,5.24-.51.57-1,1.15-1.57,1.73C357.51,702.6,353.65,703.41,349.79,704.14Zm12.38-10.41c2.91-.5,5.84-.91,8.79-1.25a43.63,43.63,0,0,0-4.84,4.21C364.78,695.74,363.46,694.76,362.17,693.73ZM335,706.9c1-3.08,3.64-5.42,6.87-7.22a7.83,7.83,0,0,0,.08,1.52,8.17,8.17,0,0,0,1.75,3.95l-1.06.18C340.44,705.72,337.5,706.89,335,706.9Zm35.64-7.14-.75-.5a47,47,0,0,1,11.1-7.69c5-.37,10-.64,14.95-.93l-1.23.36C386.44,693.55,378.89,697.45,370.62,699.76Zm101.93-8.68c-10.08.54-20.25.19-30.34.18a98.82,98.82,0,0,1-16.12-1l-.73-.12c3.78,0,7.56-.09,11.34-.28,5.76-.29,11.33-1.34,17.13-1.31a182,182,0,0,1,19,.93c2.81.31,5.55.82,8.28,1.37C478.22,690.72,475.33,690.93,472.55,691.08Zm73.29,75.84A32.45,32.45,0,0,1,537,760.8c-6.09-6-9.76-15.19-13-22.95-1.38-3.3-2-6.91-3.45-10.14-.1-.22-.22-.42-.33-.63a11,11,0,0,0,5.45-6,2.26,2.26,0,0,0-3.54-2.72c-1.75,1.46-5.49.55-7.6.48a2,2,0,0,0-1.64.67,13.36,13.36,0,0,1-3.14-3.43c-1.74-3.38-.69-8.12-6-8-2.9.05-2.9,4.55,0,4.5.36,0,.77,1,1.19,2.3a15.47,15.47,0,0,1-6.31-8.16c-1.89-5.79-3.07-11.23-9.12-14-.16-.08-.33-.14-.5-.21l1.06.19c5.94,1.05,11.88.55,17.77,2.1,11.85,3.12,20.11,11.55,29.35,19.15,2.11,1.73,4.21,3.5,6.3,5.27.92,2.17,1.36,4.79,2.24,6.89a20.72,20.72,0,0,1,1.35,6h-.17c-4.52,0-10.79.92-11.72,6.34-.59,3.47,1.45,6.76,2.58,9.89,1.27,3.56,2.21,7.08,3.64,10.59,1.88,4.58,2.7,9,9.13,7.48l.32-.1C549.39,768.55,548,767.9,545.84,766.92Z" transform="translate(-47.89 -576.86)"/></svg>