<svg id="Layer_5" data-name="Layer 5" xmlns="http://www.w3.org/2000/svg" viewBox="0 0 1286.9 453.57"><defs><style>.cls-1{fill:none;stroke:#000;stroke-miterlimit:10;}</style></defs><path class="cls-1" d="M1288.66,555.92c-20.31,2.67-40.76,3.17-61.21,3.13-10.6,0-21.19-.18-31.78-.19-10.05,0-20.12.59-30.17.19-19.83-.79-40-6.23-59.31-10.37-9.58-2-19.28-2.95-28.9-4.73-9.46-1.75-19-1.74-28.5-3.77-8.88-1.91-17.63-4.09-26.26-6.62a87.69,87.69,0,0,0-21.65-11.8c-3.06-1.08-7.28-2.78-11.3-3.38a74.3,74.3,0,0,0-7.32-4.44c-7.71-4-16.29-6-24.36-9.16-10.06-3.89-19.81-8.54-29.91-12.31a128.18,128.18,0,0,0-28.36-6.81c-10.77-1.41-20.86-4.92-31.23-7.94-9.86-2.87-20.24-3.38-30.09-6.19-4.14-1.17-8-3.11-12.06-4.52-4.72-1.63-9.61-2.76-14.34-4.37-9.12-3.1-17.91-7.24-27.24-9.68-9.16-2.4-33.47-6.85-36.11,7.26-1.29,6.89,3.59,12.84,8.12,17.4,6.5,6.53,14.52,10.74,22.21,15.65,16.74,10.69,33,22.29,50.51,31.65,9,4.77,18.7,7.9,27.58,12.75,4.74,2.59,9.83,6.14,12.57,11a9.08,9.08,0,0,1,1,2.77,2.92,2.92,0,0,0-1.15.27c-5.87,2.8-19.83,8.1-18.92,16.43a7.5,7.5,0,0,0,.47,2c-.88.44-1.69.85-2.38,1.22-7.77,4.19-16.5,7-23.05,13.09-15.66-2.75-30.64-7.7-46-13.15-18.91-6.7-41.55-7.84-54.54-24.94-5.76-7.59-10.11-16.1-16.18-23.51-5.19-6.33-12.19-14.11-20.07-17.06-3.12-1.16-6-.86-9.21-.41s-6.78.4-9.93,1.42c-5.78,1.86-6.18,6.95-3.23,11.65,1.63,2.62,3.86,4.78,5.83,7.13,3.45,4.12,6.28,8.87,9.16,13.39,5.61,8.84,10.88,17.92,17.28,26.23l.5.63V566A70.63,70.63,0,0,0,684,558.72c-18.37-6.13-33.26-15.68-46.14-30.2-6.08-6.86-12.16-13.65-19.16-19.59-5.14-4.36-10.53-8.92-17.32-10.27-4.83-1-13.81-1.59-17.78,2.08-5.43,5-.18,12.11,2.91,16.73,10.27,15.32,23.36,28.35,37,40.65a7.53,7.53,0,0,0,.23,1.66,2.37,2.37,0,0,0,3.27,1.51q7.2,6.48,14.28,13l-3.55-1.74c-9-4.5-18.26-8.65-27.25-13.24-8.64-4.41-16.93-9.58-25.65-13.81-12.61-6.12-32.89-9.55-44.3.68a2.43,2.43,0,0,0-.38,2.92c7.64,11.13,21.5,16.64,32.66,23.47,7.69,4.71,14.41,10.64,20.87,16.9-10.33-.42-20.79,2.17-28.46,9.67a2.49,2.49,0,0,0,0,3.42c1.88,2.36,4.25,3,7.15,3.47,4.61.77,9.18,1.68,13.7,2.83,9.16,2.35,18.18,5.49,27.17,8.42,6,1.95,11.9,4,17.81,6.14a181.39,181.39,0,0,0,26.91,17.22c15.62,8,32.76,12.1,49.8,15.8,20.12,4.37,40.4,9.75,61.11,10a2.44,2.44,0,0,0,2.33-3.06c-1.37-3.65-7.14-4.7-10.45-5.67-7.87-2.3-15.79-4.1-23.82-5.74A466.29,466.29,0,0,1,680,636.06c-15.68-5.36-31.11-11.4-46.7-17l-1.59-1.22H633c3.11,0,3.11-4.81,0-4.83-2.32,0-5.06.28-7.28-.53-2.46-.9-2.89-3.33-3.23-5.68s-3.4-2.14-4.41-.58l-.11.18c-3.54-3.17-7-6.45-10.38-9.76,6.17,1.65,11.54,4.44,17.13,7.59A151.89,151.89,0,0,0,643,612.82c13.72,5.48,27.21,11.48,40.9,17,14,5.65,28.43,10.18,42.84,14.72,28.15,8.87,55.45,19.22,84.75,23.76a661.29,661.29,0,0,0,90.26,8.24c35.25.58,70.14-4.26,105.17-7.36h0c.73.05,1.48.07,2.23.08,1.76.16,3.53.32,5.29.52,20.88,2.33,41.09,8.29,61.78,11.72,20.09,3.32,40.76,2.44,61,2.82,20.89.4,41.73,1.69,62.6,2.69,11.56.55,23.25.38,34.77,1.45,11.2,1,22.09,4,32.88,7,3,.84,4.28-3.82,1.29-4.66a220.9,220.9,0,0,0-27-6.27c-9.12-1.36-18.29-1.38-27.48-1.72-20.44-.76-40.85-2.22-61.29-2.9-20.25-.68-40.6-.1-60.82-1.43-20.65-1.35-40.65-7.38-61-11l-.77-.13c2.76-.61,5.3-1.7,6.64-3.81a2.44,2.44,0,0,0-.86-3.3c-5-2.58-10.48-2.22-16-2.62-7.28-.53-14.54-1.35-21.82-1.93-6.21-.5-12.43-.72-18.56-1.86-3.53-.65-7.59-1.44-10.78.66a2.46,2.46,0,0,0-.48,3.79c3.89,4.94,10.71,6.9,16.86,8.16-24.72,2.5-49.42,5.15-74.3,5.34-32.25.24-64.57-2.92-96.42-7.78-30.06-4.59-58-15-86.82-24.09-14.42-4.54-28.81-9.06-42.84-14.71-6.08-2.45-12.13-5-18.18-7.51,2.16-1,1.89-4.83-.87-4.58-1.48.13-2.18-2-3.33-2.66a5.74,5.74,0,0,0-4.06-.63c-1,.17-3,.64-3.77-.58a14.19,14.19,0,0,1-.2-2.53,32.82,32.82,0,0,0-2.6-7.2,2.33,2.33,0,0,0-2.08-1.19c-3.28.08-5.93,1.93-6.42,5.32a6.48,6.48,0,0,0,1.26,4.86c-.84-.34-1.67-.7-2.52-1-8.12-3.31-15.37-7.86-23.22-11.69a61.58,61.58,0,0,0-14.26-4.68,8.52,8.52,0,0,0,1.23-1.37c.76-1,1.32-2.18,2.1-3.19a43.86,43.86,0,0,0,3.62-4.4,8.28,8.28,0,0,0-.05-9,5.19,5.19,0,0,0-6-2.36c-2.74,1-3.91,4.09-4.26,6.71-.32,2.34,0,4.66-.61,7-.11.45-.23.89-.35,1.32l-.22-.41c-1.89-3.5-1.33-8-1.29-11.77,0-3.11-4.81-3.11-4.83,0a53.16,53.16,0,0,0,.48,10.23A85,85,0,0,0,585,575c-6.6-5-13.85-9-21-13.09-5.68-3.23-11.89-6.62-16.56-11.37a1.42,1.42,0,0,0,.13-.12c5.14-5.36,16.25-3.2,21.4.89a29.23,29.23,0,0,0,2.69,2.16c1.84,1.14,2.55.39,1.12,1.9-3.55,3.74-9.82.38-12.76-2.14-2.35-2-5.78,1.4-3.42,3.42,4.75,4,10.24,6.49,16.36,4,3.55-1.44,8.43-5.59,4.57-9.44-1-1-2.34-1.21-3.43-1.92-1.68-1.1-3-2.68-4.7-3.72l-.15-.08a69.46,69.46,0,0,1,18.27,7c16.52,9.19,33.51,17.19,50.41,25.63q7.75,3.87,15.55,7.63l16.63,15.58c7.61,7.15,15.14,13.81,24.34,18.86,8.54,4.7,17.66,8.22,26.69,11.84,19.43,7.77,38.77,18.8,60.3,18.22a2.44,2.44,0,0,0,1.71-4.12c-9.85-11.39-25-15.55-38.45-21-8.8-3.53-16.83-8.35-24.82-13.41A165.62,165.62,0,0,0,696,599.06a9.92,9.92,0,0,0-.14-3.26,5.06,5.06,0,0,0-6.68-3.91,11.81,11.81,0,0,0-4.32,2.44q-14.49-6.21-28.73-12.88c-6.06-5.78-12.15-11.53-18.41-17.11-2.88-2.57-5.77-5.13-8.63-7.71,1.13-1,3.24-1.67,4.32-2.29,2.62-1.49,5.48-4.42,4.5-7.75-.92-3.07-4.56-3.52-7.24-3a8.89,8.89,0,0,0-7,5.62c-1,2.95,3.66,4.21,4.65,1.28.5-1.47,2.65-2.21,4-2.28a3.16,3.16,0,0,1,.76,0,3.26,3.26,0,0,1-.79,1c-1.69,1.52-4.11,2.11-6,3.44a8.54,8.54,0,0,0-.86.71,278.41,278.41,0,0,1-23-23.08,3.14,3.14,0,0,0,.45,0c2.16,0,4.65,0,6.06-1.9s1-5.28.62-7.56a15.93,15.93,0,0,0-4.72-9c-1.35-1.18-2.91-2-4.24-3.21a24,24,0,0,0-3.39-2.89c-1.89-1.21-4.92-2.61-7.46-2.46a11.8,11.8,0,0,1,1.43-.19c8.7-.69,14.79,1.62,21.48,7.06,13.2,10.72,22.79,25,36.07,35.57a95.76,95.76,0,0,0,20.3,12.54c8.17,3.67,17.27,5.32,25,9.83,7.54,4.37,14.08,10.66,20.77,16.31,2.42,2.87,4.82,5.77,7.1,8.76,6.24,8.17,12.15,16,21.55,20.78,8.16,4.12,17,5.92,26,7.4,3.89,2.92,7.73,5.9,11.84,8.52,5.64,3.6,11.57,5.06,18.08,6,4.13.62,10.4,2.18,14-.79a2.43,2.43,0,0,0-.49-3.79c-9.73-4.7-19.19-10.17-29.84-12.51-3.77-.83-7.58-1.43-11.39-2a92.66,92.66,0,0,0-20.78-11.56l-.5-.21c.55-.49,1.07-1,1.53-1.5,1.41-1.5,2.6-3.23,4.15-4.61s3.5-1.83,5.11-3.07c3.12-2.39,6.21-14.08-.65-13.2-2.76.35-4,3.17-4.89,5.45-1.61,4.23-3.68,8.56-7.1,11.63a2.29,2.29,0,0,0-.67,1,6.32,6.32,0,0,1-2.54,1.78l-1-.58a4,4,0,0,1-.2-1.44c0-3.72,2-7.43,2.86-11,.75-3-3.9-4.3-4.65-1.29-.54,2.18-2.22,6.49-2.85,10.52-4-2.88-7.68-6.15-11.34-9.35s-7.4-6.57-11.16-9.83q-3.48-4.15-7-8.28l-.78-1h.58c3.11.06,3.11-4.76,0-4.83-1,0-1.93,0-2.89-.11-.41,0-1.35-.33-2.06-.45a.76.76,0,0,1-.08-.11c.19-.24.36-.45.43-.52a17.24,17.24,0,0,1,2.15-1.55c2.85-1.88,7.91-4.61,7.62-8.66a2.49,2.49,0,0,0-2.41-2.41c-3.62-.35-6.46,2.16-8.65,4.75a2.45,2.45,0,0,0-.2,3,20.34,20.34,0,0,0-1.93,1.49c-4-5.44-7.75-11.05-11.37-16.84-1.18-1.88-2.35-3.79-3.52-5.69a2.62,2.62,0,0,0,.77-.47c1.22-1.08,3.36-.5,4.63-2.79,1.67-3,1-5.68-.32-8.73a46.08,46.08,0,0,0-12.4-16.59c1.39-.1,2.69-.15,3.65-.18,9.07-.33,18.26,11.43,23.37,17.9,6.17,7.81,10.46,17,17,24.51A48,48,0,0,0,744.75,566c9.13,3.08,18.67,4.7,27.8,7.84,10.5,3.62,20.88,7.62,31.53,10.8,21.84,6.54,43.58,6.67,66.16,6.89,13,.12,26.56,2,39.51.48,3.85-.46,9.77-1.26,11.43-5.46,3.14-8-9.82-7.49-14.18-7.38-13.31.31-26.51.31-39.78,1.54-5.62.52-11.27,1.06-16.85,1.91-5.94.9-11.28,1.92-17,1.75a84.49,84.49,0,0,1,9.84-5.06c4.27-2,8.48-4.14,12.63-6.38a11.8,11.8,0,0,0,4.32-1.16c5.91-2.76,11.94-7.58,14.43-13.78,6.15-15.31-15.42-25.08-26.25-29.55a230.37,230.37,0,0,1-31.53-16.38l0-.09c.81-4.31,4.63-4.12,7.84-5.6a27.47,27.47,0,0,0,6.73-4.64c3.78-3.44,8-7.43,8.43-12.73.18-2.39-3.43-3.28-4.5-1.22-1.88,3.6-4.87,5.29-7.73,7.94-.66.61-1.37,1.46-2.13,2.32a20.25,20.25,0,0,0,2.18-2.85,28.36,28.36,0,0,0,2.7-10.74,2.48,2.48,0,0,0-1.78-2.33c-5.38-2-7.78,3-8.58,7.46-.42,2.35-.34,4.85-1.06,7.13a17,17,0,0,1-3.2,5.7c-1.06,1.14-4.74,4.44-6.42,4.43a2.36,2.36,0,0,0-.72.11c-5.1-3.25-10.16-6.58-15.21-9.89-8.58-5.63-17.59-10.77-26-16.67-5.47-3.86-22.84-19.25-9.37-23.81,18.41-6.22,39.18,6.5,56.19,11.88,9.34,3,18.73,7.13,28.35,8.92,11,2.06,21.65,4.13,32.38,7.44s21.32,4.7,32.27,6.74c11.12,2.06,21.62,6.21,32,10.61s20.77,8.43,31.42,12.13a61.52,61.52,0,0,1,11,5.18c-1.23,1-1.35,3.25.23,4C987,525.85,992,528,997.18,530c1.42,1,2.86,2,4.33,2.94,18.07,11.81,39.75,24.82,62,25.08,2,0,3.37-2.76,1.71-4.12-4.77-3.93-11.14-4.28-16.9-5.87a53.15,53.15,0,0,1-14.09-6.37l3.79,1c19,4.67,38.46,5.91,57.76,8.92,19.66,3.06,38.89,8.78,58.63,11.39,10.27,1.36,20.57,1.09,30.9.88,10.52-.22,21,0,31.58,0,24,.17,48,.06,71.8-3.07C1291.69,560.35,1291.73,555.52,1288.66,555.92ZM982.11,659.11c5.39.84,10.95.93,16.39,1.37,5.89.47,11.76,1.1,17.65,1.59,4.1.35,8.95,0,13.26.84-3.76.88-9.18.83-11.17,1a90.42,90.42,0,0,1-10.67.49h0l-.29,0-5.89-.55c-7.44-.68-19-1.25-25.94-6C977.69,658,980.17,658.81,982.11,659.11ZM648.66,603.47a23.13,23.13,0,0,1,1.11,3.08C648.74,605.45,647.84,604.1,648.66,603.47Zm-77.18-3.33a2.18,2.18,0,0,0,.07,1l-.85-.35Zm10.14,2.78c-1.51-.33-3.66-.51-5.81-.83a7.89,7.89,0,0,1,7.58-1.57,22.54,22.54,0,0,1,2.86,1q.88.33,1.74.72a1.24,1.24,0,0,0,.5.34,2.56,2.56,0,0,0-1.26,1.69C585.37,603.78,583.51,603.33,581.62,602.92Zm36.76,11,.39-.4,1,.87ZM668.11,637a536.07,536.07,0,0,0,55.56,17c9.22,2.19,18.61,3.71,27.79,6.09l1.59.39c-12.65-1.58-25.11-4.57-37.59-7.26-16.93-3.66-34.11-7.17-50-14.27a133.77,133.77,0,0,1-16.63-9C655.24,632.35,661.66,634.72,668.11,637Zm-53-26.64c-.18.19-.35.39-.56.58a2,2,0,0,0-.77,1.48c-6.28-2-12.58-4-18.88-6l-2.15-.64a3.86,3.86,0,0,0,1.24-3.2c-.14-2.8-2.61-4.17-4.92-5.13a23.32,23.32,0,0,0-7.74-2,45.67,45.67,0,0,1,17.84-.54c5.21,5.23,10.38,10.5,15.89,15.36Zm-6.91-33c.18,1.76-.86,3-2,4.25,0-.83,0-1.66.08-2.5C606.39,577.32,607.8,573.54,608.18,577.32Zm77.6,26.95c-1.29-1.13-.72-2.74.24-4.1l1.42.57,3,1.22c-.74,2.87-1.9,6.07-1.61,9.06q-2-1.39-4-2.92C686.38,607.5,687.3,605.6,685.78,604.27Zm28.4,9.55c7.37,4.65,14.68,9.47,22.61,13.15,12.72,5.91,27.74,9.08,38.61,18.26-16.58-1.27-31.72-9.17-47-15.46-9.42-3.89-19.08-7.46-28.15-12.07a19.6,19.6,0,0,0-.23-4.89,2.48,2.48,0,0,0-3-1.69c-2,.27-3.15,1.1-3.36-1.38a16.9,16.9,0,0,1,1-5c.08-.3.17-.6.25-.91A139,139,0,0,1,714.18,613.82Zm-23.25-17.4c.16.06.24.29.27.62l-1.15-.49A1.16,1.16,0,0,1,690.93,596.42Zm-9.43,1.92a8.68,8.68,0,0,0-1.21,5.85c-4.37-3.93-8.66-7.94-12.92-12Q674.39,595.38,681.5,598.34Zm-48-50c.06,0,.07.06,0,0Zm-32.34-33.2a11.12,11.12,0,0,1,3.79,7.05c.07.43.16,2.92.25,3.3a19.88,19.88,0,0,0-2.27,0,2.32,2.32,0,0,0-2.32,2.57c-.62-.74-1.26-1.46-1.87-2.22-3-3.75-6-7.61-8.62-11.64-.52-.79-1.16-1.64-1.77-2.53,1.95,1.18,6.38,3.27,6,5.22-.54,3,4.11,4.34,4.65,1.28.58-3.21-.94-5.46-3.4-7.4-.66-.52-1.38-1.07-2.12-1.59C596.32,510.69,598.76,513.21,601.16,515.14Zm133.69,86.18c1.6,1.22,3.24,2.41,4.93,3.52a4.66,4.66,0,0,0,1.32,1.81A51.52,51.52,0,0,1,734.85,601.32ZM802,631.5c-2.74-.35-5.49-.81-8.19-1.41-5-1.13-9.35-3.71-13.43-6.68A113.38,113.38,0,0,1,802,631.5Zm-56-23.13c4.1,2,8.46,3.21,12.44,5.49.4.23.79.49,1.19.73-1.84-.44-3.67-.91-5.49-1.49a46,46,0,0,1-12.68-6.23,5.5,5.5,0,0,0,2.34.87,5.1,5.1,0,0,0,1.1,0C745.22,608,745.57,608.19,746,608.37Zm-64.71-78.68a27,27,0,0,1,4.17,4.06,4.3,4.3,0,0,0-1.07.68C683.33,532.84,682.3,531.25,681.24,529.69Zm5.92-2.17a15.33,15.33,0,0,1,.68,1.72,39.86,39.86,0,0,0-9.64-7.87c-2.74-1.63-4.44-3-5.24-6.2-.27-1.08-1.1-3.33.8-3.48.56,0,2.57,2.18,3,2.65C680.81,518.19,684.83,522.41,687.16,527.52ZM893.1,584.14c5.45-.1,10.92.06,16.36-.15,2-.08,10.79,0,4.9,2.23-4.87,1.84-10.88,1.52-16,1.41-14.18-.3-28.41-.44-42.6-.81,1.1-.15,2.21-.3,3.34-.42C870.41,585.12,881.73,584.34,893.1,584.14Zm-34.66-20.69a45.19,45.19,0,0,1,8.93-5.47c-2,4.09-7.2,7.34-12,9.84C854.81,566.72,857.53,564.2,858.44,563.45Zm166.89-21.88c-2.88-1.53-5.7-3.14-8.46-4.78,1.09.34,2.2.65,3.3,1C1021.9,539,1023.62,540.3,1025.33,541.57Z" transform="translate(-4.55 -242.48)"/><path class="cls-1" d="M549.07,446.08a35.22,35.22,0,0,0,.88-14.16v-.05a2.41,2.41,0,0,0-.08-.67,71,71,0,0,0-2.22-10.58c-.93-3.2-2.5-6.29-2.77-9.65-.2-2.66.09-4.9-.74-7.5-.27-.82-.6-1.62-.94-2.42,5.79,4.88,11.61,9.72,17.65,14.21,9.7,7.22,21.31,11.95,31.95,17.54,11.79,6.19,23.75,12.85,36.3,17.36,6.34,2.28,12.34,3,19,3.88,5.69.71,11.35,2.11,17,.67a2.48,2.48,0,0,0,1.78-2.33c.4-9.86-11.44-19.61-18.06-25.27-4.85-4.13-9.54-8.61-14.67-12.39-3.23-2.39-6-4.42-8.32-7.8a48.24,48.24,0,0,0-4.51-6.12c-4.83-5.09-10.33-8.35-14.13-14.51-.1-.17-.2-.34-.31-.51a11.16,11.16,0,0,0-2.27-6.38,2.28,2.28,0,0,0-2.06-.66,90.11,90.11,0,0,0-5.63-8.08c-1.68-2.14-3.45-4.19-5.23-6.23l4.2,2.84c5,3.37,9.76,7.59,15.05,10.46,4.86,2.64,10.23,2.42,15.58,3.1a100.64,100.64,0,0,0,19.86.56c6-.44,12.84-.45,18.51-2.56,4.28-1.58,8.41-3.77,12.58-5.63,3.25-1.46,6.83-3.58,7.55-7.39,1.45-7.67-9.34-13.48-14.87-16.31-5.27-2.7-10.69-5.17-16.15-7.44-6.28-2.61-13-4-19.33-6.33-6.92-2.55-13.58-5.67-20.27-8.75s-14-5.59-20.57-9.27c-5.09-2.86-9.56-6.67-14.67-9.52-6-3.34-12.31-6.09-17.88-10.09-11.64-8.36-27.14-11.33-41.09-13.56-7.48-1.2-14.93-1.49-22.47-1.92-5.64-.32-12.31-2.56-17.88-.7a2.56,2.56,0,0,0-1.61,1.49c-9-1-17.1-5.89-25.06-10-8.38-4.34-16.33-8-25.67-9.74s-17.93-3.54-27.29-4.1c-10.26-.61-20-3.18-30.4-2.9-10.95.3-21.87.75-32.82,1.25-4.8.22-9.62.08-14.41.4-5,.34-10,1.15-15,1.08-4.68-.08-8.67.73-13.27,1.26-5.47.62-11.11.79-16.61,1a95.18,95.18,0,0,1-15.92-.8c-5.13-.63-10.42-.31-15.59-.3-1.05-.2-2.11-.39-3.19-.54-8.94-1.26-18-1.93-26.92-2.9-9.74-1.05-19.36-2.87-29.06-4.24a340.84,340.84,0,0,0-55.82-3.62c-18.94.43-38,.81-56.94.28a255.33,255.33,0,0,1-32.9-2.95C30.93,245,20.55,243.22,10,243c-3.11-.07-3.1,4.75,0,4.82,18.17.42,35.94,5,54.08,6.15,17.68,1.07,35.4.42,53.1.3,18-.12,35.61-.69,53.49,1.38s35.59,5.42,53.53,7.15c6.78.65,13.69,1.17,20.46,2.3a2.3,2.3,0,0,0,1.22.33h.56a76.36,76.36,0,0,1,9.1,2.21c4.49,1.42,8.83,3.34,13.34,4.67,1.52.44,4.28.71,6.12,1.58a8.58,8.58,0,0,1-1.69.83c-7.84.3-15.68.62-23.5,1.17-1.82.13-3.62.32-5.41.56-3.37,0-6.73.08-10.09.26-17.65,1-36.65,2-53.19,8.69h0l-.06,0a2.94,2.94,0,0,0-.5.27l0-.05c-3.69,1.76-12.53,6.1-9.13,11.41,2.75,4.31,9,.72,12.58-.17,8.7-2.17,17.38-4.21,26-6.86,7.88-2.44,15.76-4.94,23.79-6.84a96,96,0,0,1,10.38-1.81h.28a204.49,204.49,0,0,0,22.95-1c1.3-.15,2.71-.3,4.13-.55,13.54-.5,27.13-1.11,40.51-3,16.87-2.36,33.63-6.1,50.57-7.86a193.31,193.31,0,0,1,53.21,2.12c8.49,1.56,16.49,4.41,24.61,7.27,7.76,2.74,15.74,4.79,23.54,7.39a126.67,126.67,0,0,1,20.38,9c2.91,2.43,6.29,4.48,8.84,6.41a153.88,153.88,0,0,0,24.14,15.08c4.42,3.61,8.67,7.42,13.12,11l1.5,1.18c-3.56,2.23-6.44,5.31-10,7.57-3.07,2-7.66,3.15-9.71,6.41-3.37,5.36,3.83,10.15,8.65,9.83,6.3-.42,8.84-6.7,11-11.63.82-1.9,1.92-4.47,4.16-5.08,3.69-1,5.26,2.36,5.89,5.21s.56,5.68,2.7,8,5.51-1.13,3.41-3.42c-1.43-1.56-1.36-4.5-1.79-6.88,1.8,1.16,3.61,2.3,5.43,3.44,6.45,4,13.15,7.6,19.61,11.6,2.11,1.31,4.82,3.06,7.52,3.56,4.24,5,8.9,9.63,13,14.77,1.48,1.86,2.85,3.77,4.16,5.7a2.39,2.39,0,0,0-.52,1c-.84,3.51-3.46,5.81-7.11,5.64-1.8-.09-3.74-.82-5.29.42-2.68,2.16-2.42,7.16-.61,9.66,2.78,3.87,6.72,2.93,10.12.56a25,25,0,0,0,5-4.55c1.12-1.34,2.21-3.41,3.56-5l1.32,2A11.11,11.11,0,0,1,601,393c-2.35,3.27-3.25,5.05-3.12,9.33.1,3.1,4.93,3.11,4.83,0-.07-2.29-.08-3.74,1.35-5.56a20.27,20.27,0,0,0,1.7-2,6.92,6.92,0,0,0,.72-1.79,50.66,50.66,0,0,0,7.58,7.87c4.4,3.61,6.73,8.15,10.46,12.27,3.91,4.33,9.35,7.48,13.73,11.34,3.11,2.75,6.34,5.35,9.46,8.08-3.35.79-6,3.29-9.47,4.1-5.17-3.86-9.08-9.76-8.52-16.32a2.41,2.41,0,0,0-.08-.82c.35-2-2.28-4.05-4-2.17-3.32,3.53-5.06,7.59-3,12.25,1.73,3.92,5.86,9.15,9.78,11.08a8.93,8.93,0,0,0,4.61,1h0a36.09,36.09,0,0,0,13,4.91,50.67,50.67,0,0,1,7.52,1.65,23,23,0,0,0,4.18,1.27,9.4,9.4,0,0,1,.25,1c-4.88.63-9.95-.77-14.78-1.3a76.37,76.37,0,0,1-20.2-4.89c-12.64-4.89-24.42-12.2-36.61-18.11-12-5.81-23.48-12.08-33.8-20.57Q548.29,398.76,540,392a8.37,8.37,0,0,0-.69-1.22,2.42,2.42,0,0,0-2.09-1.07q-7.54-6.19-15-12.41c-9-7.44-17.4-12.69-29.24-14.31-6.45-.88-12.6-.86-19-2.32A132,132,0,0,0,455.47,358c-6.71-.56-13.49-.65-20.23-.55-4.65.08-9.26.68-13.89,1.13,3.14-1.26,6.25-2.58,9.45-3.71s6.82-2.2,8.34-5.39a2.44,2.44,0,0,0-.38-2.92c-9.42-7.39-19.49-1.43-29.46,1.42-6.74,1.93-13.78,2.5-20.59,4.1s-13.25,4.2-20,5.86a43.29,43.29,0,0,0-8.25,2.95,173.52,173.52,0,0,0-25.34,3.24,11.68,11.68,0,0,0-7.62.8,14.92,14.92,0,0,0-4.31,2.7c-7.39,2.94-14.95,8.05-16,16.32a2.43,2.43,0,0,0,1.77,2.32c4.67,1.81,10.2-.84,14.91-1.64,1.1-.19,2.19-.39,3.28-.6a19.66,19.66,0,0,0,3.9,1.26c5.11,1.05,9-.87,12.24-4.44l.22,0c2-.38,4-.78,6-1.23,9.3,6.45,18.56,12.91,28.73,18a146.43,146.43,0,0,1,18.33,10.78c6.07,4.21,12.59,7.57,19.09,11.07,11.62,6.26,24.94,7.56,37.63,10.37,6.81,1.5,13.55,3.11,19.39,7.11,5.64,3.85,11.09,8.71,16.29,13.17.39.33.75.69,1.12,1-3.68-2.15-8.38-3.42-11.7-4.31-11.2-3-30.19-9.46-37.86,3.16-3,5-2.3,10.38-.06,15.54,2.45,5.67,7.63,7.22,13,9.29,6.57,2.55,15.62,4.84,22.44,2.25a7.68,7.68,0,0,0,.52,1.6c-.92-.13-1.85-.25-2.79-.32-2.73-.21-5.48.18-8.21,0a58.68,58.68,0,0,1-11.85-2.5c-13.36-3.83-26.91-9.43-40.74-11.19a85.28,85.28,0,0,0-12.06-.36c.1-1.47,0-3,0-4.52,12.86-3.6,14.69-24.64,8.61-34.51-1.21-2-4.57-1.25-4.5,1.22.15,4.86,1.18,10.62-.47,15.3-1.41,4-5,6.94-7,10.67-.22.42-.52,1.72-.92,2-1,.62-2.83-.77-3.27-2,0-.7,0-1.4,0-2.1.29-1.34.93-2.78,1.08-3.94a28.44,28.44,0,0,0-1.41-12.14c-.79-2.51-4.85-2.19-4.74.64.22,5.38,0,10.76.11,16.15v.13a6.54,6.54,0,0,0,.14,2.63,16.63,16.63,0,0,1-.35,5.51,17.13,17.13,0,0,1-2.19,4.33c-6.44-.65-12.89-1.56-19.21-2.84-14.58-3-28.57-7.59-43.4-9.36-7.78-.93-14.77-3.53-22.21-5.84-7.62-2.37-15.28-4.58-22.81-7.27-14-5-27.27-11.64-41-17.3-13.58-5.6-25.77-13.92-38.49-21.18-14.24-8.13-28.43-14.38-44.67-17-8.07-1.3-15.83-4-23.9-5.38a220.85,220.85,0,0,0-22.5-2.8c-17.61-1.23-35.39.79-53,.94-8.7.07-17.4.37-26.07,1.07-7.3.59-14.73.88-21.82,2.84C3.77,380.21,5,384.87,8,384c7.3-2,15-2.25,22.55-2.82,8.68-.66,17.37-.89,26.07-.93,17-.08,34-2.11,51-.92a200,200,0,0,1,25.11,3.32c8,1.6,15.78,4,23.9,5.24,16.09,2.52,30.65,10.69,44.53,18.81,6,3.52,11.92,7.17,17.95,10.63,7.3,4.19,14.89,7.27,22.58,10.63,14.8,6.47,29.29,13.11,44.7,18.08q11.42,3.69,22.9,7.22c8.09,2.51,16.38,2.73,24.64,4.37,16.12,3.21,31.55,8.25,48,10.16,1,.12,2.05.21,3.08.31a2.46,2.46,0,0,0,3.29.31q3.24.26,6.48.39a2.62,2.62,0,0,0,4.37.26l.08-.14c1.38,0,2.75,0,4.15,0,8.84-.14,16.74,1.94,25.13,4.46,7.59,2.27,15.2,4.49,22.8,6.72,7.12,2.09,13.37,2.59,20.67,2.92,8.79.4,21.45,5.51,29-1.81,8.33-8,.83-24.75-5.49-31.66-3.86-4.21-8.87-7.51-13.22-11.2-5.26-4.46-10.52-8.33-17.13-10.55-14.34-4.81-30.13-4.8-44-11.09-14.3-6.47-26.52-16.4-40.51-23.4a123.67,123.67,0,0,1-21-12.77c-1.21-.95-2.45-1.85-3.7-2.73,2.11-.62,4.2-1.33,6.28-2.16,5.77-2.31,11.38-5,17.4-6.7,5.36-1.48,10.77-2.5,16.18-3.54,6,2.81,13.41,3.55,19.63,4.11,12,1.1,24.33.41,36.39.41,7.63,0,17.08-2.18,24.25,1,5,2.26,5.83,7.22,7.3,12a19.94,19.94,0,0,0,5.8,9.36c6.79,6.23,16.35,7.83,19.1,17.6a103.64,103.64,0,0,0,12.13,26.28C524.73,443.05,544.12,461.87,549.07,446.08Zm122.75-90.22c.91.55,2.28,1.38,3.66,2.39a23.29,23.29,0,0,1-13.52-.39c-5.85-2-14.25-4.66-15.64-11.51a2.06,2.06,0,0,0-2.44-1.71c0-.31,0-.61,0-.92A128.23,128.23,0,0,1,671.82,355.86Zm-12,6.16c-2.3.45-4,.83-6.43-.21-2.23-.95-5.21-2.67-6.46-4.76A17.34,17.34,0,0,1,645.9,355a26.52,26.52,0,0,0,7.84,4.67C655.77,360.51,657.8,361.32,659.84,362ZM611,334.16a2.47,2.47,0,0,0,0-2.44,15,15,0,0,0-.87-1.4c1.21.54,2.42,1.07,3.63,1.62a2.22,2.22,0,0,0-.2.48c-.43,1.82.09,5.91-1.7,6.94-1.4.81-3.37.22-4.8-.71C608.15,337.05,610,335.7,611,334.16Zm-71.89-32.67c.86-1.22,2.18-1.64,2.88-3.13a6.29,6.29,0,0,0,.61-3.84c1.34.42,2.67.86,4,1.33-.22,1.29-.47,2.59-.8,3.86-.61,2.27-.69,2.94-3.14,2.76a12.26,12.26,0,0,1-2.82-.56C538.6,301.51,538.69,302.13,539.14,301.49Zm-43.35-14.16c5.94.44,11.89.42,17.82,1.12,5.38.63,10.86,1.53,16.29,2.71a2.23,2.23,0,0,0,2.21,1.66c1.57,0,4.24.36,5.27,1.72,1.44,1.92-1.1,2.84-2.19,3.93-2.69,2.7-.92,6.06,2.09,7.58,2.8,1.42,8.18,2.22,10.77,0,2.14-1.82,2.72-5.45,3.15-8.33l.08,0c4.34,2.12,7.91,5.07,12.16,7.52,4.91,2.83,10.08,5.18,15,8.06,4.48,2.65,8.48,6.05,13,8.6a116.92,116.92,0,0,0,12.18,5.64,2.53,2.53,0,0,0,.59,3.55,7.89,7.89,0,0,1,1.8,1.75c-1.73,1.92-4.35,3.82-4.28,6.48s4.15,4.43,6.36,4.91c2.72.59,5.83.23,7.83-1.88s1.77-4.73,2.11-7.28a2,2,0,0,0,1-.76,179.64,179.64,0,0,0,20,7.93c0,10.46,2.77,20.18,13.25,24.35,4.28,1.71,8-.06,12.28-.48,4.7-.45,10.55,1.42,15.05,0l0,0c0,.07-.06.14-.11.22-1.71,2.67-7.72,4-10.49,5.31-10.55,5.06-22.79,5.36-34.39,5-3.29-.11-6.49-.5-9.76-.87-2.91-.34-6.17-.14-9-1.05-5.61-1.82-10.48-6.78-15.28-10.06-5.52-3.76-11.1-7.42-16.5-11.33-2.63-7.08-9.9-11.48-15.72-15.75-9.43-6.91-19.87-11.93-30.38-16.94-5.56-2.64-11.34-5-17-7.64-2.06-1.63-4.14-3.24-6.27-4.81a227.61,227.61,0,0,0-28.57-18.09,10.84,10.84,0,0,1-2.88-3.85s0-.08,0-.12C487.36,285.64,491.89,287,495.79,287.33ZM201,287.66c-4.7,1.34-9.48,2.42-14.24,3.56-2,.49-4.08.94-6.1,1.5-.24.06-4.59,1.75-4.78,1.69s5.11-3.59,6.87-4.51c9.78-3.89,20-5.56,30.45-6.56l3.22-.31C211.26,284.59,206.14,286.2,201,287.66Zm143.14-20.81c-15.43,2.66-31,5.59-46.67,6.67-5.54.38-11.1.64-16.65.88a2.26,2.26,0,0,0-.23-1.91c-2.48-3.29-6.7-3.76-10.42-4.86-1.55-.45-3.07-.94-4.58-1.42a81.66,81.66,0,0,0,12.13.29c5.52-.24,11.11-.51,16.61-1,4.52-.42,8.68-1.34,13.27-1.27,5.07.08,10-.74,15-1.07,4.79-.33,9.61-.19,14.41-.4,11-.5,21.87-.95,32.82-1.25,7.17-.2,14.1,1,21.09,1.92A228.21,228.21,0,0,0,344.11,266.85Zm90.94,4.43a132.34,132.34,0,0,0-16.57-4.6c3.86.7,7.7,1.49,11.55,2.33a63.35,63.35,0,0,1,14.41,5.35C441.29,273.37,438.15,272.36,435.05,271.28Zm82.77,75.43c-2.52-3.29,5.89-6.1,7.85-7.5.88-.63,1.73-1.3,2.56-2C525.72,342.38,521.37,351.37,517.82,346.71ZM549,334.43c-4.71-3.05-9.15-6.39-13.49-9.84,6.84,3.19,13.62,6.56,20.12,10.31,3.25,1.87,6.34,4,9.39,6.11a2.22,2.22,0,0,0,.36,2.81c.35.35.73.69,1.08,1C560.55,341.46,554.66,338.13,549,334.43Zm43.29,54.36c-.62.59-1.89,2.07-2.75,2.2-.73.76-1.41.47-2-.86-1-.37-1.51-.83-1.47-1.39,2.34.15,4.45.43,6.62-.32Zm62,53.49a48.52,48.52,0,0,1-11-2.73l1.11-.54c5.05-2.48,8.57-1.47,12,2.84.28.35.84.9,1.47,1.52A21.29,21.29,0,0,0,654.23,442.28Zm-248.09,6.06a12.85,12.85,0,0,1-3.81,5.17C403.45,451.68,404.87,450.06,406.14,448.34ZM391,464a21.45,21.45,0,0,0,1.75-4.78A5.9,5.9,0,0,0,396,460a22.58,22.58,0,0,1-.07,4.2c-1.34,0-2.68-.07-4-.17Zm61.64,5.33c-3.75-1.43-6.68-2.8-8.16-6.83-1.55-4.2-1.77-8.35,1.51-11.81,6.46-6.83,19.85-2,27.62-.13,4.58,1.09,9.33,2.23,13.43,4.65.28.16.54.33.8.49-7.13,1.69-6.65,14.61-13.67,16.79C466.54,474.86,459.68,472,452.64,469.32Zm30.51,1.05a31.28,31.28,0,0,0,1.36-3.23,2.56,2.56,0,0,0,3-.13c1.83-1.43,4.68-3.07,6.45-5.14a9.77,9.77,0,0,1,2,1.73c2.2,2.51-.58,8.38-2.28,11a12,12,0,0,1-5.83,4.69c-2.4.78-7.16-.3-7.31-3.7a2.4,2.4,0,0,0-.38-1.2A13.68,13.68,0,0,0,483.15,470.37Zm13.54,8.22.05-.06a19.16,19.16,0,0,0,2.85-5.56,7.89,7.89,0,0,1-2,4.88A5.45,5.45,0,0,1,496.69,478.59ZM545,434c-.32,3.89-1.48,10.56-5.35,5.94-.37-.44-.62-2.47-.82-3-.64-1.8-1.66-3.41-2.28-5.23-1.19-3.56-2.2-7.08-3.49-10.61-1-2.79-1.67-5.3,1.59-6.8,1.5-.69,3.54-.55,5.15-.57a2.31,2.31,0,0,0,.72-.11,21.78,21.78,0,0,0,.75,3.3A74.12,74.12,0,0,1,545,434ZM411.89,352.18c6.52-2.06,14.83-6.75,21.52-3.48-2.13,1.43-5.54,1.95-7.58,2.8-5.55,2.32-11,4.47-16.79,6.25-1.72.53-3.45,1-5.19,1.39-3.06,0-6.11.08-9.17.14a2.53,2.53,0,0,0-2.82.05q-5.61.1-11.22.33c2-.71,4-1.45,6-2.07C394.87,355.06,403.66,354.78,411.89,352.18ZM328.35,379l-.43.07c-2.34-1.35-4.06-3.53-2.82-6.43a4.15,4.15,0,0,1,.63-1,75.77,75.77,0,0,1,9.64-2.61c2.45,1.1,4.89,3.85,7.08,5.62l-1.69,1.86C336.63,377.32,332.49,378.19,328.35,379Zm13.28-11.17c3.12-.53,6.27-1,9.42-1.33a46.79,46.79,0,0,0-5.18,4.51C344.43,370,343,368.91,341.63,367.8Zm-29.17,14.13c1.11-3.3,3.9-5.81,7.37-7.74a9,9,0,0,0,.08,1.63,8.77,8.77,0,0,0,1.89,4.24l-1.14.19C318.32,380.67,315.17,381.93,312.46,381.93Zm38.23-7.66-.81-.54a51.16,51.16,0,0,1,11.91-8.25c5.35-.38,10.71-.67,16-1l-1.32.39C367.66,367.61,359.56,371.79,350.69,374.27ZM460,365c-10.81.58-21.72.21-32.55.19a106.25,106.25,0,0,1-17.28-1.06l-.79-.13c4,0,8.11-.1,12.16-.3,6.18-.32,12.16-1.44,18.38-1.41a194.4,194.4,0,0,1,20.34,1c3,.33,6,.87,8.89,1.47C466.12,364.58,463,364.8,460,365Zm78.61,81.36a34.79,34.79,0,0,1-9.44-6.57c-6.54-6.45-10.47-16.29-13.94-24.62-1.47-3.54-2.14-7.41-3.7-10.88-.11-.23-.23-.45-.35-.67a11.82,11.82,0,0,0,5.84-6.44,2.43,2.43,0,0,0-3.79-2.93c-1.88,1.58-5.9.59-8.16.52a2.15,2.15,0,0,0-1.76.72,14.29,14.29,0,0,1-3.37-3.69c-1.86-3.62-.74-8.69-6.44-8.6-3.11,0-3.12,4.87,0,4.82.38,0,.83,1.11,1.27,2.47A16.67,16.67,0,0,1,488,381.7c-2-6.22-3.29-12.05-9.78-15l-.53-.23c.38.07.75.15,1.13.21,6.37,1.13,12.74.59,19.06,2.25,12.72,3.35,21.57,12.39,31.49,20.54q3.39,2.79,6.76,5.65c1,2.34,1.45,5.15,2.4,7.39a22.44,22.44,0,0,1,1.45,6.41h-.19c-4.84,0-11.57,1-12.56,6.8-.64,3.72,1.55,7.25,2.76,10.61,1.37,3.82,2.37,7.6,3.91,11.36,2,4.91,2.89,9.67,9.79,8l.35-.11C542.46,448.07,540.92,447.37,538.64,446.32Z" transform="translate(-4.55 -242.48)"/></svg>