<svg id="Layer_6" data-name="Layer 6" xmlns="http://www.w3.org/2000/svg" viewBox="0 0 1290.29 324.6"><defs><style>.cls-1{fill:none;stroke:#1d1d1b;stroke-miterlimit:10;}</style></defs><path class="cls-1" d="M651.78,1032.33a44.06,44.06,0,0,0-3-13.39c-.85-2.15-1.79-4.27-2.66-6.42s-1.48-4.17-2.38-6.18c-.06-.15-.15-.29-.22-.44a58.2,58.2,0,0,0-1-6.55c-1-4.54-2.7-8.75-6.74-11.36-4.24-2.73-8.19-5.93-12.84-8a14.45,14.45,0,0,0-6.62-1.62,8.65,8.65,0,0,0-4.13,1.93c-.94.64-2.78,2.34-4,2-.85-.26-1.37-1.65-1.61-2.4a11.58,11.58,0,0,1-.42-3.66c0-2.72.87-5.3.85-8,0-2.9,0-5.81,0-8.71a59.59,59.59,0,0,1,.43-8.55c.4-2.86,1.16-5.64,1.8-8.45a105.85,105.85,0,0,0,2.62-17.34,37,37,0,0,0-.06-8.28,13,13,0,0,0-3.33-6.32,18.56,18.56,0,0,0-2.38-2.14c3.34-1.29,5.43-5.08,6.62-8.22,1.6-4.24,2.88-8.71,2.42-13.27-.25-2.59-.61-5.16-.89-7.75a14.32,14.32,0,0,0-1.86-6.26,27.4,27.4,0,0,0-10.15-9,32.51,32.51,0,0,0-13-3.39c-2.73-.23-5.46-.24-8.19-.2s-5.62,0-8.41.19c-5.35.4-10.5,2-15.62,3.49-4.46,1.31-9,2.6-13,5a18.41,18.41,0,0,0-8.11,10.06,43.45,43.45,0,0,0-2,14.2c0,2.57.1,5.15.2,7.72s.58,5.11.8,7.69-.25,5.1.19,7.65a13.73,13.73,0,0,0,1.57,4.74,3.9,3.9,0,0,0,4.73,2c-.49,6.57-.3,13.17,1.58,19.49,1.4,4.7,4.13,8.79,6.62,13,.38.64.78,1.24,1.18,1.86a7.08,7.08,0,0,0-4.11-1.18c-3.15.22-4.24,3-4.18,5.74a8.74,8.74,0,0,0,1.32,4.94c1.05,1.54,2.52,2.68,3.39,4.37a8.29,8.29,0,0,1,.67,6.51,15.79,15.79,0,0,0-1,3,8.38,8.38,0,0,0-.11,1.22,9,9,0,0,0-6.33.24c-3.43,1.45-5.22,5-6.68,8.17-1,2.23-1.85,4.56-3.7,6.25a32.57,32.57,0,0,1-6.57,4.32,18.38,18.38,0,0,0-5.18,3.81,13.12,13.12,0,0,0-2.5,5.45c-.6,2.31-.91,4.68-1.5,7-.66,2.58-1.4,5.11-1.93,7.72-.28,1.37-.52,2.75-.74,4.13,0-2.64,0-5.28,0-7.92,0-5.25.3-10.69,2.89-15.38a66.18,66.18,0,0,1,4.41-7.14,15.76,15.76,0,0,1,2.44-2.95c.88-.72,1.9-1.05,2.75-1.77a1.25,1.25,0,0,0,2.17-.79c0-1.58-.12-3.16,0-4.73.08-1.33.48-2.63.5-4a7.39,7.39,0,0,0-.58-2.74c-.46-1.22-.8-2.4-1.17-3.65-.75-2.58-2.81-3.63-5.37-4-1.38-.18-2.77-.1-4.16-.15a21.23,21.23,0,0,1-4.69-.74c-.57-.15-1.13-.34-1.69-.53,4.28-2.08,6.19-7.61,7.49-11.92a50.91,50.91,0,0,0,2.36-11.11c.35-4.78.15-9.62.14-14.41s.19-9.81,0-14.7a77.15,77.15,0,0,0-2.14-14.08c-1.1-4.61-2.53-9.15-4.05-13.65s-3-9.1-4.74-13.55-3.68-8.56-5.61-12.8c-1-2.25-2-4.51-3-6.79-.76-1.86-1.39-3.78-2.27-5.59a12.92,12.92,0,0,0-6.69-6.72,14.82,14.82,0,0,0-5.58-.67c-2.4,0-4.8.18-7.18.43a105.49,105.49,0,0,0-22.13,4.83c-2.44-1.72-5.34-1-7.57.81a49.51,49.51,0,0,0-4.28,4.29l0,0a19.08,19.08,0,0,0-3,2.91,26.47,26.47,0,0,0-1.62,2.2,59.44,59.44,0,0,0-7.05,10.77,78.46,78.46,0,0,0-4.59,12.72,81.79,81.79,0,0,0-3.22,13.78,136.22,136.22,0,0,0-.39,14.15c0,3.48-.06,7-.07,10.44-.16,1.22-.34,2.44-.53,3.65-1.5,9.78-4,19.4-5.4,29.2-.48,3.43-1.15,7.6.06,11a3.2,3.2,0,0,0,2.91,2.49,12.09,12.09,0,0,0,2.31-.37,18.88,18.88,0,0,1,2.13-.12,3.86,3.86,0,0,0,3.17-1.38c1-1.43.88-3.54.79-5.18-.13-2.37-.6-4.69-.95-7s-.6-5-.8-7.5c-.4-5-.92-9.89-1.1-14.85-.13-3.49-.15-7-.14-10.48.61-4.48,1.14-9,1.66-13.48.57-4.89,1.14-9.77,1.82-14.64a76.94,76.94,0,0,1,2.87-14,84.81,84.81,0,0,1,5.62-12.63,54,54,0,0,1,2.87-5c1.33-1.63,2.75-3.18,4.22-4.68,2.81-2.11,6.41-3.19,9.72-4.27a8.53,8.53,0,0,1,1,1.56,14.45,14.45,0,0,1,1.53,8.22c-.51,4.27-2.93,8.41-5.31,11.9s-5.63,6-8.51,8.84c-1.43,1.43-2.62,3-3.95,4.55a55.22,55.22,0,0,0-4,4.64c-2.42,3.52-2.61,8-1.83,12.1.83,4.31,1.5,8.65,3.85,12.44s5.58,7.15,7.82,11.13c1.06,1.89,1.78,3.86,2.66,5.84a14.6,14.6,0,0,0,3,4.12,39.51,39.51,0,0,1-.85,4.84,34.52,34.52,0,0,1-1.79,6.32,18.31,18.31,0,0,1-3.21,4.37c-1.52,1.73-2.88,3.59-4.36,5.34a24.1,24.1,0,0,1-3,3,1.89,1.89,0,0,0-.44.14,3.36,3.36,0,0,0-1.37,1.21c-1.64,1.09-3.37,2-5,3.06a30.32,30.32,0,0,0-5,3.72c-1.65,1.53-3.17,3.17-4.89,4.61s-3.73,2.86-5.47,4.45a39.58,39.58,0,0,0-4.22,4.56,54.2,54.2,0,0,0-6.57,10.67,76.12,76.12,0,0,0-4.31,11.59,31.07,31.07,0,0,0-1.25,6.41c-.17,2.37,0,4.74-.11,7.12-.27,5-.83,9.94-.84,15s.15,9.8.15,14.69c0,9.37-.21,18.91-2.93,28-.57,1.89-1.1,4.28-2.49,5.76a3.34,3.34,0,0,1-4.73.24c-3.08-2.37-4.89-5.85-6.23-9.42s-2.37-7.5-3.48-11.26c-.59-2-1.14-4-1.57-6a1,1,0,0,0,.15-.73,29.37,29.37,0,0,0-.73-3.94c-.17-.63-.4-1.24-.57-1.88-.21-.85-.23-1.73-.37-2.6-.47-2.92-1.22-5.88-1.91-8.76s-1.56-5.79-2.29-8.7-1.28-6-2.15-9a44.87,44.87,0,0,1-2.13-8.35c-.12-1.27-.07-2.54-.31-3.79-.29-1.5-.8-3-1.06-4.46-1-5.53-1.25-11.08-3.08-16.44-.52-1.54-1.13-3.05-1.52-4.63s-1-3-1.52-4.49c-.65-1.91-.46-4.53-2.46-5.65l-.08,0a11.5,11.5,0,0,0-3.54-4.11,9.64,9.64,0,0,0-5.72-1.77c-1.62-3.52-4.06-6.69-5.56-10.29-1.3-3.14-1.12-6.35-1-9.69.15-3.58.46-7.14.84-10.7.88-8.27,2.17-16.56,2.82-24.87a20.47,20.47,0,0,0,2.56-1c-.45,1.12-.76,2.33-1.1,3.44a9.7,9.7,0,0,0,2.52,10.22,1.25,1.25,0,0,0,1.49.19c9-5.54,12.68-15.89,12.59-26.08a42,42,0,0,0-10.85-27.3c-7-7.9-16.26-13-26.16-16.33-11.05-3.74-23.13-3.38-34.46-1.13a32.59,32.59,0,0,0-12.63,4.9,19.63,19.63,0,0,0-4.57,4.48c-.91,1.26-3.1,4.29-2.38,5.9.91,2,3.83,3.12,5.81,3.45a35.53,35.53,0,0,0,7.07.11,169.47,169.47,0,0,1,17.46.11c-1.33.27-2.65.54-4,.78a23.17,23.17,0,0,1-4.29.58c-1.59,0-3.18-.25-4.77-.36a13.91,13.91,0,0,0-7.51,1.18,49.44,49.44,0,0,0-7.13,5.09c-4.06,3.17-4.4,9.24-3.55,13.88.5,2.74,1.37,5.39,2.13,8.07a12.59,12.59,0,0,1-.14,7.75c-1.37,4.42-3.83,8.92-2.69,13.69,1,4.21,4.12,7.41,7.15,10.28s6.43,6,7.07,10.56c.7,4.91.81,9.93,1.2,14.88.76,9.6,2.09,19.72,7.9,27.73a23.58,23.58,0,0,0,5,5.5c1.72,1.21,4.32,1.69,6.37,2a21.22,21.22,0,0,0,12.63-2.53A52,52,0,0,0,329,985c3.64-3.43,7-7.32,11.07-10.24a17.09,17.09,0,0,1,6.33-3.17,12.93,12.93,0,0,1,.58,2.11,16.83,16.83,0,0,1-1,8.68c-.89,2.52-2.09,4.93-3.07,7.42a10.93,10.93,0,0,0-1.08,3.66c0,1.58.69,3.06.87,4.6s-.69,3.19-1.19,4.6c-.22.62-.46,1.23-.69,1.85a265.73,265.73,0,0,0-23.57,50.34,51.32,51.32,0,0,1-8.23,14.8c-3.34-.41-5.12-3.52-6.46-6.36a69.65,69.65,0,0,1-4-12.3c-2.74-10.29-5.32-20.62-8-30.92-.68-2.57-1.36-5.15-2.06-7.72-.66-2.41-1.14-4.79-2.49-6.92-1.91-3-5.06-6.38-8.53-7.54-3-1-6.86-.66-9.88,0a17.2,17.2,0,0,0-8.65,4.71c-2.55,2.69-3.29,5.78-3.92,9.31a130,130,0,0,0-1.75,15.24c-.61,10.42-.79,20.91-1,31.34-.12,4.85-.32,9.7,0,14.55a80.67,80.67,0,0,0,2.54,15c2.49,9.86,5.64,19.53,8.17,29.38a107.5,107.5,0,0,1,3.21,15,93,93,0,0,1,.54,11.68,35.91,35.91,0,0,1-1.86,11.64,20.37,20.37,0,0,1-2.64,5c-.89,1.24-2.53,3.69-4.18,3.64a5.35,5.35,0,0,1-4.44-2.92,23.27,23.27,0,0,1-1.27-7.77,99.69,99.69,0,0,1,1-14.84c.53-5,1.18-10.2.37-15.15a31.24,31.24,0,0,0-3.92-10.65c-3.71-6.4-9.64-11.92-16.82-14.09a21.07,21.07,0,0,0-8.61-.73,12.48,12.48,0,0,0-.76-3.84,14.5,14.5,0,0,0-1.3-2.58,14.43,14.43,0,0,0,3-7.1,11.25,11.25,0,0,0-2.95-8,73.7,73.7,0,0,0-5.79-5.52c-1.78-1.71-4-3.85-3.89-6.52a1.14,1.14,0,0,0-.09-.46,1.1,1.1,0,0,0-.57-.59A69.75,69.75,0,0,0,225.31,1040c.83,4.08,1.73,8.14,2.8,12.17.6,2.25,1.27,4.49,2,6.7l-.21,6.87c-.21,6.13-.41,12.26-.37,18.4,0,3.94-.53,8.94,1.77,12.43a4.13,4.13,0,0,0,3.69,2.14,9.6,9.6,0,0,0,4.85-2.8c2.57-2.57,3.41-6.29,3.2-9.82a27,27,0,0,0-3.69-11.5,97.89,97.89,0,0,1-6.78-16c.06-1.81.11-3.61.14-5.42.19-11.64-.23-23.36-2.61-34.77.1-.83.21-1.66.3-2.49a38.34,38.34,0,0,0-1.26-15.91A22.06,22.06,0,0,0,221,988.44a20.75,20.75,0,0,0-10.24-3.38,78.8,78.8,0,0,0-6.84-5c-4-2.57-8.26-5.5-12.79-7a22,22,0,0,0-8.75-.87,40.62,40.62,0,0,0-16.59,2.2A42.18,42.18,0,0,0,144,992.9a36.39,36.39,0,0,0-4.34,15.66c-.61-.64-1.33-1-2-1.61-1.57-1.44-2.6-3.31-4.37-4.55a34.6,34.6,0,0,0-10.78-4.89,14.06,14.06,0,0,0-3.07-3.28,16.06,16.06,0,0,0,1.93-2.73c1.81-3.16,2.64-6.87,3.64-10.35a90.46,90.46,0,0,0,2.59-11.26c1.18-7.76.71-15.58-3-22.63a1.22,1.22,0,0,0-1.06-.61h-.42a2.28,2.28,0,0,0-1.74,0,1.13,1.13,0,0,0-.81.53l-.06,0a10.9,10.9,0,0,0-2.21,3.31,42.34,42.34,0,0,0,1.55-8.08c.15-2.66.57-5.47-.27-8l.64-.26a19.35,19.35,0,0,0,8.94-8.35,23.72,23.72,0,0,0-.59-23.5C118.47,885.76,98.81,879,80.1,880.64a43.35,43.35,0,0,0-24.6,10.45A36.53,36.53,0,0,0,47.2,902c-2.44,4.92-3.11,11-3,16.38.17,5.87,1.68,11.54,3.12,17.2,1.59,6.27,3.32,12.5,5,18.75a40.68,40.68,0,0,0,4.55,18.49c.72,1.48,1.53,2.91,2.39,4.31a40,40,0,0,0,4.33,7.26,35.67,35.67,0,0,0,9.74,9A47.59,47.59,0,0,0,83,998.28a48.18,48.18,0,0,0,8.7,2.6c-3,3.52-6.47,7.51-11.08,8-5.13.61-10.55-3.3-14.27-6.42-3.16-2.65-7-5.91-11.34-4a14,14,0,0,0-7.41,8.07c-.79.5-1.56,1.11-2.16,1.53-2.73,1.87-5.31,4-8.42,5.18-2.82,1.08-5.74,1.9-8.6,2.87a40.31,40.31,0,0,0-8,3.51,21.71,21.71,0,0,0-6,5.7,49.91,49.91,0,0,0-7.67,14.56c-3.62,10.73-4,22.31-3.56,33.53.23,5.51.7,11,1.2,16.49.14,1.56,2.6,1.58,2.46,0-1.19-13.15-2.37-26.62-.12-39.73A55.74,55.74,0,0,1,13,1031.86a37.67,37.67,0,0,1,6-8.1c2.54-2.51,6.3-3.91,9.61-5,3.65-1.26,7.49-2.17,11-3.82a48,48,0,0,0,7-4.5,23.59,23.59,0,0,0,.05,8.34c.92,4.9,4.35,9.3,7,13.4,3.06,4.69,6.27,9.3,9.15,14.1.38.64.75,1.28,1.12,1.92,2.86,10,5.75,20.06,8,30.24a206.33,206.33,0,0,1,5,37.93c.17,5-.59,10.48,3.71,14a13.28,13.28,0,0,0,13.39,2.13,13.55,13.55,0,0,0,5.54-4.25c.68-.86,1.27-1.79,1.9-2.68a12.08,12.08,0,0,0,1.83-2.73,125.8,125.8,0,0,0,5.23-17.54c2.69-11.93,4-24.12,5.21-36.27.32-3.17.31-6.34.79-9.49a84.39,84.39,0,0,1,2-8.89c.8-3,1.71-5.95,2.6-8.92.45-1.52.9-3,1.33-4.56a14.22,14.22,0,0,0,.41-4.11c0-3.14.89-6.07,1.62-9.11s1.46-6.17,1.93-9.3c.56-3.73,1-7.92.26-11.76a30.61,30.61,0,0,1,3.8,2.4,32.26,32.26,0,0,1,4,2.37,20.1,20.1,0,0,1,3.11,3.41,38.86,38.86,0,0,1,2.54,3.94c.4.89.77,1.78,1.13,2.68.27.68.52,1.37.78,2.07.23,1.91.54,3.8.9,5.65a109,109,0,0,0,4.83,16.59c.42,1.15.81,2.34,1.26,3.52a107.66,107.66,0,0,0-4.51,10c-1,2.64-1.54,5.45-2.29,8.15-.82,2.93-1.65,5.85-2.4,8.79-2.47,9.63-4.06,19.69-1.72,29.37-.16,1.55.82,3.35,1.43,4.58a1,1,0,0,0,.74.56,1.19,1.19,0,0,0,.46.06c-1.29,2.07-2.4,4.27-3.61,6.41a88,88,0,0,0-6.54,13.81,55.25,55.25,0,0,0-3.19,14.31c-.36,4.55.51,9.29,1.52,13.73a34.92,34.92,0,0,0,3.09,8.64,18.43,18.43,0,0,0,2.17,3.51l.16.18.11.09a.52.52,0,0,0,.11.1l0,0a1.18,1.18,0,0,0,1,.18.94.94,0,0,0,.55-.33l0,0a3.6,3.6,0,0,0,.76-.87,5.77,5.77,0,0,0,1.68-3.29,58.33,58.33,0,0,0-.46-6.71c-.25-4.32-.41-8.65-.4-13a109.66,109.66,0,0,1,2.63-25.35,68.69,68.69,0,0,1,4.5-13c2.76-3.19,6.76-5.87,11.1-5,3.47.7,5.92,3.12,7.79,5.95,1.6,5,3.64,9.94,7.93,13.24a19.52,19.52,0,0,0,5.44,2.92,15.81,15.81,0,0,0,5.7,1.21l.82,0a28.73,28.73,0,0,0,17.07-5.21c.51-.36,1-.73,1.51-1.12,8.83-1.2,20.25-4.88,23.31-14.26a13,13,0,0,0,.53-2.32c6.24-.87,12.63,1.7,17.42,6.07a32,32,0,0,1,7.53,10.43,30,30,0,0,1,2.32,14c-.24,5.58-1.16,11.1-1.5,16.67a50.12,50.12,0,0,0,.07,7.94c.23,2.28.47,5.07,1.52,7.13,1.29,2.53,5.86,4.94,8.58,3.4a15.26,15.26,0,0,0,4.08-4.24,22.94,22.94,0,0,0,2.87-5.37c2.94-7.69,2.39-16.64,1.55-24.67a108.93,108.93,0,0,0-3.44-16.07c-1.35-5.19-2.86-10.33-4.35-15.48s-3-10.56-4.3-15.9a72.79,72.79,0,0,1-2-17.15c0-10.9.61-21.82.91-32.72.17-5.72.44-11.45,1.17-17.14.56-4.32.79-9.63,3.82-13.06a15.47,15.47,0,0,1,9.69-4.72,19,19,0,0,1,5.64.09c2.26.41,4.33,2.17,5.89,3.77a14.65,14.65,0,0,1,3.76,6.48c.77,2.8,1.52,5.61,2.27,8.42,1.46,5.53,2.88,11.07,4.31,16.62s2.91,11.32,4.42,17a82.55,82.55,0,0,0,2.27,8.26c.57,1.47,1.31,2.92,2,4.34,1.41,2.88,3.35,5.84,6.56,6.88a6,6,0,0,0,2.41.37c1-.15,1.46-1.1,2-1.84a57.1,57.1,0,0,0,4.35-6.54c2.47-4.39,3.93-9.17,5.67-13.88q2.73-7.4,5.9-14.62a252.24,252.24,0,0,1,13.11-25.69,1,1,0,0,0,1-.63c.53-1.21,1.08-2.45,1.6-3.72,2.23-3.66,4.53-7.27,6.94-10.82,1.51-2.22,3-4.42,4.61-6.59a23.65,23.65,0,0,0,3.2-5c.9,2.4,1.53,4.9,2.38,7.32,1.79,5.13,2.2,10.48,3,15.81a30.38,30.38,0,0,0,.8,3.79,19.87,19.87,0,0,1,.59,4.21,37,37,0,0,0,1.86,8.16c.79,2.63,1.38,5.27,2,7.94.67,2.92,1.48,5.8,2.26,8.69.86,3.22,1.42,6.5,2.2,9.74.26,1,.34,2.13.53,3.19a1.33,1.33,0,0,0,0,.6,14.66,14.66,0,0,1,.79,2.73,18,18,0,0,0,.31,3c.45,2.35,1.1,4.66,1.78,7,1.13,3.82,2.14,7.7,3.55,11.43,1.88,5,8,16.28,14.66,10.4a10.23,10.23,0,0,0,2.54-4.38,55.07,55.07,0,0,0,1.94-6.69,83.17,83.17,0,0,0,1.73-13.24c.55-9.42,0-18.85.13-28.28.08-4.77.81-9.5.88-14.26a64.07,64.07,0,0,1,.16-6.79,36.71,36.71,0,0,1,1.57-6.36c2.39-7.75,5.95-15.36,11.42-21.43,2.94-3.28,6.64-5.62,9.81-8.64a64.86,64.86,0,0,1,4.77-4.46,45.76,45.76,0,0,1,5-3.2l.72-.43a28.14,28.14,0,0,0,.4,4.67c.18,1.25.4,2.51.64,3.75a32,32,0,0,0,3.5,15c.85,3.6,1.9,7.08,4.25,10.17,3.15,4.13,7.52,6.27,12.53,7.29a40.18,40.18,0,0,0,13,.16,11.85,11.85,0,0,0,7.8.19,40.16,40.16,0,0,0,7.88-3.56l0,0a19,19,0,0,0,5.19-2.7,21.47,21.47,0,0,0,7.95-11.72,26,26,0,0,0,.39-8.8,49.8,49.8,0,0,0-1.21-8.53,18.21,18.21,0,0,0-.82-2.32,7.66,7.66,0,0,1,2.43-.51,11.37,11.37,0,0,0,5.37,1.68,29.54,29.54,0,0,0,7.35,2.5,28.32,28.32,0,0,0,5,.4,9.36,9.36,0,0,1,4.35.68c1.25.66,1.24,2.12,1.61,3.33a25.4,25.4,0,0,1,1.18,3.37,15.87,15.87,0,0,1-.41,3.93,28.53,28.53,0,0,0-.07,3.7,1,1,0,0,0-1,.37,12.8,12.8,0,0,1-2.58,1.7,11.74,11.74,0,0,0-2.28,2.44,53.15,53.15,0,0,0-4.14,6.17,32.33,32.33,0,0,0-3.08,6.31,31.57,31.57,0,0,0-1.33,6.81c-.5,5.27-.17,10.66-.17,15.95,0,5.72-.05,11.44,0,17.16s.19,11.29.41,16.94q0,5.7.16,11.42c.28,11.66.82,23.34,1.44,35,.59,11,1.34,22.05,3,32.91a14.47,14.47,0,0,0,2,6,1.25,1.25,0,0,0,2.25-.29c1-4.54-.13-9.13-1.09-13.57a142.5,142.5,0,0,1-2.26-15.38c-.57-5.37-.58-10.7-.7-16.1s-.75-11-1.16-16.56c-.54-7.4-.9-14.83-1.16-22.26,0-4.88,0-9.76.18-14.65.38-11.18,1.19-22.28,4.21-33.1.59-2.12.92-4.3,1.4-6.44s1-4.4,2.45-6a19.09,19.09,0,0,1,5.25-3.56,31.28,31.28,0,0,0,6-4.1c3.23-2.85,4.05-7.28,6.31-10.81a7.88,7.88,0,0,1,3.81-3.4c1.42-.5,4.14-.75,5.2.59s.51,3.52.6,5c.16,2.59.76,5.12,1.16,7.68.42,2.73,0,5.47.57,8.18a48.2,48.2,0,0,0,2.51,7.59,78.2,78.2,0,0,1,2.92,7.27,58.84,58.84,0,0,0,2.24,7.24,48.61,48.61,0,0,1,2.7,7.41c.63,2.63,1.31,5.26,1.82,7.93,1,5.28,1.65,10.62,2.75,15.9s1.93,10.68,3.77,15.73c.88,2.4,1.88,4.75,2.71,7.16s1.55,5.16,2.24,7.76,1.36,5.11,2,7.68c.43,1.84.47,3.74.87,5.59a7.73,7.73,0,0,0,2.58,4.61,1.24,1.24,0,0,0,1.93-.25c1.95-4.25,3.56-8.64,5.39-13a47,47,0,0,0,3.38-12.81c.58-4.67.53-9.39,1-14.07.51-4.86,2.37-9.47,3.45-14.23a131.65,131.65,0,0,0,2.84-14.31c.27-2.34.22-4.66.26-7a34.67,34.67,0,0,1,1-6.86,99.7,99.7,0,0,0,2.37-13.92,46.15,46.15,0,0,1,1.42-10.46,18.16,18.16,0,0,1,5.21-8.71,12,12,0,0,1,4.55-2.48,15.79,15.79,0,0,1,6-.24,16,16,0,0,1,6,1.66,36.18,36.18,0,0,1,5.7,3.79,96.52,96.52,0,0,1,9.93,8.8,15.82,15.82,0,0,1,2.43,3.45c.17,1.94.28,3.88.49,5.82.34,3.05.83,6.08,1.33,9.11,1,6.2,1.82,12.39,2.43,18.64a135.89,135.89,0,0,1,.79,18.81c-.25,6.23-.89,12.44-1.18,18.67-.27,5.65-.16,11.29-.19,17-.81,7.4-1.21,14.83-1.33,22.3,0,2.43-.05,4.85-.05,7.28a1.23,1.23,0,0,0,2.46,0c0-6.13.48-12.25.9-18.37.25-3.61.35-7.21.4-10.81.06-.55.11-1.11.18-1.67,1.22-10.25,2.92-20.42,3.8-30.72A199.64,199.64,0,0,0,651.78,1032.33Z" transform="translate(-2.51 -843.9)"/><path class="cls-1" d="M221.67,1098.76a25.93,25.93,0,0,0-7.66,3.68c2.22-2.81,4.43-5.63,6.59-8.48a10.76,10.76,0,0,1,1,3,11.81,11.81,0,0,1,.18,1.74Z" transform="translate(-2.51 -843.9)"/><path class="cls-1" d="M176.9,1120.55a16.77,16.77,0,0,1-7.79-5.79,27,27,0,0,1-2.7-4.77,25.2,25.2,0,0,0,6.11,4A46.07,46.07,0,0,0,192.1,1118a23.49,23.49,0,0,1-10.57,3.3A19.42,19.42,0,0,1,176.9,1120.55Z" transform="translate(-2.51 -843.9)"/><path class="cls-1" d="M156.06,1091.23a7.51,7.51,0,0,0-3.37-.51l0,0a11.18,11.18,0,0,1,5.34-2.75c.65-.17,1.34-.3,2-.41a22.53,22.53,0,0,0-1,4.85c0,.35,0,.69,0,1A7.66,7.66,0,0,0,156.06,1091.23Z" transform="translate(-2.51 -843.9)"/><path class="cls-1" d="M196.43,1115.31c-15.12,1-34.86-3.67-34.9-21.47a20.33,20.33,0,0,1,1.23-6.71,16.17,16.17,0,0,0,5.22-1.48,3.59,3.59,0,0,0,1.33-1.78c.5-1,1.16-1.88,1.63-2.88a17.63,17.63,0,0,0,1.55-6.26c.27-3.57-.24-7.12-.41-10.67,0-.34,0-.67,0-1,1.8,2,3.59,4.06,5.34,6.13,2.29,2.71,4.7,6.28,8,7.87,3.93,1.89,8-.09,11.61-1.88a48.6,48.6,0,0,0,12.85-9.42,12.43,12.43,0,0,0,0,2.86,1.23,1.23,0,0,0,.14.42c0,4.88.24,9.81,2.55,14.19,1.65,3.11,4.52,5.62,6.62,8.51-1.16,1.51-2.41,3-3.58,4.45-1.71,2.21-3.37,4.45-5.07,6.66-1.29,1.7-2.63,3.4-4,5C203.22,1110.43,199.92,1113,196.43,1115.31Z" transform="translate(-2.51 -843.9)"/><path class="cls-1" d="M170.09,1073.1a17.48,17.48,0,0,1-.81,5.47,13.8,13.8,0,0,1-1.4,2.83c-.58.92-.74,1.8-1.72,2.27a12.42,12.42,0,0,1-2.34.8c1.1-2.45,2.43-4.82,3.67-7.16.94-1.78,1.84-3.59,2.6-5.45C170.09,1072.28,170.1,1072.69,170.09,1073.1Z" transform="translate(-2.51 -843.9)"/><path class="cls-1" d="M217,1075.16a19.45,19.45,0,0,1,4.9,5.6c1.38,2.79.76,5.64-.77,8.22-.14.25-.31.48-.47.72-.8-1-1.67-2-2.52-3a20.7,20.7,0,0,1-5.13-9.94,36,36,0,0,1-.51-6A44.81,44.81,0,0,0,217,1075.16Z" transform="translate(-2.51 -843.9)"/><path class="cls-1" d="M224.13,1035.59a69.41,69.41,0,0,1-12.91,25,50,50,0,0,1-10,9.26,46.54,46.54,0,0,1-5.84,3.4c-2,1-4.37,2.24-6.64,2.14-3.59-.17-5.87-3.82-8-6.23-4.08-4.57-8-9.27-12.15-13.78l-.43-.47a8.4,8.4,0,0,0,1.13-.54c1.07-.63,1.26-2,1.58-3.16a32.37,32.37,0,0,0,1.16-8.53c0-5.71-1.78-11.06-2.26-16.69a55.66,55.66,0,0,1,.28-13.09,33.24,33.24,0,0,1,4.2-12.2c2.16-3.58,5.66-7.53,9.6-9.2,1.84-.78,4.29-.83,6.25-1.24,2.2-.47,4.39-1,6.59-1.41a60.77,60.77,0,0,1,10.82-1.44c4.28,3.59,7.4,9.15,9.48,14.29,2.15,5.31,3.17,11.19,4.29,16.78s2.06,10.94,3.1,16.4C224.25,1035.13,224.2,1035.36,224.13,1035.59Z" transform="translate(-2.51 -843.9)"/><path class="cls-1" d="M182.13,974.76h.2A37,37,0,0,1,201.74,982a24.68,24.68,0,0,1,3.27,3.1c-7.08.5-14.13,2.61-21,3.86-2.08.38-4.06,2.06-5.68,3.37a27.54,27.54,0,0,0-4.53,4.69,31.92,31.92,0,0,0-5.4,11.58,49.84,49.84,0,0,0-1.35,12.88c0,2.24.2,4.49.46,6.72.32,2.8,1.15,5.51,1.57,8.31a37.86,37.86,0,0,1,.29,9.51,27.89,27.89,0,0,1-.89,4.6,4,4,0,0,1-.71,1.81,3.88,3.88,0,0,1-1.44.59c-3.41-3.66-6.84-7.31-10.25-11-1-1.13-2.1-2.26-3.12-3.4a44.35,44.35,0,0,0,2.18-6.82,55.89,55.89,0,0,0,.84-7.2c.49-5.12.93-10.26,1.71-15.35,1.51-9.91,4.34-19.94,11-27.72C171.88,977.68,177.17,975.33,182.13,974.76Z" transform="translate(-2.51 -843.9)"/><path class="cls-1" d="M225.05,1025.44c-2-10.74-3.57-22.13-9.37-31.6-.45-.73-.92-1.48-1.4-2.22a44.33,44.33,0,0,1,4.28,5.17,43.07,43.07,0,0,1,3.68,6.29c1.11,2.33,1.87,4.81,3,7.14a34.36,34.36,0,0,1,2.35,8.21c-.16,1.07-.33,2.14-.53,3.2-.45,2.47-.87,4.92-1.36,7.36Z" transform="translate(-2.51 -843.9)"/><path class="cls-1" d="M152.26,1041.54c3.72,4,7.49,8,11.23,12a13,13,0,0,1-11.15-4.07,14,14,0,0,1-2.54-4c.71-1.45,1.41-2.9,2.06-4.37C152,1041.26,152.13,1041.4,152.26,1041.54Z" transform="translate(-2.51 -843.9)"/><path class="cls-1" d="M233.7,1068.53c2,4.73,5.17,9.1,6.35,14.14.86,3.62,1,8-1.56,11-1,1.22-3.6,3.45-5,1.76a8.47,8.47,0,0,1-1.42-4.75c-.43-8.51-.1-17,.22-25.57C232.77,1066.29,233.22,1067.41,233.7,1068.53Z" transform="translate(-2.51 -843.9)"/><path class="cls-1" d="M229.27,1028.59a176.2,176.2,0,0,1,1,22c-1.34-5.15-2.42-10.36-3.42-15.58.42-1.51.8-3,1.12-4.53s.64-3.08.93-4.64C229,1026.78,229.17,1027.68,229.27,1028.59Z" transform="translate(-2.51 -843.9)"/><path class="cls-1" d="M220.93,991.5c4.06,3.5,6.19,8.68,6.95,13.9a35.4,35.4,0,0,1,.35,5.91c-.4-1.15-.85-2.28-1.38-3.44-1.12-2.39-1.88-4.91-3.1-7.26a46.35,46.35,0,0,0-8.49-11.51c-.35-.34-.72-.66-1.07-1A16.49,16.49,0,0,1,220.93,991.5Z" transform="translate(-2.51 -843.9)"/><path class="cls-1" d="M144.39,997.79a35.86,35.86,0,0,1,8.92-12.59,38.3,38.3,0,0,1,19.53-10,26.78,26.78,0,0,0-2.62,1.58,22.48,22.48,0,0,0-5.1,5.2c-6.06,8.1-8.65,18.1-10,28-.7,4.95-1.15,9.93-1.62,14.91a47.26,47.26,0,0,1-1.17,8c-.34,1.21-.74,2.4-1.18,3.58-.42-.51-.84-1-1.24-1.57-1.42-1.89-3.05-3.63-3.88-5.87s-1.58-4.52-2.36-6.81a3.41,3.41,0,0,0,1.26.45.68.68,0,0,0,.2,0l.12,0h.12a1.17,1.17,0,0,0,.61-.25l0,0a1,1,0,0,0,.15-.14,1.1,1.1,0,0,0,.34-.79,1,1,0,0,0-.16-.55,7.8,7.8,0,0,0-1.82-3.25c-.83-1.86-1.47-3.8-2.38-5.62A38.13,38.13,0,0,1,144.39,997.79Z" transform="translate(-2.51 -843.9)"/><path class="cls-1" d="M72.09,989.19a68.61,68.61,0,0,1-7.93-9.09c-1.07-1.49-2.1-3-3-4.63-.22-.46-.44-.93-.64-1.4-2.2-5.09-3.22-10.55-4.59-15.89-.35-1.38-.73-2.75-1.09-4.12A28,28,0,0,1,56,946.64c.14-.44.28-.89.44-1.32a2.23,2.23,0,0,0,.16-.49.08.08,0,0,0,.06,0c.67-.31,2,.51,2.56.82,1.76,1.06,2.67,3.15,3.74,4.83C67,956.76,71.45,963,77.1,968c5.18,4.58,11.83,8.57,18.86,9.13a21.71,21.71,0,0,0,13.76-3.59c-.42,1.63-.84,3.27-1.23,4.91-.82,3.42-1.93,7-1.86,10.55,0,.48,0,1,.06,1.48a16.25,16.25,0,0,0-2.72.45c-3.61.92-6.59,3.61-9.12,6.38a66.4,66.4,0,0,1-13.95-3.07A31.63,31.63,0,0,1,74,990.79,22.47,22.47,0,0,1,72.09,989.19Z" transform="translate(-2.51 -843.9)"/><path class="cls-1" d="M116.56,996.66a10.15,10.15,0,0,0,1.12-.72c.35.26.69.54,1,.83C118,996.7,117.27,996.68,116.56,996.66Z" transform="translate(-2.51 -843.9)"/><path class="cls-1" d="M112.12,995.32c-1.66-.08-2.21-.93-2.58-2.32a16.94,16.94,0,0,1,5.79,1.52A6,6,0,0,1,112.12,995.32Z" transform="translate(-2.51 -843.9)"/><path class="cls-1" d="M97.93,997.62c2.52-2.45,5.35-4.31,9.06-4.64a7.74,7.74,0,0,0,1.66,3.68,3.07,3.07,0,0,0,.66.53h-.07c-1.86.25-3.71.55-5.57.82Q100.79,997.87,97.93,997.62Z" transform="translate(-2.51 -843.9)"/><path class="cls-1" d="M120.5,952.1c.17-.38.61-1.46,1-2.24.64,1,1.09,1.85,2.51,2.13,4.06,11.39.23,24.27-3.44,35.36a15.17,15.17,0,0,1-3.16,5.51,19,19,0,0,0-8.32-2.43,26.52,26.52,0,0,1,.84-7.49c.76-3.5,1.63-7,2.55-10.44.15-.57.3-1.14.46-1.7a21.24,21.24,0,0,0,2.06-2.47c2.63-3.78,3-8.36,4.23-12.69A24.67,24.67,0,0,1,120.5,952.1Z" transform="translate(-2.51 -843.9)"/><path class="cls-1" d="M68.33,886.07a50.89,50.89,0,0,1,28.05-2.28,45.73,45.73,0,0,1,24.4,12.46c3.19,3.23,6.31,7.18,7.74,11.54a21.85,21.85,0,0,1,.35,12.36,18.25,18.25,0,0,1-6.78,10.15,13.51,13.51,0,0,1-3.49,1.81c-2.35-4.18-6.92-7.92-11.41-8.83-3.1-.63-6.48-.06-9.64-.12a102.78,102.78,0,0,1-10.8-.77c-.62-.07-1.25-.16-1.88-.25-3.72-1.91-7.43-3.82-11.21-5.55-8.13-3.7-17.71-4.72-23-12.79a1.37,1.37,0,0,0-.19-.22,1.09,1.09,0,0,0-1.12-.32C52.77,895.3,60.46,889.2,68.33,886.07Z" transform="translate(-2.51 -843.9)"/><path class="cls-1" d="M116.11,932.72a21.14,21.14,0,0,1-9.62-1,108.07,108.07,0,0,1-15.4-6.46c3.25.26,6.52.39,9.79.34a31.63,31.63,0,0,1,5.33,0,11.93,11.93,0,0,1,4.76,2A19.38,19.38,0,0,1,116.11,932.72Z" transform="translate(-2.51 -843.9)"/><path class="cls-1" d="M52.36,909.4c5.32,4.57,12.42,6.38,19.07,8.91,1.87.72,3.71,1.55,5.53,2.43-4.54-1-9-2.18-13.47-3.58-1.83-.59-3.65-1.2-5.46-1.85s-3.51-1-4.63-2.59A9.79,9.79,0,0,1,52,909.59,1.5,1.5,0,0,0,52.36,909.4Z" transform="translate(-2.51 -843.9)"/><path class="cls-1" d="M48.51,905.34c.65,2.5,1,5.13,2.11,7.47,1.3,2.7,3.46,3.69,6.15,4.66a145.23,145.23,0,0,0,21.65,6.07c2,.38,4,.72,6,1,1.36.71,2.71,1.42,4.07,2.09a150.41,150.41,0,0,0,16.26,7.11,24.19,24.19,0,0,0,12.58,1.37c0,.11.08.21.11.31.91,3.24.11,7.35-.56,10.55-.76,3.63-1.64,7.23-2.58,10.82-1.12,4.27-2.32,8.51-3.47,12.77l-.23.23a18.75,18.75,0,0,1-9.64,4.65c-7.78,1.33-15.49-2.63-21.28-7.52-6.08-5.14-10.73-11.72-15-18.39-.92-1.46-1.68-3.13-3-4.22a8.09,8.09,0,0,0-4.79-2,2.53,2.53,0,0,0-2.55,1.81,28.37,28.37,0,0,0-1.14,3.71c-.71-2.62-1.41-5.23-2.11-7.86C48,928.63,44.61,916.91,48.51,905.34Z" transform="translate(-2.51 -843.9)"/><path class="cls-1" d="M53.47,1002.21c2.18-1.73,4.66-2.37,7.17-1s4.25,3.4,6.48,5c4.51,3.14,10.07,6.5,15.76,4.76,5-1.53,8.32-5.75,11.73-9.74.35,0,.7,0,1,0a51.68,51.68,0,0,0,8.3-.78l2.8.14c4,.17,8.17.07,12.24.35-3.3,1.95-5.1,6.26-5.48,9.9-.76,7.25-.48,14.71-.64,22s-.41,14.58-1.19,21.84c-.75,7-2,14.09-3.27,21.07-2.4,13-5.79,25.84-11.85,37.65-.67,1.29-1.43,2.52-2.11,3.8a9.57,9.57,0,0,1-2.08,3.14c-1.79,1.39-5.25-.08-6.82-1.25-3.86-2.86-5.17-8.26-5.85-12.75-2.15-14.09-2.71-28.35-6.44-42.18a73,73,0,0,0-7.3-17.45c-3.12-11-6.1-22-9.63-32.85-.48-1.48-.79-3.45-1.65-4.75a11.5,11.5,0,0,0-2.55-2.37,6.23,6.23,0,0,0-1.56-.92A10.89,10.89,0,0,1,53.47,1002.21Z" transform="translate(-2.51 -843.9)"/><path class="cls-1" d="M48.7,1014.94a21.32,21.32,0,0,1,.84-6.45l.39-.22a7.43,7.43,0,0,1,2,1.62c1,1,1.25,2.35,1.68,3.67q1.56,4.76,3,9.54c1.68,5.45,3.28,10.94,4.83,16.43-2.05-3.14-4.16-6.25-6.2-9.4C52.22,1025.4,48.81,1020.78,48.7,1014.94Z" transform="translate(-2.51 -843.9)"/><path class="cls-1" d="M107.27,1099.57a140.23,140.23,0,0,1-5.28,19.85,12.42,12.42,0,0,1-1.83,3.85c-.85,1.07-1.54,2.25-2.37,3.33a11,11,0,0,1-7.85,4.33,10.61,10.61,0,0,1-8.31-3.08c-2.34-2.46-2-5.68-2.1-8.81,0-1.47-.09-2.93-.15-4.39,1.44,3.37,3.69,6.43,7.2,7.83a9.34,9.34,0,0,0,5.84.64c1.84-.59,2.93-2.38,3.8-4a126.37,126.37,0,0,0,12.17-31.31c.64-2.62,1.23-5.27,1.79-7.93C109.42,1086.48,108.53,1093.06,107.27,1099.57Z" transform="translate(-2.51 -843.9)"/><path class="cls-1" d="M121.48,1017.28c-.7,3.57-1.63,7.09-2.47,10.63a17.94,17.94,0,0,0-.58,4.36,17.81,17.81,0,0,1-.6,5.19c-1,3.51-2.11,7-3.11,10.52.78-11.42.59-22.88,1.11-34.31.18-3.92,1.28-10.63,6.27-11.22C123.38,1007.17,122.37,1012.81,121.48,1017.28Z" transform="translate(-2.51 -843.9)"/><path class="cls-1" d="M148.42,1041.91c-1-2.8-2-5.63-2.88-8.5,0-.05,0-.11,0-.17a44.83,44.83,0,0,0,4.57,5.89c-.26.61-.52,1.21-.8,1.81s-.45,1-.67,1.43C148.53,1042.22,148.47,1042.06,148.42,1041.91Z" transform="translate(-2.51 -843.9)"/><path class="cls-1" d="M141,1070.22c1.47-5.44,2.64-11.16,4.84-16.35.79-1.88,1.66-3.71,2.56-5.53a8.51,8.51,0,0,0,.57.9,16.8,16.8,0,0,0,4.7,4.58,15.37,15.37,0,0,0,11.81,1.91c1.4,1.52,2.8,3,4.18,4.57a3,3,0,0,0-.07.32c-.05,1.12,0,2.24,0,3.36-.63,7.57-5.73,14-8.6,21a28.63,28.63,0,0,0-5,1c-3.68,1.23-6,3.82-8.29,6.81-.26.32-.5.66-.75,1-2.28,2.24-4.27,5.29-6.2,7.8a3.75,3.75,0,0,0-1.53-1.44,2.47,2.47,0,0,0-1-.29C136.3,1090,138.38,1079.92,141,1070.22Z" transform="translate(-2.51 -843.9)"/><path class="cls-1" d="M132.21,1162.22s0,.06,0,.12S132.19,1162.22,132.21,1162.22Z" transform="translate(-2.51 -843.9)"/><path class="cls-1" d="M133.43,1138.11c-.18,4.7-.13,9.41.06,14.1q.15,3.39.37,6.76c.06,1,.13,2,.21,3a5.72,5.72,0,0,0-1.29-1,2.65,2.65,0,0,0-1.54-.35,40.77,40.77,0,0,1-2.38-8.35,46.68,46.68,0,0,1-1.07-8.13,40,40,0,0,1,1-8.38,66.22,66.22,0,0,1,5.6-15.66c.69-1.39,1.44-2.76,2.21-4.12A101.06,101.06,0,0,0,133.43,1138.11Z" transform="translate(-2.51 -843.9)"/><path class="cls-1" d="M152.3,1097.77a12.67,12.67,0,0,0-6.29,1.83c.73-1.2,1.5-2.39,2.33-3.54,2.09-2.08,4.81-3.87,7.6-2.16,2.19,1.34,3.36,4,4.21,6.74l.06.2A12.42,12.42,0,0,0,152.3,1097.77Z" transform="translate(-2.51 -843.9)"/><path class="cls-1" d="M203.9,1114.25a64.57,64.57,0,0,0,4.46-4.75,82.34,82.34,0,0,1,9.69-6.65,17.52,17.52,0,0,1,3.55-1.49C220,1108.65,211,1112.64,203.9,1114.25Z" transform="translate(-2.51 -843.9)"/><path class="cls-1" d="M301.81,877.59c.76-.36,1.54-.68,2.31-1l.26-.05,5.86-1.27a91.82,91.82,0,0,1,14.09,3.21c6.18,1.95,13.49,4.27,16.91,10.25a13.51,13.51,0,0,1,1.23,5.14c.22,1.79.37,3.58.47,5.37.18,3.33.16,6.66,0,10,0,.8-.11,1.59-.16,2.38-.88.26-1.76.48-2.64.67a136.93,136.93,0,0,1-16.77,2.21,241,241,0,0,1-34.72.67c-4.62-.24-7.92-4.06-8.78-8.43s.47-8.78,2.39-12.54C286.21,886.46,294.15,881.19,301.81,877.59Z" transform="translate(-2.51 -843.9)"/><path class="cls-1" d="M355.17,898c0-.48-.06-1-.11-1.43-.95-8.33-6.12-16.39-13-21.17,3.57,1.32,7.38,3.1,10,5.73a15.69,15.69,0,0,1,4.36,11.27A15.88,15.88,0,0,1,355.17,898Z" transform="translate(-2.51 -843.9)"/><path class="cls-1" d="M345.09,895.21c-.34-3.19-.58-6.27-2.51-8.93a19.35,19.35,0,0,0-7.21-6.11A84.77,84.77,0,0,0,317,874c1-.16,2.09-.3,3.13-.41a35.32,35.32,0,0,1,15.53,1.32A24.17,24.17,0,0,1,346,882.3c5.09,6,8.89,15.08,5.57,22.77a10.92,10.92,0,0,1-6.22,5.65A94.56,94.56,0,0,0,345.09,895.21Z" transform="translate(-2.51 -843.9)"/><path class="cls-1" d="M350.18,923.62a6.76,6.76,0,0,1-1.45-6.26,18.89,18.89,0,0,1,2.56-6.26,39,39,0,0,0,2.44-3.44c.7-1.26,1-2.74,1.63-4.07a53.72,53.72,0,0,0,2.82-6.46,18.68,18.68,0,0,0-.33-11,36.69,36.69,0,0,1,2.71,10.62C361.55,906.7,358.81,917.74,350.18,923.62Z" transform="translate(-2.51 -843.9)"/><path class="cls-1" d="M293.43,871.62c-3.64,0-7.28.18-10.92.3-2.94.1-5.76,0-7.88-2.06,3.08-7.86,11.29-10.9,19.08-12.27,10.35-1.81,21.12-2.09,31.21,1.18,12.44,4,24.4,11.89,30.86,23.13-2.13-3.1-5.21-5.17-8.66-6.91-12.14-6.1-26.19-6.47-38.95-2.48A119.14,119.14,0,0,0,293.43,871.62Z" transform="translate(-2.51 -843.9)"/><path class="cls-1" d="M341.52,970.91c-7.54,4.2-12.76,11.68-19.52,16.94a27.4,27.4,0,0,1-10.58,5.45c-4,.9-9.34.51-12.38-2.49-6.41-6.32-8.92-15.06-10-23.77-.53-4.34-.78-8.71-1.09-13.07-.29-4-.17-8.45-1.81-12.14-3-6.78-11.49-10-13.22-17.4-1-4.38,1.66-8.8,2.84-12.88a14.35,14.35,0,0,0,.64-6,57,57,0,0,0-1.86-6.77c-1.26-4.56-2.29-9.88.75-14a14.82,14.82,0,0,1,3.21-2.8c1.13-.87,2.25-1.77,3.45-2.54a11.51,11.51,0,0,1,7.49-1.57,42.38,42.38,0,0,0,6.15.23q-2.29,1.36-4.45,2.92c-3.83,2.78-7.41,5.86-9.89,9.93a25.67,25.67,0,0,0-4.07,13.29,14.18,14.18,0,0,0,5.65,11.46c2.08,1.52,4.33,1.82,6.83,1.95,3.24.17,6.49.3,9.74.33,6.63.07,13.26-.19,19.86-.7a185,185,0,0,0,19.22-2.19c1.29-.24,2.71-.51,4.14-.87-.43,5.18-1.09,10.35-1.74,15.51-.87,6.87-1.71,13.75-1.92,20.67-.09,2.91-.13,5.69.9,8.45a42.93,42.93,0,0,0,3.63,6.95c.68,1.15,1.37,2.33,2,3.55A15,15,0,0,0,341.52,970.91Z" transform="translate(-2.51 -843.9)"/><path class="cls-1" d="M354.82,983.68c-1.77,2.58-3.68,5.06-5.46,7.64-1.43,2.07-2.82,4.17-4.19,6.28-.1-.61-.26-1.22-.41-1.81a6.32,6.32,0,0,1-.33-2.82,15.82,15.82,0,0,1,.8-2.28c2.07-5.35,5.06-10.5,4.34-16.46a16.25,16.25,0,0,0-.6-2.72,8.26,8.26,0,0,1,5.91,4.25A7.1,7.1,0,0,1,354.82,983.68Z" transform="translate(-2.51 -843.9)"/><path class="cls-1" d="M424.53,942.75c.47,4.79.68,9.59,1.42,14.34a51.11,51.11,0,0,1,.86,7.07c0,1,.28,2.88-1.05,3.13a11.91,11.91,0,0,1-1.89.07,17.18,17.18,0,0,0-2.15.34c-.67.13-1,.28-1.33-.37a6,6,0,0,1-.51-2.14c-.41-4.08.39-8.32,1.13-12.32.87-4.65,1.81-9.28,2.72-13.92.13-.66.25-1.31.37-2C424.21,938.91,424.34,940.83,424.53,942.75Z" transform="translate(-2.51 -843.9)"/><path class="cls-1" d="M449.5,932.21c-1.69-4-4.27-7.39-6.9-10.82a34.33,34.33,0,0,1-3.72-5.66,24.72,24.72,0,0,1-1.77-6.16c-.82-4.26-1.94-8.57.07-12.71a20.87,20.87,0,0,1,3.73-4.71c1.31-1.43,2.43-3,3.76-4.42,2.76-2.9,6-5.38,8.48-8.52A37.09,37.09,0,0,0,459,868.73a17.1,17.1,0,0,0,.58-9.86,14.92,14.92,0,0,0-2.12-5,111.73,111.73,0,0,1,11.37-3,87.82,87.82,0,0,1,13.8-1.74c3.77-.16,7.36-.33,10.12,2.65,2.51,2.71,3.47,6.54,4.87,9.87,1.79,4.24,3.79,8.39,5.66,12.6s3.47,8.66,5,13.08,3,8.67,4.33,13.06a103.67,103.67,0,0,1,3.19,13.6,91.39,91.39,0,0,1,.71,14.23c0,4.76,0,9.52,0,14.28s0,9.39-1.36,13.93c-.78,2.6-1.47,5.24-2.48,7.76-1,2.37-2.35,5-4.74,6.2a6.3,6.3,0,0,1-2.77.62,27.05,27.05,0,0,0-2.66-1.28,7.44,7.44,0,0,0-2.66-.48c-2.33-1.72-3.81-4.39-5.13-6.9-.7-1.33-1.36-2.68-2.08-4s-1.67-2.78-2.35-4.27a16.17,16.17,0,0,1-1.55-5.82,13.69,13.69,0,0,1,.11-2.93,20,20,0,0,0,.59-3.07c1.15-1.21,2.23-2.48,3.23-3.76,2.57-3.28,5.1-6.63,7.59-10a34.8,34.8,0,0,0,5.8-10.62A47.13,47.13,0,0,0,508.34,904c0-2.37,0-4.69.19-7a22.08,22.08,0,0,0-.26-4.94c-1.09-6.55-6-11.41-12.78-11.79-3.91-.22-7,2.68-9.69,5.08-1.72,1.51-3.1,3.32-4.66,5a26.25,26.25,0,0,1-5.09,4.06,35.86,35.86,0,0,1-12,4.8,38.71,38.71,0,0,1-12.29.57,7,7,0,0,1-4.9-2.31c-1.06-1.28-2-2.74-3.58-3.37-2.48-.95-4.43.48-5.23,2.82a15.18,15.18,0,0,0-.38,6.9,34.56,34.56,0,0,0,3.9,11.65c.51.92,1.07,1.81,1.65,2.68a19.17,19.17,0,0,1,1.87,2.88,18.62,18.62,0,0,1,.66,3,9.53,9.53,0,0,0,1.23,2.72c1,1.64,2.31,3.1,3.24,4.8a11.17,11.17,0,0,1,1.25,4.87,8,8,0,0,1-.74-1.18C450.22,934.21,449.91,933.19,449.5,932.21Z" transform="translate(-2.51 -843.9)"/><path class="cls-1" d="M453.4,932.89a14.85,14.85,0,0,0-2.47-4.79c-1.06-1.48-2.41-3-2.85-4.81a27,27,0,0,0-.63-2.94,12.92,12.92,0,0,0-1.68-2.8,35.15,35.15,0,0,1-5.23-11.9,16.53,16.53,0,0,1-.45-7c.13-.72.33-1.9,1-2.35.93-.62,2.06.46,2.63,1.11,1.13,1.3,2,2.75,3.57,3.54a14.34,14.34,0,0,0,5.39,1.28,43.78,43.78,0,0,0,12-.75,38.3,38.3,0,0,0,11.4-4.3,36.07,36.07,0,0,0,5.11-3.58,47.62,47.62,0,0,0,4.37-4.61,36.63,36.63,0,0,1,4.55-4.16,8.3,8.3,0,0,1,5-2.18,10.87,10.87,0,0,1,8.15,3.78,13.82,13.82,0,0,1,2.83,8.39c.07,2-.25,4-.26,6,0,2.37.12,4.74-.12,7.11a38.48,38.48,0,0,1-3.29,12.6,58.44,58.44,0,0,1-6.86,10.09c-2.6,3.32-4.95,6.84-7.89,9.87a29.09,29.09,0,0,1-5,4.28c-1.79,1.16-3.77,2-5.61,3.11-1.67,1-3.24,2.41-5.17,2.87s-4-.28-5.7-1.06c-3.62-1.69-6.38-4.56-9.07-7.43-1.06-1.13-2.2-2.18-3.3-3.27A19.27,19.27,0,0,0,453.4,932.89Z" transform="translate(-2.51 -843.9)"/><path class="cls-1" d="M443.92,961.25c1.33-1.65,2.65-3.29,4.05-4.89a17,17,0,0,0,3-4.31,36.66,36.66,0,0,0,1.73-5.93c.32-1.31.6-2.63.82-4a73.9,73.9,0,0,0,7.74,7.38c2.92,2.22,7,4.38,10.81,3.75a14.49,14.49,0,0,0,5.31-2.61c1.83-1.19,3.81-2.08,5.69-3.18l.4-.25c-1.18,6.44,4,14.64,7.27,19.46,1,1.49,2.07,3,2.95,4.6a4.33,4.33,0,0,0-1.6,2.89c-.33,2.86,1.3,5.7,1.62,8.52a39.83,39.83,0,0,1,0,9.45,11.69,11.69,0,0,1-2.55,6.46,26.62,26.62,0,0,1-6.64,5.4l0,0c-.5.17-1,.33-1.51.46a104.76,104.76,0,0,1-12.88,2.67,25.77,25.77,0,0,1-2.42-1.09c-2.84-1.46-5.73-2.76-8.67-4s-6-2.45-9-3.64a13.39,13.39,0,0,1-5.79-4.13,22.11,22.11,0,0,1-2-3.06c-.62-2.73-1.21-5.46-1.89-8.17-.52-2.06-1-4.13-1.38-6.21,0-.27,0-.53,0-.8.12-2.22.88-4.33,1.22-6.53a7.84,7.84,0,0,0-.15-4.06A29.76,29.76,0,0,0,443.92,961.25Z" transform="translate(-2.51 -843.9)"/><path class="cls-1" d="M450.23,1004.64a16,16,0,0,1-5.78-6.54c.16.13.3.27.46.39,2.09,1.6,4.57,2.4,7,3.36,3.09,1.23,6.18,2.5,9.22,3.86,1.34.6,2.64,1.27,3.95,1.93l-.6,0C459.65,1007.83,454.43,1007.19,450.23,1004.64Z" transform="translate(-2.51 -843.9)"/><path class="cls-1" d="M496.47,989.52c-.05.35-.11.7-.19,1.05.08-1.13.12-2.25.12-3.35a31.33,31.33,0,0,0-1.2-9,8.69,8.69,0,0,1-.7-3.81,1.74,1.74,0,0,1,.27-.7,30.42,30.42,0,0,1,1.45,7.53A33.59,33.59,0,0,1,496.47,989.52Z" transform="translate(-2.51 -843.9)"/><path class="cls-1" d="M488.67,958.78c-1.84-3.47-3.91-8.69-2.31-12.51a17.05,17.05,0,0,0,0,2.37,19.23,19.23,0,0,0,1.56,6,53.57,53.57,0,0,0,2.52,4.73c.74,1.36,1.42,2.76,2.15,4.13a26.37,26.37,0,0,0,4.19,6.26c-.29.09-.58.18-.86.29l-.11,0C493.7,966.16,490.72,962.66,488.67,958.78Z" transform="translate(-2.51 -843.9)"/><path class="cls-1" d="M539,920.18a10,10,0,0,1-1.54-4.35c-.43-2.45.09-5-.15-7.42s-.67-4.58-.76-6.93a102.08,102.08,0,0,1,0-14.1c.42-4.14,1.4-8.62,3.85-12.07s6.87-5.57,10.87-7c4.36-1.55,8.9-2.83,13.39-4a47.21,47.21,0,0,1,7.65-1.39c2.42-.2,4.88-.14,7.31-.19a67.47,67.47,0,0,1,14.62.87,25.85,25.85,0,0,1,11.21,5.43,21.26,21.26,0,0,1,4.49,4.69,13.21,13.21,0,0,1,1.86,6.33c.5,4.59,1.42,8.95.31,13.52-.87,3.61-2,7.62-4.47,10.51a5.27,5.27,0,0,1-4.38,2.23l-.84-.61a32.65,32.65,0,0,0-6.71-4.25,60.61,60.61,0,0,0-7.78-2.81q-.84-.4-1.71-.78a88.7,88.7,0,0,0-13.82-4.36c-4.75-1.16-9.56-2.11-14.31-3.32-3.9-1-8.31-2.61-10.36-6.38-.95-1.74-.4-3.72-1.69-5.33a1.19,1.19,0,0,0-1.2-.32c-3.24,1.3-4.55,5.48-4.78,8.68-.29,4.18,3.06,7.45,6.48,9.31a20.81,20.81,0,0,0,2.78,1.23c-.39.38-.77.77-1.13,1.17-3.3,3.66-4.83,8.11-5.52,12.93-.42,2.93-.83,5.91-1.12,8.91C540.71,920.93,539.75,921.14,539,920.18Z" transform="translate(-2.51 -843.9)"/><path class="cls-1" d="M544.7,881.15c.14.78.09,1.73.29,2.38a8.05,8.05,0,0,0,1.3,2.52,14.78,14.78,0,0,0,5,4.27,27.05,27.05,0,0,0,4.46,1.81,13.45,13.45,0,0,0-4.53,3.33,19.8,19.8,0,0,1-3.16-1.3,11.41,11.41,0,0,1-5-4.7c-.77-1.5-.43-3.35,0-4.9A8.43,8.43,0,0,1,544.7,881.15Z" transform="translate(-2.51 -843.9)"/><path class="cls-1" d="M556.29,895.84c1.4-.47,3.34-1,3.88-2.54,1.7.38,3.39.71,5,1.09,3.48.78,7,1.59,10.41,2.53-4-.1-7.92.08-11.87,0a56.2,56.2,0,0,1-8.73-.6A13,13,0,0,1,556.29,895.84Z" transform="translate(-2.51 -843.9)"/><path class="cls-1" d="M548.11,902.89a47,47,0,0,1-.24,5.56c-.54,3.42-1.34,6.78-3.48,9.43.16-1.37.32-2.74.49-4.11A27.18,27.18,0,0,1,548.11,902.89Z" transform="translate(-2.51 -843.9)"/><path class="cls-1" d="M545.67,943c-2.34-6.92-2.31-14.16-1.67-21.33a13.82,13.82,0,0,0,1.09-.91c3.31-3.09,4.46-7.35,5.15-11.67.41-2.62,0-5.32.48-7.9a7.22,7.22,0,0,1,1.2-2.8l.18-.15a46.48,46.48,0,0,0,9.58,1.12c5.7.18,11.41-.26,17.11.14a43.38,43.38,0,0,1,8,1.36,64,64,0,0,1,8.16,4.73,18.13,18.13,0,0,0,7.54,3.19,20.8,20.8,0,0,1,5.33,4.88c1.67,2.47,1.73,5,1.7,7.92a79.56,79.56,0,0,1-.63,9c-.74,6-2.4,11.76-3.51,17.69a51,51,0,0,0-.69,5.77,29.57,29.57,0,0,0-.52-4.61,1.24,1.24,0,0,0-2.25-.3c-2.61,4-3.71,8.82-6.26,12.88a16.87,16.87,0,0,1-4.64,4.77c-3.09,1.06-5.94,2.63-9.21,3.16a41.94,41.94,0,0,1-12.3.47,17.85,17.85,0,0,1-9.1-4.54,67.59,67.59,0,0,1-8.07-10.57C549.93,951.38,547.15,947.39,545.67,943Z" transform="translate(-2.51 -843.9)"/><path class="cls-1" d="M600.33,962.39a8,8,0,0,1-4,2.79c2.75-3.39,4-7.6,5.86-11.51C602.42,956.73,602,959.92,600.33,962.39Z" transform="translate(-2.51 -843.9)"/><path class="cls-1" d="M545.22,964.33a7.54,7.54,0,0,1-.08-4.58c.55-1.29,2-1.27,3.15-.86,2.63,1,4.69,3.4,6.59,5.36a43.88,43.88,0,0,0,4,3.66,21.21,21.21,0,0,0,5.16,4.38,17.29,17.29,0,0,0,6.88,2,36,36,0,0,0,13.35-1.69,29.11,29.11,0,0,0,7.9-3.66c1-.3,2.06-.56,3.08-.85,3.21-.93,6.24-2.4,7.77-5.55a16.54,16.54,0,0,0,1.48-5.11c-.06,2.71,0,5.42,0,8.14,0,1.37.08,2.77,0,4.14a7.15,7.15,0,0,1-.1.93,1.15,1.15,0,0,0-.61,1c-.07,2.2-3.05,4.1-4.54,5.45-2.31,2.1-4.78,4-7.29,5.89-2,1.5-4.1,3-6.18,4.46-1.6,1.12-3.92,2.9-6,2.58-2.26-.35-4-3.13-5.77-4.42-2.3-1.7-5-2.8-7.45-4.24a26.7,26.7,0,0,1-5.81-4.94,12.54,12.54,0,0,0-5.54-3.83,5.25,5.25,0,0,0-4.76.67c0-.15-.06-.31-.1-.46a12.23,12.23,0,0,0-2-4.4C547.31,967.07,545.8,966,545.22,964.33Z" transform="translate(-2.51 -843.9)"/><path class="cls-1" d="M634.57,996.33c-3.35-2.94-6.79-5.9-10.82-7.87a17.34,17.34,0,0,0-5.91-1.58,20.48,20.48,0,0,0-5.85-.1,15,15,0,0,0-9.1,5.47,23.61,23.61,0,0,0-4.33,9.28c-.9,3.72-.84,7.45-1.24,11.23-.52,4.94-1.85,9.74-2.76,14.61a36.34,36.34,0,0,0-.49,6.75,45,45,0,0,1-.73,7.78c-.9,5-1.93,10.12-3.32,15-.69,2.44-1.59,4.81-2,7.31a53.22,53.22,0,0,0-.73,7,96.18,96.18,0,0,1-1.39,14.28c-1,4.71-3,9-4.8,13.48-.73,1.81-1.47,3.6-2.25,5.39a10.84,10.84,0,0,1-1-3.88,56.48,56.48,0,0,0-1.25-6.45,137.49,137.49,0,0,0-4.69-15.91c-1-2.45-2-4.89-2.66-7.43-.75-2.7-1.19-5.51-1.79-8.25-1.21-5.58-2.15-11.17-3.07-16.81-.43-2.68-1-5.32-1.64-8a53.13,53.13,0,0,0-2.34-8,51.36,51.36,0,0,1-2.73-7.37,45.22,45.22,0,0,0-2.53-7.26,70.06,70.06,0,0,1-3-7.93,18.45,18.45,0,0,1-.81-4.16c-.09-1.47.05-2.94-.07-4.41-.23-2.75-1-5.43-1.25-8.18-.16-1.88.17-3.92-.49-5.74a4.09,4.09,0,0,0-.33-.7,15.89,15.89,0,0,1,1.34-4.28c.54-1.32.84-2.71,1.33-4,.41-1.09,1.85-.84,2.77-.6a8.15,8.15,0,0,1,3.3,2,67,67,0,0,0,5.07,4.9,62.52,62.52,0,0,0,7.27,4.22,17.5,17.5,0,0,1,3.27,2.2c1,.88,1.9,1.84,2.94,2.65a6,6,0,0,0,5.89,1.17,21.34,21.34,0,0,0,5.78-3.32c2.21-1.61,4.44-3.18,6.61-4.82,2.63-2,5.11-4.1,7.56-6.3.46-.42,1-.84,1.41-1.29a12.93,12.93,0,0,0,.67,4.47c.59,1.65,1.7,3.5,3.58,3.79,1.61.25,3.16-.68,4.44-1.53s2.66-2.21,4.18-2.35c2.37-.21,5,1.13,7,2.17a45.62,45.62,0,0,1,6.37,4c2,1.52,4.51,2.64,6.36,4.38s2.65,4.11,3.31,6.39a38.85,38.85,0,0,1,.91,3.87C638.68,999.74,636.52,998,634.57,996.33Z" transform="translate(-2.51 -843.9)"/><path class="cls-1" d="M649.19,1057.94c-.25,3.68-.6,7.35-1,11a164.74,164.74,0,0,0,.49-18.18c-.26-6.19-1-12.35-1.64-18.5-.67-5.89-1.88-11.71-2.64-17.59.12.32.25.63.38.95,1.7,4,3.43,8.13,4.12,12.49a97.87,97.87,0,0,1,.77,15C649.7,1048.08,649.52,1053,649.19,1057.94Z" transform="translate(-2.51 -843.9)"/><path class="cls-1" d="M1291.92,1030.13a43.48,43.48,0,0,0-3-13.39c-.85-2.15-1.78-4.27-2.66-6.42s-1.48-4.17-2.37-6.18c-.07-.15-.16-.29-.23-.44a54,54,0,0,0-1-6.55c-1-4.54-2.7-8.75-6.73-11.36-4.24-2.73-8.2-5.93-12.84-8a14.48,14.48,0,0,0-6.62-1.62,8.73,8.73,0,0,0-4.14,1.93c-.93.64-2.78,2.34-4,2-.85-.27-1.36-1.65-1.6-2.4a11.59,11.59,0,0,1-.43-3.66c0-2.72.87-5.3.86-8,0-2.9,0-5.81,0-8.71a61.07,61.07,0,0,1,.43-8.55c.41-2.86,1.16-5.64,1.8-8.45a104.8,104.8,0,0,0,2.63-17.34,37.57,37.57,0,0,0-.06-8.28,13,13,0,0,0-3.34-6.32,18.47,18.47,0,0,0-2.37-2.14c3.33-1.29,5.42-5.08,6.61-8.22,1.61-4.24,2.89-8.71,2.43-13.27-.26-2.59-.61-5.16-.9-7.75a14.31,14.31,0,0,0-1.85-6.26,27.42,27.42,0,0,0-10.16-9,32.47,32.47,0,0,0-13-3.39c-2.72-.23-5.46-.24-8.19-.2s-5.62,0-8.41.19c-5.34.4-10.49,2-15.61,3.49-4.46,1.31-9,2.6-13,5a18.39,18.39,0,0,0-8.12,10.06,43.72,43.72,0,0,0-2,14.2c0,2.57.1,5.15.2,7.72s.59,5.11.81,7.69-.26,5.1.18,7.65a13.94,13.94,0,0,0,1.57,4.74,3.9,3.9,0,0,0,4.73,2c-.48,6.57-.29,13.17,1.59,19.49,1.39,4.7,4.12,8.79,6.61,12.95.38.64.79,1.25,1.18,1.87a7.06,7.06,0,0,0-4.11-1.18c-3.14.22-4.23,3-4.18,5.74a8.82,8.82,0,0,0,1.32,4.94c1.06,1.54,2.53,2.68,3.4,4.37a8.24,8.24,0,0,1,.66,6.51,17.36,17.36,0,0,0-1,3,8.25,8.25,0,0,0-.1,1.22,9,9,0,0,0-6.34.24c-3.42,1.45-5.21,5-6.68,8.17-1,2.23-1.84,4.55-3.7,6.25a32.22,32.22,0,0,1-6.56,4.32,18.42,18.42,0,0,0-5.19,3.81,13.11,13.11,0,0,0-2.49,5.45c-.6,2.31-.92,4.67-1.51,7-.66,2.57-1.39,5.11-1.92,7.71q-.42,2.07-.75,4.14,0-4,0-7.92c0-5.25.29-10.69,2.89-15.38a63.64,63.64,0,0,1,4.4-7.14,15.81,15.81,0,0,1,2.45-3c.88-.72,1.9-1,2.75-1.77a1.25,1.25,0,0,0,2.17-.79c0-1.58-.13-3.16,0-4.73.09-1.33.48-2.63.5-4a7.47,7.47,0,0,0-.57-2.75c-.47-1.22-.81-2.39-1.17-3.64-.76-2.58-2.81-3.64-5.37-3.95-1.39-.18-2.77-.1-4.16-.15a21.32,21.32,0,0,1-4.7-.74c-.57-.15-1.13-.34-1.68-.53,4.28-2.08,6.19-7.61,7.48-11.92a50.36,50.36,0,0,0,2.37-11.11c.34-4.78.14-9.62.14-14.41s.19-9.81-.05-14.7a77,77,0,0,0-2.14-14.08c-1.11-4.61-2.54-9.15-4-13.65s-3-9.1-4.75-13.55-3.67-8.56-5.61-12.8c-1-2.25-2-4.51-3-6.8-.76-1.85-1.39-3.77-2.27-5.58a12.85,12.85,0,0,0-6.69-6.72,14.82,14.82,0,0,0-5.58-.67c-2.39,0-4.79.18-7.17.43a105.35,105.35,0,0,0-22.13,4.83c-2.45-1.72-5.35-1-7.57.81a48.14,48.14,0,0,0-4.28,4.29l0,0a19.08,19.08,0,0,0-3,2.91c-.58.71-1.11,1.44-1.62,2.19a59.82,59.82,0,0,0-7,10.78,76.3,76.3,0,0,0-4.59,12.72,79.89,79.89,0,0,0-3.22,13.78,136.23,136.23,0,0,0-.4,14.15c0,3.48,0,7-.06,10.44-.17,1.22-.34,2.44-.53,3.65-1.51,9.78-4,19.4-5.4,29.2-.48,3.43-1.15,7.6,0,11a3.24,3.24,0,0,0,2.92,2.49,13,13,0,0,0,2.3-.37,19.05,19.05,0,0,1,2.14-.12,3.87,3.87,0,0,0,3.17-1.38c1-1.43.87-3.54.78-5.18-.13-2.37-.59-4.69-1-7s-.59-5-.79-7.5c-.4-5-.92-9.89-1.1-14.85-.13-3.49-.15-7-.14-10.48.61-4.48,1.14-9,1.66-13.48.56-4.89,1.13-9.77,1.81-14.64a77.79,77.79,0,0,1,2.87-14,86.43,86.43,0,0,1,5.62-12.63,56.38,56.38,0,0,1,2.87-5c1.33-1.63,2.76-3.18,4.22-4.69,2.81-2.1,6.42-3.18,9.73-4.26a9,9,0,0,1,1,1.56,14.37,14.37,0,0,1,1.53,8.22c-.51,4.27-2.92,8.41-5.31,11.9s-5.63,5.95-8.51,8.84c-1.43,1.43-2.61,3-3.94,4.55a51.77,51.77,0,0,0-4,4.64c-2.42,3.52-2.62,8-1.84,12.1.83,4.31,1.51,8.65,3.86,12.44s5.58,7.15,7.81,11.13c1.06,1.89,1.79,3.86,2.66,5.84a14.78,14.78,0,0,0,3,4.12,37.72,37.72,0,0,1-.86,4.84,34.49,34.49,0,0,1-1.78,6.32,18.59,18.59,0,0,1-3.21,4.37c-1.52,1.73-2.88,3.59-4.37,5.34a24.1,24.1,0,0,1-3,3,2,2,0,0,0-.43.14,3.3,3.3,0,0,0-1.37,1.21c-1.64,1.09-3.37,2-5.05,3.06a30.6,30.6,0,0,0-5,3.72c-1.64,1.53-3.16,3.17-4.89,4.61s-3.73,2.86-5.46,4.45a39.58,39.58,0,0,0-4.22,4.56,54.24,54.24,0,0,0-6.58,10.67,76.08,76.08,0,0,0-4.3,11.59,31.12,31.12,0,0,0-1.26,6.4c-.17,2.38,0,4.75-.11,7.13-.26,5-.83,9.94-.84,15s.16,9.8.15,14.69c0,9.37-.21,18.91-2.93,28-.57,1.89-1.09,4.28-2.49,5.76a3.34,3.34,0,0,1-4.73.24c-3.08-2.37-4.89-5.85-6.22-9.42s-2.37-7.5-3.48-11.26c-.59-2-1.14-4-1.57-6a1.05,1.05,0,0,0,.15-.73,31,31,0,0,0-.73-3.94c-.17-.63-.41-1.24-.57-1.88-.22-.85-.24-1.73-.38-2.6-.47-2.92-1.21-5.89-1.9-8.76s-1.56-5.79-2.3-8.7-1.27-6-2.15-9a45.64,45.64,0,0,1-2.12-8.35c-.12-1.27-.07-2.54-.31-3.79-.29-1.5-.8-2.95-1.07-4.46-1-5.53-1.24-11.08-3.07-16.45-.53-1.53-1.13-3-1.52-4.62s-1-3-1.53-4.49c-.64-1.91-.45-4.53-2.46-5.65l-.08,0a11.31,11.31,0,0,0-3.54-4.11,9.61,9.61,0,0,0-5.71-1.77c-1.63-3.52-4.07-6.69-5.56-10.29-1.31-3.14-1.13-6.35-1-9.69.15-3.58.46-7.14.84-10.7.89-8.27,2.18-16.56,2.82-24.87a20.47,20.47,0,0,0,2.56-1c-.44,1.12-.76,2.33-1.09,3.44a9.7,9.7,0,0,0,2.51,10.22,1.26,1.26,0,0,0,1.49.19c9-5.54,12.69-15.89,12.6-26.08a42,42,0,0,0-10.86-27.3c-7-7.9-16.26-13-26.16-16.33-11.05-3.74-23.12-3.38-34.46-1.13a32.61,32.61,0,0,0-12.62,4.9,19.44,19.44,0,0,0-4.57,4.48c-.91,1.26-3.11,4.29-2.38,5.9.9,2,3.83,3.12,5.81,3.45a35.43,35.43,0,0,0,7.06.11,172.32,172.32,0,0,1,17.46.1c-1.32.28-2.65.55-4,.79a23.06,23.06,0,0,1-4.28.58c-1.6,0-3.18-.25-4.77-.36a13.91,13.91,0,0,0-7.51,1.18,49.53,49.53,0,0,0-7.14,5.09c-4.05,3.17-4.39,9.24-3.54,13.88.5,2.74,1.37,5.39,2.13,8.07a12.59,12.59,0,0,1-.15,7.75c-1.36,4.42-3.82,8.92-2.69,13.69,1,4.21,4.13,7.41,7.16,10.28s6.42,6,7.06,10.55c.7,4.92.82,9.94,1.21,14.88.75,9.6,2.09,19.73,7.89,27.74a23.58,23.58,0,0,0,5,5.5c1.73,1.21,4.32,1.69,6.38,2a21.24,21.24,0,0,0,12.63-2.53,52,52,0,0,0,11.11-8.47c3.64-3.43,7-7.32,11.08-10.24a17,17,0,0,1,6.33-3.17,15.31,15.31,0,0,1,.58,2.11,16.84,16.84,0,0,1-1,8.68c-.89,2.52-2.08,4.93-3.06,7.42a11,11,0,0,0-1.09,3.66c0,1.58.7,3,.88,4.6s-.69,3.19-1.19,4.6c-.23.62-.46,1.23-.7,1.85a265.69,265.69,0,0,0-23.56,50.34,51.32,51.32,0,0,1-8.23,14.8c-3.35-.41-5.12-3.52-6.47-6.36a70.48,70.48,0,0,1-4-12.3c-2.74-10.29-5.32-20.62-8-30.92-.67-2.57-1.36-5.15-2.06-7.72-.65-2.41-1.13-4.79-2.49-6.92-1.9-3-5.06-6.38-8.53-7.54-3-1-6.86-.66-9.87,0a17.2,17.2,0,0,0-8.65,4.71c-2.55,2.69-3.29,5.78-3.92,9.31a127.89,127.89,0,0,0-1.76,15.24c-.6,10.42-.79,20.91-1,31.34-.11,4.85-.32,9.7,0,14.55a79.87,79.87,0,0,0,2.55,15c2.49,9.86,5.63,19.53,8.17,29.38a106.06,106.06,0,0,1,3.2,15,93,93,0,0,1,.55,11.68,36.18,36.18,0,0,1-1.86,11.64,20.71,20.71,0,0,1-2.64,5c-.89,1.24-2.54,3.69-4.19,3.64a5.37,5.37,0,0,1-4.44-2.92,23.79,23.79,0,0,1-1.27-7.77,99.7,99.7,0,0,1,1-14.84c.53-5,1.17-10.2.37-15.15a31.45,31.45,0,0,0-3.92-10.65c-3.72-6.4-9.64-11.92-16.82-14.09a21.08,21.08,0,0,0-8.61-.74,12.48,12.48,0,0,0-.76-3.83,16,16,0,0,0-1.3-2.58,14.52,14.52,0,0,0,3-7.1,11.29,11.29,0,0,0-2.95-8,75.49,75.49,0,0,0-5.79-5.52c-1.79-1.71-4-3.85-3.89-6.52a1.15,1.15,0,0,0-.1-.46,1.07,1.07,0,0,0-.57-.59,69.78,69.78,0,0,0,13.48-23.71c.82,4.08,1.72,8.14,2.79,12.17.6,2.25,1.28,4.49,2,6.7q-.09,3.43-.21,6.87c-.2,6.13-.4,12.26-.37,18.4,0,3.94-.53,8.93,1.77,12.43a4.13,4.13,0,0,0,3.7,2.14,9.68,9.68,0,0,0,4.84-2.8c2.58-2.57,3.42-6.29,3.21-9.82a27.26,27.26,0,0,0-3.69-11.5,97,97,0,0,1-6.78-16c0-1.81.1-3.61.13-5.42.19-11.64-.23-23.36-2.61-34.77.11-.83.22-1.66.3-2.49a38.34,38.34,0,0,0-1.25-15.91,22.07,22.07,0,0,0-8.18-11.51,20.75,20.75,0,0,0-10.23-3.38,78.8,78.8,0,0,0-6.84-5c-4-2.57-8.27-5.5-12.8-6.95a21.93,21.93,0,0,0-8.75-.87,40.23,40.23,0,0,0-16.58,2.2,42.2,42.2,0,0,0-21.72,18.42,36.24,36.24,0,0,0-4.33,15.66c-.62-.64-1.33-1-2-1.61-1.58-1.44-2.6-3.31-4.37-4.55a34.71,34.71,0,0,0-10.78-4.89,14.28,14.28,0,0,0-3.07-3.28,16.64,16.64,0,0,0,1.93-2.73c1.81-3.16,2.64-6.87,3.64-10.35a90.46,90.46,0,0,0,2.59-11.26c1.18-7.76.7-15.58-3-22.63a1.23,1.23,0,0,0-1.07-.61h-.42a2.17,2.17,0,0,0-1.73,0,1.14,1.14,0,0,0-.82.53l-.06,0a11.09,11.09,0,0,0-2.21,3.31,42.37,42.37,0,0,0,1.56-8.08c.15-2.66.57-5.47-.27-8.06l.64-.25a19.32,19.32,0,0,0,8.93-8.35,23.72,23.72,0,0,0-.58-23.5c-10.16-16.57-29.82-23.34-48.54-21.7a43.43,43.43,0,0,0-24.59,10.46,36.24,36.24,0,0,0-8.3,10.93c-2.44,4.92-3.12,11-3,16.38.17,5.87,1.68,11.54,3.12,17.2,1.59,6.27,3.32,12.5,5,18.75A40.81,40.81,0,0,0,697,970.64c.73,1.48,1.54,2.91,2.39,4.31a40.58,40.58,0,0,0,4.33,7.26,35.82,35.82,0,0,0,9.74,9,56.54,56.54,0,0,0,18.39,7.47c-3,3.53-6.47,7.51-11.07,8.06-5.14.61-10.55-3.31-14.27-6.42-3.16-2.65-7-5.91-11.34-4a14,14,0,0,0-7.42,8.07c-.79.5-1.55,1.11-2.16,1.53-2.72,1.87-5.3,4-8.41,5.18-2.83,1.08-5.74,1.9-8.61,2.87a40.23,40.23,0,0,0-8,3.51,21.58,21.58,0,0,0-6,5.7,49.44,49.44,0,0,0-7.67,14.56c-3.62,10.73-4,22.31-3.57,33.53.24,5.51.71,11,1.2,16.49.15,1.56,2.61,1.58,2.46,0-1.18-13.15-2.37-26.62-.12-39.73a55.53,55.53,0,0,1,6.3-18.35,37.63,37.63,0,0,1,6-8.1c2.54-2.51,6.31-3.91,9.61-5,3.65-1.27,7.49-2.17,11-3.82a48,48,0,0,0,7-4.5,23.59,23.59,0,0,0,0,8.34c.93,4.9,4.36,9.3,7,13.4,3.07,4.69,6.27,9.3,9.15,14.1.39.64.76,1.28,1.13,1.92,2.85,10,5.75,20.06,8,30.24a207.21,207.21,0,0,1,5,37.93c.17,5-.59,10.48,3.7,14a13.32,13.32,0,0,0,13.4,2.13,13.55,13.55,0,0,0,5.54-4.25c.68-.86,1.26-1.79,1.9-2.68a12.78,12.78,0,0,0,1.83-2.73,124.42,124.42,0,0,0,5.22-17.54c2.69-11.93,4-24.12,5.22-36.27.31-3.17.3-6.34.79-9.49a81.92,81.92,0,0,1,2-8.89c.81-3,1.72-6,2.61-8.92.45-1.52.9-3,1.33-4.56a14.58,14.58,0,0,0,.41-4.11c0-3.14.88-6.07,1.62-9.11s1.46-6.17,1.93-9.3c.55-3.73,1-7.92.25-11.76a32.67,32.67,0,0,1,3.81,2.39,35.24,35.24,0,0,1,4,2.38,21,21,0,0,1,3.11,3.41,38.77,38.77,0,0,1,2.53,3.94c.4.89.78,1.78,1.13,2.68q.4,1,.78,2.07c.24,1.91.54,3.8.9,5.65a107.87,107.87,0,0,0,4.84,16.59c.42,1.14.81,2.34,1.26,3.52a102.63,102.63,0,0,0-4.51,10c-1,2.64-1.55,5.45-2.3,8.15-.81,2.93-1.64,5.85-2.4,8.79-2.47,9.63-4,19.69-1.72,29.37-.16,1.55.82,3.35,1.43,4.58a1,1,0,0,0,.75.56,1.19,1.19,0,0,0,.46.06c-1.29,2.07-2.4,4.27-3.62,6.41a88,88,0,0,0-6.53,13.81,55.28,55.28,0,0,0-3.2,14.3c-.35,4.55.52,9.3,1.52,13.74a35.33,35.33,0,0,0,3.09,8.64,19,19,0,0,0,2.18,3.51c0,.06.1.12.15.18l.11.09.12.1,0,0a1.18,1.18,0,0,0,1,.18,1,1,0,0,0,.55-.33l0,0a3.78,3.78,0,0,0,.75-.87,5.71,5.71,0,0,0,1.68-3.29,58.31,58.31,0,0,0-.45-6.71c-.26-4.32-.41-8.65-.41-13a110.22,110.22,0,0,1,2.64-25.35,68.33,68.33,0,0,1,4.5-13c2.76-3.18,6.75-5.86,11.1-5,3.47.7,5.92,3.12,7.78,6,1.61,5,3.64,9.94,7.94,13.24a19.47,19.47,0,0,0,5.43,2.92,15.9,15.9,0,0,0,5.7,1.21l.82,0a28.8,28.8,0,0,0,17.07-5.21c.52-.36,1-.74,1.51-1.12,8.83-1.2,20.26-4.88,23.32-14.26a13.94,13.94,0,0,0,.53-2.32c6.23-.87,12.62,1.7,17.41,6.07a31.88,31.88,0,0,1,7.53,10.43,30,30,0,0,1,2.32,14c-.24,5.58-1.15,11.1-1.5,16.67a49,49,0,0,0,.08,7.94c.22,2.28.46,5.07,1.52,7.13,1.29,2.53,5.86,4.94,8.57,3.4a15.29,15.29,0,0,0,4.09-4.24,22.9,22.9,0,0,0,2.86-5.37c3-7.69,2.39-16.64,1.55-24.68-.56-5.39-2.07-10.83-3.43-16.06s-2.87-10.33-4.36-15.48-3-10.56-4.29-15.9a72.27,72.27,0,0,1-2-17.15c0-10.9.6-21.82.91-32.72a169.53,169.53,0,0,1,1.17-17.14c.56-4.32.78-9.63,3.81-13.06a15.49,15.49,0,0,1,9.7-4.72,19,19,0,0,1,5.64.09c2.26.41,4.32,2.17,5.89,3.77a14.54,14.54,0,0,1,3.75,6.48q1.15,4.2,2.27,8.42c1.47,5.53,2.89,11.07,4.31,16.62s2.92,11.32,4.43,17a82.55,82.55,0,0,0,2.27,8.26c.56,1.47,1.31,2.92,2,4.34,1.41,2.88,3.35,5.84,6.56,6.88a6.1,6.1,0,0,0,2.42.37c1-.15,1.45-1.1,2-1.85a55.7,55.7,0,0,0,4.35-6.53c2.48-4.39,3.94-9.17,5.68-13.88q2.73-7.39,5.89-14.62a254.3,254.3,0,0,1,13.11-25.69,1,1,0,0,0,1-.63c.53-1.21,1.08-2.45,1.6-3.72,2.24-3.66,4.54-7.28,7-10.82q2.25-3.33,4.61-6.59a23.6,23.6,0,0,0,3.19-5c.91,2.4,1.54,4.9,2.38,7.32,1.79,5.13,2.21,10.48,3,15.81a32.29,32.29,0,0,0,.8,3.79,19.88,19.88,0,0,1,.6,4.21,37,37,0,0,0,1.85,8.16c.8,2.63,1.38,5.27,2,7.94.66,2.92,1.48,5.8,2.25,8.69.86,3.22,1.43,6.5,2.21,9.74.25,1,.34,2.13.53,3.19a1.17,1.17,0,0,0,0,.59,14.2,14.2,0,0,1,.78,2.74,18,18,0,0,0,.32,3c.45,2.35,1.09,4.66,1.77,7,1.13,3.81,2.15,7.7,3.55,11.43,1.89,5,8,16.28,14.67,10.4a10.21,10.21,0,0,0,2.53-4.38,51.7,51.7,0,0,0,1.94-6.69,82.06,82.06,0,0,0,1.74-13.24c.55-9.43,0-18.85.13-28.28.07-4.77.8-9.5.87-14.26a66.85,66.85,0,0,1,.16-6.79,36.73,36.73,0,0,1,1.58-6.36c2.38-7.75,6-15.36,11.41-21.44,3-3.27,6.64-5.61,9.81-8.63,1.58-1.5,3-3.12,4.77-4.46a45.22,45.22,0,0,1,5-3.2l.73-.43a28.24,28.24,0,0,0,.39,4.67c.18,1.25.4,2.5.65,3.75a31.9,31.9,0,0,0,3.5,15c.85,3.6,1.89,7.08,4.25,10.17,3.14,4.13,7.52,6.27,12.53,7.29a40.18,40.18,0,0,0,13,.16,11.85,11.85,0,0,0,7.8.19,39.81,39.81,0,0,0,7.87-3.56l0,0a19.29,19.29,0,0,0,5.19-2.7,21.47,21.47,0,0,0,8-11.72,26,26,0,0,0,.39-8.8,49.8,49.8,0,0,0-1.21-8.53,18.21,18.21,0,0,0-.82-2.32,7.55,7.55,0,0,1,2.43-.51,11.37,11.37,0,0,0,5.36,1.68,29.67,29.67,0,0,0,7.35,2.5,28.4,28.4,0,0,0,5,.4,9.34,9.34,0,0,1,4.35.68c1.25.66,1.24,2.12,1.61,3.33a25.45,25.45,0,0,1,1.19,3.37,15.87,15.87,0,0,1-.41,3.93,28.53,28.53,0,0,0-.07,3.7,1,1,0,0,0-1,.37,13,13,0,0,1-2.57,1.7,11.07,11.07,0,0,0-2.29,2.44,54.45,54.45,0,0,0-4.14,6.17,33.5,33.5,0,0,0-3.08,6.31,31.55,31.55,0,0,0-1.32,6.81c-.51,5.27-.17,10.66-.18,16,0,5.72,0,11.44,0,17.16s.2,11.29.42,16.94c0,3.8.06,7.61.15,11.41.29,11.67.83,23.35,1.45,35a329.52,329.52,0,0,0,3,32.91,14.6,14.6,0,0,0,2,6,1.25,1.25,0,0,0,2.25-.29c1-4.54-.13-9.13-1.09-13.57a145,145,0,0,1-2.26-15.38c-.56-5.38-.57-10.7-.7-16.1s-.75-11-1.15-16.56c-.55-7.4-.91-14.83-1.17-22.26,0-4.88,0-9.77.19-14.65.38-11.18,1.19-22.28,4.2-33.1.59-2.12.93-4.3,1.4-6.44s1-4.4,2.45-6a19.39,19.39,0,0,1,5.25-3.56,31,31,0,0,0,6-4.1c3.22-2.85,4-7.28,6.3-10.81a7.9,7.9,0,0,1,3.82-3.4c1.42-.5,4.13-.75,5.19.59s.51,3.52.6,5c.16,2.59.77,5.12,1.16,7.68.42,2.73,0,5.47.58,8.18a48.16,48.16,0,0,0,2.5,7.59,75.6,75.6,0,0,1,2.93,7.27,58.8,58.8,0,0,0,2.23,7.24,46.57,46.57,0,0,1,2.7,7.41c.64,2.63,1.31,5.26,1.83,7.93,1,5.28,1.64,10.62,2.74,15.9s1.94,10.68,3.78,15.73c.87,2.4,1.88,4.75,2.7,7.16s1.55,5.16,2.24,7.76,1.37,5.11,2,7.68c.43,1.84.48,3.74.87,5.59a7.69,7.69,0,0,0,2.59,4.61,1.24,1.24,0,0,0,1.93-.25c1.94-4.26,3.56-8.64,5.38-12.95a47,47,0,0,0,3.39-12.81c.57-4.67.52-9.39,1-14.07.51-4.86,2.36-9.47,3.44-14.23a131.68,131.68,0,0,0,2.85-14.31c.26-2.34.22-4.66.25-7a34.67,34.67,0,0,1,1-6.86,99.73,99.73,0,0,0,2.38-13.92,46.63,46.63,0,0,1,1.41-10.46,18.31,18.31,0,0,1,5.21-8.71,12.12,12.12,0,0,1,4.55-2.48,15.85,15.85,0,0,1,6.06-.24,16,16,0,0,1,6,1.66,36.65,36.65,0,0,1,5.7,3.79,98.66,98.66,0,0,1,9.93,8.8,15.45,15.45,0,0,1,2.42,3.45c.18,1.94.29,3.88.5,5.82.34,3,.82,6.08,1.32,9.11,1,6.19,1.82,12.39,2.44,18.64a135.89,135.89,0,0,1,.79,18.81c-.25,6.23-.89,12.44-1.19,18.67-.27,5.65-.15,11.29-.19,17-.8,7.4-1.2,14.83-1.32,22.3,0,2.43,0,4.85,0,7.28a1.23,1.23,0,0,0,2.46,0c0-6.13.48-12.25.89-18.37.25-3.61.36-7.21.41-10.81.06-.55.11-1.11.18-1.67,1.22-10.25,2.92-20.42,3.8-30.72A199.64,199.64,0,0,0,1291.92,1030.13Z" transform="translate(-2.51 -843.9)"/><path class="cls-1" d="M861.81,1096.56a26,26,0,0,0-7.65,3.68c2.21-2.81,4.42-5.63,6.58-8.48a10.67,10.67,0,0,1,1,3,11.81,11.81,0,0,1,.18,1.74Z" transform="translate(-2.51 -843.9)"/><path class="cls-1" d="M817.05,1118.35a16.79,16.79,0,0,1-7.8-5.79,26.94,26.94,0,0,1-2.69-4.77,25,25,0,0,0,6.11,4,46,46,0,0,0,19.58,3.93,23.49,23.49,0,0,1-10.57,3.3A19.34,19.34,0,0,1,817.05,1118.35Z" transform="translate(-2.51 -843.9)"/><path class="cls-1" d="M796.21,1089a7.51,7.51,0,0,0-3.37-.51l0,0a11.09,11.09,0,0,1,5.34-2.75c.65-.17,1.34-.3,2-.41a22.54,22.54,0,0,0-1,4.85c0,.35,0,.69,0,1A7.73,7.73,0,0,0,796.21,1089Z" transform="translate(-2.51 -843.9)"/><path class="cls-1" d="M836.57,1113.11c-15.11,1-34.85-3.67-34.89-21.47a20.08,20.08,0,0,1,1.23-6.71,16.24,16.24,0,0,0,5.22-1.48,3.65,3.65,0,0,0,1.33-1.78c.5-1,1.15-1.88,1.63-2.88a17.41,17.41,0,0,0,1.54-6.27c.27-3.56-.23-7.11-.4-10.66,0-.34,0-.67,0-1q2.7,3,5.33,6.13c2.3,2.71,4.7,6.28,8,7.87,3.93,1.89,8-.09,11.61-1.88a48.6,48.6,0,0,0,12.85-9.42,13,13,0,0,0,0,2.86,1.21,1.21,0,0,0,.13.42c0,4.88.25,9.81,2.56,14.19,1.64,3.11,4.52,5.62,6.62,8.51-1.16,1.51-2.42,3-3.58,4.45-1.72,2.2-3.38,4.45-5.07,6.66-1.3,1.7-2.63,3.4-4,5C843.36,1108.23,840.06,1110.8,836.57,1113.11Z" transform="translate(-2.51 -843.9)"/><path class="cls-1" d="M810.24,1070.9a18.08,18.08,0,0,1-.81,5.47,13.35,13.35,0,0,1-1.41,2.83c-.57.92-.74,1.8-1.71,2.27a12.42,12.42,0,0,1-2.34.8c1.09-2.45,2.43-4.83,3.67-7.16a59,59,0,0,0,2.59-5.45C810.24,1070.07,810.25,1070.49,810.24,1070.9Z" transform="translate(-2.51 -843.9)"/><path class="cls-1" d="M857.14,1073c1.85,1.66,3.77,3.32,4.89,5.6,1.39,2.79.76,5.64-.76,8.22-.15.25-.32.48-.47.71-.81-1-1.67-2-2.52-3a20.54,20.54,0,0,1-5.13-9.93,36,36,0,0,1-.51-6A42.78,42.78,0,0,0,857.14,1073Z" transform="translate(-2.51 -843.9)"/><path class="cls-1" d="M864.27,1033.39a69.39,69.39,0,0,1-12.9,25,50.39,50.39,0,0,1-10,9.26,45.72,45.72,0,0,1-5.83,3.4c-2,1-4.37,2.24-6.65,2.14-3.58-.17-5.87-3.82-8-6.23-4.09-4.57-8-9.27-12.15-13.78l-.44-.47a8,8,0,0,0,1.14-.54c1.06-.63,1.26-2,1.58-3.16a32.36,32.36,0,0,0,1.15-8.53c0-5.71-1.77-11.06-2.25-16.69a55.12,55.12,0,0,1,.28-13.09,33.4,33.4,0,0,1,4.19-12.2c2.16-3.58,5.66-7.53,9.61-9.2,1.84-.78,4.28-.83,6.25-1.25,2.2-.46,4.39-1,6.59-1.4a60.66,60.66,0,0,1,10.81-1.44c4.29,3.59,7.4,9.15,9.49,14.29,2.15,5.31,3.16,11.19,4.29,16.78s2.06,10.94,3.09,16.4C864.4,1032.93,864.34,1033.16,864.27,1033.39Z" transform="translate(-2.51 -843.9)"/><path class="cls-1" d="M822.27,972.56h.2a37.15,37.15,0,0,1,19.42,7.21,25.32,25.32,0,0,1,3.27,3.1c-7.08.5-14.13,2.61-21,3.86-2.08.38-4.06,2.06-5.68,3.37a27.86,27.86,0,0,0-4.52,4.69,31.92,31.92,0,0,0-5.4,11.58,49.84,49.84,0,0,0-1.35,12.88c0,2.24.2,4.49.45,6.72.32,2.8,1.15,5.51,1.57,8.3a38,38,0,0,1,.3,9.52,27.59,27.59,0,0,1-.9,4.59,4,4,0,0,1-.71,1.82,3.81,3.81,0,0,1-1.44.59c-3.4-3.66-6.84-7.31-10.24-11-1.06-1.13-2.11-2.26-3.13-3.4a45.51,45.51,0,0,0,2.19-6.82,57.72,57.72,0,0,0,.84-7.2c.49-5.12.93-10.26,1.71-15.35,1.51-9.91,4.34-19.95,11-27.72C812,975.48,817.32,973.13,822.27,972.56Z" transform="translate(-2.51 -843.9)"/><path class="cls-1" d="M865.2,1023.24c-2-10.74-3.58-22.13-9.37-31.6-.45-.73-.92-1.48-1.41-2.22a44.41,44.41,0,0,1,4.29,5.17,43.45,43.45,0,0,1,3.68,6.29c1.1,2.33,1.87,4.81,3,7.14a34.85,34.85,0,0,1,2.36,8.21c-.16,1.07-.34,2.14-.53,3.2-.46,2.47-.88,4.92-1.36,7.36Z" transform="translate(-2.51 -843.9)"/><path class="cls-1" d="M792.4,1039.34c3.73,4,7.5,8,11.24,12.05a13,13,0,0,1-11.16-4.07,13.92,13.92,0,0,1-2.53-4c.7-1.45,1.4-2.9,2.06-4.37Z" transform="translate(-2.51 -843.9)"/><path class="cls-1" d="M873.84,1066.33c2,4.73,5.17,9.09,6.36,14.13.85,3.63,1,8-1.56,11.06-1,1.22-3.6,3.45-5,1.76a8.47,8.47,0,0,1-1.42-4.76c-.43-8.5-.1-17,.22-25.56C872.92,1064.09,873.36,1065.21,873.84,1066.33Z" transform="translate(-2.51 -843.9)"/><path class="cls-1" d="M869.42,1026.39a174.31,174.31,0,0,1,1,22c-1.33-5.15-2.41-10.36-3.41-15.58.41-1.51.79-3,1.12-4.53s.64-3.08.93-4.64C869.17,1024.58,869.31,1025.48,869.42,1026.39Z" transform="translate(-2.51 -843.9)"/><path class="cls-1" d="M861.07,989.3c4.07,3.5,6.19,8.68,7,13.9a37.67,37.67,0,0,1,.35,5.91,36.42,36.42,0,0,0-1.39-3.44c-1.11-2.39-1.88-4.91-3.09-7.26a46.39,46.39,0,0,0-8.5-11.51c-.34-.34-.71-.66-1.07-1A16.43,16.43,0,0,1,861.07,989.3Z" transform="translate(-2.51 -843.9)"/><path class="cls-1" d="M784.54,995.59A35.84,35.84,0,0,1,793.45,983,38.37,38.37,0,0,1,813,973a24.6,24.6,0,0,0-2.62,1.58,22.52,22.52,0,0,0-5.11,5.2c-6,8.1-8.64,18.1-10,28-.7,5-1.14,9.93-1.62,14.91a46.28,46.28,0,0,1-1.17,8c-.33,1.21-.74,2.4-1.17,3.58-.42-.51-.84-1-1.24-1.57-1.42-1.89-3.06-3.63-3.89-5.87s-1.58-4.52-2.36-6.81a3.52,3.52,0,0,0,1.27.45.62.62,0,0,0,.19,0h.24a1.17,1.17,0,0,0,.61-.25l0,0,.15-.14a1.09,1.09,0,0,0,.33-.79.92.92,0,0,0-.15-.55,7.82,7.82,0,0,0-1.83-3.25c-.82-1.86-1.46-3.8-2.37-5.62A37.73,37.73,0,0,1,784.54,995.59Z" transform="translate(-2.51 -843.9)"/><path class="cls-1" d="M712.24,987a67.89,67.89,0,0,1-7.93-9.09c-1.08-1.49-2.1-3-3.06-4.63-.22-.46-.43-.93-.64-1.4-2.2-5.09-3.22-10.55-4.59-15.89-.35-1.38-.72-2.75-1.08-4.12a28,28,0,0,1,1.22-7.42c.14-.44.28-.89.45-1.32a2.23,2.23,0,0,0,.16-.49l.06,0c.67-.31,2,.51,2.56.82,1.75,1.06,2.66,3.15,3.74,4.83,4,6.3,8.47,12.53,14.11,17.51,5.19,4.58,11.83,8.57,18.86,9.13a21.76,21.76,0,0,0,13.77-3.59c-.43,1.63-.85,3.27-1.24,4.91-.81,3.42-1.93,7-1.85,10.55,0,.48,0,1,.06,1.48a16.54,16.54,0,0,0-2.73.45c-3.61.92-6.58,3.61-9.11,6.38a66.26,66.26,0,0,1-14-3.07,31.42,31.42,0,0,1-6.92-3.42A22.47,22.47,0,0,1,712.24,987Z" transform="translate(-2.51 -843.9)"/><path class="cls-1" d="M756.7,994.46a9.06,9.06,0,0,0,1.13-.73c.35.27.68.55,1,.84C758.12,994.5,757.41,994.48,756.7,994.46Z" transform="translate(-2.51 -843.9)"/><path class="cls-1" d="M752.27,993.12c-1.67-.08-2.22-.93-2.58-2.32a17,17,0,0,1,5.79,1.52A6,6,0,0,1,752.27,993.12Z" transform="translate(-2.51 -843.9)"/><path class="cls-1" d="M738.08,995.42c2.52-2.45,5.35-4.31,9-4.64a7.77,7.77,0,0,0,1.67,3.67,2.79,2.79,0,0,0,.65.54h-.07c-1.85.24-3.71.55-5.57.82C741.9,995.72,740,995.59,738.08,995.42Z" transform="translate(-2.51 -843.9)"/><path class="cls-1" d="M760.65,949.9a23.86,23.86,0,0,1,1.05-2.24c.64,1,1.09,1.85,2.51,2.13,4.06,11.39.23,24.27-3.45,35.36a15.14,15.14,0,0,1-3.15,5.51,19,19,0,0,0-8.32-2.43,26.87,26.87,0,0,1,.83-7.49c.76-3.5,1.63-7,2.55-10.44.15-.57.31-1.14.46-1.7a20.28,20.28,0,0,0,2.06-2.47c2.64-3.78,3-8.36,4.23-12.69A24.71,24.71,0,0,1,760.65,949.9Z" transform="translate(-2.51 -843.9)"/><path class="cls-1" d="M708.48,883.87a50.89,50.89,0,0,1,28-2.28A45.75,45.75,0,0,1,760.93,894c3.18,3.24,6.3,7.19,7.73,11.55A21.68,21.68,0,0,1,769,918a18.25,18.25,0,0,1-6.78,10.15,13.41,13.41,0,0,1-3.48,1.8c-2.36-4.17-6.92-7.91-11.42-8.82-3.1-.63-6.48-.06-9.63-.12a102.59,102.59,0,0,1-10.8-.77c-.63-.07-1.25-.16-1.88-.25-3.72-1.91-7.44-3.82-11.21-5.55-8.13-3.71-17.72-4.72-23.06-12.79a2.13,2.13,0,0,0-.18-.22,1.1,1.1,0,0,0-1.13-.32C692.92,893.1,700.61,887,708.48,883.87Z" transform="translate(-2.51 -843.9)"/><path class="cls-1" d="M756.25,930.52a21.16,21.16,0,0,1-9.62-1,109,109,0,0,1-15.4-6.46c3.26.26,6.53.39,9.79.34a31.63,31.63,0,0,1,5.33,0,11.81,11.81,0,0,1,4.76,2A19.09,19.09,0,0,1,756.25,930.52Z" transform="translate(-2.51 -843.9)"/><path class="cls-1" d="M692.5,907.2c5.32,4.57,12.42,6.38,19.07,8.91,1.88.72,3.72,1.55,5.54,2.43-4.55-1-9.05-2.18-13.47-3.59q-2.75-.87-5.47-1.84c-1.71-.61-3.5-1.05-4.62-2.59a10,10,0,0,1-1.43-3.13A1.23,1.23,0,0,0,692.5,907.2Z" transform="translate(-2.51 -843.9)"/><path class="cls-1" d="M688.66,903.14c.65,2.5,1,5.13,2.11,7.47,1.3,2.7,3.45,3.69,6.15,4.66a146.32,146.32,0,0,0,21.64,6.07c2,.38,4,.72,6,1,1.35.71,2.71,1.42,4.06,2.09a150.41,150.41,0,0,0,16.26,7.11,24.22,24.22,0,0,0,12.59,1.37c0,.11.08.21.11.31.9,3.24.1,7.35-.57,10.55-.76,3.63-1.64,7.23-2.58,10.82-1.12,4.27-2.32,8.51-3.47,12.77a2.39,2.39,0,0,0-.22.23,18.78,18.78,0,0,1-9.65,4.65c-7.77,1.32-15.48-2.63-21.28-7.52-6.08-5.14-10.72-11.72-15-18.39-.92-1.46-1.68-3.13-3-4.22a8,8,0,0,0-4.79-2,2.54,2.54,0,0,0-2.55,1.81,28.37,28.37,0,0,0-1.14,3.71c-.7-2.62-1.41-5.23-2.1-7.86C688.19,926.43,684.75,914.71,688.66,903.14Z" transform="translate(-2.51 -843.9)"/><path class="cls-1" d="M693.62,1000c2.17-1.73,4.66-2.37,7.16-1s4.26,3.4,6.49,5c4.51,3.14,10.06,6.5,15.76,4.76,5-1.53,8.31-5.75,11.73-9.74.34,0,.69.05,1,.05a51.7,51.7,0,0,0,8.31-.78l2.8.14c4,.17,8.17.07,12.24.35-3.31,2-5.1,6.26-5.49,9.9-.76,7.25-.47,14.71-.63,22s-.42,14.58-1.19,21.83c-.75,7.06-2,14.1-3.28,21.08-2.39,13-5.78,25.84-11.85,37.65-.66,1.29-1.43,2.52-2.11,3.8a9.57,9.57,0,0,1-2.08,3.14c-1.79,1.39-5.24-.08-6.82-1.25-3.85-2.86-5.17-8.26-5.85-12.75-2.14-14.09-2.71-28.35-6.43-42.18a73,73,0,0,0-7.3-17.45c-3.12-11-6.11-22-9.64-32.85-.48-1.48-.79-3.45-1.64-4.75a11.33,11.33,0,0,0-2.56-2.37,6,6,0,0,0-1.55-.92A10.77,10.77,0,0,1,693.62,1000Z" transform="translate(-2.51 -843.9)"/><path class="cls-1" d="M688.85,1012.74a21.62,21.62,0,0,1,.83-6.45l.39-.22a7.8,7.8,0,0,1,2,1.61c1,1,1.25,2.36,1.68,3.68q1.54,4.75,3,9.54c1.69,5.45,3.28,10.94,4.83,16.43-2-3.14-4.15-6.25-6.19-9.4C692.37,1023.2,689,1018.58,688.85,1012.74Z" transform="translate(-2.51 -843.9)"/><path class="cls-1" d="M747.41,1097.37a138.86,138.86,0,0,1-5.27,19.85,12.55,12.55,0,0,1-1.84,3.85c-.84,1.07-1.53,2.25-2.36,3.32a11,11,0,0,1-7.86,4.34,10.62,10.62,0,0,1-8.31-3.08c-2.33-2.46-2-5.68-2.1-8.81,0-1.47-.08-2.93-.15-4.39,1.44,3.37,3.7,6.43,7.2,7.83a9.34,9.34,0,0,0,5.84.64c1.84-.59,2.93-2.38,3.8-4a127,127,0,0,0,12.18-31.31q.94-3.93,1.78-7.94C749.56,1084.28,748.67,1090.86,747.41,1097.37Z" transform="translate(-2.51 -843.9)"/><path class="cls-1" d="M761.63,1015.08c-.71,3.57-1.63,7.09-2.47,10.63a17.88,17.88,0,0,0-.58,4.36,17.82,17.82,0,0,1-.61,5.19c-1,3.51-2.11,7-3.1,10.52.77-11.42.59-22.88,1.11-34.32.17-3.92,1.27-10.62,6.26-11.21C763.52,1005,762.52,1010.61,761.63,1015.08Z" transform="translate(-2.51 -843.9)"/><path class="cls-1" d="M788.56,1039.71c-1-2.8-2-5.63-2.88-8.5,0,0,0-.11,0-.17a44,44,0,0,0,4.57,5.89c-.26.61-.53,1.21-.8,1.81s-.45,1-.68,1.43C788.68,1040,788.62,1039.86,788.56,1039.71Z" transform="translate(-2.51 -843.9)"/><path class="cls-1" d="M781.15,1068c1.47-5.44,2.64-11.16,4.83-16.35.79-1.88,1.67-3.71,2.56-5.53.18.3.37.61.57.9a16.84,16.84,0,0,0,4.71,4.58,15.34,15.34,0,0,0,11.8,1.91c1.41,1.52,2.8,3,4.19,4.57a1.14,1.14,0,0,0-.07.32c0,1.12,0,2.24,0,3.36-.63,7.57-5.74,14-8.61,21a28.81,28.81,0,0,0-5,1c-3.68,1.23-6,3.82-8.29,6.8-.26.33-.49.67-.74,1-2.29,2.24-4.27,5.29-6.21,7.8a3.73,3.73,0,0,0-1.52-1.44,2.56,2.56,0,0,0-1-.29C776.45,1087.82,778.52,1077.72,781.15,1068Z" transform="translate(-2.51 -843.9)"/><path class="cls-1" d="M772.35,1160c.06,0,0,.06,0,.12S772.33,1160,772.35,1160Z" transform="translate(-2.51 -843.9)"/><path class="cls-1" d="M773.57,1135.91c-.18,4.7-.12,9.41.07,14.1.09,2.26.22,4.51.36,6.76l.21,3a5.5,5.5,0,0,0-1.29-1,2.62,2.62,0,0,0-1.53-.35A40.15,40.15,0,0,1,769,1150a46.7,46.7,0,0,1-1.08-8.13,40.71,40.71,0,0,1,1-8.38,66.25,66.25,0,0,1,5.61-15.66c.69-1.39,1.44-2.76,2.2-4.12A101.66,101.66,0,0,0,773.57,1135.91Z" transform="translate(-2.51 -843.9)"/><path class="cls-1" d="M792.45,1095.57a12.71,12.71,0,0,0-6.3,1.83c.74-1.21,1.51-2.39,2.33-3.54,2.09-2.08,4.82-3.87,7.61-2.16,2.18,1.34,3.36,4,4.21,6.74,0,.07,0,.13.05.2A12.39,12.39,0,0,0,792.45,1095.57Z" transform="translate(-2.51 -843.9)"/><path class="cls-1" d="M844,1112.05a64.7,64.7,0,0,0,4.47-4.75,80.71,80.71,0,0,1,9.69-6.65,17.44,17.44,0,0,1,3.54-1.49C860.18,1106.45,851.11,1110.44,844,1112.05Z" transform="translate(-2.51 -843.9)"/><path class="cls-1" d="M942,875.39c.76-.36,1.53-.68,2.31-1l.26,0,5.86-1.27a91.7,91.7,0,0,1,14.08,3.21c6.18,2,13.49,4.27,16.91,10.25a13.52,13.52,0,0,1,1.24,5.14c.22,1.78.37,3.58.47,5.37a97.91,97.91,0,0,1,0,10c0,.8-.1,1.59-.15,2.38-.88.26-1.77.47-2.65.67a136.77,136.77,0,0,1-16.76,2.21,241,241,0,0,1-34.72.67c-4.62-.24-7.93-4.06-8.79-8.43s.47-8.78,2.4-12.54C926.35,884.26,934.3,879,942,875.39Z" transform="translate(-2.51 -843.9)"/><path class="cls-1" d="M995.31,895.8c0-.48,0-1-.1-1.43-1-8.33-6.13-16.39-13-21.17,3.57,1.32,7.39,3.1,10,5.73a15.65,15.65,0,0,1,4.37,11.27A16.11,16.11,0,0,1,995.31,895.8Z" transform="translate(-2.51 -843.9)"/><path class="cls-1" d="M985.23,893c-.33-3.19-.57-6.27-2.5-8.93a19.43,19.43,0,0,0-7.21-6.11,85,85,0,0,0-18.36-6.17c1-.16,2.08-.3,3.13-.41a35.33,35.33,0,0,1,15.53,1.32,24.2,24.2,0,0,1,10.28,7.39c5.1,6,8.89,15.08,5.57,22.77a10.87,10.87,0,0,1-6.21,5.65A95.68,95.68,0,0,0,985.23,893Z" transform="translate(-2.51 -843.9)"/><path class="cls-1" d="M990.33,921.42a6.74,6.74,0,0,1-1.45-6.26,18.48,18.48,0,0,1,2.56-6.26,41,41,0,0,0,2.43-3.44,43.77,43.77,0,0,0,1.64-4.07,53.66,53.66,0,0,0,2.81-6.46,18.6,18.6,0,0,0-.32-11,36.28,36.28,0,0,1,2.7,10.62C1001.69,904.5,999,915.53,990.33,921.42Z" transform="translate(-2.51 -843.9)"/><path class="cls-1" d="M933.58,869.42c-3.65,0-7.28.18-10.92.3-2.94.1-5.77,0-7.89-2.06,3.09-7.86,11.29-10.91,19.09-12.27,10.35-1.81,21.11-2.09,31.21,1.18,12.43,4,24.39,11.89,30.86,23.13-2.14-3.1-5.22-5.17-8.67-6.91-12.13-6.1-26.19-6.47-39-2.48A118.86,118.86,0,0,0,933.58,869.42Z" transform="translate(-2.51 -843.9)"/><path class="cls-1" d="M981.67,968.71c-7.54,4.2-12.76,11.68-19.52,16.94a27.37,27.37,0,0,1-10.59,5.45c-4,.9-9.33.51-12.38-2.49-6.41-6.32-8.92-15.06-10-23.77-.54-4.34-.79-8.71-1.1-13.07-.28-4-.17-8.45-1.8-12.14-3-6.78-11.49-10-13.23-17.4-1-4.38,1.66-8.8,2.84-12.88a14.35,14.35,0,0,0,.65-6,59,59,0,0,0-1.86-6.77c-1.26-4.56-2.29-9.88.74-14a15.35,15.35,0,0,1,3.22-2.79c1.13-.87,2.24-1.77,3.44-2.54a11.55,11.55,0,0,1,7.5-1.57,42.33,42.33,0,0,0,6.15.23c-1.53.9-3,1.88-4.45,2.92-3.84,2.78-7.41,5.86-9.9,9.93a25.66,25.66,0,0,0-4.06,13.29A14.15,14.15,0,0,0,923,913.51c2.07,1.52,4.32,1.82,6.82,2,3.25.17,6.5.3,9.75.33,6.62.07,13.25-.19,19.86-.7a185,185,0,0,0,19.22-2.19c1.28-.24,2.7-.51,4.13-.87-.42,5.18-1.09,10.35-1.74,15.51-.87,6.87-1.7,13.75-1.92,20.67a21.71,21.71,0,0,0,.9,8.45,44.58,44.58,0,0,0,3.63,7c.68,1.15,1.38,2.33,2,3.54A15.48,15.48,0,0,0,981.67,968.71Z" transform="translate(-2.51 -843.9)"/><path class="cls-1" d="M995,981.48c-1.76,2.58-3.68,5.06-5.45,7.64-1.44,2.07-2.83,4.17-4.2,6.28-.1-.61-.26-1.22-.4-1.82a6.41,6.41,0,0,1-.34-2.81,15.82,15.82,0,0,1,.8-2.28c2.08-5.35,5.06-10.5,4.34-16.46a14.49,14.49,0,0,0-.6-2.72,8.28,8.28,0,0,1,5.92,4.25A7.11,7.11,0,0,1,995,981.48Z" transform="translate(-2.51 -843.9)"/><path class="cls-1" d="M1064.68,940.55c.46,4.78.68,9.59,1.41,14.34A49.65,49.65,0,0,1,1067,962c0,1,.28,2.88-1,3.13a12,12,0,0,1-1.9.07,17,17,0,0,0-2.14.34c-.68.13-1,.28-1.34-.37a6,6,0,0,1-.5-2.14c-.42-4.09.38-8.32,1.13-12.32.86-4.65,1.8-9.28,2.71-13.92.13-.66.25-1.31.37-2C1064.35,936.71,1064.49,938.63,1064.68,940.55Z" transform="translate(-2.51 -843.9)"/><path class="cls-1" d="M1089.65,930c-1.7-4-4.28-7.39-6.9-10.82a33.7,33.7,0,0,1-3.72-5.66,23.9,23.9,0,0,1-1.77-6.16c-.83-4.26-2-8.58.06-12.71a21.15,21.15,0,0,1,3.73-4.71c1.31-1.43,2.43-3,3.77-4.42,2.75-2.9,6-5.39,8.48-8.52a37.06,37.06,0,0,0,5.88-10.48,17,17,0,0,0,.59-9.86,15.12,15.12,0,0,0-2.12-5,110.87,110.87,0,0,1,11.36-3,87.82,87.82,0,0,1,13.8-1.74c3.78-.16,7.37-.33,10.12,2.65,2.52,2.71,3.48,6.54,4.88,9.87,1.79,4.24,3.79,8.39,5.66,12.6s3.47,8.66,5,13.08,3,8.67,4.33,13.06a100.56,100.56,0,0,1,3.19,13.6,90.11,90.11,0,0,1,.72,14.22q0,7.15,0,14.29c0,4.7,0,9.39-1.37,13.93-.77,2.6-1.46,5.24-2.48,7.76s-2.35,5-4.73,6.2a6.31,6.31,0,0,1-2.78.62,26,26,0,0,0-2.66-1.28,7.4,7.4,0,0,0-2.66-.48c-2.32-1.73-3.8-4.39-5.12-6.9-.71-1.33-1.37-2.68-2.08-4s-1.68-2.78-2.35-4.27a16.17,16.17,0,0,1-1.55-5.82,12.51,12.51,0,0,1,.11-2.93,21.33,21.33,0,0,0,.59-3.07c1.15-1.21,2.22-2.48,3.23-3.76,2.57-3.28,5.1-6.63,7.59-10a35,35,0,0,0,5.79-10.62,46.8,46.8,0,0,0,2.23-13.88c0-2.37,0-4.69.19-7.05a21.5,21.5,0,0,0-.25-4.94c-1.09-6.55-6.05-11.41-12.78-11.79-3.92-.22-7,2.68-9.7,5.08-1.71,1.51-3.09,3.32-4.66,5a26.19,26.19,0,0,1-5.08,4.06,35.94,35.94,0,0,1-12,4.8,38.78,38.78,0,0,1-12.3.57,7,7,0,0,1-4.89-2.31c-1.06-1.28-2-2.74-3.59-3.37-2.47-1-4.43.48-5.22,2.82a15.32,15.32,0,0,0-.39,6.9,34.56,34.56,0,0,0,3.9,11.65c.52.91,1.08,1.81,1.66,2.68a20.87,20.87,0,0,1,1.87,2.88,17.58,17.58,0,0,1,.65,3,9.53,9.53,0,0,0,1.23,2.72c1,1.64,2.31,3.1,3.25,4.8a11.13,11.13,0,0,1,1.24,4.87,8.92,8.92,0,0,1-.73-1.18C1090.37,932,1090.06,931,1089.65,930Z" transform="translate(-2.51 -843.9)"/><path class="cls-1" d="M1093.55,930.69a14.88,14.88,0,0,0-2.48-4.79c-1-1.48-2.4-3-2.85-4.81a28.94,28.94,0,0,0-.62-2.94,13.51,13.51,0,0,0-1.68-2.8,35.36,35.36,0,0,1-5.24-11.9,16.74,16.74,0,0,1-.45-7c.14-.71.34-1.89,1-2.34.93-.62,2.07.46,2.63,1.11,1.13,1.3,2,2.75,3.58,3.54a14.29,14.29,0,0,0,5.39,1.28,44.1,44.1,0,0,0,12-.75,38.2,38.2,0,0,0,11.4-4.3,35,35,0,0,0,5.11-3.58,46.43,46.43,0,0,0,4.37-4.61,37.45,37.45,0,0,1,4.56-4.16,8.3,8.3,0,0,1,5-2.18,10.87,10.87,0,0,1,8.14,3.78,13.7,13.7,0,0,1,2.83,8.39c.07,2-.24,4-.25,6,0,2.37.12,4.74-.13,7.11a38.24,38.24,0,0,1-3.29,12.6,57.88,57.88,0,0,1-6.86,10.09c-2.6,3.32-4.94,6.83-7.88,9.87a29.87,29.87,0,0,1-5,4.28c-1.8,1.16-3.77,2-5.61,3.11-1.67,1-3.25,2.41-5.17,2.87s-4-.28-5.7-1.06c-3.62-1.69-6.39-4.56-9.08-7.43-1.06-1.13-2.2-2.18-3.3-3.27A19.56,19.56,0,0,0,1093.55,930.69Z" transform="translate(-2.51 -843.9)"/><path class="cls-1" d="M1084.07,959.05c1.32-1.66,2.65-3.29,4-4.89a16.7,16.7,0,0,0,3-4.31,36.69,36.69,0,0,0,1.74-5.93c.32-1.31.6-2.63.81-4a74.9,74.9,0,0,0,7.74,7.38c2.93,2.22,7,4.38,10.82,3.75,2-.34,3.65-1.54,5.31-2.61,1.82-1.19,3.81-2.08,5.69-3.18l.4-.25c-1.18,6.44,4,14.64,7.27,19.46,1,1.49,2.06,3,2.94,4.6a4.37,4.37,0,0,0-1.6,2.89c-.32,2.86,1.31,5.7,1.62,8.52a39.83,39.83,0,0,1,0,9.45,11.69,11.69,0,0,1-2.55,6.46,26.62,26.62,0,0,1-6.64,5.4l0,0c-.49.17-1,.33-1.5.46a104.92,104.92,0,0,1-12.89,2.67c-.8-.31-1.6-.68-2.41-1.09-2.84-1.46-5.74-2.76-8.67-4s-6-2.45-9-3.64a13.42,13.42,0,0,1-5.8-4.13,22,22,0,0,1-2-3.06c-.63-2.73-1.21-5.46-1.9-8.17-.52-2.06-1-4.13-1.37-6.21,0-.27,0-.54,0-.8.12-2.22.88-4.33,1.22-6.53a7.84,7.84,0,0,0-.15-4.06A31,31,0,0,0,1084.07,959.05Z" transform="translate(-2.51 -843.9)"/><path class="cls-1" d="M1090.38,1002.44a16,16,0,0,1-5.78-6.54c.15.13.29.27.45.39,2.09,1.59,4.58,2.4,7,3.36,3.1,1.23,6.18,2.5,9.23,3.86,1.33.59,2.64,1.27,4,1.93l-.6,0C1099.8,1005.63,1094.57,1005,1090.38,1002.44Z" transform="translate(-2.51 -843.9)"/><path class="cls-1" d="M1136.61,987.32q-.08.52-.18,1c.08-1.13.12-2.25.12-3.35a31,31,0,0,0-1.21-9,8.69,8.69,0,0,1-.7-3.81,2,2,0,0,1,.28-.71,30.58,30.58,0,0,1,1.45,7.54A33.58,33.58,0,0,1,1136.61,987.32Z" transform="translate(-2.51 -843.9)"/><path class="cls-1" d="M1128.82,956.58c-1.85-3.47-3.92-8.69-2.32-12.51a17,17,0,0,0,0,2.37,18.94,18.94,0,0,0,1.55,6,53.57,53.57,0,0,0,2.52,4.73c.75,1.36,1.43,2.76,2.15,4.13a27,27,0,0,0,4.19,6.26c-.29.09-.57.18-.86.29l-.11.05C1133.84,964,1130.87,960.46,1128.82,956.58Z" transform="translate(-2.51 -843.9)"/><path class="cls-1" d="M1179.14,918a10,10,0,0,1-1.53-4.35c-.43-2.45.09-5-.16-7.42s-.67-4.58-.76-6.93a102.08,102.08,0,0,1,0-14.1c.41-4.14,1.4-8.62,3.85-12.07s6.86-5.57,10.86-7c4.37-1.55,8.9-2.83,13.4-4a47.21,47.21,0,0,1,7.65-1.39c2.42-.2,4.87-.14,7.3-.19a67,67,0,0,1,14.63.87,25.9,25.9,0,0,1,11.21,5.43,21.49,21.49,0,0,1,4.49,4.69,13.21,13.21,0,0,1,1.86,6.33c.5,4.59,1.41,9,.31,13.52-.88,3.61-2,7.62-4.47,10.51a5.27,5.27,0,0,1-4.39,2.23c-.28-.2-.56-.4-.83-.61a33,33,0,0,0-6.72-4.25,61,61,0,0,0-7.77-2.81l-1.71-.78a88,88,0,0,0-13.82-4.36c-4.76-1.17-9.57-2.11-14.31-3.32-3.91-1-8.32-2.61-10.37-6.38-1-1.74-.39-3.72-1.69-5.33A1.17,1.17,0,0,0,1185,876c-3.24,1.3-4.56,5.48-4.78,8.68-.3,4.18,3,7.45,6.48,9.31a20.25,20.25,0,0,0,2.78,1.23q-.6.57-1.14,1.17c-3.3,3.66-4.82,8.11-5.52,12.93-.42,2.93-.82,5.91-1.12,8.91C1180.85,918.73,1179.89,918.94,1179.14,918Z" transform="translate(-2.51 -843.9)"/><path class="cls-1" d="M1184.84,879c.15.78.1,1.73.29,2.38a8.27,8.27,0,0,0,1.3,2.52,14.81,14.81,0,0,0,5,4.27,26.6,26.6,0,0,0,4.45,1.81,13.56,13.56,0,0,0-4.53,3.32,18.88,18.88,0,0,1-3.16-1.29,11.57,11.57,0,0,1-5-4.7c-.77-1.5-.42-3.35,0-4.91A8.36,8.36,0,0,1,1184.84,879Z" transform="translate(-2.51 -843.9)"/><path class="cls-1" d="M1196.43,893.64c1.41-.47,3.34-1,3.89-2.54,1.69.38,3.39.71,5,1.09,3.48.78,7,1.59,10.4,2.53-4-.1-7.91.08-11.86,0a56.33,56.33,0,0,1-8.74-.6C1195.57,894,1196,893.79,1196.43,893.64Z" transform="translate(-2.51 -843.9)"/><path class="cls-1" d="M1188.26,900.69a49.26,49.26,0,0,1-.25,5.56c-.54,3.42-1.34,6.78-3.47,9.43.15-1.37.32-2.75.48-4.11A27.19,27.19,0,0,1,1188.26,900.69Z" transform="translate(-2.51 -843.9)"/><path class="cls-1" d="M1185.82,940.82c-2.34-6.92-2.31-14.16-1.67-21.34a13.34,13.34,0,0,0,1.09-.9c3.3-3.09,4.46-7.35,5.14-11.68.42-2.61,0-5.31.48-7.89a7.24,7.24,0,0,1,1.21-2.8l.18-.15a46.4,46.4,0,0,0,9.58,1.12c5.7.18,11.41-.26,17.1.14a43.48,43.48,0,0,1,8,1.36,64.62,64.62,0,0,1,8.15,4.73,18.19,18.19,0,0,0,7.54,3.19,20.47,20.47,0,0,1,5.33,4.88c1.67,2.47,1.73,5,1.7,7.92a79.54,79.54,0,0,1-.62,9c-.75,6-2.41,11.76-3.51,17.69a48.91,48.91,0,0,0-.69,5.76,29.6,29.6,0,0,0-.53-4.6,1.24,1.24,0,0,0-2.25-.3c-2.6,4-3.71,8.82-6.26,12.88a16.87,16.87,0,0,1-4.64,4.77c-3.08,1.06-5.94,2.63-9.2,3.16a42,42,0,0,1-12.3.47,17.81,17.81,0,0,1-9.1-4.54,68.27,68.27,0,0,1-8.08-10.57C1190.08,949.18,1187.3,945.19,1185.82,940.82Z" transform="translate(-2.51 -843.9)"/><path class="cls-1" d="M1240.47,960.19a7.93,7.93,0,0,1-4,2.79c2.76-3.39,4-7.6,5.87-11.51C1242.57,954.53,1242.18,957.72,1240.47,960.19Z" transform="translate(-2.51 -843.9)"/><path class="cls-1" d="M1185.37,962.13a7.54,7.54,0,0,1-.08-4.58c.55-1.29,2-1.28,3.15-.86,2.63,1,4.69,3.4,6.58,5.35a42.71,42.71,0,0,0,4,3.67,21,21,0,0,0,5.15,4.38,17.34,17.34,0,0,0,6.88,2,36,36,0,0,0,13.35-1.69,29,29,0,0,0,7.9-3.66c1-.3,2.06-.56,3.09-.85,3.21-.93,6.24-2.4,7.76-5.55a16,16,0,0,0,1.48-5.11c-.06,2.71,0,5.42,0,8.13,0,1.38.09,2.78,0,4.15,0,.31-.06.62-.1.93a1.13,1.13,0,0,0-.61,1c-.08,2.2-3,4.1-4.54,5.45-2.32,2.1-4.78,4-7.3,5.89-2,1.5-4.1,3-6.17,4.46-1.6,1.12-3.92,2.9-6,2.58-2.26-.35-4-3.13-5.77-4.42-2.31-1.7-5-2.8-7.45-4.24a26.7,26.7,0,0,1-5.81-4.94,12.57,12.57,0,0,0-5.55-3.83,5.25,5.25,0,0,0-4.76.67l-.09-.46a12.57,12.57,0,0,0-2-4.4C1187.46,964.87,1185.94,963.8,1185.37,962.13Z" transform="translate(-2.51 -843.9)"/><path class="cls-1" d="M1274.72,994.13c-3.35-2.94-6.8-5.9-10.83-7.88a17.5,17.5,0,0,0-5.9-1.57,20.49,20.49,0,0,0-5.85-.1,15,15,0,0,0-9.1,5.47,23.61,23.61,0,0,0-4.33,9.28c-.91,3.72-.84,7.45-1.25,11.23-.52,4.94-1.85,9.74-2.76,14.61a37.22,37.22,0,0,0-.49,6.75,45.13,45.13,0,0,1-.72,7.78c-.9,5-1.94,10.12-3.32,15-.69,2.44-1.59,4.81-2.06,7.31a56.85,56.85,0,0,0-.73,7,96.17,96.17,0,0,1-1.38,14.28c-1,4.71-3,9-4.81,13.48-.72,1.81-1.47,3.6-2.24,5.39a10.85,10.85,0,0,1-1-3.88,52.45,52.45,0,0,0-1.25-6.45A137.45,137.45,0,0,0,1212,1076a78.18,78.18,0,0,1-2.66-7.43c-.75-2.7-1.19-5.51-1.79-8.25-1.21-5.58-2.15-11.17-3.07-16.81-.44-2.68-1-5.32-1.65-8a52,52,0,0,0-2.33-8,50.19,50.19,0,0,1-2.73-7.37,45.26,45.26,0,0,0-2.54-7.26,68.14,68.14,0,0,1-3-7.93,18.47,18.47,0,0,1-.82-4.16c-.09-1.47,0-2.94-.07-4.41-.22-2.75-1-5.43-1.25-8.18-.15-1.88.18-3.93-.48-5.74a6.47,6.47,0,0,0-.33-.7,16.23,16.23,0,0,1,1.33-4.28c.55-1.32.84-2.71,1.34-4,.4-1.09,1.84-.85,2.77-.6a8.29,8.29,0,0,1,3.3,2,66.85,66.85,0,0,0,5.06,4.9,62.65,62.65,0,0,0,7.28,4.22,17.11,17.11,0,0,1,3.26,2.2c1,.88,1.9,1.84,3,2.65a6,6,0,0,0,5.89,1.17,21.49,21.49,0,0,0,5.78-3.32c2.2-1.61,4.44-3.18,6.61-4.82,2.62-2,5.1-4.1,7.55-6.3.47-.42.95-.85,1.42-1.3a12.72,12.72,0,0,0,.66,4.48c.59,1.65,1.71,3.5,3.59,3.79,1.6.25,3.15-.68,4.44-1.53s2.65-2.21,4.18-2.35c2.37-.21,5,1.13,7,2.17a44.48,44.48,0,0,1,6.37,4c2.05,1.52,4.51,2.64,6.37,4.38s2.64,4.11,3.31,6.38c.37,1.28.66,2.57.91,3.88C1278.82,997.54,1276.66,995.84,1274.72,994.13Z" transform="translate(-2.51 -843.9)"/><path class="cls-1" d="M1289.33,1055.74c-.24,3.68-.59,7.35-1,11a167.24,167.24,0,0,0,.5-18.18c-.26-6.19-1-12.35-1.65-18.5-.66-5.89-1.87-11.71-2.64-17.59.13.31.25.63.38,1,1.71,4,3.44,8.13,4.13,12.49a99.14,99.14,0,0,1,.76,15C1289.85,1045.88,1289.66,1050.82,1289.33,1055.74Z" transform="translate(-2.51 -843.9)"/></svg>