<svg id="Layer_1" data-name="Layer 1" xmlns="http://www.w3.org/2000/svg" viewBox="0 0 1001.6 250.66"><path d="M537.83,518.71a33.8,33.8,0,0,0-2.3-10.4c-.66-1.67-1.39-3.31-2.07-5s-1.14-3.23-1.84-4.8c0-.12-.12-.22-.18-.34a42.28,42.28,0,0,0-.77-5.09c-.8-3.52-2.09-6.79-5.23-8.81-3.29-2.12-6.36-4.61-10-6.2a11.27,11.27,0,0,0-5.14-1.25,6.7,6.7,0,0,0-3.21,1.5c-.73.5-2.16,1.82-3.13,1.52-.66-.21-1.07-1.28-1.25-1.86a8.84,8.84,0,0,1-.33-2.85c0-2.11.68-4.11.66-6.23s0-4.5,0-6.76a46.09,46.09,0,0,1,.34-6.64c.31-2.22.9-4.37,1.4-6.55a81.78,81.78,0,0,0,2-13.46,28.12,28.12,0,0,0-.05-6.42,10,10,0,0,0-2.58-4.91,13.88,13.88,0,0,0-1.85-1.66c2.59-1,4.21-3.94,5.14-6.38,1.24-3.29,2.24-6.76,1.88-10.3-.2-2-.47-4-.69-6a11.34,11.34,0,0,0-1.44-4.87,21.26,21.26,0,0,0-7.89-7,25.13,25.13,0,0,0-10.07-2.64c-2.11-.17-4.24-.18-6.36-.15s-4.36,0-6.52.15a59.32,59.32,0,0,0-12.12,2.7,41.86,41.86,0,0,0-10.12,3.91,14.24,14.24,0,0,0-6.29,7.81,33.67,33.67,0,0,0-1.55,11c0,2,.08,4,.16,6s.45,4,.62,6-.2,4,.15,5.93a10.5,10.5,0,0,0,1.21,3.68,3,3,0,0,0,3.67,1.55A42.1,42.1,0,0,0,453.36,449c1.09,3.64,3.21,6.81,5.14,10.05.29.5.61,1,.92,1.45a5.52,5.52,0,0,0-3.2-.92c-2.44.17-3.28,2.3-3.24,4.46a6.8,6.8,0,0,0,1,3.83c.82,1.2,1.95,2.08,2.63,3.39a6.4,6.4,0,0,1,.51,5.06,13.29,13.29,0,0,0-.79,2.3,7.45,7.45,0,0,0-.08.95,7,7,0,0,0-4.91.18c-2.66,1.13-4.05,3.85-5.19,6.34-.79,1.73-1.43,3.54-2.87,4.85a25.35,25.35,0,0,1-5.09,3.36,14.35,14.35,0,0,0-4,2.95,10.35,10.35,0,0,0-1.94,4.23c-.46,1.79-.71,3.63-1.16,5.42-.52,2-1.09,4-1.5,6-.22,1.07-.41,2.13-.57,3.21,0-2,0-4.1,0-6.15,0-4.07.23-8.29,2.25-11.94a52.44,52.44,0,0,1,3.41-5.54,12.71,12.71,0,0,1,1.9-2.29c.68-.55,1.48-.81,2.13-1.37a1,1,0,0,0,1.69-.61c0-1.23-.1-2.45,0-3.67.07-1,.37-2,.39-3.08a5.61,5.61,0,0,0-.45-2.13c-.36-.94-.62-1.86-.91-2.83-.58-2-2.18-2.82-4.16-3.07-1.08-.13-2.15-.07-3.23-.11a16.14,16.14,0,0,1-3.65-.57c-.44-.12-.87-.27-1.31-.41,3.33-1.62,4.81-5.91,5.82-9.26a39.63,39.63,0,0,0,1.83-8.62c.27-3.71.11-7.46.11-11.18s.15-7.62,0-11.41A59.53,59.53,0,0,0,433.1,421c-.86-3.58-2-7.1-3.14-10.59s-2.34-7.06-3.68-10.52-2.86-6.65-4.36-9.93c-.8-1.75-1.59-3.5-2.31-5.28-.59-1.44-1.08-2.93-1.77-4.33a10,10,0,0,0-5.19-5.22,11.49,11.49,0,0,0-4.33-.52c-1.86,0-3.72.14-5.57.33a82.13,82.13,0,0,0-17.17,3.75c-1.9-1.33-4.15-.75-5.88.63a40.12,40.12,0,0,0-3.32,3.33l0,0a14.11,14.11,0,0,0-2.31,2.26c-.45.54-.86,1.11-1.26,1.7a45.7,45.7,0,0,0-5.46,8.36,59.43,59.43,0,0,0-3.57,9.88,63.44,63.44,0,0,0-2.5,10.68,106.06,106.06,0,0,0-.3,11c0,2.7-.05,5.4-.05,8.1-.13.95-.27,1.89-.41,2.84-1.17,7.59-3.13,15.05-4.2,22.66-.37,2.66-.89,5.9,0,8.51a2.49,2.49,0,0,0,2.26,1.94,10,10,0,0,0,1.79-.29,13.09,13.09,0,0,1,1.66-.09,3,3,0,0,0,2.46-1.08c.77-1.11.68-2.74.61-4-.1-1.83-.47-3.64-.74-5.45s-.46-3.88-.62-5.82c-.31-3.84-.71-7.68-.85-11.53-.1-2.71-.12-5.42-.11-8.13.47-3.48.88-7,1.29-10.47.43-3.79.88-7.58,1.41-11.35a60.21,60.21,0,0,1,2.22-10.9,67.55,67.55,0,0,1,4.36-9.8,44,44,0,0,1,2.23-3.89c1-1.26,2.14-2.47,3.28-3.63,2.18-1.63,5-2.47,7.54-3.31a6.13,6.13,0,0,1,.79,1.21,11.12,11.12,0,0,1,1.19,6.38c-.4,3.31-2.27,6.52-4.12,9.23s-4.37,4.62-6.6,6.86c-1.11,1.11-2,2.35-3.07,3.53a42.46,42.46,0,0,0-3.1,3.61c-1.88,2.73-2,6.24-1.43,9.39.65,3.34,1.17,6.71,3,9.65s4.34,5.55,6.07,8.64c.83,1.47,1.38,3,2.07,4.53a11.26,11.26,0,0,0,2.32,3.2,29.87,29.87,0,0,1-.66,3.76,26.85,26.85,0,0,1-1.39,4.9,14.25,14.25,0,0,1-2.49,3.39c-1.18,1.35-2.24,2.79-3.39,4.15a18.64,18.64,0,0,1-2.34,2.36,1.69,1.69,0,0,0-.34.1,2.57,2.57,0,0,0-1.06.95c-1.28.84-2.62,1.57-3.92,2.37a23.13,23.13,0,0,0-3.86,2.89c-1.28,1.18-2.46,2.46-3.8,3.58s-2.89,2.22-4.24,3.45a31.4,31.4,0,0,0-3.28,3.54,42.68,42.68,0,0,0-5.1,8.28,60.31,60.31,0,0,0-3.34,9,24.11,24.11,0,0,0-1,5c-.13,1.84,0,3.68-.09,5.52-.21,3.89-.64,7.72-.65,11.62s.12,7.6.12,11.4c0,7.27-.17,14.67-2.28,21.69-.44,1.47-.85,3.32-1.93,4.47a2.6,2.6,0,0,1-3.67.19,15.84,15.84,0,0,1-4.83-7.31c-1.06-2.86-1.84-5.82-2.71-8.74-.45-1.54-.88-3.09-1.21-4.66a.84.84,0,0,0,.11-.57,24.07,24.07,0,0,0-.56-3.05c-.13-.49-.32-1-.44-1.46-.17-.66-.19-1.35-.3-2-.36-2.26-.94-4.57-1.47-6.8s-1.22-4.5-1.79-6.75-1-4.66-1.66-6.95a34.14,34.14,0,0,1-1.65-6.49c-.1-1-.06-2-.25-2.94-.22-1.16-.61-2.28-.82-3.46-.76-4.29-1-8.6-2.39-12.76-.4-1.2-.87-2.37-1.18-3.59s-.79-2.31-1.18-3.49c-.5-1.48-.35-3.52-1.91-4.38l-.06,0a9,9,0,0,0-2.75-3.19,7.55,7.55,0,0,0-4.43-1.37c-1.27-2.73-3.16-5.2-4.32-8-1-2.44-.87-4.94-.77-7.53.12-2.77.36-5.54.66-8.3.68-6.42,1.68-12.85,2.18-19.3a15.93,15.93,0,0,0,2-.81c-.34.87-.59,1.81-.85,2.67a7.54,7.54,0,0,0,1.95,7.93,1,1,0,0,0,1.16.15c7-4.3,9.85-12.33,9.78-20.25A32.58,32.58,0,0,0,305.43,395c-5.44-6.13-12.62-10.07-20.3-12.67-8.58-2.91-17.95-2.63-26.75-.88a25.38,25.38,0,0,0-9.8,3.8,15.34,15.34,0,0,0-3.54,3.47c-.71,1-2.41,3.34-1.85,4.59.7,1.55,3,2.42,4.51,2.68a27.86,27.86,0,0,0,5.48.08,133.12,133.12,0,0,1,13.55.08c-1,.22-2.05.43-3.09.61a17.79,17.79,0,0,1-3.32.45c-1.24,0-2.47-.19-3.7-.28a10.78,10.78,0,0,0-5.83.92,38.22,38.22,0,0,0-5.54,4c-3.15,2.46-3.41,7.17-2.75,10.77.39,2.13,1.06,4.19,1.65,6.26a9.75,9.75,0,0,1-.11,6c-1.06,3.43-3,6.92-2.09,10.62.78,3.27,3.2,5.76,5.56,8s5,4.68,5.48,8.18c.54,3.82.63,7.71.93,11.55.59,7.45,1.63,15.31,6.13,21.53A18.71,18.71,0,0,0,264,489a11.73,11.73,0,0,0,5,1.52,16.55,16.55,0,0,0,9.8-2,40.57,40.57,0,0,0,8.63-6.58c2.82-2.66,5.43-5.68,8.6-7.95a13.12,13.12,0,0,1,4.91-2.45,11.58,11.58,0,0,1,.45,1.63,13.16,13.16,0,0,1-.77,6.74c-.69,2-1.62,3.82-2.38,5.76a8.23,8.23,0,0,0-.84,2.84,29.13,29.13,0,0,0,.67,3.57c.14,1.16-.53,2.47-.92,3.57-.17.48-.36.95-.54,1.43a207,207,0,0,0-18.29,39.07,40.08,40.08,0,0,1-6.38,11.49c-2.6-.32-4-2.73-5-4.93a54,54,0,0,1-3.12-9.56c-2.13-8-4.13-16-6.24-24-.52-2-1.05-4-1.59-6a18.93,18.93,0,0,0-1.94-5.38c-1.48-2.32-3.92-4.94-6.62-5.85a15.18,15.18,0,0,0-7.66,0,13.41,13.41,0,0,0-6.72,3.66c-2,2.08-2.55,4.48-3,7.22a99.85,99.85,0,0,0-1.36,11.83c-.47,8.09-.61,16.23-.81,24.32-.09,3.77-.25,7.53,0,11.29a61.68,61.68,0,0,0,2,11.61c1.93,7.66,4.37,15.17,6.34,22.81a84.59,84.59,0,0,1,2.49,11.66,74.33,74.33,0,0,1,.42,9.07,28,28,0,0,1-1.45,9,15.83,15.83,0,0,1-2,3.91c-.69,1-2,2.87-3.25,2.83a4.14,4.14,0,0,1-3.45-2.27,18.42,18.42,0,0,1-1-6,77.81,77.81,0,0,1,.75-11.51c.41-3.85.91-7.92.28-11.76a24.26,24.26,0,0,0-3-8.27c-2.88-5-7.48-9.25-13.05-10.93a16.24,16.24,0,0,0-6.68-.57,10,10,0,0,0-.59-3,12.19,12.19,0,0,0-1-2,11.24,11.24,0,0,0,2.3-5.51,8.82,8.82,0,0,0-2.29-6.18,55.11,55.11,0,0,0-4.5-4.28c-1.39-1.34-3.1-3-3-5.07a.78.78,0,0,0-.07-.35.86.86,0,0,0-.44-.46,54.2,54.2,0,0,0,10.45-18.4c.64,3.16,1.34,6.32,2.17,9.44q.7,2.63,1.55,5.21c-.05,1.77-.11,3.55-.17,5.33-.15,4.75-.31,9.51-.28,14.27,0,3.06-.41,6.94,1.37,9.66a3.21,3.21,0,0,0,2.87,1.65,7.44,7.44,0,0,0,3.76-2.17,9.8,9.8,0,0,0,2.49-7.62,20.92,20.92,0,0,0-2.87-8.92A75.78,75.78,0,0,1,212.47,539c0-1.4.08-2.8.1-4.2.15-9-.17-18.13-2-27,.08-.64.17-1.29.23-1.93a29.79,29.79,0,0,0-1-12.35,17.08,17.08,0,0,0-6.35-8.93,16.14,16.14,0,0,0-7.94-2.63,62.24,62.24,0,0,0-5.31-3.84c-3.07-2-6.41-4.27-9.93-5.4a17.12,17.12,0,0,0-6.79-.67,31.42,31.42,0,0,0-12.87,1.7,32.74,32.74,0,0,0-16.85,14.3,28.2,28.2,0,0,0-3.37,12.15c-.48-.49-1-.78-1.54-1.25-1.23-1.11-2-2.56-3.4-3.52a26.71,26.71,0,0,0-8.36-3.8,11.3,11.3,0,0,0-2.38-2.55,12.78,12.78,0,0,0,1.49-2.11c1.41-2.46,2-5.34,2.83-8a70.48,70.48,0,0,0,2-8.74c.91-6,.54-12.09-2.32-17.56a1,1,0,0,0-.83-.47h-.33a1.69,1.69,0,0,0-1.34,0,.88.88,0,0,0-.64.41s0,0,0,0a8.58,8.58,0,0,0-1.72,2.57A32.88,32.88,0,0,0,125,449c.12-2.07.44-4.25-.21-6.26l.5-.19a15,15,0,0,0,6.93-6.49,18.39,18.39,0,0,0-.45-18.23C123.92,405,108.66,399.69,94.14,401a33.65,33.65,0,0,0-19.09,8.11,28.33,28.33,0,0,0-6.44,8.49c-1.9,3.81-2.42,8.5-2.3,12.71.13,4.56,1.31,9,2.42,13.35,1.24,4.86,2.58,9.7,3.86,14.55a31.7,31.7,0,0,0,3.53,14.35c.57,1.15,1.2,2.26,1.86,3.35a31.84,31.84,0,0,0,3.36,5.63,27.94,27.94,0,0,0,7.56,7,43.64,43.64,0,0,0,14.27,5.8c-2.3,2.73-5,5.83-8.59,6.25-4,.48-8.19-2.56-11.08-5-2.45-2.06-5.41-4.59-8.8-3.11A10.82,10.82,0,0,0,69,498.71c-.62.39-1.21.86-1.68,1.19-2.12,1.45-4.12,3.09-6.53,4-2.19.84-4.46,1.47-6.68,2.23a31.29,31.29,0,0,0-6.22,2.72,16.74,16.74,0,0,0-4.69,4.42,38.72,38.72,0,0,0-5.95,11.3c-2.81,8.33-3.14,17.32-2.77,26,.18,4.27.55,8.53.93,12.79.11,1.22,2,1.23,1.91,0-.92-10.2-1.84-20.66-.09-30.83a43.07,43.07,0,0,1,4.89-14.24,29.14,29.14,0,0,1,4.62-6.29c2-1.94,4.9-3,7.46-3.92a85.3,85.3,0,0,0,8.54-3,38.06,38.06,0,0,0,5.44-3.49,18.26,18.26,0,0,0,0,6.47c.72,3.8,3.38,7.22,5.46,10.4,2.38,3.64,4.86,7.21,7.1,10.94.3.5.59,1,.87,1.49,2.22,7.78,4.47,15.57,6.22,23.47a160.51,160.51,0,0,1,3.92,29.44c.13,3.86-.46,8.13,2.87,10.87a10.31,10.31,0,0,0,10.4,1.65,10.55,10.55,0,0,0,4.3-3.29c.53-.67,1-1.39,1.47-2.08a10,10,0,0,0,1.43-2.12,97.72,97.72,0,0,0,4-13.62c2.09-9.25,3.1-18.72,4-28.15.24-2.45.23-4.91.61-7.36a64.78,64.78,0,0,1,1.52-6.9c.63-2.32,1.33-4.62,2-6.92.35-1.18.7-2.36,1-3.54a11,11,0,0,0,.32-3.19,30,30,0,0,1,1.26-7.07c.58-2.39,1.13-4.79,1.5-7.22a27.4,27.4,0,0,0,.19-9.13,24.37,24.37,0,0,1,3,1.86,26.53,26.53,0,0,1,3.13,1.85,15.49,15.49,0,0,1,2.41,2.64,30.64,30.64,0,0,1,2,3.06c.31.69.6,1.38.87,2.08.21.53.41,1.07.61,1.6.18,1.49.42,3,.7,4.39a84,84,0,0,0,3.75,12.88c.33.89.63,1.82,1,2.73a78.14,78.14,0,0,0-3.5,7.75c-.76,2-1.2,4.22-1.79,6.32-.63,2.27-1.27,4.54-1.86,6.83-1.91,7.47-3.15,15.27-1.33,22.79a7.14,7.14,0,0,0,1.11,3.55.8.8,0,0,0,.58.44.82.82,0,0,0,.35,0c-1,1.61-1.86,3.32-2.8,5a67.62,67.62,0,0,0-5.07,10.71,42.38,42.38,0,0,0-2.48,11.11,36.62,36.62,0,0,0,1.17,10.66,27.83,27.83,0,0,0,2.4,6.71,14.83,14.83,0,0,0,1.69,2.72l.12.14.09.07.09.07,0,0a1,1,0,0,0,.75.14.71.71,0,0,0,.42-.26l0,0a2.85,2.85,0,0,0,.59-.68,4.39,4.39,0,0,0,1.3-2.54,43.42,43.42,0,0,0-.35-5.21c-.2-3.36-.32-6.72-.32-10.08a85.53,85.53,0,0,1,2.05-19.67,53.38,53.38,0,0,1,3.49-10.1c2.14-2.47,5.24-4.55,8.62-3.87,2.69.55,4.59,2.42,6,4.62,1.24,3.89,2.82,7.71,6.16,10.27a15.06,15.06,0,0,0,4.22,2.28,12.31,12.31,0,0,0,4.42.93H173a22.28,22.28,0,0,0,13.25-4c.4-.27.79-.57,1.17-.86,6.86-.93,15.72-3.8,18.1-11.07a10,10,0,0,0,.41-1.8c4.84-.68,9.8,1.31,13.52,4.71a24.51,24.51,0,0,1,5.84,8.09,23.1,23.1,0,0,1,1.8,10.9c-.18,4.33-.89,8.61-1.16,12.93a38.51,38.51,0,0,0,.06,6.17,16,16,0,0,0,1.18,5.53c1,2,4.54,3.84,6.65,2.64a11.83,11.83,0,0,0,3.17-3.29,17.8,17.8,0,0,0,2.23-4.17c2.28-6,1.85-12.91,1.2-19.15a87.59,87.59,0,0,0-2.66-12.47c-1.05-4-2.23-8-3.39-12S232,563.53,231,559.38a56.22,56.22,0,0,1-1.52-13.31c0-8.46.47-16.93.71-25.39a131.42,131.42,0,0,1,.9-13.31c.44-3.35.61-7.47,3-10.14a12,12,0,0,1,7.52-3.66,15,15,0,0,1,4.38.07,9.39,9.39,0,0,1,4.57,2.93,11.31,11.31,0,0,1,2.91,5c.6,2.17,1.18,4.35,1.76,6.53,1.14,4.3,2.24,8.6,3.35,12.9s2.26,8.79,3.43,13.17a64.12,64.12,0,0,0,1.77,6.42c.43,1.13,1,2.26,1.54,3.36,1.1,2.24,2.6,4.54,5.1,5.34a4.59,4.59,0,0,0,1.87.29c.77-.12,1.13-.86,1.57-1.43a45.13,45.13,0,0,0,3.38-5.07c1.92-3.41,3-7.13,4.4-10.78q2.12-5.75,4.58-11.34a195.67,195.67,0,0,1,10.17-19.94.75.75,0,0,0,.78-.49c.41-.94.84-1.91,1.24-2.89,1.73-2.84,3.52-5.65,5.39-8.4,1.17-1.72,2.36-3.43,3.58-5.11a18.64,18.64,0,0,0,2.48-3.86c.7,1.86,1.19,3.8,1.84,5.69,1.39,4,1.72,8.13,2.34,12.27a24.21,24.21,0,0,0,.62,2.93,15.08,15.08,0,0,1,.46,3.27,29.19,29.19,0,0,0,1.44,6.33c.62,2.05,1.07,4.09,1.54,6.17.52,2.26,1.15,4.5,1.75,6.74.67,2.5,1.11,5,1.72,7.56.19.82.26,1.66.41,2.48a1,1,0,0,0,0,.46,10.67,10.67,0,0,1,.61,2.12,13.19,13.19,0,0,0,.25,2.34c.35,1.82.85,3.62,1.37,5.4.88,3,1.67,6,2.76,8.87,1.46,3.88,6.22,12.63,11.38,8.08a8.12,8.12,0,0,0,2-3.41,40.52,40.52,0,0,0,1.5-5.19,63.46,63.46,0,0,0,1.35-10.28c.43-7.31,0-14.62.1-21.94.06-3.71.62-7.38.68-11.07a48.74,48.74,0,0,1,.12-5.27,28.1,28.1,0,0,1,1.23-4.94c1.85-6,4.61-11.92,8.85-16.63,2.29-2.55,5.16-4.36,7.62-6.71,1.22-1.16,2.37-2.42,3.7-3.46a35.07,35.07,0,0,1,3.89-2.48l.56-.33a21.92,21.92,0,0,0,.31,3.62c.14,1,.31,1.94.5,2.91a24.89,24.89,0,0,0,2.71,11.66,20.29,20.29,0,0,0,3.3,7.89,15.53,15.53,0,0,0,9.73,5.66,31.08,31.08,0,0,0,10.05.12,9.1,9.1,0,0,0,6.05.15,30.64,30.64,0,0,0,6.12-2.77h0a14.66,14.66,0,0,0,4-2.09,16.68,16.68,0,0,0,6.17-9.1,20.35,20.35,0,0,0,.31-6.83,38.67,38.67,0,0,0-.94-6.62,15.34,15.34,0,0,0-.64-1.8,5.8,5.8,0,0,1,1.89-.39,8.88,8.88,0,0,0,4.16,1.3,23.33,23.33,0,0,0,5.71,1.94,22.22,22.22,0,0,0,3.9.31,7.31,7.31,0,0,1,3.38.52c1,.52,1,1.65,1.25,2.59a19.28,19.28,0,0,1,.92,2.61,11.76,11.76,0,0,1-.32,3.06,22.88,22.88,0,0,0-.05,2.87.79.79,0,0,0-.79.28,9.67,9.67,0,0,1-2,1.33,8.83,8.83,0,0,0-1.77,1.89,41.67,41.67,0,0,0-3.21,4.79,25.74,25.74,0,0,0-2.39,4.89,24.39,24.39,0,0,0-1,5.29c-.39,4.09-.13,8.27-.14,12.38,0,4.44,0,8.87,0,13.31s.15,8.77.32,13.15q0,4.44.12,8.86c.23,9.06.65,18.12,1.13,27.17.45,8.51,1,17.11,2.33,25.55a11.34,11.34,0,0,0,1.54,4.63,1,1,0,0,0,1.75-.23c.77-3.52-.1-7.08-.85-10.53a113.92,113.92,0,0,1-1.75-11.93c-.44-4.18-.45-8.31-.55-12.5s-.58-8.57-.89-12.85c-.42-5.75-.7-11.51-.9-17.28,0-3.79,0-7.58.14-11.37.29-8.68.92-17.29,3.26-25.69.46-1.65.72-3.33,1.09-5a9.72,9.72,0,0,1,1.9-4.65,15.08,15.08,0,0,1,4.07-2.76,24.2,24.2,0,0,0,4.69-3.18c2.5-2.21,3.14-5.66,4.89-8.39a6.12,6.12,0,0,1,3-2.64c1.11-.39,3.21-.58,4,.46s.39,2.72.46,3.84c.12,2,.6,4,.9,6s0,4.24.45,6.35a38.3,38.3,0,0,0,1.94,5.89,58.25,58.25,0,0,1,2.27,5.64,45.66,45.66,0,0,0,1.74,5.62,36.94,36.94,0,0,1,2.09,5.75c.5,2,1,4.09,1.42,6.15.78,4.1,1.27,8.25,2.13,12.34s1.5,8.29,2.93,12.22c.68,1.86,1.46,3.68,2.1,5.55s1.2,4,1.74,6,1.05,4,1.52,6c.34,1.42.37,2.9.68,4.33a5.93,5.93,0,0,0,2,3.58,1,1,0,0,0,1.5-.19c1.5-3.31,2.76-6.71,4.18-10a36.39,36.39,0,0,0,2.62-9.94c.45-3.63.41-7.29.79-10.92s1.83-7.36,2.67-11a104.93,104.93,0,0,0,2.21-11.11c.2-1.81.17-3.62.19-5.44a28.14,28.14,0,0,1,.8-5.32,77.77,77.77,0,0,0,1.85-10.81,35.82,35.82,0,0,1,1.09-8.11,14.17,14.17,0,0,1,4.05-6.76,9.38,9.38,0,0,1,3.53-1.93,12.19,12.19,0,0,1,4.7-.18,12.41,12.41,0,0,1,4.67,1.28,27.88,27.88,0,0,1,4.42,2.95,75.77,75.77,0,0,1,7.71,6.82,12,12,0,0,1,1.88,2.68c.14,1.51.23,3,.39,4.52.26,2.37.64,4.72,1,7.07.8,4.81,1.41,9.62,1.89,14.46a104.91,104.91,0,0,1,.61,14.61c-.19,4.83-.69,9.65-.92,14.49-.21,4.38-.12,8.76-.15,13.15-.62,5.75-.93,11.51-1,17.31,0,1.88,0,3.77-.05,5.65a1,1,0,0,0,1.91,0c0-4.76.38-9.51.7-14.26.19-2.8.28-5.59.31-8.39,0-.43.09-.86.14-1.29.95-8,2.27-15.85,2.95-23.85A154.65,154.65,0,0,0,537.83,518.71ZM204,570.26a20.25,20.25,0,0,0-5.94,2.86c1.72-2.18,3.44-4.38,5.12-6.59a8.67,8.67,0,0,1,.81,2.36,10.7,10.7,0,0,1,.14,1.34A.5.5,0,0,1,204,570.26Zm-34.74,16.91a13.08,13.08,0,0,1-6.05-4.49,21.34,21.34,0,0,1-2.09-3.7,19.66,19.66,0,0,0,4.74,3.12,35.67,35.67,0,0,0,15.2,3,18.28,18.28,0,0,1-8.21,2.57A14.92,14.92,0,0,1,169.27,587.17ZM153.1,564.42a5.8,5.8,0,0,0-2.62-.4h0a8.68,8.68,0,0,1,4.14-2.14c.51-.13,1-.23,1.58-.32a17.6,17.6,0,0,0-.74,3.77c0,.27,0,.53,0,.8A5.89,5.89,0,0,0,153.1,564.42Zm31.32,18.68c-11.72.81-27-2.84-27.08-16.65a15.81,15.81,0,0,1,1-5.21,12.5,12.5,0,0,0,4-1.16,2.76,2.76,0,0,0,1-1.38c.39-.76.9-1.45,1.27-2.23a13.4,13.4,0,0,0,1.19-4.86,67.35,67.35,0,0,0-.31-8.28c0-.26,0-.52,0-.78q2.1,2.36,4.14,4.75c1.78,2.11,3.65,4.88,6.19,6.11,3,1.47,6.23-.07,9-1.46a37.45,37.45,0,0,0,10-7.31,9.69,9.69,0,0,0,0,2.22.92.92,0,0,0,.11.33c0,3.78.19,7.61,2,11,1.28,2.41,3.51,4.36,5.14,6.61-.9,1.17-1.88,2.29-2.78,3.45-1.33,1.71-2.62,3.45-3.93,5.17-1,1.32-2,2.64-3.13,3.91C189.7,579.32,187.14,581.31,184.42,583.1ZM164,550.35a13.88,13.88,0,0,1-.63,4.24,10.49,10.49,0,0,1-1.09,2.2c-.45.71-.58,1.39-1.33,1.76a9.52,9.52,0,0,1-1.82.62c.85-1.9,1.89-3.74,2.85-5.56a45.2,45.2,0,0,0,2-4.22C164,549.71,164,550,164,550.35Zm36.4,1.59a15.35,15.35,0,0,1,3.8,4.35,6.49,6.49,0,0,1-.6,6.38c-.11.19-.24.37-.36.56-.63-.8-1.3-1.57-2-2.34a16.06,16.06,0,0,1-4-7.71,28.65,28.65,0,0,1-.4-4.63A32.61,32.61,0,0,0,200.39,551.94Zm5.54-30.71a53.91,53.91,0,0,1-10,19.42,39,39,0,0,1-7.78,7.19,34.67,34.67,0,0,1-4.53,2.63c-1.55.75-3.39,1.75-5.16,1.67-2.78-.13-4.55-3-6.23-4.84-3.17-3.54-6.21-7.19-9.43-10.69l-.34-.37a6,6,0,0,0,.88-.42c.82-.49,1-1.57,1.22-2.45a24.69,24.69,0,0,0,.9-6.62c0-4.43-1.37-8.58-1.75-13a42.64,42.64,0,0,1,.22-10.16,25.89,25.89,0,0,1,3.25-9.47c1.68-2.78,4.4-5.84,7.46-7.14a28,28,0,0,1,4.85-1c1.71-.36,3.41-.74,5.12-1.09a48.34,48.34,0,0,1,8.39-1.12c3.32,2.79,5.74,7.11,7.36,11.1s2.45,8.68,3.33,13,1.6,8.49,2.4,12.73ZM173.33,474h.15a29.48,29.48,0,0,1,10.1,2.64,29,29,0,0,1,5,3,19.38,19.38,0,0,1,2.54,2.41c-5.5.39-11,2-16.34,3-1.61.3-3.15,1.6-4.4,2.62a20.85,20.85,0,0,0-3.51,3.64,24.79,24.79,0,0,0-4.2,9,38.57,38.57,0,0,0-1,10c0,1.74.15,3.48.35,5.21.25,2.18.89,4.29,1.22,6.45a30,30,0,0,1,.23,7.39,21.55,21.55,0,0,1-.7,3.56,3,3,0,0,1-.55,1.41,3,3,0,0,1-1.12.46c-2.64-2.84-5.3-5.67-7.95-8.52-.82-.87-1.63-1.75-2.42-2.64a35,35,0,0,0,1.69-5.29,45.19,45.19,0,0,0,.66-5.58c.37-4,.72-8,1.32-11.92,1.17-7.69,3.37-15.48,8.51-21.51A16.61,16.61,0,0,1,173.33,474Zm33.31,39.34c-1.54-8.34-2.77-17.18-7.27-24.53-.35-.57-.71-1.15-1.09-1.72a34.73,34.73,0,0,1,3.33,4,34,34,0,0,1,2.85,4.88c.86,1.81,1.45,3.74,2.34,5.54a27.2,27.2,0,0,1,1.82,6.37c-.12.84-.26,1.67-.41,2.49-.35,1.91-.68,3.82-1.06,5.71Zm-56.5,12.49c2.89,3.14,5.82,6.24,8.73,9.36a10.09,10.09,0,0,1-8.66-3.16,10.7,10.7,0,0,1-2-3.14c.55-1.12,1.09-2.25,1.6-3.39Zm63.21,20.95c1.58,3.67,4,7.06,4.94,11,.66,2.82.78,6.25-1.21,8.58-.81.94-2.8,2.68-3.86,1.36a6.62,6.62,0,0,1-1.1-3.68c-.33-6.61-.08-13.23.17-19.85C212.63,545.06,213,545.93,213.35,546.8Zm-3.43-31a137.56,137.56,0,0,1,.76,17.1c-1-4-1.87-8-2.65-12.1q.5-1.75.87-3.51t.72-3.6C209.72,514.4,209.84,515.1,209.92,515.8ZM203.44,487a17.31,17.31,0,0,1,5.4,10.78,28.22,28.22,0,0,1,.27,4.59,28.16,28.16,0,0,0-1.08-2.67c-.86-1.86-1.45-3.81-2.4-5.64a36.29,36.29,0,0,0-6.59-8.93c-.27-.27-.55-.51-.83-.77A12.65,12.65,0,0,1,203.44,487ZM144,491.89a28,28,0,0,1,6.92-9.77,29.79,29.79,0,0,1,15.16-7.75,19.93,19.93,0,0,0-2,1.23,17.22,17.22,0,0,0-4,4c-4.71,6.29-6.72,14.05-7.8,21.71-.54,3.84-.89,7.71-1.25,11.57a36.28,36.28,0,0,1-.91,6.23c-.26,1-.58,1.87-.92,2.79-.32-.4-.65-.81-1-1.22a18.78,18.78,0,0,1-3-4.56c-.64-1.73-1.23-3.51-1.83-5.29a2.7,2.7,0,0,0,1,.36h.33a.93.93,0,0,0,.48-.2l0,0a.57.57,0,0,0,.11-.11.85.85,0,0,0,.26-.61.69.69,0,0,0-.12-.43,6.23,6.23,0,0,0-1.41-2.52c-.64-1.44-1.14-2.95-1.85-4.36A29.41,29.41,0,0,1,144,491.89Zm-56.11-6.67a52.39,52.39,0,0,1-6.16-7.06c-.83-1.15-1.63-2.35-2.37-3.59-.17-.36-.34-.72-.49-1.08-1.71-3.95-2.5-8.19-3.57-12.34-.27-1.07-.56-2.13-.84-3.19a21.69,21.69,0,0,1,1-5.76c.11-.35.22-.69.35-1a2.22,2.22,0,0,0,.12-.38h0c.52-.24,1.58.39,2,.63,1.36.82,2.07,2.44,2.91,3.75,3.13,4.89,6.57,9.73,11,13.59,4,3.55,9.18,6.66,14.64,7.09a16.88,16.88,0,0,0,10.68-2.79q-.5,1.9-1,3.81c-.63,2.66-1.5,5.45-1.44,8.19,0,.37,0,.76,0,1.15a12.23,12.23,0,0,0-2.11.35c-2.81.71-5.12,2.8-7.08,4.95a51.77,51.77,0,0,1-10.83-2.38,24.89,24.89,0,0,1-5.37-2.66A15.91,15.91,0,0,1,87.93,485.22Zm34.51,5.8a8,8,0,0,0,.87-.56,9.59,9.59,0,0,1,.78.65C123.54,491.05,123,491,122.44,491ZM119,490c-1.3-.07-1.73-.73-2-1.8a13.1,13.1,0,0,1,4.5,1.18A4.73,4.73,0,0,1,119,490Zm-11,1.78a11.47,11.47,0,0,1,7-3.6A6,6,0,0,0,116.3,491a2.24,2.24,0,0,0,.51.41h0c-1.44.19-2.88.42-4.33.64C111,492,109.46,491.9,108,491.76Zm17.52-35.33c.13-.29.47-1.13.81-1.74.5.79.85,1.44,1.95,1.66,3.15,8.84.18,18.84-2.67,27.45a11.74,11.74,0,0,1-2.45,4.27,14.65,14.65,0,0,0-6.46-1.88,20.93,20.93,0,0,1,.65-5.82c.59-2.72,1.27-5.42,2-8.11l.36-1.31a16.37,16.37,0,0,0,1.59-1.92c2-2.93,2.35-6.48,3.29-9.84A19.13,19.13,0,0,1,125.5,456.43ZM85,405.19a39.49,39.49,0,0,1,21.77-1.77,35.58,35.58,0,0,1,18.94,9.66,24.35,24.35,0,0,1,6,9,16.92,16.92,0,0,1,.27,9.59,14.2,14.2,0,0,1-5.26,7.88,10.91,10.91,0,0,1-2.71,1.4c-1.83-3.24-5.37-6.15-8.85-6.85-2.41-.49-5-.05-7.48-.09a83.87,83.87,0,0,1-8.38-.6l-1.46-.2c-2.89-1.48-5.77-3-8.71-4.3C82.83,426,75.4,425.21,71.25,419a.79.79,0,0,0-.14-.17.85.85,0,0,0-.88-.25C72.93,412.35,78.9,407.62,85,405.19Zm37.08,36.21a16.5,16.5,0,0,1-7.47-.76,84.34,84.34,0,0,1-12-5c2.53.2,5.06.3,7.6.26a23.74,23.74,0,0,1,4.13,0,9.17,9.17,0,0,1,3.7,1.55A14.94,14.94,0,0,1,122.09,441.4ZM72.61,423.3c4.13,3.55,9.64,4.94,14.8,6.91,1.46.56,2.88,1.2,4.3,1.89a108.17,108.17,0,0,1-10.46-2.79c-1.42-.45-2.83-.93-4.24-1.43s-2.72-.81-3.59-2a7.66,7.66,0,0,1-1.1-2.43A1.11,1.11,0,0,0,72.61,423.3Zm-3-3.16a30.25,30.25,0,0,0,1.63,5.8c1,2.1,2.69,2.87,4.78,3.62a113.69,113.69,0,0,0,16.79,4.71c1.54.3,3.08.55,4.63.77,1.05.56,2.1,1.1,3.15,1.63a118.74,118.74,0,0,0,12.62,5.52,18.9,18.9,0,0,0,9.77,1.06,2.34,2.34,0,0,0,.09.24c.7,2.51.08,5.7-.44,8.19-.59,2.81-1.28,5.61-2,8.4-.87,3.31-1.8,6.6-2.69,9.91l-.17.17a14.63,14.63,0,0,1-7.49,3.62c-6,1-12-2-16.51-5.85-4.73-4-8.33-9.09-11.62-14.27a12.19,12.19,0,0,0-2.36-3.27,6.25,6.25,0,0,0-3.71-1.54,2,2,0,0,0-2,1.41,20.83,20.83,0,0,0-.89,2.88L71.59,447C69.26,438.22,66.6,429.13,69.63,420.14Zm3.84,75.18c1.69-1.34,3.62-1.83,5.57-.75s3.3,2.64,5,3.85c3.5,2.44,7.81,5.05,12.23,3.7,3.87-1.19,6.45-4.47,9.1-7.56.27,0,.54,0,.81,0a39.11,39.11,0,0,0,6.45-.61l2.17.11c3.11.13,6.34,0,9.5.27-2.57,1.51-4,4.86-4.26,7.68-.59,5.63-.37,11.42-.49,17.08s-.33,11.32-.93,17c-.58,5.48-1.54,10.94-2.54,16.36-1.86,10.08-4.49,20-9.2,29.22-.51,1-1.1,2-1.63,3a7.45,7.45,0,0,1-1.62,2.43c-1.39,1.08-4.07-.06-5.29-1-3-2.22-4-6.41-4.54-9.89-1.67-10.94-2.1-22-5-32.74a56.66,56.66,0,0,0-5.66-13.54c-2.42-8.52-4.74-17.07-7.48-25.5a15.5,15.5,0,0,0-1.28-3.69,8.43,8.43,0,0,0-2-1.83,4.4,4.4,0,0,0-1.2-.72A8.41,8.41,0,0,1,73.47,495.32Zm-3.7,9.89a16.8,16.8,0,0,1,.65-5l.3-.17a6.06,6.06,0,0,1,1.58,1.25,6.31,6.31,0,0,1,1.3,2.85c.8,2.47,1.59,4.93,2.35,7.41,1.3,4.23,2.54,8.49,3.75,12.75-1.6-2.44-3.23-4.85-4.81-7.29C72.5,513.32,69.86,509.74,69.77,505.21Zm45.46,65.68a108,108,0,0,1-4.1,15.41,9.52,9.52,0,0,1-1.42,3c-.66.83-1.19,1.75-1.84,2.58a8.48,8.48,0,0,1-6.09,3.37,8.23,8.23,0,0,1-6.45-2.39c-1.81-1.91-1.59-4.41-1.63-6.84,0-1.14-.07-2.27-.12-3.41a10.69,10.69,0,0,0,5.59,6.08,7.23,7.23,0,0,0,4.53.5c1.43-.46,2.27-1.85,3-3.09a98.45,98.45,0,0,0,9.45-24.3q.74-3.06,1.38-6.16C116.9,560.73,116.2,565.83,115.23,570.89Zm11-63.87c-.55,2.77-1.27,5.5-1.92,8.25a13.9,13.9,0,0,0-.45,3.39,13.73,13.73,0,0,1-.47,4c-.78,2.72-1.63,5.43-2.41,8.16.6-8.86.46-17.76.86-26.63.14-3.05,1-8.25,4.87-8.71C127.73,499.18,127,503.56,126.26,507Zm20.9,19.12c-.81-2.18-1.56-4.37-2.23-6.6,0,0,0-.08,0-.13a34.74,34.74,0,0,0,3.55,4.57c-.2.47-.41.94-.62,1.41l-.52,1.11Zm-5.75,22c1.14-4.22,2.05-8.66,3.75-12.69.61-1.46,1.29-2.88,2-4.29.14.24.28.47.44.7a13.3,13.3,0,0,0,3.65,3.56,11.89,11.89,0,0,0,9.16,1.47c1.09,1.18,2.18,2.37,3.25,3.55a1,1,0,0,0-.05.25c0,.87,0,1.74,0,2.61-.49,5.88-4.46,10.83-6.68,16.3a23,23,0,0,0-3.88.77c-2.85,1-4.62,3-6.43,5.28l-.58.78a59.86,59.86,0,0,0-4.82,6.06,2.79,2.79,0,0,0-1.18-1.12,2.09,2.09,0,0,0-.76-.23C137.76,563.48,139.37,555.64,141.41,548.11Zm-6.83,71.41s0,0,0,.09S134.57,619.51,134.58,619.52Zm.95-18.72c-.14,3.65-.1,7.3.05,11,.07,1.75.17,3.49.29,5.24,0,.76.1,1.53.16,2.3a4.21,4.21,0,0,0-1-.78,2.15,2.15,0,0,0-1.2-.28,31.47,31.47,0,0,1-1.84-6.48,36.5,36.5,0,0,1-.84-6.31,31.54,31.54,0,0,1,.76-6.5,51.34,51.34,0,0,1,4.34-12.15c.54-1.09,1.12-2.15,1.72-3.2A78.59,78.59,0,0,0,135.53,600.8Zm14.65-31.3a9.78,9.78,0,0,0-4.89,1.41c.57-.93,1.17-1.85,1.81-2.74,1.62-1.62,3.74-3,5.9-1.68,1.7,1,2.61,3.12,3.27,5.23l0,.15A9.63,9.63,0,0,0,150.18,569.5Zm40,12.78a48.49,48.49,0,0,0,3.47-3.69,63.79,63.79,0,0,1,7.52-5.16,13.84,13.84,0,0,1,2.75-1.15C202.75,577.94,195.71,581,190.22,582.28Zm76-183.67c.59-.28,1.19-.53,1.79-.79l.2,0,4.55-1a70.58,70.58,0,0,1,10.93,2.49c4.8,1.51,10.47,3.31,13.13,7.95a10.3,10.3,0,0,1,.95,4c.17,1.38.29,2.77.37,4.16a77.25,77.25,0,0,1,0,7.76c0,.61-.08,1.23-.12,1.84-.68.2-1.37.37-2,.52a105.28,105.28,0,0,1-13,1.72,187.94,187.94,0,0,1-26.95.52c-3.58-.19-6.15-3.15-6.82-6.55s.37-6.81,1.86-9.73C254.11,405.49,260.27,401.4,266.22,398.61Zm41.41,15.83c0-.37,0-.74-.09-1.1a24,24,0,0,0-10.1-16.43,21.5,21.5,0,0,1,7.76,4.44,12.16,12.16,0,0,1,3.39,8.75A12.32,12.32,0,0,1,307.63,414.44Zm-7.83-2.16c-.26-2.48-.44-4.86-1.94-6.93a14.92,14.92,0,0,0-5.6-4.74A65.58,65.58,0,0,0,278,395.82c.8-.12,1.61-.23,2.42-.32a27.64,27.64,0,0,1,12.06,1,18.81,18.81,0,0,1,8,5.74c3.95,4.63,6.9,11.71,4.32,17.68a8.46,8.46,0,0,1-4.82,4.38A74.5,74.5,0,0,0,299.8,412.28Zm4,22.05a5.26,5.26,0,0,1-1.13-4.86,14.45,14.45,0,0,1,2-4.85c.63-.89,1.35-1.73,1.89-2.68s.82-2.12,1.27-3.15a41,41,0,0,0,2.18-5,14.43,14.43,0,0,0-.25-8.58,28.12,28.12,0,0,1,2.1,8.24C312.58,421.2,310.46,429.76,303.76,434.33ZM259.71,394c-2.82,0-5.65.14-8.47.24-2.28.07-4.48,0-6.12-1.6,2.39-6.1,8.76-8.47,14.81-9.52,8-1.41,16.39-1.63,24.22.91,9.65,3.13,18.94,9.22,24,17.95a17.21,17.21,0,0,0-6.73-5.36c-9.42-4.74-20.33-5-30.23-1.93A95.07,95.07,0,0,0,259.71,394ZM297,471c-5.86,3.26-9.91,9.07-15.15,13.15a21.14,21.14,0,0,1-8.22,4.23c-3.12.7-7.24.4-9.61-1.93-5-4.91-6.92-11.69-7.75-18.45-.42-3.37-.61-6.76-.85-10.15-.22-3.07-.14-6.55-1.4-9.42-2.33-5.26-8.92-7.72-10.27-13.5-.79-3.4,1.29-6.83,2.21-10a11.08,11.08,0,0,0,.5-4.64,46,46,0,0,0-1.45-5.26c-1-3.54-1.77-7.67.58-10.87a11.83,11.83,0,0,1,2.5-2.17c.87-.68,1.74-1.37,2.67-2a9,9,0,0,1,5.82-1.22,33.2,33.2,0,0,0,4.77.18c-1.19.7-2.34,1.46-3.45,2.27a27.34,27.34,0,0,0-7.68,7.7,20,20,0,0,0-3.16,10.31,11,11,0,0,0,4.39,8.9,9.23,9.23,0,0,0,5.29,1.52c2.52.13,5,.23,7.57.25,5.14.06,10.28-.15,15.41-.54a143.38,143.38,0,0,0,14.92-1.7c1-.18,2.1-.4,3.21-.68-.33,4-.85,8-1.35,12-.68,5.33-1.33,10.67-1.49,16.05a16.66,16.66,0,0,0,.7,6.55,33.76,33.76,0,0,0,2.81,5.4c.53.89,1.07,1.8,1.54,2.75A12,12,0,0,0,297,471ZM307.36,481c-1.37,2-2.86,3.92-4.24,5.92q-1.67,2.42-3.25,4.88c-.08-.48-.21-.95-.32-1.41a4.93,4.93,0,0,1-.26-2.18,12,12,0,0,1,.62-1.77c1.61-4.16,3.93-8.15,3.37-12.78a12.18,12.18,0,0,0-.46-2.11,6.44,6.44,0,0,1,4.59,3.3A5.55,5.55,0,0,1,307.36,481Zm54.1-31.77c.36,3.71.53,7.44,1.1,11.13a39,39,0,0,1,.67,5.49c0,.8.22,2.23-.81,2.43a10.32,10.32,0,0,1-1.47,0,13.48,13.48,0,0,0-1.67.26c-.52.1-.78.22-1-.28a4.75,4.75,0,0,1-.4-1.66,34.28,34.28,0,0,1,.88-9.57c.67-3.61,1.4-7.2,2.11-10.8.1-.51.19-1,.29-1.53C361.21,446.19,361.32,447.69,361.46,449.18ZM380.84,441a39.1,39.1,0,0,0-5.35-8.4,26.62,26.62,0,0,1-2.89-4.39,18.79,18.79,0,0,1-1.37-4.79c-.64-3.3-1.51-6.65,0-9.86a16.37,16.37,0,0,1,2.89-3.65c1-1.11,1.89-2.34,2.92-3.43,2.14-2.26,4.63-4.18,6.58-6.61a28.78,28.78,0,0,0,4.57-8.14,13.23,13.23,0,0,0,.46-7.65,11.78,11.78,0,0,0-1.65-3.91,86.56,86.56,0,0,1,8.82-2.3,68.93,68.93,0,0,1,10.71-1.35c2.93-.13,5.72-.26,7.86,2.05,1.95,2.11,2.69,5.08,3.78,7.66,1.39,3.3,2.94,6.52,4.39,9.78s2.7,6.72,3.89,10.16,2.34,6.72,3.36,10.13a78.38,78.38,0,0,1,2.47,10.55,70.37,70.37,0,0,1,.56,11c0,3.69,0,7.39,0,11.08a37.14,37.14,0,0,1-1.06,10.82c-.6,2-1.14,4.06-1.93,6s-1.82,3.87-3.67,4.81a4.73,4.73,0,0,1-2.15.48,20.64,20.64,0,0,0-2.07-1,5.91,5.91,0,0,0-2.06-.38,15,15,0,0,1-4-5.35c-.55-1-1.06-2.08-1.62-3.11s-1.3-2.16-1.82-3.31a12.74,12.74,0,0,1-1.2-4.52,10.13,10.13,0,0,1,.08-2.27,16.51,16.51,0,0,0,.46-2.39c.89-.94,1.73-1.92,2.51-2.92,2-2.54,3.95-5.14,5.89-7.74a27,27,0,0,0,4.49-8.24,36.55,36.55,0,0,0,1.74-10.77c0-1.84,0-3.64.14-5.47a16.92,16.92,0,0,0-.19-3.83,10.57,10.57,0,0,0-9.92-9.16c-3-.16-5.41,2.08-7.53,3.94-1.33,1.18-2.4,2.58-3.61,3.86a20.76,20.76,0,0,1-3.95,3.16,28.19,28.19,0,0,1-9.35,3.72,30,30,0,0,1-9.54.44,5.49,5.49,0,0,1-3.8-1.79c-.82-1-1.52-2.13-2.78-2.61-1.92-.75-3.44.37-4.05,2.18a11.67,11.67,0,0,0-.3,5.35,26.79,26.79,0,0,0,3,9c.4.71.84,1.4,1.29,2.08a16.06,16.06,0,0,1,1.45,2.23,14,14,0,0,1,.51,2.31,7.16,7.16,0,0,0,1,2.11c.8,1.28,1.79,2.42,2.52,3.73a8.76,8.76,0,0,1,1,3.78,6.6,6.6,0,0,1-.57-.91C381.4,442.55,381.16,441.76,380.84,441Zm3,.53a11.65,11.65,0,0,0-1.92-3.72,11.8,11.8,0,0,1-2.21-3.73,22.2,22.2,0,0,0-.49-2.29,10.4,10.4,0,0,0-1.3-2.17,27.48,27.48,0,0,1-4.07-9.23,13,13,0,0,1-.35-5.41c.11-.56.27-1.47.79-1.82.72-.48,1.6.35,2,.86.88,1,1.54,2.14,2.78,2.75a11.13,11.13,0,0,0,4.18,1,34.05,34.05,0,0,0,9.29-.58,29.55,29.55,0,0,0,8.85-3.34,28,28,0,0,0,4-2.78,37.05,37.05,0,0,0,3.39-3.58,29.9,29.9,0,0,1,3.53-3.22,6.49,6.49,0,0,1,3.9-1.7,8.42,8.42,0,0,1,6.32,2.94,10.74,10.74,0,0,1,2.2,6.51c.05,1.56-.19,3.11-.2,4.66,0,1.85.09,3.68-.1,5.52a29.52,29.52,0,0,1-2.55,9.78,44.69,44.69,0,0,1-5.33,7.83,90.34,90.34,0,0,1-6.11,7.66,22.64,22.64,0,0,1-3.87,3.32c-1.39.91-2.93,1.57-4.35,2.42s-2.52,1.87-4,2.23a7.27,7.27,0,0,1-4.42-.82c-2.81-1.32-5-3.55-7-5.77-.83-.88-1.71-1.69-2.56-2.54A15,15,0,0,0,383.87,441.53Zm-7.36,22c1-1.29,2.06-2.56,3.14-3.8a13,13,0,0,0,2.3-3.34,29.56,29.56,0,0,0,1.35-4.6c.25-1,.46-2.05.63-3.08a59,59,0,0,0,6,5.73c2.28,1.72,5.45,3.4,8.4,2.91a11.19,11.19,0,0,0,4.12-2c1.42-.92,3-1.61,4.42-2.46a3.28,3.28,0,0,1,.31-.2c-.92,5,3.07,11.36,5.64,15.11.8,1.15,1.6,2.33,2.29,3.56a3.44,3.44,0,0,0-1.25,2.25c-.25,2.22,1,4.42,1.26,6.61a31.61,31.61,0,0,1,0,7.34,9,9,0,0,1-2,5,20.45,20.45,0,0,1-5.15,4.2l0,0c-.38.13-.76.26-1.16.36a81.39,81.39,0,0,1-10,2.07,17.32,17.32,0,0,1-1.88-.85c-2.2-1.12-4.45-2.14-6.73-3.11s-4.64-1.9-7-2.82a10.35,10.35,0,0,1-4.5-3.21,15.78,15.78,0,0,1-1.52-2.38c-.48-2.11-.94-4.23-1.47-6.33-.4-1.6-.74-3.21-1.06-4.83,0-.2,0-.41,0-.61a49.14,49.14,0,0,1,.95-5.07,6.1,6.1,0,0,0-.12-3.15A23.15,23.15,0,0,0,376.51,463.54Zm4.9,33.67a12.35,12.35,0,0,1-4.48-5.07,3.44,3.44,0,0,0,.35.3,22,22,0,0,0,5.42,2.61c2.41.95,4.8,1.94,7.16,3,1,.47,2.05,1,3.07,1.5l-.47,0C388.72,499.69,384.67,499.19,381.41,497.21Zm35.88-11.74a7.39,7.39,0,0,1-.14.82c.06-.87.1-1.75.09-2.6a24.38,24.38,0,0,0-.93-7,6.92,6.92,0,0,1-.55-3,1.59,1.59,0,0,1,.22-.55A23.65,23.65,0,0,1,417.1,479,25.82,25.82,0,0,1,417.29,485.47Zm-6.05-23.85c-1.43-2.7-3-6.75-1.79-9.71a14.13,14.13,0,0,0,0,1.84,14.81,14.81,0,0,0,1.21,4.62,39.11,39.11,0,0,0,2,3.67c.57,1.06,1.1,2.15,1.66,3.21a20.68,20.68,0,0,0,3.26,4.86c-.23.07-.45.14-.67.23l-.09,0C415.14,467.35,412.84,464.63,411.24,461.62Zm39.06-30a7.74,7.74,0,0,1-1.19-3.38c-.33-1.9.07-3.84-.12-5.75s-.52-3.56-.59-5.38a78.32,78.32,0,0,1,0-10.94c.32-3.22,1.08-6.7,3-9.37s5.32-4.33,8.43-5.43c3.39-1.2,6.91-2.2,10.39-3.08a37.38,37.38,0,0,1,5.94-1.08c1.88-.15,3.78-.11,5.67-.14a51.94,51.94,0,0,1,11.35.67,20.07,20.07,0,0,1,8.7,4.21,17,17,0,0,1,3.49,3.64,10.31,10.31,0,0,1,1.44,4.91c.39,3.57,1.1,6.95.24,10.5-.68,2.8-1.57,5.91-3.47,8.16a4.08,4.08,0,0,1-3.4,1.73l-.65-.48a25.55,25.55,0,0,0-5.21-3.29,47.84,47.84,0,0,0-6-2.19q-.66-.32-1.32-.6A68.18,68.18,0,0,0,476.26,411c-3.69-.91-7.43-1.64-11.11-2.58-3-.78-6.45-2-8-5-.74-1.36-.31-2.89-1.31-4.14a.92.92,0,0,0-.93-.25c-2.52,1-3.54,4.26-3.71,6.74-.23,3.24,2.37,5.78,5,7.22a15.44,15.44,0,0,0,2.16,1c-.31.29-.6.6-.88.91a18.25,18.25,0,0,0-4.29,10c-.32,2.27-.64,4.59-.87,6.91C451.63,432.25,450.88,432.41,450.3,431.66Zm4.43-30.29c.11.61.07,1.34.22,1.84a6.52,6.52,0,0,0,1,2,11.46,11.46,0,0,0,3.85,3.31,20.41,20.41,0,0,0,3.46,1.41,10.55,10.55,0,0,0-3.51,2.58,14.62,14.62,0,0,1-2.46-1,9,9,0,0,1-3.91-3.64,5.27,5.27,0,0,1,0-3.81A6.45,6.45,0,0,1,454.73,401.37Zm9,11.4c1.09-.36,2.59-.77,3-2,1.31.29,2.63.55,3.91.84,2.7.61,5.4,1.24,8.08,2-3.07-.08-6.15.06-9.22,0a45.76,45.76,0,0,1-6.77-.46A7,7,0,0,1,463.72,412.77Zm-6.34,5.47a39,39,0,0,1-.19,4.32c-.42,2.65-1,5.26-2.7,7.32.12-1.07.25-2.13.37-3.19A21.11,21.11,0,0,1,457.38,418.24Zm-1.9,31.14c-1.81-5.37-1.79-11-1.29-16.55a9.44,9.44,0,0,0,.84-.7c2.57-2.4,3.47-5.7,4-9.06.32-2,0-4.13.37-6.13a5.46,5.46,0,0,1,.93-2.17l.14-.12a36.77,36.77,0,0,0,7.44.87c4.42.14,8.86-.21,13.28.11a33.52,33.52,0,0,1,6.19,1.05,49.54,49.54,0,0,1,6.33,3.67,14.13,14.13,0,0,0,5.85,2.48,16,16,0,0,1,4.14,3.78c1.29,1.92,1.34,3.9,1.32,6.15a62.8,62.8,0,0,1-.49,7c-.57,4.66-1.86,9.13-2.72,13.73a35.61,35.61,0,0,0-.53,4.47,24,24,0,0,0-.41-3.57,1,1,0,0,0-1.75-.23c-2,3.13-2.88,6.85-4.86,10a13.08,13.08,0,0,1-3.6,3.7c-2.39.82-4.61,2-7.14,2.45a32.91,32.91,0,0,1-9.55.36,13.81,13.81,0,0,1-7.06-3.52,52.66,52.66,0,0,1-6.27-8.2C458.79,455.88,456.63,452.78,455.48,449.38Zm42.42,15a6.13,6.13,0,0,1-3.07,2.17c2.14-2.64,3.12-5.9,4.55-8.93A10.64,10.64,0,0,1,497.9,464.42Zm-42.76,1.51a5.85,5.85,0,0,1-.07-3.56c.43-1,1.57-1,2.44-.67,2.05.75,3.65,2.64,5.12,4.16a31.32,31.32,0,0,0,3.13,2.84,16.27,16.27,0,0,0,4,3.4,13.37,13.37,0,0,0,5.34,1.58,27.84,27.84,0,0,0,10.36-1.31,22.49,22.49,0,0,0,6.13-2.84c.8-.24,1.6-.44,2.4-.66,2.49-.72,4.84-1.87,6-4.31a12.48,12.48,0,0,0,1.15-4c-.05,2.1,0,4.2,0,6.31,0,1.07.07,2.15,0,3.22,0,.24-.05.48-.08.72a.89.89,0,0,0-.48.79c-.05,1.71-2.36,3.18-3.52,4.23a71.08,71.08,0,0,1-5.66,4.57c-1.59,1.17-3.18,2.33-4.79,3.46-1.25.87-3,2.25-4.67,2s-3.12-2.42-4.48-3.43a65.72,65.72,0,0,0-5.78-3.29,20.91,20.91,0,0,1-4.51-3.83,9.72,9.72,0,0,0-4.3-3,4.07,4.07,0,0,0-3.7.52c0-.12,0-.24-.07-.36a9.72,9.72,0,0,0-1.59-3.42C456.75,468.05,455.58,467.22,455.14,465.93Zm69.34,24.84a39.38,39.38,0,0,0-8.4-6.12,13.53,13.53,0,0,0-4.58-1.22,15.71,15.71,0,0,0-4.54-.08,11.64,11.64,0,0,0-7.07,4.25,18.45,18.45,0,0,0-3.36,7.2c-.7,2.89-.65,5.78-1,8.72-.41,3.83-1.44,7.55-2.15,11.33a28.82,28.82,0,0,0-.38,5.24,34.89,34.89,0,0,1-.56,6c-.7,3.89-1.5,7.86-2.58,11.66-.53,1.89-1.23,3.73-1.59,5.67a43.21,43.21,0,0,0-.57,5.45A73.57,73.57,0,0,1,486.67,560c-.75,3.65-2.35,7-3.73,10.46-.56,1.4-1.14,2.79-1.75,4.18a8.29,8.29,0,0,1-.8-3,42.47,42.47,0,0,0-1-5,105.34,105.34,0,0,0-3.63-12.35,60,60,0,0,1-2.06-5.77c-.59-2.1-.93-4.27-1.39-6.4-.95-4.33-1.67-8.67-2.39-13.05-.34-2.08-.77-4.13-1.27-6.18a40.79,40.79,0,0,0-1.82-6.23,38.88,38.88,0,0,1-2.12-5.72,34.74,34.74,0,0,0-2-5.63,54.35,54.35,0,0,1-2.31-6.16,14.91,14.91,0,0,1-.64-3.23c-.06-1.14,0-2.28-.05-3.42-.17-2.14-.79-4.21-1-6.35-.12-1.46.14-3.05-.38-4.45a4,4,0,0,0-.25-.55,12.66,12.66,0,0,1,1-3.32c.43-1,.66-2.1,1-3.13.31-.85,1.43-.65,2.15-.46A6.26,6.26,0,0,1,465,475.8a52.19,52.19,0,0,0,3.93,3.8,47.45,47.45,0,0,0,5.65,3.28,14,14,0,0,1,2.53,1.7c.77.69,1.48,1.43,2.29,2.06a4.65,4.65,0,0,0,4.57.91,16.74,16.74,0,0,0,4.49-2.58c1.71-1.25,3.44-2.46,5.13-3.74,2-1.54,4-3.18,5.86-4.89.36-.32.74-.65,1.1-1a10.14,10.14,0,0,0,.51,3.47c.46,1.28,1.33,2.72,2.79,2.94a5.16,5.16,0,0,0,3.44-1.18c1-.63,2.06-1.72,3.25-1.83,1.83-.16,3.87.88,5.45,1.69a34,34,0,0,1,4.94,3.13c1.59,1.18,3.5,2.05,4.94,3.4a10.75,10.75,0,0,1,2.57,5,30.42,30.42,0,0,1,.71,3C527.67,493.41,526,492.09,524.48,490.77Zm11.34,47.81c-.19,2.86-.46,5.71-.76,8.55a127.8,127.8,0,0,0,.39-14.11c-.2-4.8-.74-9.58-1.28-14.35-.51-4.58-1.45-9.09-2-13.66.1.25.19.49.3.74a42.61,42.61,0,0,1,3.2,9.7,76.76,76.76,0,0,1,.59,11.65C536.22,530.93,536.08,534.76,535.82,538.58Zm499.8-21.08a34.39,34.39,0,0,0-2.3-10.4c-.66-1.67-1.39-3.31-2.07-5s-1.15-3.23-1.84-4.8c-.05-.12-.12-.22-.18-.34a41.85,41.85,0,0,0-.78-5.08c-.79-3.52-2.09-6.79-5.22-8.82-3.29-2.12-6.36-4.6-10-6.19a11.13,11.13,0,0,0-5.14-1.26,6.66,6.66,0,0,0-3.2,1.5c-.73.5-2.16,1.82-3.14,1.52-.66-.21-1.06-1.28-1.24-1.86a9.13,9.13,0,0,1-.34-2.85c0-2.11.68-4.1.67-6.23s0-4.5,0-6.76a47.35,47.35,0,0,1,.33-6.63c.32-2.22.9-4.38,1.4-6.56a82.88,82.88,0,0,0,2-13.46,29.31,29.31,0,0,0,0-6.42A10.05,10.05,0,0,0,1002,423a14.45,14.45,0,0,0-1.84-1.66c2.59-1,4.21-3.94,5.13-6.38,1.25-3.29,2.24-6.76,1.89-10.3-.2-2-.48-4-.7-6a11.11,11.11,0,0,0-1.44-4.87,21.24,21.24,0,0,0-7.88-7,25,25,0,0,0-10.07-2.63c-2.12-.18-4.24-.19-6.36-.16s-4.36,0-6.53.15a58.83,58.83,0,0,0-12.12,2.71,41.51,41.51,0,0,0-10.11,3.9,14.26,14.26,0,0,0-6.3,7.81,33.66,33.66,0,0,0-1.54,11c0,2,.07,4,.15,6s.45,4,.63,6-.2,4,.14,5.93a10.72,10.72,0,0,0,1.22,3.68,3,3,0,0,0,3.67,1.55,42.1,42.1,0,0,0,1.23,15.13c1.08,3.64,3.2,6.82,5.13,10.05.3.5.61,1,.92,1.45a5.47,5.47,0,0,0-3.19-.92c-2.44.17-3.28,2.3-3.24,4.46a6.77,6.77,0,0,0,1,3.83c.82,1.2,2,2.09,2.63,3.39a6.41,6.41,0,0,1,.52,5.06,13.29,13.29,0,0,0-.79,2.3,7.61,7.61,0,0,0-.08.95,7,7,0,0,0-4.92.18c-2.66,1.13-4,3.86-5.18,6.34-.8,1.74-1.43,3.54-2.87,4.85a25.42,25.42,0,0,1-5.1,3.36,14.3,14.3,0,0,0-4,2.95A10.33,10.33,0,0,0,930,500.3c-.47,1.79-.71,3.62-1.17,5.42-.51,2-1.08,4-1.49,6-.22,1.07-.41,2.14-.58,3.21q0-3.07,0-6.14c0-4.08.23-8.3,2.24-11.95a50.92,50.92,0,0,1,3.42-5.54,12.64,12.64,0,0,1,1.9-2.29c.68-.55,1.47-.81,2.13-1.37a1,1,0,0,0,1.68-.61c0-1.22-.09-2.45,0-3.67.06-1,.37-2,.38-3.08a5.8,5.8,0,0,0-.44-2.13c-.36-.94-.63-1.85-.91-2.82-.58-2-2.18-2.83-4.17-3.07-1.07-.14-2.15-.08-3.23-.12a16.05,16.05,0,0,1-3.64-.57c-.44-.12-.88-.26-1.31-.41,3.32-1.62,4.81-5.91,5.81-9.25a39.16,39.16,0,0,0,1.84-8.63c.26-3.71.11-7.46.11-11.18s.15-7.62,0-11.41a60.16,60.16,0,0,0-1.66-10.92c-.86-3.59-2-7.11-3.15-10.6s-2.33-7.06-3.68-10.52-2.85-6.64-4.35-9.93c-.8-1.75-1.59-3.5-2.32-5.28-.59-1.44-1.08-2.93-1.76-4.33a9.94,9.94,0,0,0-5.19-5.21,11.35,11.35,0,0,0-4.33-.53c-1.86,0-3.72.14-5.57.33a82.72,82.72,0,0,0-17.18,3.75c-1.89-1.33-4.14-.75-5.87.63a40.12,40.12,0,0,0-3.32,3.33l0,0a14.11,14.11,0,0,0-2.31,2.26,19.16,19.16,0,0,0-1.26,1.7,46.09,46.09,0,0,0-5.47,8.36,60.3,60.3,0,0,0-3.56,9.88,62.38,62.38,0,0,0-2.5,10.69,105.8,105.8,0,0,0-.31,11c0,2.7,0,5.4-.05,8.1-.13.95-.26,1.89-.41,2.84-1.16,7.59-3.13,15.06-4.19,22.66-.37,2.66-.89,5.9,0,8.52a2.52,2.52,0,0,0,2.26,1.93,9.69,9.69,0,0,0,1.79-.29,13.19,13.19,0,0,1,1.66-.09,3,3,0,0,0,2.46-1.08c.78-1.1.68-2.74.61-4-.1-1.83-.46-3.64-.74-5.45s-.46-3.88-.61-5.82c-.31-3.84-.72-7.68-.86-11.53-.1-2.71-.11-5.42-.1-8.13.47-3.48.88-7,1.28-10.47.44-3.79.88-7.58,1.41-11.35a60.41,60.41,0,0,1,2.23-10.9,66.49,66.49,0,0,1,4.36-9.8,44.32,44.32,0,0,1,2.23-3.89c1-1.26,2.14-2.46,3.28-3.63,2.18-1.63,5-2.47,7.54-3.31a6.61,6.61,0,0,1,.79,1.21,11.2,11.2,0,0,1,1.19,6.38c-.4,3.31-2.27,6.52-4.13,9.24s-4.36,4.62-6.6,6.85c-1.11,1.11-2,2.35-3.06,3.53a42.46,42.46,0,0,0-3.1,3.61c-1.89,2.73-2,6.24-1.43,9.39.64,3.35,1.17,6.71,3,9.65s4.33,5.55,6.07,8.64c.82,1.47,1.38,3,2.06,4.53a11.29,11.29,0,0,0,2.33,3.2,31.82,31.82,0,0,1-.67,3.76,27.41,27.41,0,0,1-1.38,4.9,14.35,14.35,0,0,1-2.5,3.4c-1.17,1.34-2.23,2.78-3.38,4.14a19.41,19.41,0,0,1-2.35,2.36,1.17,1.17,0,0,0-.33.11,2.51,2.51,0,0,0-1.07.94c-1.27.84-2.61,1.58-3.91,2.37a23.21,23.21,0,0,0-3.87,2.89c-1.27,1.18-2.45,2.46-3.79,3.58s-2.9,2.22-4.24,3.45a30.5,30.5,0,0,0-3.28,3.54,41.73,41.73,0,0,0-5.1,8.28,57.91,57.91,0,0,0-3.34,9,23.9,23.9,0,0,0-1,5c-.13,1.84,0,3.68-.08,5.52-.21,3.89-.65,7.72-.66,11.62s.13,7.6.12,11.4c0,7.27-.16,14.67-2.27,21.69-.44,1.47-.85,3.32-1.94,4.47a2.6,2.6,0,0,1-3.67.19,15.92,15.92,0,0,1-4.83-7.31c-1.06-2.86-1.84-5.82-2.7-8.74-.45-1.54-.88-3.09-1.22-4.65a.83.83,0,0,0,.12-.58,22.45,22.45,0,0,0-.57-3.05c-.13-.49-.31-1-.44-1.46-.17-.66-.18-1.35-.29-2-.37-2.26-.94-4.57-1.48-6.8s-1.21-4.49-1.78-6.75-1-4.66-1.67-6.95a35.71,35.71,0,0,1-1.65-6.49,29.12,29.12,0,0,0-.24-2.94c-.22-1.16-.62-2.28-.83-3.46-.75-4.29-1-8.6-2.38-12.76-.41-1.2-.88-2.37-1.18-3.59s-.79-2.31-1.19-3.49c-.49-1.48-.35-3.51-1.9-4.38l-.07,0a8.93,8.93,0,0,0-2.74-3.19,7.58,7.58,0,0,0-4.44-1.37c-1.26-2.73-3.16-5.19-4.31-8-1-2.44-.88-4.94-.77-7.53.12-2.77.36-5.54.65-8.3.69-6.42,1.69-12.85,2.19-19.3a17.27,17.27,0,0,0,2-.81c-.35.87-.59,1.81-.85,2.67a7.51,7.51,0,0,0,2,7.93,1,1,0,0,0,1.16.15c7-4.3,9.84-12.33,9.77-20.24a32.59,32.59,0,0,0-8.42-21.19c-5.44-6.13-12.62-10.07-20.31-12.67-8.57-2.91-17.95-2.62-26.74-.88a25.38,25.38,0,0,0-9.8,3.8,15.43,15.43,0,0,0-3.55,3.48c-.7,1-2.41,3.33-1.84,4.58.7,1.55,3,2.42,4.5,2.68a28,28,0,0,0,5.49.08,133.12,133.12,0,0,1,13.55.08c-1,.22-2.06.43-3.09.61a17.78,17.78,0,0,1-3.33.45c-1.23,0-2.46-.19-3.7-.28a10.84,10.84,0,0,0-5.82.92,37.9,37.9,0,0,0-5.54,3.95c-3.15,2.46-3.41,7.17-2.76,10.77.39,2.13,1.07,4.19,1.66,6.26a9.9,9.9,0,0,1-.11,6c-1.06,3.43-3,6.92-2.09,10.63.77,3.26,3.2,5.75,5.55,8s5,4.68,5.49,8.19c.54,3.81.63,7.7.93,11.54.58,7.46,1.62,15.31,6.13,21.53a18.07,18.07,0,0,0,3.91,4.27,11.69,11.69,0,0,0,5,1.52,16.51,16.51,0,0,0,9.8-2,40.27,40.27,0,0,0,8.62-6.58c2.83-2.66,5.44-5.68,8.6-7.95a13.24,13.24,0,0,1,4.92-2.45,10.17,10.17,0,0,1,.44,1.64,12.92,12.92,0,0,1-.77,6.73c-.69,2-1.62,3.82-2.38,5.76a8.45,8.45,0,0,0-.84,2.84,29.17,29.17,0,0,0,.68,3.57c.14,1.16-.54,2.48-.92,3.57l-.54,1.43A206.14,206.14,0,0,0,776,535a40,40,0,0,1-6.39,11.48c-2.59-.32-4-2.73-5-4.93a55.82,55.82,0,0,1-3.12-9.55c-2.12-8-4.13-16-6.23-24-.52-2-1.06-4-1.6-6a18.74,18.74,0,0,0-1.93-5.37c-1.48-2.33-3.93-4.95-6.62-5.85a15.06,15.06,0,0,0-7.66,0,13.41,13.41,0,0,0-6.72,3.66c-2,2.08-2.55,4.48-3,7.22a100.09,100.09,0,0,0-1.36,11.83c-.47,8.09-.61,16.23-.81,24.33-.09,3.76-.25,7.52,0,11.28a62.73,62.73,0,0,0,2,11.62c1.93,7.65,4.38,15.16,6.35,22.8a83.25,83.25,0,0,1,2.48,11.67,70.29,70.29,0,0,1,.42,9.06,27.77,27.77,0,0,1-1.44,9,15.64,15.64,0,0,1-2,3.9c-.69,1-2,2.87-3.25,2.83a4.14,4.14,0,0,1-3.44-2.26,18.17,18.17,0,0,1-1-6,79.18,79.18,0,0,1,.74-11.51c.41-3.85.92-7.92.29-11.76a24.26,24.26,0,0,0-3-8.27c-2.88-5-7.48-9.25-13.06-10.93a16.23,16.23,0,0,0-6.68-.57,9.45,9.45,0,0,0-.59-3,11.71,11.71,0,0,0-1-2,11.13,11.13,0,0,0,2.3-5.51A8.73,8.73,0,0,0,702.2,552a56.74,56.74,0,0,0-4.49-4.28c-1.39-1.33-3.1-3-3-5.06a.83.83,0,0,0-.08-.36.8.8,0,0,0-.44-.46,54.22,54.22,0,0,0,10.46-18.4c.64,3.17,1.34,6.32,2.17,9.45.47,1.74,1,3.48,1.55,5.2-.06,1.77-.11,3.55-.17,5.33-.16,4.75-.31,9.51-.29,14.28,0,3-.41,6.93,1.38,9.65a3.2,3.2,0,0,0,2.87,1.65,7.48,7.48,0,0,0,3.76-2.17,9.83,9.83,0,0,0,2.48-7.62,21,21,0,0,0-2.86-8.92,75.78,75.78,0,0,1-5.26-12.46c0-1.4.08-2.8.1-4.2.15-9-.18-18.13-2-27,.08-.64.16-1.29.23-1.93a29.62,29.62,0,0,0-1-12.35,17.07,17.07,0,0,0-6.34-8.93,16.19,16.19,0,0,0-7.94-2.62A60.24,60.24,0,0,0,688,477c-3.08-2-6.42-4.27-9.93-5.39a17,17,0,0,0-6.79-.68,31.62,31.62,0,0,0-12.88,1.7,32.8,32.8,0,0,0-16.85,14.31A28.25,28.25,0,0,0,638.18,499c-.47-.49-1-.78-1.54-1.25-1.22-1.11-2-2.56-3.39-3.52a26.77,26.77,0,0,0-8.37-3.8,10.86,10.86,0,0,0-2.38-2.55,12.84,12.84,0,0,0,1.5-2.11,36,36,0,0,0,2.82-8,68.73,68.73,0,0,0,2-8.74c.92-6,.55-12.09-2.32-17.56a1,1,0,0,0-.82-.47h-.33a1.69,1.69,0,0,0-1.34,0,.88.88,0,0,0-.64.41l0,0a8.4,8.4,0,0,0-1.72,2.57,33.68,33.68,0,0,0,1.21-6.27c.11-2.06.44-4.25-.21-6.25l.49-.2a15,15,0,0,0,6.94-6.48,18.41,18.41,0,0,0-.46-18.24c-7.88-12.86-23.14-18.12-37.66-16.84a33.65,33.65,0,0,0-19.09,8.11,28.36,28.36,0,0,0-6.45,8.49c-1.89,3.81-2.41,8.5-2.29,12.71.13,4.56,1.3,9,2.42,13.35,1.23,4.86,2.58,9.7,3.86,14.56a31.63,31.63,0,0,0,3.53,14.35c.56,1.14,1.19,2.25,1.86,3.34a30.67,30.67,0,0,0,3.36,5.63,27.79,27.79,0,0,0,7.56,7,43.64,43.64,0,0,0,14.27,5.8c-2.3,2.73-5,5.83-8.6,6.26-4,.47-8.18-2.57-11.07-5-2.45-2.06-5.41-4.59-8.8-3.11a10.9,10.9,0,0,0-5.76,6.26c-.61.39-1.2.87-1.67,1.19-2.12,1.45-4.12,3.09-6.54,4-2.19.84-4.45,1.48-6.67,2.23a31.29,31.29,0,0,0-6.22,2.72,16.74,16.74,0,0,0-4.69,4.42,38.49,38.49,0,0,0-6,11.3c-2.81,8.33-3.14,17.32-2.77,26,.18,4.27.55,8.54.93,12.79.11,1.22,2,1.23,1.91,0-.92-10.2-1.84-20.66-.09-30.83a43.06,43.06,0,0,1,4.88-14.24,29.18,29.18,0,0,1,4.63-6.29c2-1.94,4.89-3,7.46-3.92a85.12,85.12,0,0,0,8.53-3,37.51,37.51,0,0,0,5.44-3.49,18.25,18.25,0,0,0,0,6.47c.72,3.8,3.38,7.22,5.46,10.4,2.37,3.64,4.86,7.21,7.1,10.95l.87,1.48c2.22,7.79,4.46,15.57,6.22,23.47a160.63,160.63,0,0,1,3.92,29.44c.13,3.86-.46,8.13,2.87,10.87a10.3,10.3,0,0,0,10.4,1.65,10.55,10.55,0,0,0,4.3-3.29c.52-.67,1-1.39,1.47-2.08a9.59,9.59,0,0,0,1.42-2.12A97.63,97.63,0,0,0,614,574.1a236.13,236.13,0,0,0,4-28.15c.25-2.46.24-4.92.62-7.37a62.41,62.41,0,0,1,1.52-6.9c.62-2.32,1.33-4.62,2-6.92.35-1.18.7-2.36,1-3.54a11,11,0,0,0,.32-3.19,30,30,0,0,1,1.25-7.07c.58-2.39,1.14-4.79,1.5-7.22a27.35,27.35,0,0,0,.2-9.12,23.11,23.11,0,0,1,3,1.85,25.62,25.62,0,0,1,3.12,1.85A15.94,15.94,0,0,1,635,501a31.74,31.74,0,0,1,2,3.06c.31.69.61,1.38.88,2.08.21.53.41,1.07.61,1.61.18,1.48.41,3,.69,4.38A84.8,84.8,0,0,0,642.94,525c.32.89.63,1.82,1,2.73a83,83,0,0,0-3.5,7.75c-.75,2-1.19,4.22-1.78,6.32-.63,2.28-1.27,4.54-1.86,6.83-1.92,7.47-3.15,15.28-1.34,22.79a7.35,7.35,0,0,0,1.11,3.55.82.82,0,0,0,.58.44.74.74,0,0,0,.36,0c-1,1.61-1.86,3.32-2.81,5a69.09,69.09,0,0,0-5.07,10.72,43,43,0,0,0-2.48,11.1,36.63,36.63,0,0,0,1.18,10.66,27.83,27.83,0,0,0,2.4,6.71,14.3,14.3,0,0,0,1.69,2.72.81.81,0,0,0,.12.14l.08.07.09.07,0,0a.89.89,0,0,0,.74.14.7.7,0,0,0,.43-.26l0,0a2.76,2.76,0,0,0,.58-.67,4.47,4.47,0,0,0,1.31-2.55,45.6,45.6,0,0,0-.36-5.21c-.19-3.36-.31-6.71-.31-10.07a85.55,85.55,0,0,1,2-19.68,53.41,53.41,0,0,1,3.5-10.1c2.14-2.47,5.24-4.55,8.61-3.86,2.69.54,4.6,2.41,6.05,4.61,1.24,3.89,2.82,7.71,6.15,10.28a15.42,15.42,0,0,0,4.22,2.27,12.36,12.36,0,0,0,4.43.93c.21,0,.42,0,.63,0a22.3,22.3,0,0,0,13.25-4c.4-.27.79-.56,1.17-.86,6.86-.93,15.72-3.79,18.1-11.07a10.93,10.93,0,0,0,.41-1.8c4.84-.68,9.8,1.32,13.52,4.71a24.9,24.9,0,0,1,5.84,8.09,23.35,23.35,0,0,1,1.8,10.9c-.19,4.33-.9,8.61-1.16,12.94a38.39,38.39,0,0,0,0,6.16,16.59,16.59,0,0,0,1.18,5.54c1,2,4.55,3.83,6.66,2.63a11.83,11.83,0,0,0,3.17-3.29,17.4,17.4,0,0,0,2.22-4.17c2.29-6,1.86-12.91,1.21-19.15a86.26,86.26,0,0,0-2.67-12.47c-1-4-2.22-8-3.38-12s-2.34-8.19-3.34-12.33a56.88,56.88,0,0,1-1.51-13.32c0-8.46.46-16.93.7-25.39.13-4.45.34-8.89.91-13.31.44-3.35.61-7.47,3-10.14a12,12,0,0,1,7.53-3.66,14.55,14.55,0,0,1,4.37.08,9.28,9.28,0,0,1,4.57,2.92,11.33,11.33,0,0,1,2.92,5c.6,2.17,1.18,4.35,1.76,6.53,1.14,4.3,2.24,8.6,3.35,12.9s2.26,8.79,3.43,13.17a64.08,64.08,0,0,0,1.76,6.42c.44,1.13,1,2.26,1.55,3.36,1.09,2.24,2.6,4.54,5.09,5.34a4.64,4.64,0,0,0,1.87.29c.77-.12,1.13-.85,1.58-1.43A45,45,0,0,0,775,541.9c1.92-3.41,3.06-7.12,4.41-10.78,1.41-3.82,2.93-7.61,4.57-11.34a197.81,197.81,0,0,1,10.18-19.94.73.73,0,0,0,.77-.49c.41-.94.84-1.91,1.25-2.88q2.59-4.28,5.39-8.41c1.16-1.72,2.36-3.42,3.57-5.11a18,18,0,0,0,2.48-3.86c.71,1.86,1.19,3.8,1.85,5.69,1.39,4,1.71,8.13,2.34,12.27a24.78,24.78,0,0,0,.62,2.94,15.53,15.53,0,0,1,.46,3.26,28.62,28.62,0,0,0,1.44,6.33c.62,2.05,1.07,4.09,1.54,6.17.51,2.27,1.15,4.5,1.75,6.74.67,2.5,1.11,5,1.71,7.57.2.81.26,1.65.41,2.47a.89.89,0,0,0,0,.46,12.31,12.31,0,0,1,.61,2.13,13.16,13.16,0,0,0,.24,2.33c.35,1.82.85,3.62,1.38,5.4.87,3,1.66,6,2.75,8.87,1.47,3.88,6.23,12.63,11.39,8.08a8,8,0,0,0,2-3.41,40.56,40.56,0,0,0,1.51-5.19,64.46,64.46,0,0,0,1.35-10.27c.42-7.32,0-14.63.1-21.95.06-3.7.62-7.38.68-11.07a48.74,48.74,0,0,1,.12-5.27,29,29,0,0,1,1.22-4.94c1.85-6,4.62-11.92,8.86-16.63,2.29-2.55,5.15-4.36,7.62-6.71a50.46,50.46,0,0,1,3.7-3.46,35.61,35.61,0,0,1,3.89-2.48l.56-.33a22,22,0,0,0,.3,3.62c.14,1,.31,2,.5,2.91a24.87,24.87,0,0,0,2.72,11.66,19.93,19.93,0,0,0,3.3,7.89,15.5,15.5,0,0,0,9.73,5.66,31.08,31.08,0,0,0,10,.12,9.1,9.1,0,0,0,6.05.15,31.09,31.09,0,0,0,6.11-2.76l0,0a14.58,14.58,0,0,0,4-2.09,16.68,16.68,0,0,0,6.17-9.1,20.09,20.09,0,0,0,.3-6.83,38.67,38.67,0,0,0-.94-6.62,16,16,0,0,0-.63-1.8,5.8,5.8,0,0,1,1.88-.39,9,9,0,0,0,4.17,1.3,23.11,23.11,0,0,0,5.7,1.94,21.34,21.34,0,0,0,3.91.31,7.33,7.33,0,0,1,3.38.52c1,.52,1,1.65,1.25,2.6a20.21,20.21,0,0,1,.92,2.61,12.65,12.65,0,0,1-.32,3.05,21.13,21.13,0,0,0,0,2.87.83.83,0,0,0-.79.28,9.94,9.94,0,0,1-2,1.33,8.59,8.59,0,0,0-1.77,1.89,40.49,40.49,0,0,0-3.22,4.79,25.54,25.54,0,0,0-2.39,4.9,25,25,0,0,0-1,5.28c-.39,4.09-.13,8.27-.13,12.38,0,4.44,0,8.88,0,13.32s.15,8.76.32,13.14c0,3,0,5.91.12,8.87.22,9,.64,18.11,1.12,27.16.46,8.52,1,17.11,2.34,25.55a11.29,11.29,0,0,0,1.54,4.63,1,1,0,0,0,1.75-.23c.77-3.52-.11-7.08-.85-10.53a111.36,111.36,0,0,1-1.76-11.93c-.43-4.18-.44-8.31-.54-12.5s-.58-8.57-.9-12.85c-.42-5.75-.7-11.51-.9-17.28,0-3.79,0-7.58.14-11.37.3-8.68.93-17.29,3.27-25.69.46-1.64.72-3.33,1.09-5a9.76,9.76,0,0,1,1.9-4.65,14.93,14.93,0,0,1,4.07-2.76,24.82,24.82,0,0,0,4.69-3.18c2.5-2.21,3.14-5.65,4.89-8.39a6,6,0,0,1,3-2.64c1.1-.39,3.21-.58,4,.46s.4,2.73.47,3.84c.12,2,.59,4,.9,6s0,4.24.44,6.35a37.29,37.29,0,0,0,2,5.89c.74,1.88,1.72,3.69,2.27,5.64a45.62,45.62,0,0,0,1.73,5.62,38,38,0,0,1,2.1,5.75c.49,2,1,4.09,1.41,6.15.79,4.11,1.28,8.25,2.14,12.34s1.5,8.3,2.93,12.22c.67,1.86,1.45,3.68,2.09,5.55s1.21,4,1.74,6,1.06,4,1.53,6c.34,1.43.37,2.9.68,4.33a5.92,5.92,0,0,0,2,3.58,1,1,0,0,0,1.5-.19c1.51-3.3,2.76-6.71,4.18-10.05a36.41,36.41,0,0,0,2.63-9.94c.44-3.63.4-7.29.78-10.92s1.84-7.36,2.68-11a102.43,102.43,0,0,0,2.2-11.11c.21-1.81.17-3.61.2-5.43a26.6,26.6,0,0,1,.8-5.33,76.4,76.4,0,0,0,1.84-10.8,36.42,36.42,0,0,1,1.1-8.12,14.23,14.23,0,0,1,4-6.76,9.48,9.48,0,0,1,3.54-1.92,12,12,0,0,1,4.7-.19,12.46,12.46,0,0,1,4.67,1.28,29.07,29.07,0,0,1,4.42,2.95,76.86,76.86,0,0,1,7.71,6.82,12,12,0,0,1,1.88,2.68c.14,1.51.22,3,.39,4.52.26,2.37.64,4.72,1,7.07.79,4.81,1.41,9.62,1.88,14.47a106.33,106.33,0,0,1,.62,14.6c-.2,4.83-.69,9.65-.92,14.49-.21,4.38-.12,8.76-.15,13.15-.62,5.75-.94,11.52-1,17.31,0,1.88,0,3.77,0,5.65a1,1,0,0,0,1.91,0c0-4.76.37-9.51.7-14.26.19-2.8.27-5.59.31-8.38,0-.44.09-.87.14-1.3,1-8,2.27-15.85,3-23.85A154.63,154.63,0,0,0,1035.62,517.5ZM701.8,569.05a20.25,20.25,0,0,0-5.94,2.86c1.72-2.18,3.43-4.37,5.11-6.58a8.18,8.18,0,0,1,.81,2.35,7.93,7.93,0,0,1,.14,1.35ZM667.06,586a13,13,0,0,1-6-4.49,20.11,20.11,0,0,1-2.09-3.7,19.18,19.18,0,0,0,4.74,3.12,35.64,35.64,0,0,0,15.2,3.05,18.32,18.32,0,0,1-8.21,2.57A14.92,14.92,0,0,1,667.06,586Zm-16.18-22.75a5.62,5.62,0,0,0-2.61-.39v0a8.66,8.66,0,0,1,4.15-2.14c.5-.13,1-.23,1.58-.32a17.62,17.62,0,0,0-.75,3.77c0,.27,0,.53,0,.8A5.89,5.89,0,0,0,650.88,563.21Zm31.33,18.69c-11.73.81-27.05-2.85-27.08-16.66a15.81,15.81,0,0,1,1-5.21,12.42,12.42,0,0,0,4-1.16,2.77,2.77,0,0,0,1-1.38c.38-.76.89-1.45,1.26-2.23a13.62,13.62,0,0,0,1.2-4.86,67.35,67.35,0,0,0-.31-8.28c0-.26,0-.52,0-.78,1.39,1.57,2.78,3.15,4.14,4.75,1.78,2.11,3.65,4.88,6.19,6.11,3,1.47,6.23-.07,9-1.46a37.45,37.45,0,0,0,10-7.31,9.69,9.69,0,0,0,0,2.22.91.91,0,0,0,.1.33c0,3.78.19,7.62,2,11,1.27,2.41,3.5,4.36,5.14,6.61-.91,1.17-1.88,2.29-2.78,3.45-1.33,1.71-2.62,3.45-3.94,5.17-1,1.32-2,2.64-3.12,3.91C687.48,578.11,684.92,580.11,682.21,581.9Zm-20.44-32.76a14.18,14.18,0,0,1-.62,4.24,10.52,10.52,0,0,1-1.1,2.2c-.44.72-.57,1.39-1.33,1.76a9.2,9.2,0,0,1-1.81.62c.85-1.9,1.88-3.74,2.84-5.55.73-1.39,1.43-2.79,2-4.23C661.77,548.5,661.78,548.82,661.77,549.14Zm36.4,1.59a15.33,15.33,0,0,1,3.8,4.35c1.08,2.17.59,4.38-.59,6.38-.11.19-.25.37-.37.56-.62-.8-1.29-1.57-2-2.34a15.93,15.93,0,0,1-4-7.71,27.48,27.48,0,0,1-.4-4.63A33.5,33.5,0,0,0,698.17,550.73ZM703.71,520a53.88,53.88,0,0,1-10,19.43,39,39,0,0,1-7.78,7.18,35.79,35.79,0,0,1-4.52,2.64c-1.55.75-3.4,1.74-5.16,1.66-2.78-.13-4.56-3-6.24-4.84-3.17-3.54-6.21-7.19-9.43-10.69l-.34-.37a5.57,5.57,0,0,0,.89-.42c.82-.49,1-1.57,1.22-2.45a25,25,0,0,0,.9-6.62c0-4.43-1.38-8.58-1.75-12.95a43.17,43.17,0,0,1,.21-10.16A26.09,26.09,0,0,1,665,493c1.68-2.78,4.39-5.84,7.45-7.14,1.43-.6,3.33-.64,4.86-1,1.7-.35,3.4-.74,5.11-1.09a47.51,47.51,0,0,1,8.39-1.11c3.33,2.79,5.75,7.1,7.37,11.09s2.45,8.68,3.33,13,1.59,8.49,2.4,12.73Zm-32.6-47.2h.16a29.3,29.3,0,0,1,10.1,2.63,29,29,0,0,1,5,3,20,20,0,0,1,2.54,2.41c-5.5.39-11,2-16.34,3-1.61.3-3.15,1.6-4.41,2.62a21.6,21.6,0,0,0-3.51,3.64,24.77,24.77,0,0,0-4.19,9,38.57,38.57,0,0,0-1,10c0,1.74.16,3.48.36,5.22.24,2.17.89,4.28,1.21,6.44a29,29,0,0,1,.23,7.39,20.84,20.84,0,0,1-.69,3.57,3,3,0,0,1-.55,1.4,2.87,2.87,0,0,1-1.12.46c-2.64-2.84-5.31-5.67-8-8.51-.82-.88-1.63-1.75-2.43-2.64a35.53,35.53,0,0,0,1.7-5.3,43.33,43.33,0,0,0,.65-5.58c.38-4,.72-8,1.33-11.91,1.17-7.7,3.37-15.49,8.51-21.52A16.55,16.55,0,0,1,671.11,472.82Zm33.32,39.33c-1.55-8.34-2.78-17.18-7.27-24.53-.35-.57-.72-1.15-1.09-1.72a33.68,33.68,0,0,1,6.18,8.89c.86,1.81,1.45,3.74,2.33,5.55a27,27,0,0,1,1.83,6.36c-.13.84-.26,1.67-.41,2.49-.36,1.91-.68,3.82-1.06,5.72Zm-56.5,12.49c2.89,3.14,5.82,6.24,8.72,9.36a10.1,10.1,0,0,1-8.66-3.16,11.13,11.13,0,0,1-2-3.14c.55-1.12,1.1-2.25,1.6-3.39Zm63.21,21c1.58,3.67,4,7.06,4.93,11,.66,2.82.79,6.25-1.21,8.58-.81,1-2.79,2.68-3.85,1.37a6.6,6.6,0,0,1-1.1-3.69c-.34-6.61-.08-13.23.17-19.85C710.42,543.85,710.77,544.72,711.14,545.59Zm-3.44-31a135.67,135.67,0,0,1,.77,17.1c-1-4-1.88-8-2.65-12.09.32-1.17.61-2.35.87-3.52s.49-2.39.72-3.6C707.51,513.19,707.62,513.89,707.7,514.59Zm-6.47-28.78a17.3,17.3,0,0,1,5.39,10.78,27.14,27.14,0,0,1,.27,4.59,28,28,0,0,0-1.07-2.67c-.86-1.86-1.46-3.81-2.4-5.64a36.08,36.08,0,0,0-6.6-8.93c-.26-.26-.55-.51-.82-.77A12.77,12.77,0,0,1,701.23,485.81Zm-59.4,4.88a27.71,27.71,0,0,1,6.92-9.77,29.73,29.73,0,0,1,15.16-7.76,20.07,20.07,0,0,0-2,1.23,17.61,17.61,0,0,0-4,4c-4.7,6.29-6.71,14.06-7.79,21.71-.55,3.84-.89,7.71-1.26,11.57a35.57,35.57,0,0,1-.91,6.24c-.26.94-.57,1.86-.91,2.78-.33-.4-.65-.8-1-1.22a19.12,19.12,0,0,1-3-4.56c-.64-1.73-1.22-3.51-1.83-5.29a2.77,2.77,0,0,0,1,.36h.34a.87.87,0,0,0,.48-.19l0,0,.12-.11a.84.84,0,0,0,.14-1,6.13,6.13,0,0,0-1.42-2.52c-.64-1.44-1.13-2.95-1.84-4.36A29.33,29.33,0,0,1,641.83,490.69ZM585.71,484a54.31,54.31,0,0,1-6.15-7.06c-.84-1.16-1.63-2.36-2.37-3.59-.17-.36-.34-.72-.5-1.09-1.71-3.95-2.5-8.19-3.56-12.34-.27-1.06-.56-2.13-.84-3.19a21.3,21.3,0,0,1,1-5.76c.1-.34.21-.69.34-1a2,2,0,0,0,.13-.39h0c.52-.24,1.58.39,2,.64,1.36.82,2.07,2.44,2.9,3.74,3.14,4.9,6.58,9.73,11,13.6,4,3.54,9.18,6.65,14.64,7.08a16.88,16.88,0,0,0,10.68-2.79c-.33,1.27-.66,2.54-1,3.81-.63,2.66-1.5,5.45-1.44,8.19,0,.37,0,.76.05,1.15a12.51,12.51,0,0,0-2.12.35c-2.8.71-5.11,2.8-7.07,5a51.63,51.63,0,0,1-10.83-2.38,24.44,24.44,0,0,1-5.37-2.66A17.4,17.4,0,0,1,585.71,484Zm34.51,5.79a7.28,7.28,0,0,0,.88-.56,9.59,9.59,0,0,1,.78.65C621.33,489.84,620.77,489.82,620.22,489.81Zm-3.44-1c-1.29-.06-1.72-.72-2-1.8a13.1,13.1,0,0,1,4.49,1.18A4.68,4.68,0,0,1,616.78,488.77Zm-11,1.78a11.44,11.44,0,0,1,7-3.6,6,6,0,0,0,1.29,2.86,2.43,2.43,0,0,0,.5.41h-.05c-1.44.19-2.88.42-4.32.64C608.73,490.79,607.25,490.69,605.77,490.55Zm17.52-35.33a17.57,17.57,0,0,1,.81-1.73c.5.78.84,1.44,1.95,1.65,3.15,8.84.18,18.84-2.68,27.45a11.6,11.6,0,0,1-2.45,4.27,14.65,14.65,0,0,0-6.45-1.88,20.6,20.6,0,0,1,.65-5.82c.59-2.72,1.26-5.42,2-8.1l.36-1.32a15.51,15.51,0,0,0,1.6-1.92c2.05-2.93,2.35-6.48,3.28-9.84A19.18,19.18,0,0,1,623.29,455.22ZM582.79,404a39.51,39.51,0,0,1,21.77-1.77,35.46,35.46,0,0,1,18.94,9.67,24.14,24.14,0,0,1,6,9,16.92,16.92,0,0,1,.27,9.59,14.25,14.25,0,0,1-5.26,7.88,10.59,10.59,0,0,1-2.71,1.4c-1.83-3.24-5.37-6.15-8.86-6.85-2.41-.49-5-.05-7.48-.09a81,81,0,0,1-8.38-.6l-1.46-.2c-2.88-1.48-5.77-3-8.7-4.3-6.31-2.88-13.75-3.67-17.89-9.93a1.27,1.27,0,0,0-.14-.17.87.87,0,0,0-.88-.25C570.72,411.14,576.69,406.41,582.79,404Zm37.08,36.21a16.46,16.46,0,0,1-7.46-.76,83.85,83.85,0,0,1-11.95-5c2.52.2,5.06.3,7.59.26a23.86,23.86,0,0,1,4.14,0,9.07,9.07,0,0,1,3.69,1.55A14.66,14.66,0,0,1,619.87,440.19Zm-49.47-18.1c4.12,3.55,9.64,5,14.8,6.91,1.45.56,2.88,1.2,4.29,1.89A107.21,107.21,0,0,1,579,428.1c-1.42-.45-2.84-.92-4.24-1.42s-2.72-.82-3.59-2a7.58,7.58,0,0,1-1.11-2.43A1.17,1.17,0,0,0,570.4,422.09Zm-3-3.16a31.33,31.33,0,0,0,1.64,5.81c1,2.09,2.68,2.86,4.77,3.61a113.82,113.82,0,0,0,16.8,4.71c1.53.3,3.08.56,4.62.78,1,.55,2.11,1.1,3.16,1.62A117.85,117.85,0,0,0,611,441a18.77,18.77,0,0,0,9.76,1.06,2.34,2.34,0,0,1,.09.24c.7,2.51.08,5.7-.44,8.19-.59,2.81-1.27,5.61-2,8.4-.87,3.31-1.8,6.6-2.69,9.91l-.18.17a14.56,14.56,0,0,1-7.48,3.62c-6,1-12-2.05-16.52-5.84-4.72-4-8.32-9.1-11.61-14.28a12.41,12.41,0,0,0-2.36-3.27,6.28,6.28,0,0,0-3.72-1.54,2,2,0,0,0-2,1.41,22.25,22.25,0,0,0-.88,2.88c-.55-2-1.1-4.06-1.63-6.1C567.05,437,564.38,427.92,567.41,418.93Zm3.85,75.19c1.69-1.34,3.62-1.84,5.56-.76s3.3,2.64,5,3.85c3.51,2.44,7.82,5.05,12.24,3.7,3.86-1.19,6.45-4.47,9.1-7.56.27,0,.54,0,.8,0a38.9,38.9,0,0,0,6.45-.61l2.17.11c3.11.13,6.34.05,9.5.27-2.56,1.51-4,4.86-4.25,7.68-.59,5.63-.37,11.43-.5,17.08s-.32,11.32-.92,17-1.55,10.94-2.54,16.36c-1.86,10.09-4.49,20-9.2,29.22-.51,1-1.11,1.95-1.64,2.95a7.42,7.42,0,0,1-1.61,2.43c-1.39,1.08-4.07-.06-5.29-1-3-2.22-4-6.41-4.55-9.89-1.66-10.94-2.1-22-5-32.74A56.29,56.29,0,0,0,581,528.69c-2.42-8.52-4.73-17.07-7.47-25.5a16,16,0,0,0-1.28-3.69,8.84,8.84,0,0,0-2-1.83A4.46,4.46,0,0,0,569,497,8.31,8.31,0,0,1,571.26,494.12Zm-3.7,9.88a16.8,16.8,0,0,1,.65-5l.3-.17a6,6,0,0,1,1.57,1.25,6.36,6.36,0,0,1,1.31,2.86c.8,2.46,1.58,4.92,2.34,7.4,1.31,4.23,2.55,8.49,3.75,12.75-1.59-2.44-3.22-4.85-4.81-7.29C570.29,512.11,567.64,508.53,567.56,504ZM613,569.68a108,108,0,0,1-4.09,15.41,10,10,0,0,1-1.42,3c-.66.83-1.2,1.75-1.84,2.59a8.51,8.51,0,0,1-6.1,3.36,8.24,8.24,0,0,1-6.45-2.39c-1.81-1.91-1.59-4.41-1.63-6.84,0-1.14-.06-2.27-.11-3.41a10.67,10.67,0,0,0,5.58,6.08,7.26,7.26,0,0,0,4.54.5c1.43-.46,2.27-1.85,3-3.09a98.45,98.45,0,0,0,9.45-24.3q.74-3.06,1.38-6.16C614.68,559.52,614,564.63,613,569.68Zm11-63.87c-.55,2.77-1.27,5.51-1.92,8.25a14,14,0,0,0-.45,3.39,14.07,14.07,0,0,1-.47,4c-.78,2.72-1.64,5.43-2.41,8.16.6-8.86.46-17.76.86-26.63.14-3,1-8.25,4.86-8.71C625.52,498,624.73,502.35,624.05,505.81ZM645,524.93c-.81-2.18-1.57-4.37-2.23-6.59a.74.74,0,0,1,0-.14,34,34,0,0,0,3.54,4.57c-.2.47-.4.94-.62,1.41s-.34.74-.52,1.11Zm-5.76,22c1.15-4.22,2-8.66,3.76-12.69.61-1.45,1.29-2.88,2-4.29.14.24.29.47.45.7a13.16,13.16,0,0,0,3.65,3.56,11.88,11.88,0,0,0,9.16,1.47q1.63,1.77,3.25,3.56a1.68,1.68,0,0,0-.06.24c0,.87,0,1.74,0,2.61-.49,5.88-4.45,10.83-6.68,16.3a23.06,23.06,0,0,0-3.87.77c-2.86,1-4.63,3-6.44,5.29-.2.25-.38.51-.57.77a57.19,57.19,0,0,0-4.82,6.06,2.91,2.91,0,0,0-1.18-1.12,2.15,2.15,0,0,0-.76-.23C635.55,562.27,637.16,554.43,639.19,546.9Zm-6.82,71.41s0,0,0,.09S632.35,618.3,632.37,618.31Zm1-18.71c-.14,3.64-.1,7.29,0,10.94.07,1.75.17,3.49.28,5.24.05.77.11,1.53.16,2.3a4,4,0,0,0-1-.78,2.1,2.1,0,0,0-1.19-.28,31.58,31.58,0,0,1-1.85-6.47,36.47,36.47,0,0,1-.83-6.32,30.85,30.85,0,0,1,.75-6.5A51.53,51.53,0,0,1,634,585.58c.54-1.09,1.12-2.15,1.71-3.2A78.58,78.58,0,0,0,633.32,599.6ZM648,568.29a9.69,9.69,0,0,0-4.89,1.42c.57-.94,1.17-1.86,1.81-2.75,1.62-1.62,3.74-3,5.9-1.68,1.7,1,2.61,3.12,3.27,5.23a.83.83,0,0,0,0,.15A9.59,9.59,0,0,0,648,568.29Zm40,12.78a50.3,50.3,0,0,0,3.47-3.68,60,60,0,0,1,7.52-5.16,13.09,13.09,0,0,1,2.75-1.16C700.54,576.73,693.5,579.83,688,581.07ZM764,397.4c.59-.28,1.2-.53,1.8-.78l.2-.05,4.55-1a70.58,70.58,0,0,1,10.93,2.49c4.79,1.52,10.47,3.31,13.12,8a10.44,10.44,0,0,1,1,4c.17,1.38.29,2.77.37,4.16a77.25,77.25,0,0,1,0,7.76c0,.61-.08,1.23-.12,1.85-.68.19-1.37.36-2,.51a105.69,105.69,0,0,1-13,1.72,187.8,187.8,0,0,1-26.94.52c-3.59-.19-6.15-3.15-6.82-6.55s.36-6.81,1.86-9.73C751.89,404.28,758.06,400.19,764,397.4Zm41.41,15.84c0-.37,0-.75-.08-1.11a24,24,0,0,0-10.11-16.43,21.56,21.56,0,0,1,7.77,4.45,12.16,12.16,0,0,1,3.39,8.74A12.43,12.43,0,0,1,805.41,413.24Zm-7.82-2.17c-.26-2.48-.45-4.86-1.94-6.93a15,15,0,0,0-5.6-4.74,65.66,65.66,0,0,0-14.25-4.79c.81-.12,1.62-.23,2.43-.32a27.64,27.64,0,0,1,12.06,1,18.93,18.93,0,0,1,8,5.74c4,4.63,6.89,11.71,4.32,17.68a8.46,8.46,0,0,1-4.82,4.38A74.52,74.52,0,0,0,797.59,411.07Zm3.95,22.05a5.26,5.26,0,0,1-1.12-4.86,14.33,14.33,0,0,1,2-4.85,29.29,29.29,0,0,0,1.88-2.68,28.78,28.78,0,0,0,1.27-3.15,42,42,0,0,0,2.19-5,14.51,14.51,0,0,0-.25-8.58,28.12,28.12,0,0,1,2.1,8.24C810.37,420,808.24,428.55,801.54,433.12Zm-44-40.36c-2.83,0-5.65.14-8.48.24-2.28.08-4.47,0-6.11-1.6,2.39-6.1,8.76-8.47,14.81-9.52,8-1.41,16.39-1.63,24.22.91,9.65,3.14,18.93,9.23,23.95,17.95a17.25,17.25,0,0,0-6.72-5.36c-9.42-4.74-20.33-5-30.23-1.93A95.19,95.19,0,0,0,757.5,392.76Zm37.33,77.06c-5.86,3.26-9.91,9.07-15.16,13.15a21.1,21.1,0,0,1-8.21,4.23c-3.12.7-7.25.4-9.61-1.93-5-4.9-6.92-11.69-7.76-18.45-.41-3.37-.61-6.76-.85-10.14-.22-3.08-.13-6.56-1.4-9.43-2.32-5.25-8.92-7.72-10.26-13.5-.79-3.4,1.29-6.83,2.2-10a11.08,11.08,0,0,0,.5-4.64,44,44,0,0,0-1.44-5.26c-1-3.54-1.78-7.67.58-10.87a11.77,11.77,0,0,1,2.49-2.17c.88-.68,1.74-1.37,2.67-2a9,9,0,0,1,5.82-1.22,33.39,33.39,0,0,0,4.78.18c-1.19.7-2.34,1.46-3.46,2.27a27.5,27.5,0,0,0-7.68,7.71,19.81,19.81,0,0,0-3.15,10.31,11,11,0,0,0,4.38,8.89,9.11,9.11,0,0,0,5.3,1.52c2.52.13,5,.23,7.56.26,5.15.05,10.29-.16,15.42-.55a143.5,143.5,0,0,0,14.91-1.7c1-.18,2.1-.4,3.22-.68-.34,4-.85,8-1.36,12-.67,5.33-1.32,10.67-1.49,16.05a16.85,16.85,0,0,0,.7,6.55,33.82,33.82,0,0,0,2.82,5.4c.53.89,1.07,1.8,1.54,2.75A11.87,11.87,0,0,0,794.83,469.82Zm10.31,9.92c-1.37,2-2.85,3.93-4.23,5.92-1.11,1.61-2.19,3.24-3.26,4.88-.08-.48-.2-1-.31-1.41a4.93,4.93,0,0,1-.26-2.18,10.92,10.92,0,0,1,.62-1.77c1.61-4.16,3.93-8.15,3.37-12.78a12.19,12.19,0,0,0-.47-2.11,6.43,6.43,0,0,1,4.59,3.3A5.51,5.51,0,0,1,805.14,479.74ZM859.25,448c.36,3.71.53,7.44,1.1,11.13a40.54,40.54,0,0,1,.67,5.49c0,.8.21,2.23-.81,2.43a10.41,10.41,0,0,1-1.48.05,11.72,11.72,0,0,0-1.66.27c-.52.1-.78.21-1-.29a5,5,0,0,1-.39-1.66,34.31,34.31,0,0,1,.88-9.57c.67-3.6,1.4-7.2,2.11-10.8.1-.51.19-1,.28-1.53C859,445,859.1,446.48,859.25,448Zm19.38-8.18a39.14,39.14,0,0,0-5.36-8.4,26,26,0,0,1-2.88-4.39,18.85,18.85,0,0,1-1.38-4.78c-.64-3.31-1.51-6.66,0-9.86a16.53,16.53,0,0,1,2.9-3.66c1-1.11,1.89-2.34,2.92-3.43,2.14-2.26,4.62-4.18,6.58-6.61a29,29,0,0,0,4.57-8.14,13.32,13.32,0,0,0,.46-7.65,12,12,0,0,0-1.65-3.91,86.56,86.56,0,0,1,8.82-2.3,68.93,68.93,0,0,1,10.71-1.35c2.93-.13,5.72-.25,7.85,2.05,1.95,2.11,2.7,5.08,3.79,7.66,1.39,3.3,2.94,6.52,4.39,9.78s2.69,6.72,3.89,10.16,2.33,6.72,3.35,10.13a78.2,78.2,0,0,1,2.48,10.56,71.4,71.4,0,0,1,.56,11c0,3.69,0,7.39,0,11.08a36.8,36.8,0,0,1-1.06,10.82c-.6,2-1.13,4.06-1.92,6s-1.82,3.88-3.67,4.81a4.88,4.88,0,0,1-2.16.49,18.6,18.6,0,0,0-2.06-1,5.92,5.92,0,0,0-2.07-.38,15.19,15.19,0,0,1-4-5.35c-.54-1-1.06-2.08-1.61-3.11s-1.3-2.16-1.82-3.31a12.55,12.55,0,0,1-1.21-4.52,10.14,10.14,0,0,1,.09-2.27,16.26,16.26,0,0,0,.46-2.39c.89-.94,1.72-1.92,2.5-2.92,2-2.54,4-5.14,5.9-7.73a27.16,27.16,0,0,0,4.49-8.25,36.21,36.21,0,0,0,1.73-10.77c0-1.84,0-3.64.15-5.47a16.92,16.92,0,0,0-.2-3.83,10.55,10.55,0,0,0-9.92-9.15c-3-.17-5.4,2.07-7.52,3.94-1.33,1.17-2.4,2.57-3.62,3.85a20.09,20.09,0,0,1-3.95,3.16,27.84,27.84,0,0,1-9.34,3.72,30,30,0,0,1-9.54.44,5.43,5.43,0,0,1-3.8-1.79c-.82-1-1.52-2.12-2.78-2.61-1.92-.75-3.44.37-4.06,2.18a11.84,11.84,0,0,0-.3,5.36,26.83,26.83,0,0,0,3,9c.4.71.83,1.4,1.28,2.08a16.13,16.13,0,0,1,1.46,2.23,15,15,0,0,1,.5,2.32,7.59,7.59,0,0,0,1,2.11c.79,1.27,1.79,2.41,2.52,3.72a8.75,8.75,0,0,1,1,3.78,7.72,7.72,0,0,1-.57-.91C879.19,441.34,879,440.55,878.63,439.79Zm3,.53a11.65,11.65,0,0,0-1.92-3.72,11.91,11.91,0,0,1-2.22-3.73,19.65,19.65,0,0,0-.48-2.28,10.22,10.22,0,0,0-1.3-2.18,27.28,27.28,0,0,1-4.07-9.23,13,13,0,0,1-.35-5.41c.11-.56.26-1.47.78-1.82.73-.48,1.61.36,2,.86a9.43,9.43,0,0,0,2.77,2.75,11.19,11.19,0,0,0,4.18,1,34.56,34.56,0,0,0,9.3-.59,29.65,29.65,0,0,0,8.85-3.34,26.59,26.59,0,0,0,4-2.78,35.7,35.7,0,0,0,3.39-3.57,28.5,28.5,0,0,1,3.54-3.23,6.47,6.47,0,0,1,3.9-1.7,8.47,8.47,0,0,1,6.32,2.94,10.74,10.74,0,0,1,2.2,6.51c.05,1.56-.2,3.11-.2,4.67,0,1.84.09,3.67-.1,5.51a29.77,29.77,0,0,1-2.55,9.78,45.14,45.14,0,0,1-5.33,7.84,94,94,0,0,1-6.12,7.65,22.2,22.2,0,0,1-3.86,3.32c-1.4.91-2.93,1.57-4.36,2.42s-2.52,1.87-4,2.23a7.31,7.31,0,0,1-4.43-.82c-2.8-1.32-5-3.55-7-5.77-.82-.88-1.71-1.69-2.56-2.54A15,15,0,0,0,881.66,440.32Zm-7.36,22c1-1.29,2.06-2.56,3.14-3.8a13,13,0,0,0,2.3-3.34,28.47,28.47,0,0,0,1.34-4.6c.25-1,.47-2,.64-3.08a56,56,0,0,0,6,5.73c2.27,1.72,5.44,3.4,8.4,2.91a11.15,11.15,0,0,0,4.11-2c1.42-.92,3-1.61,4.42-2.46.11-.06.21-.14.31-.2-.91,5,3.07,11.36,5.65,15.11.79,1.16,1.6,2.33,2.28,3.57a3.34,3.34,0,0,0-1.24,2.24c-.25,2.22,1,4.42,1.26,6.61a31.07,31.07,0,0,1,0,7.34,9.08,9.08,0,0,1-2,5,20.63,20.63,0,0,1-5.15,4.19l0,0c-.38.13-.77.26-1.17.36a82.93,82.93,0,0,1-10,2.08,18.21,18.21,0,0,1-1.87-.86c-2.2-1.12-4.45-2.14-6.73-3.1s-4.64-1.91-7-2.83a10.38,10.38,0,0,1-4.49-3.21,16.2,16.2,0,0,1-1.52-2.37c-.49-2.12-.94-4.24-1.47-6.34-.41-1.6-.75-3.21-1.07-4.82,0-.21,0-.42,0-.62a49.14,49.14,0,0,1,1-5.07,6.1,6.1,0,0,0-.12-3.15A24.37,24.37,0,0,0,874.3,462.33ZM879.2,496a12.37,12.37,0,0,1-4.49-5.07c.12.1.23.21.35.3a21.93,21.93,0,0,0,5.43,2.61c2.4,1,4.79,1.94,7.16,3,1,.47,2.05,1,3.06,1.5l-.46,0C886.51,498.48,882.45,498,879.2,496Zm35.88-11.73c0,.27-.09.54-.14.81.06-.87.09-1.74.09-2.6a24,24,0,0,0-.94-7,6.91,6.91,0,0,1-.54-3,1.41,1.41,0,0,1,.22-.55,24.12,24.12,0,0,1,1.12,5.85A25.88,25.88,0,0,1,915.08,484.27ZM909,460.41c-1.43-2.69-3-6.74-1.8-9.71a12.56,12.56,0,0,0,0,1.84,14.67,14.67,0,0,0,1.21,4.63c.54,1.28,1.29,2.44,1.95,3.66.58,1.06,1.11,2.15,1.67,3.21a20.75,20.75,0,0,0,3.25,4.86c-.22.07-.44.14-.66.23l-.09,0C912.93,466.14,910.62,463.42,909,460.41Zm39.06-30a7.62,7.62,0,0,1-1.19-3.38c-.34-1.9.07-3.84-.12-5.75s-.52-3.56-.59-5.38a79.88,79.88,0,0,1,0-10.94c.32-3.22,1.09-6.7,3-9.37s5.33-4.33,8.43-5.43c3.39-1.2,6.91-2.19,10.4-3.08a36.27,36.27,0,0,1,5.94-1.07c1.88-.16,3.78-.12,5.67-.15a52,52,0,0,1,11.35.67,20.13,20.13,0,0,1,8.7,4.21,16.69,16.69,0,0,1,3.48,3.64,10.32,10.32,0,0,1,1.45,4.92c.38,3.56,1.09,7,.23,10.49-.67,2.8-1.57,5.91-3.46,8.16a4.09,4.09,0,0,1-3.41,1.73l-.65-.48a25,25,0,0,0-5.21-3.29,47.15,47.15,0,0,0-6-2.19c-.44-.21-.88-.41-1.33-.6a68.06,68.06,0,0,0-10.72-3.38c-3.7-.91-7.43-1.64-11.11-2.58-3-.78-6.46-2-8.05-4.95-.73-1.36-.3-2.89-1.3-4.14a.9.9,0,0,0-.93-.24c-2.52,1-3.54,4.25-3.71,6.73-.23,3.24,2.37,5.78,5,7.23a16.51,16.51,0,0,0,2.15.95c-.3.3-.6.6-.88.91a18.37,18.37,0,0,0-4.28,10c-.33,2.28-.64,4.59-.87,6.92C949.42,431,948.67,431.2,948.09,430.45Zm4.42-30.29c.12.61.08,1.34.23,1.85a6,6,0,0,0,1,1.95,11.27,11.27,0,0,0,3.85,3.31,20.08,20.08,0,0,0,3.46,1.41,10.49,10.49,0,0,0-3.52,2.58,15.36,15.36,0,0,1-2.45-1,8.91,8.91,0,0,1-3.91-3.65,5.27,5.27,0,0,1,0-3.81A6.55,6.55,0,0,1,952.51,400.16Zm9,11.4c1.09-.36,2.59-.77,3-2,1.32.29,2.63.55,3.92.84,2.7.61,5.4,1.24,8.07,2-3.07-.08-6.14.06-9.21,0a45.9,45.9,0,0,1-6.78-.46C960.84,411.82,961.17,411.68,961.51,411.56ZM955.16,417a36.73,36.73,0,0,1-.19,4.32c-.42,2.65-1,5.26-2.69,7.32.12-1.07.24-2.13.37-3.19A21.31,21.31,0,0,1,955.16,417Zm-1.89,31.15c-1.82-5.38-1.79-11-1.3-16.56a9.58,9.58,0,0,0,.85-.7c2.57-2.4,3.46-5.7,4-9.06.33-2,0-4.12.37-6.13a5.63,5.63,0,0,1,.94-2.17l.14-.12a36.07,36.07,0,0,0,7.44.87c4.42.14,8.85-.21,13.27.11a33.64,33.64,0,0,1,6.2,1.06,50.16,50.16,0,0,1,6.33,3.66,14,14,0,0,0,5.85,2.48,15.83,15.83,0,0,1,4.13,3.78c1.3,1.92,1.35,3.9,1.33,6.15a62.47,62.47,0,0,1-.49,7c-.58,4.66-1.87,9.13-2.72,13.73a37.51,37.51,0,0,0-.54,4.48,22.69,22.69,0,0,0-.41-3.58,1,1,0,0,0-1.74-.23c-2,3.13-2.88,6.85-4.86,10a13.21,13.21,0,0,1-3.6,3.7c-2.4.82-4.61,2-7.15,2.45a32.5,32.5,0,0,1-9.54.37,13.93,13.93,0,0,1-7.07-3.53,53.22,53.22,0,0,1-6.26-8.2C956.57,454.67,954.42,451.57,953.27,448.18Zm42.42,15a6.15,6.15,0,0,1-3.08,2.17c2.14-2.63,3.13-5.9,4.56-8.93A10.77,10.77,0,0,1,995.69,463.21Zm-42.77,1.51a5.93,5.93,0,0,1-.06-3.56c.43-1,1.56-1,2.44-.66,2,.74,3.64,2.63,5.11,4.15a32.58,32.58,0,0,0,3.14,2.84,16.34,16.34,0,0,0,4,3.41,13.48,13.48,0,0,0,5.33,1.57,27.87,27.87,0,0,0,10.37-1.31,22.63,22.63,0,0,0,6.13-2.84c.79-.23,1.6-.43,2.39-.66,2.5-.72,4.84-1.87,6-4.3a12.8,12.8,0,0,0,1.15-4c-.05,2.1,0,4.21,0,6.31,0,1.07.07,2.15,0,3.22a5.87,5.87,0,0,1-.08.72.89.89,0,0,0-.47.79c-.06,1.71-2.37,3.18-3.52,4.23a71.23,71.23,0,0,1-5.67,4.57c-1.58,1.17-3.18,2.33-4.79,3.46-1.24.87-3,2.25-4.66,2s-3.12-2.42-4.48-3.43c-1.79-1.31-3.88-2.17-5.78-3.29a20.45,20.45,0,0,1-4.51-3.83,9.75,9.75,0,0,0-4.31-3,4.05,4.05,0,0,0-3.69.52c0-.12,0-.24-.07-.36a9.77,9.77,0,0,0-1.59-3.41C954.54,466.84,953.37,466,952.92,464.72Zm69.35,24.84a39.44,39.44,0,0,0-8.41-6.12,13.7,13.7,0,0,0-4.58-1.22,15.7,15.7,0,0,0-4.54-.08,11.62,11.62,0,0,0-7.06,4.25,18.31,18.31,0,0,0-3.36,7.2c-.7,2.89-.65,5.78-1,8.72-.4,3.83-1.44,7.56-2.14,11.33a28.87,28.87,0,0,0-.38,5.25,34.87,34.87,0,0,1-.56,6c-.7,3.89-1.5,7.86-2.58,11.66-.54,1.89-1.23,3.73-1.59,5.67a43.21,43.21,0,0,0-.57,5.45,76.13,76.13,0,0,1-1.07,11.08c-.76,3.66-2.35,7-3.73,10.46-.57,1.4-1.15,2.8-1.75,4.18a8.51,8.51,0,0,1-.81-3,40.49,40.49,0,0,0-1-5,104,104,0,0,0-3.64-12.35c-.73-1.9-1.51-3.8-2.06-5.77s-.93-4.27-1.39-6.4c-.94-4.33-1.67-8.67-2.38-13-.34-2.08-.77-4.13-1.28-6.18a40.75,40.75,0,0,0-1.81-6.23,38.88,38.88,0,0,1-2.12-5.72,34.77,34.77,0,0,0-2-5.63,52.45,52.45,0,0,1-2.3-6.16,14.22,14.22,0,0,1-.64-3.23c-.07-1.14,0-2.28-.05-3.42-.18-2.14-.79-4.21-1-6.35-.13-1.46.13-3.05-.38-4.45a3,3,0,0,0-.26-.54,12.63,12.63,0,0,1,1-3.33c.42-1,.65-2.1,1-3.13.31-.85,1.43-.65,2.15-.46a6.26,6.26,0,0,1,2.56,1.58,52.19,52.19,0,0,0,3.93,3.8,47.33,47.33,0,0,0,5.64,3.28,13.73,13.73,0,0,1,2.54,1.7c.76.69,1.47,1.43,2.28,2.06a4.65,4.65,0,0,0,4.57.91,16.59,16.59,0,0,0,4.49-2.58c1.71-1.25,3.45-2.46,5.13-3.74,2-1.54,4-3.18,5.86-4.88.37-.33.74-.66,1.1-1a9.88,9.88,0,0,0,.52,3.47c.46,1.28,1.32,2.72,2.78,2.94a5.17,5.17,0,0,0,3.45-1.18c1-.63,2.06-1.72,3.24-1.83,1.84-.16,3.88.88,5.45,1.69a35,35,0,0,1,4.95,3.13c1.58,1.18,3.5,2,4.94,3.4a10.85,10.85,0,0,1,2.57,5c.29,1,.51,2,.7,3C1025.45,492.2,1023.78,490.88,1022.27,489.56Zm11.34,47.81c-.19,2.86-.46,5.71-.76,8.55a127.79,127.79,0,0,0,.38-14.11c-.2-4.8-.74-9.58-1.27-14.35-.52-4.58-1.46-9.09-2-13.66.1.25.19.5.29.74a41.65,41.65,0,0,1,3.2,9.7,75.56,75.56,0,0,1,.6,11.65C1034,529.72,1033.87,533.55,1033.61,537.37Z" transform="translate(-34.31 -373.34)"/></svg>